<?xml version="1.0" standalone="no"?>
<!DOCTYPE svg PUBLIC "-//W3C//DTD SVG 1.1//EN" "http://www.w3.org/Graphics/SVG/1.1/DTD/svg11.dtd" >
<svg xmlns="http://www.w3.org/2000/svg">
<metadata></metadata>
<defs>
<font id="achille_fy_lblack" horiz-adv-x="1290" >
<font-face units-per-em="2048" ascent="1638" descent="-410" />
<missing-glyph horiz-adv-x="532" />
<glyph unicode="&#xfb01;" horiz-adv-x="1484" d="M61 0v221q18 14 40 25.5t42 21.5q23 10 47 21v606h-129v242h129v34q0 119 32 211.5t87.5 154.5t130 94t160.5 32q47 0 81 -4t58.5 -11.5t46 -18.5t43.5 -23v-213h-141q-90 0 -120.5 -38t-30.5 -145v-73h774v-891q16 8 37 16q16 6 38.5 12.5t45.5 6.5q16 0 24 -2v-279 h-622v221q18 14 39.5 25.5t41.5 21.5q23 10 48 21v606h-426v-649q16 8 38 16q18 6 42 12.5t53 6.5q20 0 30 -2v-279h-639zM932 1468q0 94 52 148.5t151 54.5q92 0 149 -54.5t57 -148.5q0 -88 -57 -145t-149 -57q-98 0 -150.5 57t-52.5 145z" />
<glyph unicode="&#xfb02;" horiz-adv-x="1482" d="M61 0v221q18 14 40 25.5t42 21.5q23 10 47 21v606h-129v242h129v34q0 240 117 368t346 128q86 0 167 -19.5t134 -41.5l355 61v-1421q16 8 37 16q16 6 38.5 12.5t45.5 6.5q16 0 24 -2v-279h-620v221q18 14 40.5 25.5t43.5 21.5q23 10 45 21v1052q-45 14 -91 25 q-39 10 -82.5 18.5t-84.5 8.5q-92 0 -130 -37t-38 -146v-73h206v-242h-206v-649q16 8 38 16q18 6 42 12.5t53 6.5q20 0 30 -2v-279h-639z" />
<glyph unicode="&#xfb03;" horiz-adv-x="2256" d="M61 0v221q18 14 40 25.5t42 21.5q23 10 47 21v606h-129v242h129v34q0 240 117 368t346 128q78 0 137.5 -21.5t92.5 -39.5v-213h-178q-92 0 -130 -37t-38 -146v-73h426v34q0 119 31.5 211.5t87 154.5t130 94t160.5 32q47 0 81 -4t58.5 -11.5t46 -18.5t44.5 -23v-213h-142 q-90 0 -120.5 -38t-30.5 -145v-73h774v-891q16 8 37 16q16 6 38.5 12.5t45.5 6.5q16 0 24 -2v-279h-622v221q18 14 39.5 25.5t42.5 21.5q23 10 47 21v606h-426v-649q16 8 39 16q18 6 41.5 12.5t52.5 6.5q20 0 31 -2v-279h-639v221q18 14 39.5 25.5t41.5 21.5q23 10 48 21 v606h-426v-649q16 8 38 16q18 6 42 12.5t53 6.5q20 0 30 -2v-279h-639zM1704 1468q0 94 52 148.5t151 54.5q92 0 149.5 -54.5t57.5 -148.5q0 -88 -57.5 -145t-149.5 -57q-98 0 -150.5 57t-52.5 145z" />
<glyph unicode="&#xfb04;" horiz-adv-x="2254" d="M61 0v221q18 14 40 25.5t42 21.5q23 10 47 21v606h-129v242h129v34q0 240 117 368t346 128q78 0 137.5 -21.5t92.5 -39.5v-213h-178q-92 0 -130 -37t-38 -146v-73h426v34q0 240 116.5 368t345.5 128q86 0 167 -19.5t134 -41.5l355 61v-1421q16 8 37 16q16 6 38.5 12.5 t45.5 6.5q16 0 24 -2v-279h-620v221q18 14 40.5 25.5t43.5 21.5q23 10 45 21v1052q-45 14 -90 25q-39 10 -83 18.5t-85 8.5q-92 0 -130 -37t-38 -146v-73h207v-242h-207v-649q16 8 39 16q18 6 41.5 12.5t52.5 6.5q20 0 31 -2v-279h-639v221q18 14 39.5 25.5t41.5 21.5 q23 10 48 21v606h-426v-649q16 8 38 16q18 6 42 12.5t53 6.5q20 0 30 -2v-279h-639z" />
<glyph horiz-adv-x="0" />
<glyph horiz-adv-x="0" />
<glyph unicode="&#xd;" horiz-adv-x="532" />
<glyph unicode=" "  horiz-adv-x="532" />
<glyph unicode="&#x09;" horiz-adv-x="532" />
<glyph unicode="&#xa0;" horiz-adv-x="532" />
<glyph unicode="!" horiz-adv-x="675" d="M125 1280q0 125 56.5 184.5t154.5 59.5q96 0 153.5 -59.5t57.5 -184.5q0 -39 -9.5 -104.5t-22.5 -144.5t-30.5 -164t-34 -161.5t-29.5 -138t-20 -94.5h-129q-8 33 -21 94.5t-29.5 138t-34 161.5t-31 164t-22.5 144.5t-9 104.5zM150 160q0 78 54 130t130 52q80 0 134 -52 t54 -130q0 -39 -14 -73t-40 -59.5t-60.5 -40t-73.5 -14.5q-76 0 -130 54.5t-54 132.5z" />
<glyph unicode="&#x22;" horiz-adv-x="1150" d="M164 1642h332l-86 -702h-160zM666 1642h332l-86 -702h-160z" />
<glyph unicode="#" d="M59 365l35 227h236l22 121h-241l39 227h243l68 363h241l-67 -363h166l65 363h238l-66 -363h222l-29 -227h-230l-28 -121h239l-34 -227h-246l-66 -365h-241l65 365h-162l-65 -365h-242l68 365h-230zM573 592h160l25 121h-164z" />
<glyph unicode="$" d="M90 354q0 66 21.5 125.5t44.5 104.5h241v-265q31 -23 97.5 -48t164.5 -25q90 0 146.5 26.5t56.5 94.5q0 51 -54 93t-136 85t-178.5 90t-178.5 109.5t-136 144.5t-54 194q0 88 31.5 163t90 132.5t142.5 94t189 47.5v112h159v-112q117 -10 200 -46t137 -87.5t79 -113 t25 -122.5t-17.5 -114.5t-32.5 -92.5h-245v254q-29 29 -84.5 50.5t-128.5 21.5q-55 0 -95 -13.5t-65 -33t-36 -42t-11 -42.5q0 -47 54 -87t136 -82t177.5 -91.5t177.5 -114t136 -148.5t54 -194q0 -86 -32.5 -164t-92 -137.5t-145.5 -97t-191 -46.5v-135h-159v135 q-137 8 -230.5 45t-151 89.5t-82 116t-24.5 126.5z" />
<glyph unicode="%" horiz-adv-x="1802" d="M92 1108q0 416 342 416q338 0 338 -416q0 -186 -89 -296t-249 -110q-164 0 -253 110t-89 296zM305 78l1045 1438l141 -101l-1040 -1440zM348 1108q0 -102 21.5 -147.5t64.5 -45.5q45 0 66.5 45.5t21.5 147.5q0 100 -22.5 153.5t-65.5 53.5t-64.5 -53.5t-21.5 -153.5z M1030 387q0 186 89 296t249 110q164 0 253 -110t89 -296q0 -416 -342 -416q-338 0 -338 416zM1280 387q0 -100 22.5 -153.5t65.5 -53.5t64.5 53.5t21.5 153.5q0 102 -21.5 147.5t-64.5 45.5q-45 0 -66.5 -45.5t-21.5 -147.5z" />
<glyph unicode="&#x26;" horiz-adv-x="1734" d="M98 410q0 63 20.5 119.5t56.5 105.5t83 91t102 77q-164 170 -163 332q0 88 34.5 159.5t98 122.5t150.5 79t190 28q205 0 322.5 -91.5t117.5 -250.5q0 -127 -78 -220.5t-227 -173.5l303 -321q20 20 35.5 50t25 61.5t14.5 62.5t7 53q-41 8 -72 18.5t-61 30.5v177h559v-181 q-45 -18 -80 -27.5t-80 -19.5q-18 -94 -63 -197.5t-115 -181.5q29 -27 54.5 -40t56.5 -13q57 0 145 47l113 -182q-63 -66 -147.5 -109t-176.5 -43q-72 0 -140.5 21.5t-135.5 81.5q-78 -47 -180.5 -75t-231.5 -28q-141 0 -243.5 34t-167 92.5t-95.5 138t-31 172.5zM463 440 q0 -111 67.5 -176t184.5 -65q45 0 90 15t67 34q-25 25 -61.5 64.5t-80.5 89t-93 104.5l-98 110q-33 -33 -54.5 -77.5t-21.5 -98.5zM563 1159q0 -47 18.5 -93t65.5 -101q59 45 93 95t34 105q0 66 -28.5 98.5t-77.5 32.5q-41 0 -73 -37.5t-32 -99.5z" />
<glyph unicode="'" horiz-adv-x="649" d="M164 1642h332l-86 -702h-160z" />
<glyph unicode="(" horiz-adv-x="794" d="M164 676q0 170 38 334t99 305t140 253.5t163 178.5l98 -72q-47 -84 -89 -198.5t-73.5 -246.5t-50 -274.5t-18.5 -279.5q0 -139 18.5 -283.5t50 -280t73.5 -253t89 -199.5l-98 -70q-84 66 -163 179.5t-140 259t-99 311.5t-38 336z" />
<glyph unicode=")" horiz-adv-x="794" d="M92 -340q47 82 89 199.5t74 253t50.5 280t18.5 283.5q0 137 -18.5 279.5t-50.5 274.5t-74 246.5t-89 198.5l98 72q84 -66 163 -178.5t140.5 -253.5t99.5 -305t38 -334t-38 -336t-99.5 -311.5t-140.5 -259t-163 -179.5z" />
<glyph unicode="*" horiz-adv-x="868" d="M61 1350q0 35 27 60.5t66 25.5q41 0 95 -26t146 -81q-10 45 -16 77t-9 58.5t-4 48t-1 43.5q0 47 25.5 75t64.5 28q35 0 61.5 -28t26.5 -75q0 -23 -1 -44t-4 -47.5t-9.5 -58.5t-18.5 -77q92 55 147.5 81t96.5 26t67.5 -25t26.5 -59q0 -72 -70.5 -96.5t-230.5 -34.5 q100 -84 141 -135.5t41 -98.5q0 -35 -25.5 -60.5t-60.5 -25.5q-29 0 -52.5 14.5t-45 45t-43 77.5t-47.5 113q-29 -66 -50.5 -113t-43 -77.5t-45 -45t-52.5 -14.5q-35 0 -60.5 25.5t-25.5 60.5q0 47 43 98.5t139 135.5q-164 10 -231.5 34.5t-67.5 94.5z" />
<glyph unicode="+" horiz-adv-x="1146" d="M61 440v248h383v367h261v-367h380v-248h-380v-368h-261v368h-383z" />
<glyph unicode="," horiz-adv-x="714" d="M129 178q0 49 17.5 88t48 67.5t71.5 44t88 15.5q92 0 161 -73.5t69 -219.5q0 -45 -15.5 -101t-45 -115.5t-75 -118t-102.5 -103.5l-102 78q47 47 73.5 105.5t26.5 117.5v23q-86 0 -150.5 50t-64.5 142z" />
<glyph unicode="-" horiz-adv-x="839" d="M119 494v237h602v-237h-602z" />
<glyph unicode="." horiz-adv-x="714" d="M143 188q0 43 16.5 82t46.5 67t67.5 44t80.5 16q45 0 85 -16t70 -44t46 -67t16 -82q0 -45 -16 -83.5t-46 -68.5t-70 -46.5t-85 -16.5q-43 0 -80.5 16.5t-67.5 46.5t-46.5 68.5t-16.5 83.5z" />
<glyph unicode="/" horiz-adv-x="808" d="M20 -229l551 1894l217 -49l-555 -1899z" />
<glyph unicode="0" d="M70 743q0 176 31.5 319.5t101 246t178 158t262.5 55.5t263.5 -55.5t178 -158t101.5 -245.5t33 -320q0 -176 -33 -318t-101.5 -242.5t-178 -155t-263.5 -54.5t-262.5 54.5t-178 155t-101 242.5t-31.5 318zM432 743q0 -272 51.5 -388.5t159.5 -116.5q109 0 161 116.5 t52 388.5t-50 393t-163 121t-162 -120.5t-49 -393.5z" />
<glyph unicode="1" d="M227 1143v241q111 23 225.5 49.5t217.5 63.5h198v-1276q39 16 80 29q35 10 77 20.5t83 10.5q16 0 27 -2v-279h-869v221q31 14 74 25.5t82 21.5q45 10 94 21v854h-289z" />
<glyph unicode="2" d="M113 0v238q211 176 340 304t198.5 224t93 169.5t23.5 145.5q0 33 -8 65t-27.5 57.5t-49.5 41t-73 15.5q-47 0 -85 -11.5t-70 -29.5v-228h-246q-18 29 -29.5 75t-11.5 93q0 63 24.5 129t83 118t155.5 85t243 33q123 0 211 -34t144 -91.5t82 -134t26 -162.5t-33 -172 t-87 -166t-124 -153.5t-142.5 -137t-143 -117t-126.5 -90.5h441q0 27 6 60q4 29 13 62.5t26 70.5h209v-459h-1063z" />
<glyph unicode="3" d="M102 66l72 249q92 -29 191.5 -50t226.5 -21q41 0 84 10t76.5 32.5t55 59.5t21.5 90q0 55 -26.5 89t-71.5 52.5t-103.5 23.5t-119.5 5h-131v258h131q55 0 103 12.5t85 38t58.5 65.5t21.5 93q0 90 -48 138.5t-140 48.5q-55 0 -101.5 -12.5t-78.5 -28.5v-224h-246 q-18 29 -29.5 72t-11.5 92q0 63 24.5 129t84 118t159.5 85t252 33q109 0 201 -25.5t158.5 -78t104.5 -132.5t38 -186q0 -70 -20.5 -128.5t-57.5 -102.5t-85 -74.5t-103 -44.5q45 -10 100 -33t102 -63t79 -100t32 -146q0 -111 -46 -192t-126 -135t-185.5 -81t-222.5 -27 q-92 0 -164.5 7.5t-132 19.5t-109.5 28.5t-102 35.5z" />
<glyph unicode="4" d="M80 252v205l575 1040h400v-989h213v-256h-213v-252h-336v252h-639zM391 508h328v649z" />
<glyph unicode="5" d="M145 37l15 239q55 -12 144 -22t169 -10q145 0 231.5 58t86.5 198q0 61 -29 101t-75 62.5t-104.5 30.5t-115.5 8q-63 0 -116.5 -3t-106.5 -9l-29 39v768h877v-274h-584v-289q53 14 97 21.5t91 7.5q102 0 186.5 -31t144.5 -88.5t94 -139t34 -182.5q0 -135 -46 -236.5 t-128 -171t-194.5 -104.5t-243.5 -35q-125 0 -231.5 19.5t-166.5 42.5z" />
<glyph unicode="6" d="M94 633q0 199 49.5 363.5t147.5 281.5t246.5 181.5t345.5 64.5q41 0 86 -8.5t98 -28.5v-246q-80 25 -143 25q-219 0 -332 -112t-129 -318q76 57 162 83.5t172 26.5q80 0 151.5 -30.5t125.5 -87t87 -136.5t33 -180q0 -111 -36 -208t-103.5 -171t-167 -116t-228.5 -42 q-297 0 -431 172t-134 486zM459 631q0 -205 43 -302.5t157 -97.5q86 0 129 65.5t43 162.5q0 125 -47 181t-137 56q-98 0 -188 -65z" />
<glyph unicode="7" d="M100 1153q0 78 17.5 141.5t60.5 108.5t117 69.5t186 24.5h711v-240l-545 -1257h-371l580 1219h-467v-265h-229q-31 55 -45.5 98.5t-14.5 100.5z" />
<glyph unicode="8" d="M94 371q0 74 25.5 133t68.5 107t99.5 88t118.5 77q-51 33 -98.5 70t-82.5 81t-56.5 97t-21.5 121q0 92 37 162.5t103.5 119t159 73t200.5 24.5q129 0 221.5 -29t151.5 -77t88 -110.5t29 -129.5q0 -68 -20.5 -122.5t-54.5 -100.5t-79 -85t-94 -71q59 -35 114.5 -72 t97.5 -85t67.5 -108.5t25.5 -140.5q0 -98 -43 -176t-116.5 -131t-175 -82t-218.5 -29q-98 0 -195.5 20.5t-175 68t-127 122t-49.5 185.5zM459 424q0 -88 56 -137t134 -49q86 0 134 49t48 135q0 41 -16 73.5t-44 60.5t-65.5 50.5t-78.5 44.5q-70 -43 -119 -95t-49 -132z M498 1124q0 -70 48 -116.5t118 -85.5q51 39 86.5 84t35.5 110q0 74 -39.5 110t-99.5 36q-20 0 -46 -5.5t-49.5 -20.5t-38.5 -42t-15 -70z" />
<glyph unicode="9" d="M94 995q0 109 36 204t104.5 167t168 114t228.5 42q295 0 429 -174t134 -492q0 -426 -201.5 -653.5t-607.5 -227.5q-35 0 -88 3.5t-100 11.5l26 250q31 -2 62.5 -4.5t60.5 -2.5q221 0 340 100.5t137 311.5q-53 -63 -137 -96t-176 -33q-76 0 -150.5 28.5t-133 87 t-95.5 149.5t-37 214zM459 1030q0 -139 53 -200.5t129 -61.5q96 0 190 131q0 190 -44 276.5t-156 86.5q-84 0 -128 -68t-44 -164z" />
<glyph unicode=":" horiz-adv-x="714" d="M143 188q0 43 16.5 82t46.5 67t67.5 44t80.5 16q45 0 85 -16t70 -44t46 -67t16 -82q0 -45 -16 -83.5t-46 -68.5t-70 -46.5t-85 -16.5q-43 0 -80.5 16.5t-67.5 46.5t-46.5 68.5t-16.5 83.5zM143 911q0 43 16.5 82t46.5 67t67.5 44t80.5 16q45 0 85 -16t70 -44t46 -67 t16 -82q0 -45 -16 -83.5t-46 -68.5t-70 -46.5t-85 -16.5q-43 0 -80.5 16.5t-67.5 46.5t-46.5 68.5t-16.5 83.5z" />
<glyph unicode=";" horiz-adv-x="727" d="M129 178q0 49 17.5 88t48 67.5t71.5 44t88 15.5q92 0 161 -73.5t69 -219.5q0 -45 -15.5 -101t-45 -115.5t-75 -118t-102.5 -103.5l-102 78q47 47 73.5 105.5t26.5 117.5v23q-86 0 -150.5 50t-64.5 142zM149 911q0 43 16.5 82t46.5 67t67.5 44t80.5 16q45 0 85 -16t70 -44 t46 -67t16 -82q0 -45 -16 -83.5t-46 -68.5t-70 -46.5t-85 -16.5q-43 0 -80.5 16.5t-67.5 46.5t-46.5 68.5t-16.5 83.5z" />
<glyph unicode="&#x3c;" horiz-adv-x="1146" d="M74 492v153l852 463l145 -205l-618 -336l618 -336l-145 -206z" />
<glyph unicode="=" horiz-adv-x="1146" d="M61 211v248h1024v-248h-1024zM61 665v248h1024v-248h-1024z" />
<glyph unicode="&#x3e;" horiz-adv-x="1146" d="M74 231l618 336l-618 336l145 205l852 -463v-153l-852 -467z" />
<glyph unicode="?" horiz-adv-x="1183" d="M102 1208q0 55 24 111.5t80 101.5t151.5 74t236.5 29q119 0 210 -25.5t152.5 -70t93 -106.5t31.5 -136q0 -80 -32.5 -141.5t-83 -112.5t-107.5 -94t-107.5 -87t-83 -92.5t-32.5 -107.5v-80h-162v98q0 104 39 181t87 139.5t87 118t39 114.5q0 78 -37 120t-119 42 q-27 0 -61.5 -5t-69.5 -17v-271h-252q-35 47 -59.5 105.5t-24.5 111.5zM367 160q0 78 54 130t130 52q80 0 134 -52t54 -130q0 -39 -14 -73t-40 -59.5t-60.5 -40t-73.5 -14.5q-76 0 -130 54.5t-54 132.5z" />
<glyph unicode="@" horiz-adv-x="1648" d="M82 719q0 164 60.5 306t165 247.5t245.5 166t301 60.5q147 0 277.5 -43t227.5 -125t152.5 -199.5t55.5 -267.5q0 -111 -34 -207t-90.5 -165.5t-127 -109.5t-144.5 -40q-63 0 -121.5 40t-72.5 107q-18 -33 -47 -59.5t-64 -45.5t-70.5 -30.5t-68.5 -11.5q-57 0 -110.5 19.5 t-95.5 59.5t-67.5 102.5t-25.5 148.5q0 104 34 191t89 149.5t126 96.5t144 34q78 0 124 -26.5t81 -78.5l29 90h168q-41 -190 -63.5 -296.5t-33 -160t-12.5 -66.5t-2 -19q0 -33 12.5 -58.5t51.5 -25.5q51 0 92 35.5t70.5 90t46 118t16.5 118.5q0 115 -43 204t-117 150.5 t-172 93t-209 31.5q-133 0 -245.5 -45t-194.5 -128t-128 -197.5t-46 -253.5q0 -135 43 -243.5t121.5 -186.5t190.5 -120t249 -42q109 0 215 35t192 98l91 -129q-106 -80 -231.5 -119t-266.5 -39q-178 0 -319.5 53.5t-242 150.5t-153.5 234.5t-53 307.5zM614 696 q0 -100 38 -145t98 -45q39 0 79.5 20.5t74.5 60.5t55.5 99t21.5 137q0 66 -38 114t-112 48q-41 0 -79.5 -22.5t-69.5 -62.5t-49.5 -92t-18.5 -112z" />
<glyph unicode="A" horiz-adv-x="1591" d="M6 0v221q33 20 73 32.5t62 18.5l365 951q-27 2 -66 12t-73 29v233h626l461 -1227q27 -6 61.5 -18t69.5 -31v-221h-696v221q47 27 98 39t80 16l-66 185h-458l-62 -185q27 -4 79 -17t102 -38v-221h-656zM627 696h293l-146 437z" />
<glyph unicode="B" horiz-adv-x="1368" d="M45 0v221q29 23 71 40.5t79 27.5v923q-66 23 -99 36.5t-51 27.5v221h647q301 0 438.5 -90t137.5 -295q0 -123 -62.5 -208t-173.5 -132q129 -39 207 -128t78 -232q0 -213 -140.5 -312.5t-443.5 -99.5h-688zM547 264h135q150 0 211 45t61 156q0 94 -71.5 130t-200.5 36 h-135v-367zM549 891h90q129 0 198.5 42t69.5 134q0 98 -63.5 133t-204.5 35h-90v-344z" />
<glyph unicode="C" horiz-adv-x="1370" d="M51 766q0 186 52.5 328.5t148.5 237.5t231 143.5t299 48.5q160 0 264.5 -34t166 -88t87 -123t25.5 -138q0 -70 -17.5 -129.5t-45.5 -96.5h-246v281q-41 35 -107.5 52.5t-126.5 17.5q-70 0 -135 -23.5t-117.5 -79t-84 -148.5t-31.5 -233q0 -141 34.5 -242.5t94 -166 t139.5 -94t170 -29.5q98 0 199.5 23.5t205.5 76.5l21 -274q-117 -55 -243 -79t-249 -24q-143 0 -275 44t-234.5 139.5t-164 246t-61.5 363.5z" />
<glyph unicode="D" horiz-adv-x="1548" d="M45 0v221q29 23 71 40.5t79 27.5v923q-66 23 -99 36.5t-51 27.5v221h617q209 0 364.5 -49t260 -141.5t155.5 -221.5t51 -288q0 -203 -61.5 -352.5t-172 -248t-263 -147.5t-334.5 -49h-617zM549 264h90q229 0 360 125t131 379q0 125 -33.5 214t-97 145.5t-154.5 82 t-206 25.5h-90v-971z" />
<glyph unicode="E" horiz-adv-x="1286" d="M45 0v221q29 23 72 40.5t80 27.5v923q-68 20 -101 35t-51 29v221h1169v-483h-229q-29 57 -37 115.5t-8 105.5h-389v-322h375v-258h-375v-391h424q4 53 12 113.5t37 120.5h225v-498h-1204z" />
<glyph unicode="F" horiz-adv-x="1218" d="M45 0v221q29 23 72 40.5t80 27.5v923q-68 23 -101 36.5t-51 27.5v221h1137v-483h-228q-31 57 -40 115.5t-9 105.5h-354v-344h358v-256h-358v-391q43 20 96 32q29 7 58 7q23 0 45 -4v-279h-705z" />
<glyph unicode="G" horiz-adv-x="1509" d="M51 766q0 186 54.5 328.5t153.5 237.5t237.5 143.5t308.5 48.5q166 0 276.5 -34t177 -88t93 -123t26.5 -138q0 -70 -16 -129.5t-45 -96.5h-246v263q-45 45 -118.5 66.5t-145.5 21.5q-74 0 -144.5 -23.5t-126 -79t-89 -148.5t-33.5 -233q0 -158 34.5 -263t92 -169.5 t133.5 -92.5t155 -28q47 0 88 3.5t76 11.5v254q-33 4 -72.5 12t-97.5 29v223h656v-223q-45 -18 -81 -27.5t-71 -13.5v-418q-123 -53 -258 -80t-270 -27q-145 0 -279.5 39t-239 131.5t-167 244t-62.5 378.5z" />
<glyph unicode="H" horiz-adv-x="1667" d="M45 0v221q29 23 71 40.5t79 27.5v966q-31 -16 -63 -26t-64 -10q-16 0 -23 2v276h653v-221q-18 -14 -51 -29.5t-98 -34.5v-294h549v337q-29 -16 -61.5 -26t-65.5 -10q-16 0 -23 2v276h654v-221q-18 -14 -51 -29.5t-99 -34.5v-968q29 16 66.5 26.5t76.5 10.5q18 0 27 -2 v-279h-674v221q29 23 71 40.5t79 27.5v364h-549v-409q33 16 71.5 26.5t73.5 10.5q16 0 25 -2v-279h-674z" />
<glyph unicode="I" horiz-adv-x="763" d="M45 0v221q29 23 71 40.5t79 27.5v966q-31 -16 -63 -26t-64 -10q-16 0 -23 2v276h653v-221q-29 -23 -70.5 -40t-78.5 -28v-964q29 16 68.5 26.5t74.5 10.5q18 0 27 -2v-279h-674z" />
<glyph unicode="J" horiz-adv-x="753" d="M-86 -156h229q35 41 54.5 99.5t19.5 144.5v1167q-29 -16 -62.5 -26t-68.5 -10q-16 0 -23 2v276h654v-221q-18 -14 -51 -30.5t-99 -33.5v-1132q0 -160 -36.5 -262.5t-94 -161.5t-124 -83t-126.5 -24q-117 0 -176 20.5t-96 49.5v225z" />
<glyph unicode="K" horiz-adv-x="1527" d="M45 0v221q29 23 71 40.5t79 27.5v966q-31 -16 -63 -26t-64 -10q-16 0 -23 2v276h635v-221q-35 -27 -68.5 -41t-62.5 -23v-331h190l228 350q-33 -8 -72 -11q-17 -1 -33 -1q-21 0 -41 2v276h672v-221q-35 -23 -84 -39t-72 -23l-315 -442l342 -504h143v-209q-41 -35 -96 -53 t-141 -18q-55 0 -97.5 8t-79 31.5t-71.5 66.5t-74 111l-243 413h-156v-374q29 16 61.5 26.5t65.5 10.5q16 0 24 -2v-279h-655z" />
<glyph unicode="L" horiz-adv-x="1214" d="M45 0v221q18 14 44 25.5t50 21.5q27 10 58 21v966q-20 -10 -43 -18q-18 -8 -40 -13t-44 -5q-16 0 -23 2v276h653v-221q-33 -23 -70.5 -38t-76.5 -26v-948h340q2 45 8 90q4 39 13.5 83t25.5 81h228v-518h-1123z" />
<glyph unicode="M" horiz-adv-x="1906" d="M45 0v221q18 14 44 25.5t48 21.5q27 10 58 21v923q-31 8 -58 19q-23 10 -48.5 20.5t-43.5 24.5v221h596l297 -874l322 874h581v-221q-18 -14 -45 -24.5t-49 -20.5q-27 -10 -55 -19v-968q23 10 47 18q23 6 47 12.5t51 6.5q16 0 25 -2v-279h-621v221q18 14 45 25.5t49 21.5 q27 10 56 21v872l-344 -964h-265l-321 944v-897q23 10 47 18q23 6 47.5 12.5t50.5 6.5q16 0 25 -2v-279h-586z" />
<glyph unicode="N" horiz-adv-x="1640" d="M45 0v221q18 14 44 25.5t48 21.5q27 10 58 21v923q-31 8 -58 19q-23 10 -48.5 20.5t-43.5 24.5v221h530l564 -991v749q-20 -10 -43 -18q-18 -8 -41 -13t-45 -5q-16 0 -23 2v276h617v-221q-18 -14 -45 -24.5t-50 -20.5q-27 -10 -55 -19v-1212h-356l-586 1028v-784 q23 10 47 18q20 6 46 12.5t50 6.5q16 0 25 -2v-279h-635z" />
<glyph unicode="O" horiz-adv-x="1511" d="M57 750q0 180 48.5 323.5t138.5 243.5t219 153.5t293 53.5t293 -53.5t219 -153.5t138 -243.5t48 -323.5t-48 -324.5t-138 -245t-219 -154t-293 -53.5t-293 53.5t-219 154t-138.5 244.5t-48.5 325zM420 750q0 -240 88 -380.5t248 -140.5q80 0 142.5 36t105.5 103.5 t65.5 164t22.5 217.5q0 119 -22.5 215t-65.5 163.5t-105.5 104.5t-142.5 37q-160 0 -248 -140.5t-88 -379.5z" />
<glyph unicode="P" horiz-adv-x="1298" d="M43 0v221q18 14 44 25.5t50 21.5q27 10 58 21l-2 923q-31 8 -58 19q-23 10 -48.5 20.5t-43.5 24.5v221h666q289 0 422 -108.5t133 -352.5q0 -117 -41 -211t-115 -158.5t-175.5 -99.5t-223.5 -35h-162v-288q29 10 57 18q25 6 54.5 12.5t58.5 6.5q18 0 28 -2v-279h-702z M547 793h147q98 0 152.5 54t54.5 173q0 215 -207 215h-147v-442z" />
<glyph unicode="Q" horiz-adv-x="1499" d="M51 750q0 180 48 323.5t138.5 243.5t219.5 153.5t293 53.5t292.5 -53.5t219 -153.5t138.5 -243.5t48 -323.5q0 -311 -135 -507t-383 -249q45 -61 116.5 -103.5t184.5 -42.5q33 0 74 3.5t88 13.5v-260q-41 -20 -108.5 -33.5t-158.5 -13.5q-199 0 -326.5 111.5 t-199.5 316.5q-260 47 -404.5 245.5t-144.5 518.5zM414 750q0 -240 88 -380.5t248 -140.5q80 0 142 36t105 103.5t65.5 164t22.5 217.5q0 119 -22.5 215t-65.5 163.5t-105.5 104.5t-141.5 37q-160 0 -248 -140.5t-88 -379.5z" />
<glyph unicode="R" horiz-adv-x="1431" d="M45 0v221q18 14 44 25.5t48 21.5q27 10 58 21v923q-31 8 -58 19q-23 10 -48.5 20.5t-43.5 24.5v221h678q125 0 228.5 -24.5t177 -77t114.5 -133t41 -195.5q0 -137 -67.5 -245.5t-180.5 -164.5l232 -389h133v-211q-47 -39 -104.5 -54t-129.5 -15q-102 0 -172.5 45 t-132.5 172l-190 391h-123v-352q25 10 49 18q23 6 48.5 12.5t47.5 6.5q16 0 25 -2v-279h-674zM549 856h147q100 0 164 45t64 150q0 98 -59.5 141t-168.5 43h-147v-379z" />
<glyph unicode="S" horiz-adv-x="1251" d="M51 354q0 53 13.5 97.5t31.5 85.5h262v-258q39 -29 104.5 -49.5t131.5 -20.5q106 0 166.5 45t60.5 102q0 55 -54 104.5t-136 98.5t-177.5 102.5t-177 118t-136 143t-54.5 181.5q0 92 39 169t110.5 133t173 87t228.5 31q143 0 244.5 -34t167 -87t96.5 -119.5t31 -132.5 q0 -61 -17 -119.5t-35 -97.5h-245v264q-45 35 -101.5 53.5t-109.5 18.5q-98 0 -152.5 -36t-54.5 -95q0 -53 54 -98.5t136 -91.5t176.5 -97t176 -117.5t136 -149.5t54.5 -194q0 -90 -39 -165.5t-113.5 -132t-183 -88.5t-246.5 -32q-168 0 -276.5 34t-172 89.5t-88 123 t-24.5 134.5z" />
<glyph unicode="T" horiz-adv-x="1378" d="M39 1014v483h1301v-483h-228q-18 35 -28.5 73.5t-14.5 71.5q-6 37 -6 76h-197v-991q25 10 49 18q23 6 47.5 12.5t49.5 6.5q14 0 22 -2v-279h-672v221q16 14 43 25.5t50 21.5q27 10 57 21v946h-197q0 -39 -6 -76q-4 -33 -15 -71.5t-28 -73.5h-227z" />
<glyph unicode="U" horiz-adv-x="1624" d="M43 1221v276h653v-221q-16 -14 -42.5 -24.5t-49.5 -20.5q-29 -10 -57 -19v-532q0 -129 14 -216t48 -139.5t87.5 -74t130.5 -21.5q72 0 124.5 21.5t86 73t50 138.5t16.5 216v577q-20 -10 -43 -18q-18 -8 -41 -13t-45 -5q-16 0 -23 2v276h629v-221q-18 -14 -45 -24.5 t-49 -20.5q-27 -10 -55 -19v-518q0 -190 -29 -326.5t-99.5 -224.5t-191.5 -129t-305 -41q-178 0 -296 41t-188.5 129t-100 224.5t-29.5 326.5v561q-20 -10 -43 -18q-18 -8 -41 -13t-46 -5q-14 0 -20 2z" />
<glyph unicode="V" horiz-adv-x="1585" d="M18 1221v276h662v-221q-25 -16 -56.5 -27.5t-64.5 -19.5l258 -858l266 856q-25 -4 -52 -6t-54 -2h-21.5t-21.5 2v276h633v-221q-29 -23 -72 -39t-63 -23l-459 -1214h-371l-448 1239q-18 -8 -46 -15t-57 -7q-10 0 -17 1t-16 3z" />
<glyph unicode="W" horiz-adv-x="2144" d="M18 1221v277h648v-222q-27 -14 -67 -26.5t-77 -22.5l148 -850l250 1121h321l244 -1121l147 852q-36 -7 -76 -11q-13 -1 -27 -2q-26 0 -52 5v277h647v-222q-25 -20 -72 -36.5t-88 -22.5l-301 -1217h-379l-219 948l-221 -948h-379l-303 1237q-31 -13 -71 -19q-17 -3 -32 -2 q-22 0 -41 5z" />
<glyph unicode="X" horiz-adv-x="1574" d="M20 0v221q20 12 46 22.5t51.5 18.5t47 13.5t34.5 9.5l325 538l-299 400q-33 6 -83 21.5t-76 31.5v220h677v-220q-41 -25 -106 -45l207 -295l162 301q-29 4 -69 15.5t-56 23.5v220h653v-220q-35 -23 -80 -38t-100 -26l-326 -489l334 -438q12 -4 35.5 -10.5t49.5 -14.5 t52.5 -18.5t44.5 -20.5v-221h-702v221q53 35 112 51l-231 328l-178 -338q27 -6 59.5 -17.5t57.5 -23.5v-221h-642z" />
<glyph unicode="Y" horiz-adv-x="1587" d="M35 1221v276h696v-221q-29 -14 -65.5 -26.5t-73.5 -20.5l229 -432l244 434q-39 -10 -82 -13q-14 -2 -28 -2q-29 0 -56 5v276h653v-221q-29 -23 -67.5 -38t-73.5 -24l-442 -673v-254q39 23 79 32q23 5 51 5q19 0 40 -2v-322h-674v264q18 12 45 23.5t49 21.5q27 10 55 21 v205l-442 704q-29 -12 -66 -17q-20 -3 -40 -3q-15 0 -31 2z" />
<glyph unicode="Z" horiz-adv-x="1304" d="M45 0v254l780 981h-458v-281h-244q-23 61 -38 110.5t-15 115.5q0 72 16 130t54 100t102.5 64.5t160.5 22.5h836v-250l-782 -985l526 2q2 35 8 72q4 33 14.5 74t26.5 88h228v-498h-1215z" />
<glyph unicode="[" horiz-adv-x="794" d="M246 -401v2109h440v-215h-166v-1677h166v-217h-440z" />
<glyph unicode="\" horiz-adv-x="808" d="M20 1616l218 49l550 -1894l-213 -54z" />
<glyph unicode="]" horiz-adv-x="794" d="M109 -184h165v1677h-165v215h440v-2109h-440v217z" />
<glyph unicode="^" horiz-adv-x="1146" d="M33 735l461 762h153l467 -762h-285l-256 404l-251 -404h-289z" />
<glyph unicode="_" horiz-adv-x="972" d="M41 -45h891v-219h-891v219z" />
<glyph unicode="`" horiz-adv-x="1187" d="M266 1466l203 236l453 -354l-146 -123z" />
<glyph unicode="a" horiz-adv-x="1298" d="M74 299q0 100 33.5 171t114.5 117t217 70.5t339 34.5v70q0 25 -8 50.5t-28.5 47t-52.5 35.5t-81 14q-53 0 -95 -12t-71 -25v-163h-243q-23 25 -38.5 63.5t-15.5 79.5q0 53 22.5 108.5t78 99.5t147.5 72.5t232 28.5q258 0 379.5 -100t121.5 -287v-487h146v-228 q-37 -47 -97.5 -66.5t-125.5 -19.5q-106 0 -160.5 61.5t-61.5 170.5h-28q-4 -35 -30 -75t-70 -75t-106.5 -58.5t-139.5 -23.5q-184 0 -281.5 88.5t-97.5 237.5zM430 383q0 -82 46 -114.5t118 -32.5q35 0 68.5 15t59.5 40.5t41 58.5t15 68v94q-92 -4 -182.5 -13.5 t-149.5 -25.5q-6 -20 -11 -41.5t-5 -48.5z" />
<glyph unicode="b" horiz-adv-x="1327" d="M0 1386v240h485v-502q0 -33 -2 -58.5t-8 -50t-14 -50t-21 -56.5h29q31 74 71 123t87 78t103 40t122 11q100 0 179 -41t132.5 -114.5t82 -176t28.5 -223.5q0 -162 -51.5 -280.5t-139.5 -197.5t-203.5 -117t-244.5 -38q-117 0 -240 23.5t-254 73.5v1271q-18 2 -41 9 q-20 4 -45.5 12t-54.5 24zM485 262q47 -16 89 -22.5t83 -6.5q55 0 101.5 18.5t80 58.5t52 103.5t18.5 153.5q0 57 -11 115.5t-39 103.5t-73 74t-112 29q-43 0 -78 -15.5t-59.5 -40t-38 -56.5t-13.5 -64v-451z" />
<glyph unicode="c" horiz-adv-x="1093" d="M53 567q0 147 44 258t121 185.5t181.5 112.5t227.5 38t203.5 -27.5t128 -72.5t66.5 -100.5t19 -110.5q0 -61 -11 -116.5t-29 -88.5h-244v201q-25 33 -55.5 48t-75.5 15q-41 0 -80 -15t-71 -52t-51 -97.5t-19 -150.5q0 -193 81.5 -271.5t237.5 -78.5q59 0 117.5 15 t105.5 44l82 -237q-90 -51 -178 -72t-207 -21q-133 0 -242.5 37t-187.5 111t-121 185.5t-43 260.5z" />
<glyph unicode="d" horiz-adv-x="1374" d="M57 514q0 168 45 290t122 201.5t181.5 117.5t225.5 38q57 0 116.5 -8t118.5 -25v236q-20 0 -43 6q-20 4 -45.5 11.5t-54.5 23.5v221h469v-1339h147v-228q-39 -47 -101 -66.5t-128 -19.5q-109 0 -163 61.5t-60 170.5h-27q-16 -43 -46 -85t-76 -74t-109.5 -52.5 t-145.5 -20.5q-109 0 -188.5 42t-131.5 115t-79 171t-27 213zM412 545q0 -129 54 -215t175 -86q47 0 87 23.5t69.5 63.5t46 93t16.5 113v346q-39 20 -85 27.5t-85 7.5q-135 0 -206.5 -97.5t-71.5 -275.5z" />
<glyph unicode="e" horiz-adv-x="1165" d="M53 545q0 174 52.5 292.5t136.5 190.5t191.5 102.5t217.5 30.5q117 0 204 -33.5t145.5 -93t87 -141.5t28.5 -180q0 -41 -2 -85t-14 -91q-117 -37 -238 -50.5t-248 -13.5q-102 0 -206 6q4 -135 92 -192.5t254 -57.5q72 0 147.5 16.5t161.5 45.5l33 -236 q-102 -41 -202.5 -61.5t-240.5 -20.5q-133 0 -243.5 38t-189.5 111t-123 179.5t-44 243.5zM408 668q106 0 204.5 4t175.5 30q2 10 3 31q0 72 -43 126t-127 54q-100 0 -156.5 -70.5t-56.5 -174.5z" />
<glyph unicode="f" horiz-adv-x="851" d="M61 0v221q18 14 40 25.5t42 21.5q23 10 47 21v606h-129v242h129v34q0 240 117 368t346 128q104 0 171 -21.5t100 -39.5v-213h-219q-92 0 -130 -37t-38 -146v-73h247v-242h-247v-649q33 8 65 16q29 6 61.5 12.5t65.5 6.5q23 0 33 -2v-279h-701z" />
<glyph unicode="g" horiz-adv-x="1226" d="M-10 -246q0 96 75.5 157.5t217.5 82.5q-92 29 -121 76t-29 98q0 57 39 114.5t111 100.5q-98 43 -160 130t-62 228q0 94 36 172t103.5 133.5t165 85t220.5 29.5q104 0 176 -19.5t129 -47.5q29 66 85 108.5t167 42.5h84v-258h-248q49 -45 82 -109.5t33 -156.5 q0 -68 -27 -136.5t-87 -125t-159.5 -92t-245.5 -35.5q-27 0 -53 1t-53 3q-14 -18 -23.5 -35.5t-9.5 -30.5q0 -27 29 -43t88 -16h229q199 0 313.5 -83t114.5 -263q0 -109 -49 -185.5t-133 -126t-198.5 -73t-243.5 -23.5q-293 0 -444.5 73t-151.5 224zM344 -186 q0 -31 20.5 -52.5t54.5 -35t79 -19.5t94 -6q139 0 209.5 27.5t70.5 103.5q0 61 -42 73.5t-134 12.5h-225q-59 0 -93 -30.5t-34 -73.5zM418 743q0 -80 41 -128t119 -48q74 0 118.5 49.5t44.5 131.5q0 86 -43 132t-118 46q-76 0 -119 -49.5t-43 -133.5z" />
<glyph unicode="h" horiz-adv-x="1415" d="M31 1386v240h489v-543q0 -33 -3 -58.5t-8 -50t-14.5 -50t-21.5 -56.5h27q12 51 40.5 103.5t77 94.5t114 68.5t151.5 26.5q74 0 139 -18.5t114.5 -56t78 -97t28.5 -139.5v-604q16 8 37 16q16 6 38.5 12.5t45.5 6.5q16 0 25 -2v-279h-621v221q18 14 40.5 25.5t43.5 21.5 q23 10 45 21v504q-23 16 -61.5 29.5t-90.5 13.5q-117 0 -171 -92.5t-54 -241.5v-256q16 8 37 16q16 6 38.5 12.5t45.5 6.5q16 0 25 -2v-279h-621v221q18 14 41 25.5l43 21.5q23 10 45 21v1052q-20 2 -43 9q-20 4 -46 12t-54 24z" />
<glyph unicode="i" horiz-adv-x="696" d="M33 897v239h489v-890q16 8 37 16q16 6 39 12.5t45 6.5q16 0 25 -2v-279h-623v221q18 14 39.5 25.5t42.5 21.5q23 10 47 21v565q-23 2 -45 8q-20 4 -45 12.5t-51 22.5zM147 1470q0 90 49.5 140.5t141.5 50.5q88 0 141 -50.5t53 -140.5q0 -84 -53 -137t-141 -53 q-92 0 -141.5 53t-49.5 137z" />
<glyph unicode="j" horiz-adv-x="651" d="M-68 -227h181q33 16 48 54t15 107v920q-23 2 -45 8q-20 4 -46 12.5t-52 22.5v240h489v-1225q0 -127 -34.5 -209t-88 -129t-116 -66.5t-117.5 -19.5q-49 0 -84 3t-61.5 9t-47 13.5t-41.5 15.5v244zM147 1470q0 90 49.5 140.5t141.5 50.5q88 0 141 -50.5t53 -140.5 q0 -84 -53 -137t-141 -53q-92 0 -141.5 53t-49.5 137z" />
<glyph unicode="k" horiz-adv-x="1400" d="M31 1386v240h489v-876h166l105 127q-27 4 -60 14t-55 20v226h655v-226q-23 -8 -50.5 -16t-56 -14.5t-55 -11.5t-47.5 -7l-202 -241l215 -330h247v-189q-18 -31 -48.5 -52t-65.5 -34.5t-70 -20.5t-59 -7q-104 0 -185.5 44t-134.5 140l-176 313h-123v-239q16 8 37 16 q16 6 38.5 12.5t45.5 6.5q16 0 25 -2v-279h-621v221q18 14 41 25.5l43 21.5q23 10 45 21v1059q-23 0 -45 6q-20 4 -45 11t-53 21z" />
<glyph unicode="l" horiz-adv-x="694" d="M31 1386v240h489v-1380q16 8 37 16q16 6 38.5 12.5t45.5 6.5q16 0 25 -2v-279h-621v221q18 14 41 25.5l43 21.5q23 10 45 21v1052q-20 2 -43 9q-20 4 -46 12t-54 24z" />
<glyph unicode="m" horiz-adv-x="2099" d="M31 918v219h469v-95q0 -53 -6.5 -87.5t-20.5 -86.5h27q12 51 39.5 103.5t71.5 94.5t107.5 68.5t145.5 26.5q66 0 124.5 -15.5t105.5 -46t79.5 -76.5t45.5 -110q16 47 45.5 91.5t72.5 79t100.5 56t131.5 21.5t139.5 -18.5t113.5 -56t76.5 -97t28.5 -139.5v-604q16 8 37 16 q16 6 38.5 12.5t47.5 6.5q16 0 25 -2v-279h-621v221q18 14 40 25.5t42 21.5q23 10 45 21v504q-23 16 -61.5 29.5t-89.5 13.5q-102 0 -153.5 -84t-51.5 -222v-284q16 8 37 16q16 6 38.5 12.5t45.5 6.5q16 0 24 -2v-279h-620v221q18 14 39.5 25.5t41.5 21.5q23 10 46 21v504 q-23 16 -61 29.5t-91 13.5q-106 0 -155.5 -92.5t-49.5 -241.5v-256q16 8 37 16q16 6 38.5 12.5t45.5 6.5q16 0 25 -2v-279h-621v221q18 14 41 25.5l43 21.5q23 10 45 21v585q-20 0 -43 7q-20 4 -46 12t-54 25z" />
<glyph unicode="n" horiz-adv-x="1419" d="M35 897v239h469v-94q0 -53 -6 -87.5t-21 -86.5h27q12 51 40.5 103.5t77 94.5t114 68.5t151.5 26.5q74 0 139.5 -18.5t114.5 -56t77.5 -97t28.5 -139.5v-604q16 8 37 16q16 6 39 12.5t45 6.5q16 0 25 -2v-279h-621v221q18 14 41 25.5l43 21.5q23 10 45 21v504 q-23 16 -61.5 29.5t-89.5 13.5q-117 0 -171.5 -92.5t-54.5 -241.5v-256q16 8 37 16q16 6 39 12.5t45 6.5q16 0 25 -2v-279h-621v221q18 14 41 25.5l43 21.5q23 10 45 21v565q-20 0 -43 6q-20 4 -46 12.5t-54 24.5z" />
<glyph unicode="o" horiz-adv-x="1294" d="M72 561q0 289 145 444.5t430 155.5t430.5 -155.5t145.5 -444.5q0 -281 -147.5 -434.5t-428.5 -153.5t-428 154t-147 434zM426 561q0 -162 58.5 -252t162.5 -90t161.5 90t57.5 252q0 164 -57 259t-162 95q-104 0 -162.5 -95t-58.5 -259z" />
<glyph unicode="p" horiz-adv-x="1357" d="M23 897v240h469v-54q0 -27 -2.5 -44t-5.5 -30.5t-8 -26.5t-11 -32h27q53 104 135 157.5t211 53.5q104 0 189 -42t145.5 -115.5t92 -175t31.5 -222.5q0 -147 -39.5 -265t-115.5 -199t-186.5 -125t-249.5 -44q-47 0 -95.5 7.5t-99.5 23.5v-242q25 8 49 17q23 6 49.5 12 t55.5 6q20 0 30 -2v-278h-661v219q23 16 47 29.5t43 21.5q23 8 43 16v1051q-20 0 -43 6q-20 4 -46 12.5t-54 24.5zM510 262q47 -16 89 -22.5t83 -6.5q55 0 102 18.5t82 58.5t55.5 103.5t20.5 153.5q0 57 -13.5 115.5t-42 103.5t-74.5 74t-114 29q-43 0 -77.5 -15.5t-59 -40 t-38 -56.5t-13.5 -64v-451z" />
<glyph unicode="q" horiz-adv-x="1337" d="M53 547q0 170 51.5 287.5t136.5 190.5t196.5 104.5t232.5 31.5q129 0 258 -23.5t254 -72.5v-1303q16 8 37 17q16 6 38.5 12t49.5 6h13t15 -2v-278h-700v219q31 16 65.5 29.5t65.5 21.5l70 16v246q-57 -39 -127 -57.5t-146 -18.5q-92 0 -183 33t-164 102.5t-118 178 t-45 260.5zM408 569q0 -166 61 -249.5t152 -83.5q104 0 215 51v594q-51 16 -96.5 26.5t-92.5 10.5q-115 0 -177 -92.5t-62 -256.5z" />
<glyph unicode="r" horiz-adv-x="1099" d="M31 897v239h469v-69q0 -53 -6.5 -88t-20.5 -86h27q27 72 66.5 123t85.5 82.5t93.5 47t88.5 15.5q76 0 124 -19.5t75.5 -52t37.5 -75.5t10 -90q0 -66 -13 -124.5t-30 -113.5h-243v211q-135 0 -205 -102.5t-70 -329.5v-219l74 16q33 6 68.5 12.5t68.5 6.5q23 0 33 -2v-279 h-721v221q23 16 46.5 29.5t41.5 21.5q23 8 43 17v565q-20 0 -43 6q-20 4 -46 12.5t-54 24.5z" />
<glyph unicode="s" horiz-adv-x="1114" d="M94 279q0 41 12.5 79.5t28.5 63.5h264v-166q39 -23 81 -33t87 -10q70 0 100.5 22.5t30.5 55.5q0 29 -26.5 55.5t-70.5 51t-100.5 48t-117.5 48.5q-127 51 -204 125.5t-77 201.5q0 68 33 130.5t95.5 108.5t151.5 73.5t202 27.5q115 0 198.5 -22.5t138 -62.5t81 -92 t26.5 -110q0 -47 -12 -84.5t-25 -66.5h-252v143q-27 20 -65.5 32.5t-100.5 12.5q-131 0 -131 -73q0 -35 45 -61.5t112 -54.5t144.5 -59.5t144 -77.5t111.5 -110.5t45 -157.5q0 -74 -34.5 -136t-98 -108t-153.5 -73t-201 -27q-221 0 -342 80t-121 226z" />
<glyph unicode="t" horiz-adv-x="860" d="M4 905v234h146l131 284h213v-286h307v-232h-307v-508q0 -96 26.5 -131t106.5 -35q53 0 97 7.5t89 17.5l35 -223q-72 -20 -166 -40t-193 -20q-80 0 -143 19.5t-106 64.5t-66.5 116t-23.5 175v557h-146z" />
<glyph unicode="u" horiz-adv-x="1370" d="M12 897v240h498v-770q27 -29 70 -47.5t102 -18.5q41 0 76 18.5t60.5 48t39.5 69.5t14 83v326q-23 2 -47 10q-23 6 -50 15.5t-56 25.5v240h479v-850h145v-228q-37 -47 -97 -66.5t-126 -19.5q-106 0 -160.5 61.5t-60.5 170.5h-27q-16 -43 -44.5 -85t-71.5 -74t-100.5 -52.5 t-129.5 -20.5q-74 0 -139 21.5t-114.5 64.5t-78 111t-28.5 160v516q-25 2 -49 10q-23 6 -49.5 15.5t-55.5 25.5z" />
<glyph unicode="v" horiz-adv-x="1368" d="M0 858v279h623v-224q-23 -14 -59 -22t-72 -12l190 -586l197 586q-18 -8 -60.5 -13.5t-66.5 -7.5v279h581v-224q-25 -16 -53.5 -25t-52.5 -14l-371 -874h-375l-362 887q-20 -10 -55 -17.5t-64 -11.5z" />
<glyph unicode="w" horiz-adv-x="1929" d="M0 858v279h623v-224q-25 -16 -63 -24t-77 -15l121 -565l213 828h303l197 -828l135 574q-10 -4 -27.5 -8.5t-38 -7.5t-40 -6t-33.5 -3v279h581v-224q-23 -14 -47 -22t-47 -12l-284 -879h-365l-201 756l-200 -756h-367l-272 883q-18 -8 -50 -14.5t-61 -10.5z" />
<glyph unicode="x" horiz-adv-x="1333" d="M51 913v225h623v-225q-18 -10 -43 -15t-47 -9l174 -187l129 187q-27 0 -56.5 7t-44.5 17v225h500v-225q-43 -23 -77.5 -31t-80.5 -14l-227 -319l273 -289q23 -4 54.5 -12t63.5 -27v-221h-622v221q23 10 45 14.5t45 8.5l-180 192l-117 -192q23 -2 53.5 -8t50.5 -15v-221 h-510v221q16 8 39 15.5t44.5 11.5t41 7t31.5 5l217 338l-252 272q-27 4 -56.5 13.5t-70.5 29.5z" />
<glyph unicode="y" horiz-adv-x="1349" d="M-12 858v279h622v-224q-29 -16 -59.5 -25t-58.5 -14l194 -608l207 625q-18 -10 -61.5 -21.5t-83.5 -11.5v279h567v-224q-35 -23 -68 -32t-55 -13l-336 -913q-47 -125 -93 -214t-104.5 -145.5t-133 -82t-175.5 -25.5q-61 0 -111.5 11.5t-82.5 29.5v244h280q20 10 36.5 21 t34 35t35 63.5t40.5 107.5h-115l-342 891q-18 -12 -57 -21.5t-80 -11.5z" />
<glyph unicode="z" horiz-adv-x="1146" d="M84 844q0 55 11 108.5t41 94t80 65.5t130 25h733v-219l-563 -666h311q0 29 7 61q4 29 12 64t22 69h228v-446h-1004v221l561 666h-291v-242h-245q-16 43 -24.5 92t-8.5 107z" />
<glyph unicode="{" horiz-adv-x="829" d="M113 586v133q53 8 88 28.5t56.5 56.5t30.5 89t9 129v240q0 119 19.5 203.5t64.5 139t116.5 79t176.5 24.5h63v-158q-84 -4 -110.5 -66.5t-26.5 -191.5v-252q0 -59 -5 -114.5t-25.5 -104.5t-59.5 -93t-109 -77q70 -33 109 -76t59.5 -94t25.5 -107.5t5 -113.5v-246 q0 -129 26.5 -192.5t110.5 -67.5v-155h-63q-104 0 -176 24.5t-117 78.5t-64.5 139t-19.5 208v238q0 74 -9 127t-30.5 88t-56.5 55.5t-88 28.5z" />
<glyph unicode="|" horiz-adv-x="563" d="M164 -420v2163h235v-2163h-235z" />
<glyph unicode="}" horiz-adv-x="829" d="M92 -246q84 4 110.5 67.5t26.5 192.5v246q0 57 5.5 113.5t25 107.5t59 94t109.5 76q-70 33 -109.5 77t-59 93t-25 104.5t-5.5 114.5v252q0 129 -26.5 191.5t-110.5 66.5v158h64q104 0 175.5 -24.5t117 -79t64.5 -139.5t19 -203v-240q0 -76 9.5 -129t31 -89t56.5 -56.5 t88 -28.5v-133q-53 -8 -88 -28.5t-56.5 -55.5t-31 -88.5t-9.5 -126.5v-238q0 -123 -19 -208t-64.5 -139t-117 -78.5t-175.5 -24.5h-64v155z" />
<glyph unicode="~" horiz-adv-x="1146" d="M68 573q39 35 80.5 69t83.5 59.5t83 41t82 15.5q57 0 105.5 -18.5t91.5 -40t81 -39t75 -17.5q33 0 76.5 22.5t107.5 84.5l145 -191q-37 -37 -77.5 -69.5t-82.5 -58t-85 -41t-82 -15.5q-55 0 -104.5 18.5t-93.5 40t-82 40t-73 18.5t-77.5 -25t-108.5 -84z" />
<glyph unicode="&#xa1;" horiz-adv-x="675" d="M127 -145q0 39 9 104.5t22.5 144t31 163.5t34 162t29.5 138.5t19 94.5h129q8 -33 21.5 -94.5t30 -138.5t34 -162t30.5 -163.5t22.5 -144t9.5 -104.5q0 -125 -56.5 -184.5t-154.5 -59.5q-96 0 -153.5 59.5t-57.5 184.5zM152 975q0 39 14 72.5t39.5 59.5t59.5 40t75 14 q76 0 130 -54t54 -132t-54 -130t-130 -52q-80 0 -134 52t-54 130z" />
<glyph unicode="&#xa2;" d="M139 580q0 258 125 404t346 179v148h160v-137q111 -4 184.5 -33t116.5 -74t61.5 -98.5t18.5 -106.5q0 -61 -11.5 -116.5t-29.5 -88.5h-244v213q-74 55 -147 56q-100 0 -162.5 -83t-62.5 -237q0 -180 85 -267t220 -87q86 0 158.5 17.5t158.5 49.5l33 -251 q-90 -41 -176 -60.5t-203 -21.5v-140h-160v150q-217 31 -344 176t-127 408z" />
<glyph unicode="&#xa3;" d="M90 0v195q29 14 56.5 36.5t49 60.5t34 92t12.5 130v148h-129v174h129v200q0 131 43 224.5t113.5 151.5t160.5 85t182 27q115 0 192 -32t123 -83t64.5 -115.5t18.5 -128.5q0 -55 -10.5 -103t-30.5 -81h-246v260q-18 10 -46 17.5t-61 7.5q-70 0 -110.5 -51.5t-40.5 -155.5 v-223h283v-174h-283v-31q0 -55 -4 -105.5t-21.5 -96.5t-50.5 -87t-88 -78h504q0 23 6 53q4 25 13.5 61t25.5 77h209v-455h-1098z" />
<glyph unicode="&#xa4;" d="M162 342l123 109q-31 51 -49.5 114t-18.5 131q0 66 18.5 130.5t51.5 117.5l-123 103l147 145l119 -111q45 31 97.5 43.5t117.5 12.5q61 0 114.5 -12.5t100.5 -43.5q29 29 61.5 62t51.5 51l151 -147l-123 -103q35 -53 52.5 -117.5t17.5 -130.5q0 -68 -17.5 -131 t-52.5 -116q33 -25 69 -57t56 -52l-151 -141l-119 110q-45 -27 -98 -41t-113 -14q-61 0 -115.5 16.5t-99.5 42.5l-119 -114zM473 696q0 -80 43 -138t129 -58q84 0 127 58t43 138q0 82 -43 140.5t-127 58.5q-86 0 -129 -58.5t-43 -140.5z" />
<glyph unicode="&#xa5;" d="M6 1221v276h594v-221q-16 -14 -49 -26.5t-72 -20.5l185 -432l223 434q-20 -4 -54 -8t-63 -4q-23 0 -31 2v276h557v-221q-18 -23 -54 -39t-68 -23l-236 -362h199v-172h-291l-53 -98h344v-174h-355v-121q31 10 64 18q29 6 59.5 12.5t55.5 6.5q12 0 20 -2v-322h-674v264 q18 12 50 23.5t61 21.5q35 10 71 21v78h-354v174h338l-55 98h-283v172h199l-217 387q-14 -10 -41 -15t-49 -5q-16 0 -21 2z" />
<glyph unicode="&#xa6;" horiz-adv-x="563" d="M164 -420v842h235v-842h-235zM164 905v838h235v-838h-235z" />
<glyph unicode="&#xa7;" horiz-adv-x="1249" d="M96 633q0 100 79 185t220 140q-92 53 -134 111.5t-42 130.5q0 74 33 134.5t93.5 102.5t143 64.5t183.5 22.5q111 0 180.5 -24.5t109 -62.5t54 -84t14.5 -91q0 -41 -17.5 -88.5t-47.5 -94.5h-191v256q-37 6 -86 6q-86 0 -131 -31.5t-45 -86.5q0 -47 47 -84t119 -73 t154.5 -75t154.5 -87t119 -111.5t47 -149.5t-79 -173t-220 -148q92 -53 134 -114t42 -134q0 -74 -32.5 -131.5t-92 -98.5t-142.5 -62.5t-181 -21.5q-111 0 -181.5 22.5t-110.5 59.5t-55.5 83t-15.5 93q0 41 18.5 89.5t51.5 97.5h188v-264q16 -4 39 -4h45q84 0 130 30.5 t46 83.5q0 47 -47 85t-118.5 74t-154.5 75t-155 87t-119 111.5t-47 149.5zM371 653q0 -35 25.5 -67.5t65.5 -60t88 -52t93 -43.5q127 35 182.5 78t55.5 113q0 35 -27 67.5t-68 60t-90 51t-94 42.5q-127 -35 -179 -84t-52 -105z" />
<glyph unicode="&#xa8;" horiz-adv-x="1187" d="M178 1462q0 82 50.5 133.5t138.5 51.5q90 0 141 -51.5t51 -133.5q0 -80 -51 -134t-141 -54q-88 0 -138.5 51t-50.5 137zM678 1462q0 82 47 133.5t143 51.5q86 0 136.5 -51.5t50.5 -133.5q0 -80 -50.5 -134t-136.5 -54q-90 0 -140 54t-50 134z" />
<glyph unicode="&#xa9;" horiz-adv-x="1708" d="M82 745q0 156 59.5 292.5t164 237.5t246.5 160.5t310 59.5q166 0 306.5 -58.5t241.5 -159.5t158.5 -238.5t57.5 -293.5q0 -152 -57.5 -287.5t-159.5 -237t-243.5 -161t-311.5 -59.5q-164 0 -304 58.5t-244.5 159.5t-164 236.5t-59.5 290.5zM266 745q0 -121 45 -226 t124 -184t186.5 -125t234.5 -46q129 0 237.5 47t187.5 128t123 187.5t44 225.5t-44 224t-122 185t-185.5 126t-234.5 46q-129 0 -238.5 -47t-189.5 -128t-124 -187.5t-44 -225.5zM461 743q0 225 114.5 340t303.5 115q84 0 139 -19.5t89 -50t48 -67.5t14 -74q0 -33 -12 -66.5 t-33 -66.5h-120v162q-27 14 -65 20t-73 6q-41 0 -81 -13t-70.5 -45t-49 -86t-18.5 -136q0 -80 20.5 -139.5t56.5 -97.5t85 -56t106 -18q82 0 224 47l18 -138q-68 -35 -140.5 -51t-137.5 -16q-82 0 -157 25.5t-133.5 80t-93 139.5t-34.5 205z" />
<glyph unicode="&#xaa;" horiz-adv-x="847" d="M31 958q0 68 21.5 115t73.5 78t138 47t217 25v61q0 29 -18.5 49.5t-67.5 20.5q-29 0 -51 -6.5t-39 -14.5v-84h-194q-20 33 -21 86q0 31 16.5 65t53.5 62.5t97 47t149 18.5q180 0 264 -66.5t84 -187.5v-299h84v-156q-27 -35 -68 -51t-92 -16q-74 0 -110 42t-46 111h-22 q0 -23 -15.5 -49.5t-44 -49t-70.5 -38.5t-94 -16q-119 0 -182 54t-63 152zM305 1028q0 -76 76 -76q37 0 68.5 21.5t31.5 68.5v68q-41 -4 -90 -11.5t-78 -13.5q-8 -27 -8 -57z" />
<glyph unicode="&#xab;" horiz-adv-x="1216" d="M51 575l381 535l211 -143l-280 -392l280 -391l-211 -143zM542 575l381 535l211 -143l-280 -392l280 -391l-211 -143z" />
<glyph unicode="&#xac;" horiz-adv-x="1146" d="M61 606v252h1024v-588h-258v336h-766z" />
<glyph unicode="&#xad;" horiz-adv-x="839" d="M119 494v237h602v-237h-602z" />
<glyph unicode="&#xae;" horiz-adv-x="1708" d="M82 745q0 156 59.5 292.5t164 237.5t246.5 160.5t310 59.5q166 0 306.5 -58.5t241.5 -159.5t158.5 -238.5t57.5 -293.5q0 -152 -57.5 -287.5t-159.5 -237t-243.5 -161t-311.5 -59.5q-164 0 -304 58.5t-244.5 159.5t-164 236.5t-59.5 290.5zM266 745q0 -121 45 -226 t124 -184t186.5 -125t234.5 -46q129 0 237.5 47t187.5 128t123 187.5t44 225.5t-44 224t-122 185t-185.5 126t-234.5 46q-129 0 -238.5 -47t-189.5 -128t-124 -187.5t-44 -225.5zM506 336v113q12 8 26.5 16t28.5 14q14 8 31 15v555q-20 6 -43 18t-43 29v110h338 q162 0 237.5 -57t75.5 -188q0 -82 -43 -142.5t-117 -95.5l121 -191q16 -27 34.5 -43t39.5 -16h68v-137h-226l-221 356h-47v-219q43 25 111 23v-160h-371zM766 848h55q72 0 114 27.5t42 80.5t-39 74t-117 21h-55v-203z" />
<glyph unicode="&#xaf;" horiz-adv-x="1187" d="M242 1307v235h706v-235h-706z" />
<glyph unicode="&#xb0;" horiz-adv-x="872" d="M63 1212q0 68 28 129.5t75 107.5t112.5 73.5t139.5 27.5q76 0 140.5 -27.5t111.5 -73.5t73.5 -107.5t26.5 -129.5q0 -72 -28.5 -134t-77 -108t-113 -72t-135.5 -26q-74 0 -138.5 26t-112.5 72t-75 107.5t-27 134.5zM256 1212q0 -66 46 -112.5t116 -46.5q68 0 112.5 46.5 t44.5 112.5t-45 112t-112 46q-70 0 -116 -46t-46 -112z" />
<glyph unicode="&#xb1;" horiz-adv-x="1146" d="M61 113v252h1024v-252h-1024zM61 666v249h383v220h261v-220h380v-249h-380v-217h-261v217h-383z" />
<glyph unicode="&#xb2;" horiz-adv-x="790" d="M41 684v150q117 94 190.5 160.5t116.5 115.5t58.5 87t15.5 75q0 29 -15.5 54.5t-58.5 25.5q-23 0 -43 -4.5t-35 -12.5v-127h-172q-12 20 -20 49t-8 56q0 39 17 76.5t56 67.5t99.5 48.5t146.5 18.5q74 0 126 -18.5t86 -49.5t49.5 -69.5t15.5 -79.5q0 -78 -42 -144.5 t-103.5 -123t-128 -101.5t-116.5 -80h252q2 14 7.5 41t21.5 62h152v-277h-668z" />
<glyph unicode="&#xb3;" horiz-adv-x="786" d="M51 721l47 164q59 -20 115.5 -32.5t108.5 -12.5q59 0 100 19.5t41 66.5q0 51 -41 68.5t-115 17.5h-102v149h102q66 0 96.5 29t30.5 78q0 41 -28.5 64.5t-75.5 23.5q-31 0 -54.5 -6.5t-33.5 -12.5v-100h-152q-10 18 -18.5 37.5t-8.5 48.5q0 35 14.5 71t49.5 64.5t94.5 47 t149.5 18.5q129 0 213 -58.5t84 -171.5q0 -74 -40 -121t-100 -75q74 -23 120 -68t46 -117q0 -63 -27.5 -110t-74.5 -78t-108.5 -46t-129.5 -15q-104 0 -171.5 17t-131.5 40z" />
<glyph unicode="&#xb4;" horiz-adv-x="1187" d="M266 1348l453 354l203 -236l-510 -241z" />
<glyph unicode="&#xb5;" horiz-adv-x="1370" d="M12 897v240h498v-770q27 -29 70 -47.5t102 -18.5q41 0 76 18.5t60.5 48t39.5 69.5t14 83v326q-23 2 -47 10q-23 6 -50 15.5t-56 25.5v240h479v-850h145v-228q-37 -47 -97 -66.5t-126 -19.5q-106 0 -160.5 61.5t-60.5 170.5h-27q-16 -43 -44.5 -85t-73.5 -74t-105.5 -52.5 t-138.5 -20.5v-454h-344v1327q-25 2 -49 10q-23 6 -49.5 15.5t-55.5 25.5z" />
<glyph unicode="&#xb6;" d="M72 1124q0 90 29.5 160t82 117t123 71.5t152.5 24.5h594v-1634h-217v1419h-134v-1419h-223v891q-186 2 -296.5 91t-110.5 279z" />
<glyph unicode="&#xb7;" horiz-adv-x="714" d="M152 819q0 94 52 148.5t150 54.5q92 0 149.5 -54.5t57.5 -148.5q0 -88 -57.5 -145.5t-149.5 -57.5q-98 0 -150 57.5t-52 145.5z" />
<glyph unicode="&#xb8;" horiz-adv-x="1187" d="M315 -348q29 -4 53.5 -6t47.5 -2q70 0 108.5 16t38.5 51q0 25 -23.5 35t-52.5 10h-16t-16 -2l-54 74l111 213h190l-92 -156q63 0 112.5 -15t83.5 -41t50 -57.5t16 -64.5q0 -74 -31.5 -123t-82.5 -78.5t-114.5 -42t-127.5 -12.5q-53 0 -105.5 5t-95.5 16v180z" />
<glyph unicode="&#xb9;" horiz-adv-x="694" d="M102 1276v149q72 10 134.5 30t123.5 42h136v-670q23 14 49 22.5t73 8.5h25v-180h-520v143q33 14 68.5 25.5t70.5 15.5v414h-160z" />
<glyph unicode="&#xba;" horiz-adv-x="843" d="M37 1137q0 186 97 288.5t288 102.5q190 0 287.5 -102.5t97.5 -288.5t-97.5 -285.5t-287.5 -99.5q-193 0 -289 99t-96 286zM313 1137q0 -104 29 -155.5t80 -51.5q53 0 79.5 48t26.5 159t-26.5 160t-79.5 49q-109 0 -109 -209z" />
<glyph unicode="&#xbb;" horiz-adv-x="1216" d="M82 184l280 391l-280 392l211 143l381 -535l-381 -534zM574 184l280 391l-280 392l211 143l381 -535l-381 -534z" />
<glyph unicode="&#xbc;" horiz-adv-x="1839" d="M102 1276v149q72 10 134.5 30t123.5 42h136v-670q23 14 49 22.5t73 8.5h25v-180h-520v143q33 14 68.5 25.5t70.5 15.5v414h-160zM381 78l1044 1438l141 -101l-1040 -1440zM1091 135v129l363 555h238v-516h116v-168h-116v-135h-197v135h-404zM1288 303h207v317z" />
<glyph unicode="&#xbd;" horiz-adv-x="1861" d="M102 1276v149q72 10 134.5 30t123.5 42h136v-670q23 14 49 22.5t73 8.5h25v-180h-520v143q33 14 68.5 25.5t70.5 15.5v414h-160zM324 78l1044 1438l141 -101l-1040 -1440zM1112 6v150q117 94 190.5 160.5t116.5 115.5t58.5 87t15.5 75q0 29 -15.5 54.5t-58.5 25.5 q-23 0 -43 -4.5t-35 -12.5v-127h-172q-12 20 -20 49t-8 56q0 39 17 76.5t56 67.5t99.5 48.5t146.5 18.5q74 0 126 -18.5t86 -49.5t49.5 -69.5t15.5 -79.5q0 -78 -42 -144.5t-103.5 -123t-128 -101.5t-116.5 -80h252q2 14 7.5 41t21.5 62h152v-277h-668z" />
<glyph unicode="&#xbe;" horiz-adv-x="1931" d="M51 721l47 164q59 -20 115.5 -32.5t108.5 -12.5q59 0 100 19.5t41 66.5q0 51 -41 68.5t-115 17.5h-102v149h102q66 0 96.5 29t30.5 78q0 41 -28.5 64.5t-75.5 23.5q-31 0 -54.5 -6.5t-33.5 -12.5v-100h-152q-10 18 -18.5 37.5t-8.5 48.5q0 35 14.5 71t49.5 64.5t94.5 47 t149.5 18.5q129 0 213 -58.5t84 -171.5q0 -74 -40 -121t-100 -75q74 -23 120 -68t46 -117q0 -63 -27.5 -110t-74.5 -78t-108.5 -46t-129.5 -15q-104 0 -171.5 17t-131.5 40zM426 78l1044 1438l141 -101l-1040 -1440zM1183 135v129l363 555h238v-516h116v-168h-116v-135h-197 v135h-404zM1380 303h207v317z" />
<glyph unicode="&#xbf;" horiz-adv-x="1159" d="M109 -51q0 80 32.5 141.5t82.5 112.5t107.5 94t107.5 87t83 92t33 108v80h162v-99q0 -104 -39 -181t-87 -139.5t-87 -118t-39 -114.5q0 -78 37 -120t119 -42q27 0 61.5 5.5t69.5 17.5v270h252q35 -47 59 -105t24 -112q0 -55 -23.5 -111.5t-79.5 -101.5t-151.5 -73.5 t-236.5 -28.5q-119 0 -210 25.5t-152.5 69.5t-93 106.5t-31.5 136.5zM451 975q0 39 14 72.5t39.5 59.5t59.5 40t75 14q76 0 130 -54t54 -132t-54 -130t-130 -52q-80 0 -134 52t-54 130z" />
<glyph unicode="&#xc0;" horiz-adv-x="1591" d="M6 0v221q33 20 73 32.5t62 18.5l365 951q-27 2 -66 12t-73 29v233h626l461 -1227q27 -6 61.5 -18t69.5 -31v-221h-696v221q47 27 98 39t80 16l-66 185h-458l-62 -185q27 -4 79 -17t102 -38v-221h-656zM445 1812l203 236l452 -354l-145 -123zM627 696h293l-146 437z" />
<glyph unicode="&#xc1;" horiz-adv-x="1591" d="M6 0v221q33 20 73 32.5t62 18.5l365 951q-27 2 -66 12t-73 29v233h626l461 -1227q27 -6 61.5 -18t69.5 -31v-221h-696v221q47 27 98 39t80 16l-66 185h-458l-62 -185q27 -4 79 -17t102 -38v-221h-656zM506 1694l453 354l202 -236l-510 -241zM627 696h293l-146 437z" />
<glyph unicode="&#xc2;" horiz-adv-x="1591" d="M6 0v221q33 20 73 32.5t62 18.5l365 951q-27 2 -66 12t-73 29v233h626l461 -1227q27 -6 61.5 -18t69.5 -31v-221h-696v221q47 27 98 39t80 16l-66 185h-458l-62 -185q27 -4 79 -17t102 -38v-221h-656zM338 1690l424 372l428 -372l-109 -111l-319 147l-316 -147zM627 696 h293l-146 437z" />
<glyph unicode="&#xc3;" horiz-adv-x="1591" d="M6 0v221q33 20 73 32.5t62 18.5l365 951q-27 2 -66 12t-73 29v233h626l461 -1227q27 -6 61.5 -18t69.5 -31v-221h-696v221q47 27 98 39t80 16l-66 185h-458l-62 -185q27 -4 79 -17t102 -38v-221h-656zM273 1708q76 123 148.5 189.5t158.5 66.5q45 0 96 -16.5t102.5 -35 t97.5 -34.5t83 -16q39 0 81 25.5t73 76.5l126 -92q-78 -133 -143 -197.5t-141 -64.5q-47 0 -97.5 16t-100.5 35.5t-98 36t-91 16.5q-35 0 -75 -25.5t-85 -82.5zM627 696h293l-146 437z" />
<glyph unicode="&#xc4;" horiz-adv-x="1591" d="M6 0v221q33 20 73 32.5t62 18.5l365 951q-27 2 -66 12t-73 29v233h626l461 -1227q27 -6 61.5 -18t69.5 -31v-221h-696v221q47 27 98 39t80 16l-66 185h-458l-62 -185q27 -4 79 -17t102 -38v-221h-656zM299 1790q0 82 50.5 133t138.5 51q90 0 141 -51t51 -133 q0 -80 -51 -134t-141 -54q-88 0 -138.5 51t-50.5 137zM627 696h293l-146 437zM814 1790q0 82 47 133t143 51q86 0 136 -51t50 -133q0 -80 -50 -134t-136 -54q-90 0 -140 54t-50 134z" />
<glyph unicode="&#xc5;" horiz-adv-x="1591" d="M6 0v221q33 20 73 32.5t62 18.5l365 951q-27 2 -66 12t-73 29v233h626l461 -1227q27 -6 61.5 -18t69.5 -31v-221h-696v221q47 27 98 39t80 16l-66 185h-458l-62 -185q27 -4 79 -17t102 -38v-221h-656zM463 1876q0 131 80 200.5t209 69.5q127 0 210 -69.5t83 -200.5 t-83 -202.5t-210 -71.5q-129 0 -209 71.5t-80 202.5zM627 696h293l-146 437zM656 1876q0 -47 24.5 -74.5t71.5 -27.5q53 0 75.5 27.5t22.5 74.5q0 43 -22.5 72.5t-75.5 29.5q-47 0 -71.5 -29.5t-24.5 -72.5z" />
<glyph unicode="&#xc6;" horiz-adv-x="2119" d="M6 0v221q47 23 80 35t57 16l437 953q-33 6 -66 15t-55 24v233h1589v-483h-229q-16 35 -25.5 73.5t-13.5 71.5q-6 37 -6 76h-390v-322h375v-258h-375v-391h424q2 39 9 80q4 35 14 76t27 78h225v-498h-1204v221q18 14 43.5 25.5t50.5 21.5q27 10 57 21v188h-424l-84 -207 q35 -8 67 -20t66 -29v-221h-649zM713 731h317v504h-110z" />
<glyph unicode="&#xc7;" horiz-adv-x="1370" d="M51 766q0 186 52.5 328.5t148.5 237.5t231 143.5t299 48.5q160 0 264.5 -34t166 -88t87 -123t25.5 -138q0 -70 -17.5 -129.5t-45.5 -96.5h-246v281q-41 35 -107.5 52.5t-126.5 17.5q-70 0 -135 -23.5t-117.5 -79t-84 -148.5t-31.5 -233q0 -141 34.5 -242.5t94 -166 t139.5 -94t170 -29.5q96 0 198.5 23.5t206.5 76.5l21 -274q-102 -49 -211 -72.5t-217 -28.5l-53 -90q63 0 112 -15t83 -41t50.5 -57.5t16.5 -64.5q0 -74 -32 -123t-83 -78.5t-114.5 -42t-127.5 -12.5q-53 0 -105 5t-95 16v180q29 -4 53.5 -6t46.5 -2q70 0 109 16t39 51 q0 25 -24 35t-52 10h-16.5t-16.5 -2l-53 74l80 154q-125 16 -237 69t-196.5 148.5t-134 235.5t-49.5 331z" />
<glyph unicode="&#xc8;" horiz-adv-x="1286" d="M45 0v221q29 23 72 40.5t80 27.5v923q-68 20 -101 35t-51 29v221h1169v-483h-229q-29 57 -37 115.5t-8 105.5h-389v-322h375v-258h-375v-391h424q4 53 12 113.5t37 120.5h225v-498h-1204zM289 1812l203 236l452 -354l-145 -123z" />
<glyph unicode="&#xc9;" horiz-adv-x="1286" d="M45 0v221q29 23 72 40.5t80 27.5v923q-68 20 -101 35t-51 29v221h1169v-483h-229q-29 57 -37 115.5t-8 105.5h-389v-322h375v-258h-375v-391h424q4 53 12 113.5t37 120.5h225v-498h-1204zM348 1694l453 354l202 -236l-510 -241z" />
<glyph unicode="&#xca;" horiz-adv-x="1286" d="M45 0v221q29 23 72 40.5t80 27.5v923q-68 20 -101 35t-51 29v221h1169v-483h-229q-29 57 -37 115.5t-8 105.5h-389v-322h375v-258h-375v-391h424q4 53 12 113.5t37 120.5h225v-498h-1204zM219 1690l424 372l428 -372l-109 -111l-319 147l-316 -147z" />
<glyph unicode="&#xcb;" horiz-adv-x="1286" d="M45 0v221q29 23 72 40.5t80 27.5v923q-68 20 -101 35t-51 29v221h1169v-483h-229q-29 57 -37 115.5t-8 105.5h-389v-322h375v-258h-375v-391h424q4 53 12 113.5t37 120.5h225v-498h-1204zM217 1790q0 82 50.5 133t138.5 51q90 0 141 -51t51 -133q0 -80 -51 -134t-141 -54 q-88 0 -138.5 51t-50.5 137zM732 1790q0 82 47 133t143 51q86 0 136 -51t50 -133q0 -80 -50 -134t-136 -54q-90 0 -140 54t-50 134z" />
<glyph unicode="&#xcc;" horiz-adv-x="763" d="M43 1812l203 236l452 -354l-145 -123zM45 0v221q29 23 71 40.5t79 27.5v966q-31 -16 -63 -26t-64 -10q-16 0 -23 2v276h653v-221q-29 -23 -70.5 -40t-78.5 -28v-964q29 16 68.5 26.5t74.5 10.5q18 0 27 -2v-279h-674z" />
<glyph unicode="&#xcd;" horiz-adv-x="763" d="M45 0v221q29 23 71 40.5t79 27.5v966q-31 -16 -63 -26t-64 -10q-16 0 -23 2v276h653v-221q-29 -23 -70.5 -40t-78.5 -28v-964q29 16 68.5 26.5t74.5 10.5q18 0 27 -2v-279h-674zM64 1694l453 354l202 -236l-510 -241z" />
<glyph unicode="&#xce;" horiz-adv-x="763" d="M-43 1690l424 372l428 -372l-109 -111l-319 147l-316 -147zM45 0v221q29 23 71 40.5t79 27.5v966q-31 -16 -63 -26t-64 -10q-16 0 -23 2v276h653v-221q-29 -23 -70.5 -40t-78.5 -28v-964q29 16 68.5 26.5t74.5 10.5q18 0 27 -2v-279h-674z" />
<glyph unicode="&#xcf;" horiz-adv-x="763" d="M-64 1790q0 82 50.5 133t138.5 51q90 0 141 -51t51 -133q0 -80 -51 -134t-141 -54q-88 0 -138.5 51t-50.5 137zM45 0v221q29 23 71 40.5t79 27.5v966q-31 -16 -63 -26t-64 -10q-16 0 -23 2v276h653v-221q-29 -23 -70.5 -40t-78.5 -28v-964q29 16 68.5 26.5t74.5 10.5 q18 0 27 -2v-279h-674zM451 1790q0 82 47 133t143 51q86 0 136 -51t50 -133q0 -80 -50 -134t-136 -54q-90 0 -140 54t-50 134z" />
<glyph unicode="&#xd0;" horiz-adv-x="1548" d="M45 0v221q29 23 71 40.5t79 27.5v370h-150v238h150v315q-66 23 -99 36.5t-51 27.5v221h617q209 0 364.5 -49t260 -141.5t155.5 -221.5t51 -288q0 -203 -61.5 -352.5t-172 -248t-263 -147.5t-334.5 -49h-617zM549 264h90q229 0 360 126t131 378q0 125 -33.5 214t-97 145.5 t-154.5 82t-206 25.5h-90v-338h250v-238h-250v-395z" />
<glyph unicode="&#xd1;" horiz-adv-x="1640" d="M45 0v221q18 14 44 25.5t48 21.5q27 10 58 21v923q-31 8 -58 19q-23 10 -48.5 20.5t-43.5 24.5v221h530l564 -991v749q-20 -10 -43 -18q-18 -8 -41 -13t-45 -5q-16 0 -23 2v276h617v-221q-18 -14 -45 -24.5t-50 -20.5q-27 -10 -55 -19v-1212h-356l-586 1028v-784 q23 10 47 18q20 6 46 12.5t50 6.5q16 0 25 -2v-279h-635zM348 1708q76 123 148.5 189.5t158.5 66.5q45 0 96 -16.5t102.5 -35t97.5 -34.5t83 -16q39 0 81 25.5t73 76.5l126 -92q-78 -133 -143 -197.5t-141 -64.5q-47 0 -97.5 16t-100.5 35.5t-98 36t-91 16.5 q-35 0 -75 -25.5t-85 -82.5z" />
<glyph unicode="&#xd2;" horiz-adv-x="1511" d="M57 750q0 180 48.5 323.5t138.5 243.5t219 153.5t293 53.5t293 -53.5t219 -153.5t138 -243.5t48 -323.5t-48 -324.5t-138 -245t-219 -154t-293 -53.5t-293 53.5t-219 154t-138.5 244.5t-48.5 325zM420 750q0 -240 88 -380.5t248 -140.5q80 0 142.5 36t105.5 103.5 t65.5 164t22.5 217.5q0 119 -22.5 215t-65.5 163.5t-105.5 104.5t-142.5 37q-160 0 -248 -140.5t-88 -379.5zM436 1812l203 236l452 -354l-145 -123z" />
<glyph unicode="&#xd3;" horiz-adv-x="1511" d="M57 750q0 180 48.5 323.5t138.5 243.5t219 153.5t293 53.5t293 -53.5t219 -153.5t138 -243.5t48 -323.5t-48 -324.5t-138 -245t-219 -154t-293 -53.5t-293 53.5t-219 154t-138.5 244.5t-48.5 325zM420 750q0 -240 88 -380.5t248 -140.5q80 0 142.5 36t105.5 103.5 t65.5 164t22.5 217.5q0 119 -22.5 215t-65.5 163.5t-105.5 104.5t-142.5 37q-160 0 -248 -140.5t-88 -379.5zM436 1694l453 354l202 -236l-510 -241z" />
<glyph unicode="&#xd4;" horiz-adv-x="1511" d="M57 750q0 180 48.5 323.5t138.5 243.5t219 153.5t293 53.5t293 -53.5t219 -153.5t138 -243.5t48 -323.5t-48 -324.5t-138 -245t-219 -154t-293 -53.5t-293 53.5t-219 154t-138.5 244.5t-48.5 325zM330 1690l424 372l428 -372l-109 -111l-319 147l-316 -147zM420 750 q0 -240 88 -380.5t248 -140.5q80 0 142.5 36t105.5 103.5t65.5 164t22.5 217.5q0 119 -22.5 215t-65.5 163.5t-105.5 104.5t-142.5 37q-160 0 -248 -140.5t-88 -379.5z" />
<glyph unicode="&#xd5;" horiz-adv-x="1511" d="M57 750q0 180 48.5 323.5t138.5 243.5t219 153.5t293 53.5t293 -53.5t219 -153.5t138 -243.5t48 -323.5t-48 -324.5t-138 -245t-219 -154t-293 -53.5t-293 53.5t-219 154t-138.5 244.5t-48.5 325zM291 1708q76 123 148.5 189.5t158.5 66.5q45 0 96 -16.5t102.5 -35 t97.5 -34.5t83 -16q39 0 81 25.5t73 76.5l126 -92q-78 -133 -143 -197.5t-141 -64.5q-47 0 -97.5 16t-100.5 35.5t-98 36t-91 16.5q-35 0 -75 -25.5t-85 -82.5zM420 750q0 -240 88 -380.5t248 -140.5q80 0 142.5 36t105.5 103.5t65.5 164t22.5 217.5q0 119 -22.5 215 t-65.5 163.5t-105.5 104.5t-142.5 37q-160 0 -248 -140.5t-88 -379.5z" />
<glyph unicode="&#xd6;" horiz-adv-x="1511" d="M57 750q0 180 48.5 323.5t138.5 243.5t219 153.5t293 53.5t293 -53.5t219 -153.5t138 -243.5t48 -323.5t-48 -324.5t-138 -245t-219 -154t-293 -53.5t-293 53.5t-219 154t-138.5 244.5t-48.5 325zM309 1790q0 82 50.5 133t138.5 51q90 0 141 -51t51 -133q0 -80 -51 -134 t-141 -54q-88 0 -138.5 51t-50.5 137zM420 750q0 -240 88 -380.5t248 -140.5q80 0 142.5 36t105.5 103.5t65.5 164t22.5 217.5q0 119 -22.5 215t-65.5 163.5t-105.5 104.5t-142.5 37q-160 0 -248 -140.5t-88 -379.5zM824 1790q0 82 47 133t143 51q86 0 136 -51t50 -133 q0 -80 -50 -134t-136 -54q-90 0 -140 54t-50 134z" />
<glyph unicode="&#xd7;" horiz-adv-x="1146" d="M49 246l336 319l-330 305l189 193l325 -324l330 324l188 -193l-331 -307q37 -37 80 -79t88 -83t89 -80.5t83 -74.5l-201 -174l-328 315l-319 -315z" />
<glyph unicode="&#xd8;" horiz-adv-x="1511" d="M57 750q0 180 48.5 323.5t138.5 243.5t219 153.5t293 53.5q98 0 183 -19.5t157 -54.5l102 162l135 -94l-102 -162q109 -100 166 -254t57 -352q0 -180 -48 -324.5t-138 -245t-219 -154t-293 -53.5q-195 0 -342 76l-99 -153l-133 92l97 155q-106 100 -164 254t-58 353z M420 750q0 -90 11 -167t36 -137l475 754q-76 70 -186 70q-160 0 -248 -140t-88 -380zM569 297q74 -68 187 -68q80 0 142.5 36t105.5 103.5t65.5 164t22.5 217.5q0 180 -50 303z" />
<glyph unicode="&#xd9;" horiz-adv-x="1624" d="M43 1221v276h653v-221q-16 -14 -42.5 -24.5t-49.5 -20.5q-29 -10 -57 -19v-532q0 -129 14 -216t48 -139.5t87.5 -74t130.5 -21.5q72 0 124.5 21.5t86 73t50 138.5t16.5 216v577q-20 -10 -43 -18q-18 -8 -41 -13t-45 -5q-16 0 -23 2v276h629v-221q-18 -14 -45 -24.5 t-49 -20.5q-27 -10 -55 -19v-518q0 -190 -29 -326.5t-99.5 -224.5t-191.5 -129t-305 -41q-178 0 -296 41t-188.5 129t-100 224.5t-29.5 326.5v561q-20 -10 -43 -18q-18 -8 -41 -13t-46 -5q-14 0 -20 2zM494 1812l203 236l452 -354l-145 -123z" />
<glyph unicode="&#xda;" horiz-adv-x="1624" d="M43 1221v276h653v-221q-16 -14 -42.5 -24.5t-49.5 -20.5q-29 -10 -57 -19v-532q0 -129 14 -216t48 -139.5t87.5 -74t130.5 -21.5q72 0 124.5 21.5t86 73t50 138.5t16.5 216v577q-20 -10 -43 -18q-18 -8 -41 -13t-45 -5q-16 0 -23 2v276h629v-221q-18 -14 -45 -24.5 t-49 -20.5q-27 -10 -55 -19v-518q0 -190 -29 -326.5t-99.5 -224.5t-191.5 -129t-305 -41q-178 0 -296 41t-188.5 129t-100 224.5t-29.5 326.5v561q-20 -10 -43 -18q-18 -8 -41 -13t-46 -5q-14 0 -20 2zM553 1694l453 354l202 -236l-510 -241z" />
<glyph unicode="&#xdb;" horiz-adv-x="1624" d="M43 1221v276h653v-221q-16 -14 -42.5 -24.5t-49.5 -20.5q-29 -10 -57 -19v-532q0 -129 14 -216t48 -139.5t87.5 -74t130.5 -21.5q72 0 124.5 21.5t86 73t50 138.5t16.5 216v577q-20 -10 -43 -18q-18 -8 -41 -13t-45 -5q-16 0 -23 2v276h629v-221q-18 -14 -45 -24.5 t-49 -20.5q-27 -10 -55 -19v-518q0 -190 -29 -326.5t-99.5 -224.5t-191.5 -129t-305 -41q-178 0 -296 41t-188.5 129t-100 224.5t-29.5 326.5v561q-20 -10 -43 -18q-18 -8 -41 -13t-46 -5q-14 0 -20 2zM385 1690l424 372l428 -372l-109 -111l-319 147l-316 -147z" />
<glyph unicode="&#xdc;" horiz-adv-x="1624" d="M43 1221v276h653v-221q-16 -14 -42.5 -24.5t-49.5 -20.5q-29 -10 -57 -19v-532q0 -129 14 -216t48 -139.5t87.5 -74t130.5 -21.5q72 0 124.5 21.5t86 73t50 138.5t16.5 216v577q-20 -10 -43 -18q-18 -8 -41 -13t-45 -5q-16 0 -23 2v276h629v-221q-18 -14 -45 -24.5 t-49 -20.5q-27 -10 -55 -19v-518q0 -190 -29 -326.5t-99.5 -224.5t-191.5 -129t-305 -41q-178 0 -296 41t-188.5 129t-100 224.5t-29.5 326.5v561q-20 -10 -43 -18q-18 -8 -41 -13t-46 -5q-14 0 -20 2zM391 1790q0 82 50.5 133t138.5 51q90 0 141 -51t51 -133 q0 -80 -51 -134t-141 -54q-88 0 -138.5 51t-50.5 137zM906 1790q0 82 47 133t143 51q86 0 136 -51t50 -133q0 -80 -50 -134t-136 -54q-90 0 -140 54t-50 134z" />
<glyph unicode="&#xdd;" horiz-adv-x="1587" d="M35 1221v276h696v-221q-29 -14 -65.5 -26.5t-73.5 -20.5l229 -432l244 434q-39 -10 -82 -13.5t-84 3.5v276h653v-221q-29 -23 -67.5 -38t-73.5 -24l-442 -673v-254q39 23 78.5 32t91.5 3v-322h-674v264q18 12 45 23.5t49 21.5q27 10 55 21v205l-442 704 q-29 -12 -65.5 -17t-71.5 -1zM516 1694l453 354l202 -236l-510 -241z" />
<glyph unicode="&#xde;" horiz-adv-x="1318" d="M45 0v221q18 14 44 25.5t48 21.5q27 10 58 21v966q-20 -10 -43 -18q-18 -8 -40 -13t-44 -5q-16 0 -23 2v276h653v-221q-18 -14 -43.5 -24.5t-48.5 -20.5q-27 -10 -57 -19v-67h221q266 0 390 -90t124 -289q0 -98 -38 -176t-106.5 -132.5t-162.5 -83t-207 -28.5h-221v-102 q29 10 57 18q25 6 54.5 12.5t58.5 6.5q18 0 29 -2v-279h-703zM549 602h207q80 0 124 36t44 112q0 131 -168 131h-207v-279z" />
<glyph unicode="&#xdf;" horiz-adv-x="1445" d="M31 0v221q18 14 40.5 25.5t43.5 21.5q23 10 47 21v663q0 162 26.5 294t95 226.5t188.5 144.5t308 50q111 0 199 -27.5t149.5 -75.5t94 -113t32.5 -138q0 -80 -33.5 -137.5t-73.5 -102.5t-73 -85t-33 -83q0 -41 26 -76.5t62.5 -73.5t81.5 -79t82 -91t62.5 -110.5 t25.5 -136.5q0 -82 -31.5 -148.5t-88 -114.5t-132 -75t-161.5 -27q-96 0 -171 15.5t-122 38.5v198h215q80 0 106.5 30t26.5 83q0 47 -25.5 88t-63.5 79t-83 75.5t-83 79.5t-63.5 90.5t-25.5 107.5q0 66 34 112t73.5 89t73.5 91t34 116q0 27 -8 54.5t-27.5 49t-51.5 35.5 t-79 14q-213 0 -213 -303v-1116h-485z" />
<glyph unicode="&#xe0;" horiz-adv-x="1298" d="M74 299q0 100 33.5 171t114.5 117t217 70.5t339 34.5v70q0 25 -8 50.5t-28.5 47t-52.5 35.5t-81 14q-53 0 -95 -12t-71 -25v-163h-243q-23 25 -38.5 63.5t-15.5 79.5q0 53 22.5 108.5t78 99.5t147.5 72.5t232 28.5q258 0 379.5 -100t121.5 -287v-487h146v-228 q-37 -47 -97.5 -66.5t-125.5 -19.5q-106 0 -160.5 61.5t-61.5 170.5h-28q-4 -35 -30 -75t-70 -75t-106.5 -58.5t-139.5 -23.5q-184 0 -281.5 88.5t-97.5 237.5zM315 1466l203 236l453 -354l-146 -123zM430 383q0 -82 46 -114.5t118 -32.5q35 0 68.5 15t59.5 40.5t41 58.5 t15 68v94q-92 -4 -182.5 -13.5t-149.5 -25.5q-6 -20 -11 -41.5t-5 -48.5z" />
<glyph unicode="&#xe1;" horiz-adv-x="1298" d="M74 299q0 100 33.5 171t114.5 117t217 70.5t339 34.5v70q0 25 -8 50.5t-28.5 47t-52.5 35.5t-81 14q-53 0 -95 -12t-71 -25v-163h-243q-23 25 -38.5 63.5t-15.5 79.5q0 53 22.5 108.5t78 99.5t147.5 72.5t232 28.5q258 0 379.5 -100t121.5 -287v-487h146v-228 q-37 -47 -97.5 -66.5t-125.5 -19.5q-106 0 -160.5 61.5t-61.5 170.5h-28q-4 -35 -30 -75t-70 -75t-106.5 -58.5t-139.5 -23.5q-184 0 -281.5 88.5t-97.5 237.5zM383 1348l453 354l203 -236l-510 -241zM430 383q0 -82 46 -114.5t118 -32.5q35 0 68.5 15t59.5 40.5t41 58.5 t15 68v94q-92 -4 -182.5 -13.5t-149.5 -25.5q-6 -20 -11 -41.5t-5 -48.5z" />
<glyph unicode="&#xe2;" horiz-adv-x="1298" d="M74 299q0 100 33.5 171t114.5 117t217 70.5t339 34.5v70q0 25 -8 50.5t-28.5 47t-52.5 35.5t-81 14q-53 0 -95 -12t-71 -25v-163h-243q-23 25 -38.5 63.5t-15.5 79.5q0 53 22.5 108.5t78 99.5t147.5 72.5t232 28.5q258 0 379.5 -100t121.5 -287v-487h146v-228 q-37 -47 -97.5 -66.5t-125.5 -19.5q-106 0 -160.5 61.5t-61.5 170.5h-28q-4 -35 -30 -75t-70 -75t-106.5 -58.5t-139.5 -23.5q-184 0 -281.5 88.5t-97.5 237.5zM215 1341l424 373l428 -373l-109 -110l-319 147l-316 -147zM430 383q0 -82 46 -114.5t118 -32.5q35 0 68.5 15 t59.5 40.5t41 58.5t15 68v94q-92 -4 -182.5 -13.5t-149.5 -25.5q-6 -20 -11 -41.5t-5 -48.5z" />
<glyph unicode="&#xe3;" horiz-adv-x="1298" d="M74 299q0 100 33.5 171t114.5 117t217 70.5t339 34.5v70q0 25 -8 50.5t-28.5 47t-52.5 35.5t-81 14q-53 0 -95 -12t-71 -25v-163h-243q-23 25 -38.5 63.5t-15.5 79.5q0 53 22.5 108.5t78 99.5t147.5 72.5t232 28.5q258 0 379.5 -100t121.5 -287v-487h146v-228 q-37 -47 -97.5 -66.5t-125.5 -19.5q-106 0 -160.5 61.5t-61.5 170.5h-28q-4 -35 -30 -75t-70 -75t-106.5 -58.5t-139.5 -23.5q-184 0 -281.5 88.5t-97.5 237.5zM166 1370q76 123 148.5 189.5t158.5 66.5q45 0 96.5 -16.5t102.5 -35t97 -34.5t83 -16q39 0 81 25.5t73 76.5 l127 -92q-78 -133 -143.5 -197.5t-141.5 -64.5q-47 0 -97.5 16.5t-100.5 35.5t-98 35.5t-91 16.5q-35 0 -75 -25.5t-85 -82.5zM430 383q0 -82 46 -114.5t118 -32.5q35 0 68.5 15t59.5 40.5t41 58.5t15 68v94q-92 -4 -182.5 -13.5t-149.5 -25.5q-6 -20 -11 -41.5t-5 -48.5z " />
<glyph unicode="&#xe4;" horiz-adv-x="1298" d="M74 299q0 100 33.5 171t114.5 117t217 70.5t339 34.5v70q0 25 -8 50.5t-28.5 47t-52.5 35.5t-81 14q-53 0 -95 -12t-71 -25v-163h-243q-23 25 -38.5 63.5t-15.5 79.5q0 53 22.5 108.5t78 99.5t147.5 72.5t232 28.5q258 0 379.5 -100t121.5 -287v-487h146v-228 q-37 -47 -97.5 -66.5t-125.5 -19.5q-106 0 -160.5 61.5t-61.5 170.5h-28q-4 -35 -30 -75t-70 -75t-106.5 -58.5t-139.5 -23.5q-184 0 -281.5 88.5t-97.5 237.5zM201 1462q0 82 50.5 133.5t138.5 51.5q90 0 141 -51.5t51 -133.5q0 -80 -51 -134t-141 -54q-88 0 -138.5 51 t-50.5 137zM430 383q0 -82 46 -114.5t118 -32.5q35 0 68.5 15t59.5 40.5t41 58.5t15 68v94q-92 -4 -182.5 -13.5t-149.5 -25.5q-6 -20 -11 -41.5t-5 -48.5zM701 1462q0 82 47 133.5t143 51.5q86 0 136.5 -51.5t50.5 -133.5q0 -80 -50.5 -134t-136.5 -54q-90 0 -140 54 t-50 134z" />
<glyph unicode="&#xe5;" horiz-adv-x="1298" d="M74 299q0 100 33.5 171t114.5 117t217 70.5t339 34.5v70q0 25 -8 50.5t-28.5 47t-52.5 35.5t-81 14q-53 0 -95 -12t-71 -25v-163h-243q-23 25 -38.5 63.5t-15.5 79.5q0 53 22.5 108.5t78 99.5t147.5 72.5t232 28.5q258 0 379.5 -100t121.5 -287v-487h146v-228 q-37 -47 -97.5 -66.5t-125.5 -19.5q-106 0 -160.5 61.5t-61.5 170.5h-28q-4 -35 -30 -75t-70 -75t-106.5 -58.5t-139.5 -23.5q-184 0 -281.5 88.5t-97.5 237.5zM360 1522q0 131 80 200.5t209 69.5q127 0 210 -69.5t83 -200.5t-83 -203t-210 -72q-129 0 -209 72t-80 203z M430 383q0 -82 46 -114.5t118 -32.5q35 0 68.5 15t59.5 40.5t41 58.5t15 68v94q-92 -4 -182.5 -13.5t-149.5 -25.5q-6 -20 -11 -41.5t-5 -48.5zM553 1522q0 -47 24.5 -75t71.5 -28q53 0 75.5 28t22.5 75q0 43 -22.5 72.5t-75.5 29.5q-47 0 -71.5 -29.5t-24.5 -72.5z" />
<glyph unicode="&#xe6;" horiz-adv-x="1908" d="M72 299q0 100 33.5 170t114.5 114t217 68.5t339 34.5v76q0 25 -8 50.5t-28.5 47t-52.5 35.5t-81 14q-53 0 -95 -12t-71 -25v-163h-243q-23 25 -38.5 63.5t-15.5 79.5q0 53 22.5 108.5t78 99.5t147.5 72.5t232 28.5q129 0 219 -35.5t151 -107.5q80 78 181.5 110.5 t201.5 32.5q121 0 211 -33.5t150.5 -93t91.5 -141.5t31 -180q0 -41 -2.5 -85t-12.5 -91q-96 -29 -195.5 -40.5t-203.5 -11.5q-78 0 -157 4.5t-159 8.5q4 -133 93.5 -201t253.5 -68q72 0 147.5 16.5t161.5 45.5l33 -236q-49 -20 -98.5 -35.5t-102.5 -25.5t-111.5 -15.5 t-128.5 -5.5q-141 0 -248.5 62.5t-166.5 185.5q-14 -37 -49 -80t-93.5 -79.5t-144.5 -62.5t-205 -26q-193 0 -296 88.5t-103 237.5zM428 383q0 -82 46 -114.5t118 -32.5q35 0 68.5 15t59 40.5t41 58.5t15.5 68v94q-92 -4 -182.5 -13.5t-149.5 -25.5q-6 -20 -11 -41.5 t-5 -48.5zM1133 668q104 0 203.5 4t174.5 30q2 8 2 16.5v16.5q0 72 -44 125t-126 53q-98 0 -154 -70.5t-56 -174.5z" />
<glyph unicode="&#xe7;" horiz-adv-x="1093" d="M53 567q0 147 44 258t121 185.5t181.5 112.5t227.5 38t203.5 -27.5t128 -72.5t66.5 -100.5t19 -110.5q0 -61 -11 -116.5t-29 -88.5h-244v201q-25 33 -55.5 48t-75.5 15q-41 0 -80 -15t-71 -52t-51 -97.5t-19 -150.5q0 -193 81.5 -271.5t237.5 -78.5q59 0 117.5 15 t105.5 44l82 -237q-80 -45 -156.5 -65.5t-175.5 -25.5l-51 -90q63 0 112.5 -15t83.5 -41t50 -57.5t16 -64.5q0 -74 -31.5 -123t-83 -78.5t-115 -42t-126.5 -12.5q-53 0 -105.5 5t-95.5 16v180q29 -4 53.5 -6t47.5 -2q70 0 108.5 16t38.5 51q0 25 -23.5 35t-52.5 10h-16 t-16 -2l-54 74l80 156q-106 14 -192 58t-147.5 116.5t-94.5 175t-33 233.5z" />
<glyph unicode="&#xe8;" horiz-adv-x="1165" d="M53 545q0 174 52.5 292.5t136.5 190.5t191.5 102.5t217.5 30.5q117 0 204 -33.5t145.5 -93t87 -141.5t28.5 -180q0 -41 -2 -85t-14 -91q-117 -37 -238 -50.5t-248 -13.5q-102 0 -206 6q4 -135 92 -192.5t254 -57.5q72 0 147.5 16.5t161.5 45.5l33 -236 q-102 -41 -202.5 -61.5t-240.5 -20.5q-133 0 -243.5 38t-189.5 111t-123 179.5t-44 243.5zM307 1466l203 236l453 -354l-146 -123zM408 668q106 0 204.5 4t175.5 30q2 10 3 31q0 72 -43 126t-127 54q-100 0 -156.5 -70.5t-56.5 -174.5z" />
<glyph unicode="&#xe9;" horiz-adv-x="1165" d="M53 545q0 174 52.5 292.5t136.5 190.5t191.5 102.5t217.5 30.5q117 0 204 -33.5t145.5 -93t87 -141.5t28.5 -180q0 -41 -2 -85t-14 -91q-117 -37 -238 -50.5t-248 -13.5q-102 0 -206 6q4 -135 92 -192.5t254 -57.5q72 0 147.5 16.5t161.5 45.5l33 -236 q-102 -41 -202.5 -61.5t-240.5 -20.5q-133 0 -243.5 38t-189.5 111t-123 179.5t-44 243.5zM293 1348l453 354l203 -236l-510 -241zM408 668q106 0 204.5 4t175.5 30q2 10 3 31q0 72 -43 126t-127 54q-100 0 -156.5 -70.5t-56.5 -174.5z" />
<glyph unicode="&#xea;" horiz-adv-x="1165" d="M53 545q0 174 52.5 292.5t136.5 190.5t191.5 102.5t217.5 30.5q117 0 204 -33.5t145.5 -93t87 -141.5t28.5 -180q0 -41 -2 -85t-14 -91q-117 -37 -238 -50.5t-248 -13.5q-102 0 -206 6q4 -135 92 -192.5t254 -57.5q72 0 147.5 16.5t161.5 45.5l33 -236 q-102 -41 -202.5 -61.5t-240.5 -20.5q-133 0 -243.5 38t-189.5 111t-123 179.5t-44 243.5zM195 1341l424 373l428 -373l-109 -110l-319 147l-316 -147zM408 668q106 0 204.5 4t175.5 30q2 10 3 31q0 72 -43 126t-127 54q-100 0 -156.5 -70.5t-56.5 -174.5z" />
<glyph unicode="&#xeb;" horiz-adv-x="1165" d="M53 545q0 174 52.5 292.5t136.5 190.5t191.5 102.5t217.5 30.5q117 0 204 -33.5t145.5 -93t87 -141.5t28.5 -180q0 -41 -2 -85t-14 -91q-117 -37 -238 -50.5t-248 -13.5q-102 0 -206 6q4 -135 92 -192.5t254 -57.5q72 0 147.5 16.5t161.5 45.5l33 -236 q-102 -41 -202.5 -61.5t-240.5 -20.5q-133 0 -243.5 38t-189.5 111t-123 179.5t-44 243.5zM196 1462q0 82 50.5 133.5t138.5 51.5q90 0 141 -51.5t51 -133.5q0 -80 -51 -134t-141 -54q-88 0 -138.5 51t-50.5 137zM408 668q106 0 204.5 4t175.5 30q2 10 3 31q0 72 -43 126 t-127 54q-100 0 -156.5 -70.5t-56.5 -174.5zM696 1462q0 82 47 133.5t143 51.5q86 0 136.5 -51.5t50.5 -133.5q0 -80 -50.5 -134t-136.5 -54q-90 0 -140 54t-50 134z" />
<glyph unicode="&#xec;" horiz-adv-x="696" d="M-2 1466l203 236l453 -354l-146 -123zM33 897v240h489v-891q16 8 37 16q16 6 39 12.5t45 6.5q16 0 25 -2v-279h-623v221q18 14 39.5 25.5t42.5 21.5q23 10 47 21v565q-23 2 -45 8q-20 4 -45 12.5t-51 22.5z" />
<glyph unicode="&#xed;" horiz-adv-x="696" d="M-10 1348l453 354l203 -236l-510 -241zM33 897v240h489v-891q16 8 37 16q16 6 39 12.5t45 6.5q16 0 25 -2v-279h-623v221q18 14 39.5 25.5t42.5 21.5q23 10 47 21v565q-23 2 -45 8q-20 4 -45 12.5t-51 22.5z" />
<glyph unicode="&#xee;" horiz-adv-x="696" d="M-104 1341l424 373l428 -373l-109 -110l-319 147l-316 -147zM33 897v240h489v-891q16 8 37 16q16 6 39 12.5t45 6.5q16 0 25 -2v-279h-623v221q18 14 39.5 25.5t42.5 21.5q23 10 47 21v565q-23 2 -45 8q-20 4 -45 12.5t-51 22.5z" />
<glyph unicode="&#xef;" horiz-adv-x="696" d="M-84 1462q0 82 50 133.5t138 51.5q90 0 141.5 -51.5t51.5 -133.5q0 -80 -51 -134t-142 -54q-88 0 -138 51t-50 137zM33 897v240h489v-891q16 8 37 16q16 6 39 12.5t45 6.5q16 0 25 -2v-279h-623v221q18 14 39.5 25.5t42.5 21.5q23 10 47 21v565q-23 2 -45 8 q-20 4 -45 12.5t-51 22.5zM389 1462q0 82 47 133.5t144 51.5q86 0 136 -51.5t50 -133.5q0 -80 -50 -134t-136 -54q-90 0 -140.5 54t-50.5 134z" />
<glyph unicode="&#xf0;" horiz-adv-x="1271" d="M70 545q0 131 36.5 235.5t104.5 178t166 113.5t221 40q88 0 139 -33q-31 61 -80 111.5t-108 97.5l-180 -108l-93 147l132 80q-45 35 -94.5 59.5t-92.5 42.5l129 179q86 -33 167 -71t155 -87l258 158l94 -150l-203 -119q174 -139 279.5 -339.5t105.5 -481.5 q0 -145 -36.5 -260t-109.5 -197t-182.5 -125t-254.5 -43q-131 0 -234.5 41t-174.5 117t-107.5 180.5t-36.5 233.5zM408 549q0 -150 54 -240t171 -90q66 0 110.5 27.5t73.5 75t42 110.5t13 135q0 59 -7 112.5t-15 106.5q-41 35 -95.5 53.5t-105.5 18.5q-66 0 -111.5 -23.5 t-74.5 -65.5t-42 -98.5t-13 -121.5z" />
<glyph unicode="&#xf1;" horiz-adv-x="1419" d="M35 897v240h469v-95q0 -53 -6 -87.5t-21 -86.5h27q12 51 40.5 103.5t77 94.5t114 68.5t151.5 26.5q74 0 139.5 -18.5t114.5 -56t77.5 -97t28.5 -139.5v-604q16 8 37 16q16 6 39 12.5t45 6.5q16 0 25 -2v-279h-621v221q18 14 41 25.5l43 21.5q23 10 45 21v504 q-23 16 -61.5 29.5t-89.5 13.5q-117 0 -171.5 -92.5t-54.5 -241.5v-256q16 8 37 16q16 6 39 12.5t45 6.5q16 0 25 -2v-279h-621v221q18 14 41 25.5l43 21.5q23 10 45 21v565q-20 0 -43 6q-20 4 -46 12.5t-54 24.5zM223 1370q76 123 148.5 189.5t158.5 66.5q45 0 96.5 -16.5 t102.5 -35t97 -34.5t83 -16q39 0 81 25.5t73 76.5l127 -92q-78 -133 -143.5 -197.5t-141.5 -64.5q-47 0 -97.5 16.5t-100.5 35.5t-98 35.5t-91 16.5q-35 0 -75 -25.5t-85 -82.5z" />
<glyph unicode="&#xf2;" horiz-adv-x="1294" d="M72 561q0 289 145 444.5t430 155.5t430.5 -155.5t145.5 -444.5q0 -281 -147.5 -434.5t-428.5 -153.5t-428 154t-147 434zM352 1466l203 236l453 -354l-146 -123zM426 561q0 -162 58.5 -252t162.5 -90t161.5 90t57.5 252q0 164 -57 259t-162 95q-104 0 -162.5 -95 t-58.5 -259z" />
<glyph unicode="&#xf3;" horiz-adv-x="1294" d="M72 561q0 289 145 444.5t430 155.5t430.5 -155.5t145.5 -444.5q0 -281 -147.5 -434.5t-428.5 -153.5t-428 154t-147 434zM362 1348l453 354l203 -236l-510 -241zM426 561q0 -162 58.5 -252t162.5 -90t161.5 90t57.5 252q0 164 -57 259t-162 95q-104 0 -162.5 -95 t-58.5 -259z" />
<glyph unicode="&#xf4;" horiz-adv-x="1294" d="M72 561q0 289 145 444.5t430 155.5t430.5 -155.5t145.5 -444.5q0 -281 -147.5 -434.5t-428.5 -153.5t-428 154t-147 434zM213 1341l424 373l428 -373l-109 -110l-319 147l-316 -147zM426 561q0 -162 58.5 -252t162.5 -90t161.5 90t57.5 252q0 164 -57 259t-162 95 q-104 0 -162.5 -95t-58.5 -259z" />
<glyph unicode="&#xf5;" horiz-adv-x="1294" d="M72 561q0 289 145 444.5t430 155.5t430.5 -155.5t145.5 -444.5q0 -281 -147.5 -434.5t-428.5 -153.5t-428 154t-147 434zM166 1370q76 123 148.5 189.5t158.5 66.5q45 0 96.5 -16.5t102.5 -35t97 -34.5t83 -16q39 0 81 25.5t73 76.5l127 -92q-78 -133 -143.5 -197.5 t-141.5 -64.5q-47 0 -97.5 16.5t-100.5 35.5t-98 35.5t-91 16.5q-35 0 -75 -25.5t-85 -82.5zM426 561q0 -162 58.5 -252t162.5 -90t161.5 90t57.5 252q0 164 -57 259t-162 95q-104 0 -162.5 -95t-58.5 -259z" />
<glyph unicode="&#xf6;" horiz-adv-x="1294" d="M72 561q0 289 145 444.5t430 155.5t430.5 -155.5t145.5 -444.5q0 -281 -147.5 -434.5t-428.5 -153.5t-428 154t-147 434zM219 1462q0 82 50.5 133.5t138.5 51.5q90 0 141 -51.5t51 -133.5q0 -80 -51 -134t-141 -54q-88 0 -138.5 51t-50.5 137zM426 561q0 -162 58.5 -252 t162.5 -90t161.5 90t57.5 252q0 164 -57 259t-162 95q-104 0 -162.5 -95t-58.5 -259zM719 1462q0 82 47 133.5t143 51.5q86 0 136.5 -51.5t50.5 -133.5q0 -80 -50.5 -134t-136.5 -54q-90 0 -140 54t-50 134z" />
<glyph unicode="&#xf7;" horiz-adv-x="1146" d="M61 440v248h1024v-248h-1024zM399 205q0 72 49.5 124t122.5 52q37 0 69 -14.5t56.5 -39t38 -56t13.5 -66.5q0 -74 -51.5 -124t-125.5 -50t-123 50t-49 124zM399 924q0 76 49.5 125t122.5 49q74 0 125.5 -49.5t51.5 -124.5q0 -76 -51.5 -125t-125.5 -49t-123 49t-49 125z " />
<glyph unicode="&#xf8;" horiz-adv-x="1294" d="M72 561q0 289 145 444.5t430 155.5q80 0 139.5 -11t110.5 -28l90 144l152 -103l-86 -137q86 -78 128 -191.5t42 -273.5q0 -281 -147.5 -434.5t-428.5 -153.5q-66 0 -115 7.5t-100 23.5l-82 -137l-157 98l73 123q-96 74 -145 193.5t-49 279.5zM426 561q0 -100 25 -174 l301 496q-18 14 -44 23t-61 9q-104 0 -162.5 -95t-58.5 -259zM571 233q16 -8 38 -11t38 -3q104 0 161.5 90t57.5 252q0 45 -3 74t-9 61z" />
<glyph unicode="&#xf9;" horiz-adv-x="1370" d="M12 897v240h498v-770q27 -29 70 -47.5t102 -18.5q41 0 76 18.5t60.5 48t39.5 69.5t14 83v326q-23 2 -47 10q-23 6 -50 15.5t-56 25.5v240h479v-850h145v-228q-37 -47 -97 -66.5t-126 -19.5q-106 0 -160.5 61.5t-60.5 170.5h-27q-16 -43 -44.5 -85t-71.5 -74t-100.5 -52.5 t-129.5 -20.5q-74 0 -139 21.5t-114.5 64.5t-78 111t-28.5 160v516q-25 2 -49 10q-23 6 -49.5 15.5t-55.5 25.5zM319 1466l203 236l453 -354l-146 -123z" />
<glyph unicode="&#xfa;" horiz-adv-x="1370" d="M12 897v240h498v-770q27 -29 70 -47.5t102 -18.5q41 0 76 18.5t60.5 48t39.5 69.5t14 83v326q-23 2 -47 10q-23 6 -50 15.5t-56 25.5v240h479v-850h145v-228q-37 -47 -97 -66.5t-126 -19.5q-106 0 -160.5 61.5t-60.5 170.5h-27q-16 -43 -44.5 -85t-71.5 -74t-100.5 -52.5 t-129.5 -20.5q-74 0 -139 21.5t-114.5 64.5t-78 111t-28.5 160v516q-25 2 -49 10q-23 6 -49.5 15.5t-55.5 25.5zM372 1348l453 354l203 -236l-510 -241z" />
<glyph unicode="&#xfb;" horiz-adv-x="1370" d="M12 897v240h498v-770q27 -29 70 -47.5t102 -18.5q41 0 76 18.5t60.5 48t39.5 69.5t14 83v326q-23 2 -47 10q-23 6 -50 15.5t-56 25.5v240h479v-850h145v-228q-37 -47 -97 -66.5t-126 -19.5q-106 0 -160.5 61.5t-60.5 170.5h-27q-16 -43 -44.5 -85t-71.5 -74t-100.5 -52.5 t-129.5 -20.5q-74 0 -139 21.5t-114.5 64.5t-78 111t-28.5 160v516q-25 2 -49 10q-23 6 -49.5 15.5t-55.5 25.5zM221 1341l424 373l428 -373l-109 -110l-319 147l-316 -147z" />
<glyph unicode="&#xfc;" horiz-adv-x="1370" d="M12 897v240h498v-770q27 -29 70 -47.5t102 -18.5q41 0 76 18.5t60.5 48t39.5 69.5t14 83v326q-23 2 -47 10q-23 6 -50 15.5t-56 25.5v240h479v-850h145v-228q-37 -47 -97 -66.5t-126 -19.5q-106 0 -160.5 61.5t-60.5 170.5h-27q-16 -43 -44.5 -85t-71.5 -74t-100.5 -52.5 t-129.5 -20.5q-74 0 -139 21.5t-114.5 64.5t-78 111t-28.5 160v516q-25 2 -49 10q-23 6 -49.5 15.5t-55.5 25.5zM213 1462q0 82 50.5 133.5t138.5 51.5q90 0 141 -51.5t51 -133.5q0 -80 -51 -134t-141 -54q-88 0 -138.5 51t-50.5 137zM713 1462q0 82 47 133.5t143 51.5 q86 0 136.5 -51.5t50.5 -133.5q0 -80 -50.5 -134t-136.5 -54q-90 0 -140 54t-50 134z" />
<glyph unicode="&#xfd;" horiz-adv-x="1349" d="M-12 858v279h622v-224q-29 -16 -59.5 -25t-58.5 -14l194 -608l207 625q-18 -10 -61.5 -21.5t-83.5 -11.5v279h567v-224q-35 -23 -68 -32t-55 -13l-336 -913q-47 -125 -93 -214t-104.5 -145.5t-133 -82t-175.5 -25.5q-61 0 -111.5 11.5t-82.5 29.5v244h280q20 10 36.5 21 t34 35t35 63.5t40.5 107.5h-115l-342 891q-18 -12 -57 -21.5t-80 -11.5zM387 1348l453 354l203 -236l-510 -241z" />
<glyph unicode="&#xfe;" horiz-adv-x="1357" d="M31 1386v240h469v-584q0 -53 -6.5 -87.5t-20.5 -86.5h27q12 51 40.5 103.5t76 94.5t113 68.5t151.5 26.5q102 0 181 -42t133 -115.5t82 -175t28 -222.5q0 -147 -40 -265t-116 -199t-186.5 -125t-249.5 -44q-47 0 -95.5 7.5t-99.5 23.5v-242q25 8 49 17q23 6 49.5 12 t55.5 6q20 0 30 -2v-278h-661v219q23 16 47.5 29.5t42.5 21.5q23 8 43 16v1538q-20 2 -43 9q-20 4 -46 12t-54 24zM518 250q47 -16 89 -22.5t83 -6.5q55 0 102.5 17.5t82 55.5t55 100.5t20.5 152.5q0 57 -12 109.5t-39 92t-69 62.5t-99 23q-55 0 -95 -20.5t-65.5 -57.5 t-39 -86t-13.5 -107v-313z" />
<glyph unicode="&#xff;" horiz-adv-x="1349" d="M-12 858v279h622v-224q-29 -16 -59.5 -25t-58.5 -14l194 -608l207 625q-18 -10 -61.5 -21.5t-83.5 -11.5v279h567v-224q-35 -23 -68 -32t-55 -13l-336 -913q-47 -125 -93 -214t-104.5 -145.5t-133 -82t-175.5 -25.5q-61 0 -111.5 11.5t-82.5 29.5v244h280q20 10 36.5 21 t34 35t35 63.5t40.5 107.5h-115l-342 891q-18 -12 -57 -21.5t-80 -11.5zM241 1462q0 82 50.5 133.5t138.5 51.5q90 0 141 -51.5t51 -133.5q0 -80 -51 -134t-141 -54q-88 0 -138.5 51t-50.5 137zM741 1462q0 82 47 133.5t143 51.5q86 0 136.5 -51.5t50.5 -133.5 q0 -80 -50.5 -134t-136.5 -54q-90 0 -140 54t-50 134z" />
<glyph unicode="&#x152;" horiz-adv-x="2179" d="M57 739q0 186 43 332t128 246t212 153.5t293 53.5q109 0 198 -30t159 -91v94h1017v-483h-229q-16 35 -25.5 73.5t-13.5 71.5q-6 37 -6 76h-389v-322h375v-258h-375v-391h424q2 39 8 80q4 35 14.5 76t26.5 78h225v-498h-1052v96q-141 -123 -357 -123q-160 0 -284.5 51.5 t-211.5 149.5t-133.5 240.5t-46.5 324.5zM420 739q0 -242 97.5 -377t275.5 -135q100 0 173.5 46t123.5 124v684q-49 96 -123 139.5t-174 43.5q-88 0 -157 -37t-117 -105.5t-73.5 -166t-25.5 -216.5z" />
<glyph unicode="&#x153;" horiz-adv-x="2039" d="M72 561q0 289 147.5 444.5t446.5 155.5q139 0 244.5 -41t179.5 -119q86 86 194.5 123t222.5 37q121 0 211 -33.5t150.5 -93t91.5 -141.5t31 -180q0 -41 -2.5 -85t-12.5 -91q-121 -37 -245.5 -50.5t-255.5 -13.5q-106 0 -213 6q4 -135 93 -192.5t253 -57.5 q72 0 147.5 16.5t161.5 45.5l33 -236q-49 -20 -98.5 -35.5t-102.5 -25.5t-111.5 -15.5t-128.5 -5.5q-131 0 -238.5 40t-185.5 120q-154 -160 -419 -160q-281 0 -437.5 154t-156.5 434zM426 561q0 -162 62.5 -252t177.5 -90q113 0 175 90t62 252q0 164 -63.5 259t-173.5 95 q-113 0 -176.5 -95t-63.5 -259zM1264 668q104 0 203.5 4t174.5 30q2 8 2.5 16.5t0.5 16.5q0 72 -43 125t-125 53q-100 0 -156.5 -70.5t-56.5 -174.5z" />
<glyph unicode="&#x178;" horiz-adv-x="1587" d="M35 1221v276h696v-221q-29 -14 -65.5 -26.5t-73.5 -20.5l229 -432l244 434q-39 -10 -82 -13.5t-84 3.5v276h653v-221q-29 -23 -67.5 -38t-73.5 -24l-442 -673v-254q39 23 78.5 32t91.5 3v-322h-674v264q18 12 45 23.5t49 21.5q27 10 55 21v205l-442 704 q-29 -12 -65.5 -17t-71.5 -1zM366 1790q0 82 50.5 133t138.5 51q90 0 141 -51t51 -133q0 -80 -51 -134t-141 -54q-88 0 -138.5 51t-50.5 137zM881 1790q0 82 47 133t143 51q86 0 136 -51t50 -133q0 -80 -50 -134t-136 -54q-90 0 -140 54t-50 134z" />
<glyph unicode="&#x2c6;" horiz-adv-x="1187" d="M168 1341l424 373l428 -373l-109 -110l-319 147l-316 -147z" />
<glyph unicode="&#x2dc;" horiz-adv-x="1187" d="M125 1370q76 123 148.5 189.5t158.5 66.5q45 0 96.5 -16.5t102.5 -35t97 -34.5t83 -16q39 0 81 25.5t73 76.5l127 -92q-78 -133 -143.5 -197.5t-141.5 -64.5q-47 0 -97.5 16.5t-100.5 35.5t-98 35.5t-91 16.5q-35 0 -75 -25.5t-85 -82.5z" />
<glyph unicode="&#x2000;" horiz-adv-x="1073" />
<glyph unicode="&#x2001;" horiz-adv-x="2146" />
<glyph unicode="&#x2002;" horiz-adv-x="1073" />
<glyph unicode="&#x2003;" horiz-adv-x="2146" />
<glyph unicode="&#x2004;" horiz-adv-x="715" />
<glyph unicode="&#x2005;" horiz-adv-x="536" />
<glyph unicode="&#x2006;" horiz-adv-x="357" />
<glyph unicode="&#x2007;" horiz-adv-x="357" />
<glyph unicode="&#x2008;" horiz-adv-x="268" />
<glyph unicode="&#x2009;" horiz-adv-x="429" />
<glyph unicode="&#x200a;" horiz-adv-x="119" />
<glyph unicode="&#x2010;" horiz-adv-x="839" d="M119 494v237h602v-237h-602z" />
<glyph unicode="&#x2011;" horiz-adv-x="839" d="M119 494v237h602v-237h-602z" />
<glyph unicode="&#x2012;" horiz-adv-x="839" d="M119 494v237h602v-237h-602z" />
<glyph unicode="&#x2013;" horiz-adv-x="1024" d="M82 494v237h860v-237h-860z" />
<glyph unicode="&#x2014;" horiz-adv-x="2048" d="M82 494v237h1884v-237h-1884z" />
<glyph unicode="&#x2018;" horiz-adv-x="696" d="M123 1186q0 63 17.5 130.5t51 133.5t79.5 125t106 106l110 -61q-45 -53 -76.5 -126t-31.5 -146v-24.5t4 -23.5q88 0 141.5 -50t53.5 -142q0 -49 -18.5 -88t-49.5 -67.5t-72 -44t-86 -15.5q-92 0 -160.5 73.5t-68.5 219.5z" />
<glyph unicode="&#x2019;" horiz-adv-x="708" d="M123 1444q0 49 17.5 88t48 67.5t71.5 44t88 15.5q92 0 161 -74t69 -219q0 -63 -17.5 -131t-51.5 -133.5t-81 -126t-104 -105.5l-111 62q43 53 76 125.5t33 146.5q0 12 -1.5 23.5t-3.5 23.5q-88 0 -141 50.5t-53 142.5z" />
<glyph unicode="&#x201a;" horiz-adv-x="720" d="M123 188q0 49 17.5 88t48 68t71.5 44t88 15q92 0 161 -73.5t69 -218.5q0 -63 -17.5 -131t-51.5 -133.5t-81 -126t-104 -105.5l-111 61q43 53 76 126t33 147q0 12 -1.5 23.5t-3.5 23.5q-88 0 -141 50t-53 142z" />
<glyph unicode="&#x201c;" horiz-adv-x="1265" d="M123 1186q0 63 17.5 130.5t51 133.5t79.5 125t106 106l110 -61q-45 -53 -76.5 -126t-31.5 -146v-24.5t4 -23.5q88 0 141.5 -50t53.5 -142q0 -49 -18.5 -88t-49.5 -67.5t-72 -44t-86 -15.5q-92 0 -160.5 73.5t-68.5 219.5zM692 1186q0 63 17.5 130.5t51 133.5t79.5 125 t106 106l110 -61q-45 -53 -76.5 -126t-31.5 -146v-24.5t4 -23.5q88 0 141.5 -50t53.5 -142q0 -49 -18.5 -88t-49.5 -67.5t-72 -44t-86 -15.5q-92 0 -160.5 73.5t-68.5 219.5z" />
<glyph unicode="&#x201d;" horiz-adv-x="1277" d="M123 1444q0 49 17.5 88t48 67.5t71.5 44t88 15.5q92 0 161 -74t69 -219q0 -63 -17.5 -131t-51.5 -133.5t-81 -126t-104 -105.5l-111 62q43 53 76 125.5t33 146.5q0 12 -1.5 23.5t-3.5 23.5q-88 0 -141 50.5t-53 142.5zM692 1444q0 49 17.5 88t48 67.5t71.5 44t88 15.5 q92 0 161 -74t69 -219q0 -63 -17.5 -131t-51.5 -133.5t-81 -126t-104 -105.5l-111 62q43 53 76 125.5t33 146.5q0 12 -1.5 23.5t-3.5 23.5q-88 0 -141 50.5t-53 142.5z" />
<glyph unicode="&#x201e;" d="M123 189q0 49 17.5 88t48 67.5t71.5 44t88 15.5q92 0 161 -74t69 -219q0 -63 -17.5 -131t-51.5 -133.5t-81 -126t-104 -105.5l-111 62q43 53 76 125.5t33 146.5q0 12 -1.5 23.5t-3.5 23.5q-88 0 -141 50.5t-53 142.5zM692 189q0 49 17.5 88t48 67.5t71.5 44t88 15.5 q92 0 161 -74t69 -219q0 -63 -17.5 -131t-51.5 -133.5t-81 -126t-104 -105.5l-111 62q43 53 76 125.5t33 146.5q0 12 -1.5 23.5t-3.5 23.5q-88 0 -141 50.5t-53 142.5z" />
<glyph unicode="&#x2022;" horiz-adv-x="897" d="M154 760q0 59 23.5 112.5t64.5 93.5t94 63.5t115 23.5q61 0 114 -23.5t93 -63.5t62.5 -93.5t22.5 -112.5q0 -61 -22.5 -115.5t-62.5 -94.5t-93 -63.5t-114 -23.5t-114.5 23.5t-94.5 63.5t-64.5 94.5t-23.5 115.5z" />
<glyph unicode="&#x2026;" horiz-adv-x="1916" d="M143 188q0 43 16.5 82t46.5 67t67.5 44t80.5 16q45 0 85 -16t70 -44t46 -67t16 -82q0 -45 -16 -83.5t-46 -68.5t-70 -46.5t-85 -16.5q-43 0 -80.5 16.5t-67.5 46.5t-46.5 68.5t-16.5 83.5zM745 188q0 43 16.5 82t46.5 67t67.5 44t80.5 16q45 0 85 -16t70 -44t46 -67 t16 -82q0 -45 -16 -83.5t-46 -68.5t-70 -46.5t-85 -16.5q-43 0 -80.5 16.5t-67.5 46.5t-46.5 68.5t-16.5 83.5zM1345 188q0 43 16.5 82t46.5 67t67.5 44t80.5 16q45 0 85 -16t70 -44t46 -67t16 -82q0 -45 -16 -83.5t-46 -68.5t-70 -46.5t-85 -16.5q-43 0 -80.5 16.5 t-67.5 46.5t-46.5 68.5t-16.5 83.5z" />
<glyph unicode="&#x202f;" horiz-adv-x="429" />
<glyph unicode="&#x2039;" horiz-adv-x="735" d="M61 575l381 535l211 -143l-280 -392l280 -391l-211 -143z" />
<glyph unicode="&#x203a;" horiz-adv-x="735" d="M82 184l280 391l-280 392l211 143l381 -535l-381 -534z" />
<glyph unicode="&#x205f;" horiz-adv-x="536" />
<glyph unicode="&#x20ac;" d="M0 492v172h125q-4 25 -4 62.5v78.5h-121v174h137q25 135 80 237.5t134 170t178.5 102.5t209.5 35q135 0 227.5 -33t147.5 -84t80 -110.5t25 -110.5q0 -68 -17.5 -120t-46.5 -89h-246v219q-31 35 -76 52.5t-79 17.5q-94 0 -160 -62.5t-94 -224.5h311v-174h-328 q0 -49 1 -81t3 -60h324v-172h-285q74 -256 303 -256q90 0 162 21.5t162 74.5l16 -248q-203 -111 -428 -111q-102 0 -195 29t-170 92.5t-135.5 160.5t-90.5 237h-150z" />
<glyph unicode="&#x2122;" horiz-adv-x="1779" d="M82 1280v195h629v-195h-207v-561h-211v561h-211zM786 719v756h258l166 -465l224 465h200v-756h-186v420l-141 -367h-195l-139 367v-420h-187z" />
<glyph unicode="&#x25fc;" horiz-adv-x="1136" d="M0 0v1137h1137v-1137h-1137z" />
</font>
</defs>
</svg>
