<?xml version="1.0" standalone="no"?>
<!DOCTYPE svg PUBLIC "-//W3C//DTD SVG 1.1//EN" "http://www.w3.org/Graphics/SVG/1.1/DTD/svg11.dtd" >
<svg xmlns="http://www.w3.org/2000/svg">
<metadata></metadata>
<defs>
<font id="achille_fy_litalic" horiz-adv-x="1228" >
<font-face units-per-em="2048" ascent="1638" descent="-410" />
<missing-glyph horiz-adv-x="614" />
<glyph unicode="&#xfb01;" d="M-193 -457l27 109h189q35 23 70.5 84t53.5 178l170 1090h-167l20 114h166l12 76q39 240 146.5 352.5t259.5 112.5q59 0 95 -11.5t60 -25.5l-26 -104h-150q-92 0 -149.5 -78t-83.5 -228l-17 -94h492l153 21l-180 -1022l137 20l-18 -104q-31 -31 -74 -45.5t-84 -14.5 q-55 0 -84.5 20.5t-29.5 80.5q0 25 6 59l155 871h-491l-168 -1094q-35 -219 -121 -313.5t-215 -94.5q-90 0 -154 41zM989 1421q0 70 37 111t96 41q41 0 65.5 -25.5t24.5 -68.5q0 -27 -9 -53.5t-27.5 -48t-43 -35t-55.5 -13.5q-43 0 -65.5 25.5t-22.5 66.5z" />
<glyph unicode="&#xfb02;" horiz-adv-x="1230" d="M-193 -457l27 109h189q35 23 70.5 84t53.5 178l170 1090h-167l20 114h166l12 76q41 248 161 356.5t308 108.5q68 0 130.5 -17.5t127.5 -48.5l146 60l-271 -1536l137 20l-18 -104q-31 -31 -74 -45.5t-84 -14.5q-55 0 -84.5 20.5t-29.5 80.5q0 25 6 59l233 1335 q-61 29 -116.5 45.5t-108.5 16.5q-125 0 -204 -73t-107 -245l-17 -94h279l-19 -114h-278l-168 -1094q-35 -219 -120 -313.5t-216 -94.5q-90 0 -154 41z" />
<glyph unicode="&#xfb03;" horiz-adv-x="1861" d="M-193 -457l27 109h189q35 23 70.5 84t53.5 178l170 1090h-167l20 114h166l12 76q39 240 147.5 352.5t272.5 112.5q53 0 93 -11.5t69 -25.5l-27 -104h-170q-92 0 -149.5 -78t-83.5 -228l-17 -94h486l12 76q18 117 61 204t98.5 145.5t120 87t125.5 28.5q59 0 95.5 -11.5 t60.5 -25.5l-26 -104h-150q-92 0 -149.5 -78t-83.5 -228l-17 -94h492l153 21l-180 -1022l137 20l-18 -104q-31 -31 -74 -45.5t-84 -14.5q-55 0 -85 20.5t-30 80.5q0 25 7 59l155 871h-491l-168 -1094q-16 -111 -46 -187.5t-70 -126t-88 -72t-103 -22.5q-43 0 -77 10.5 t-65 30.5l27 109h147q35 23 71 84t54 178l170 1090h-485l-168 -1094q-35 -219 -121 -313.5t-215 -94.5q-90 0 -154 41zM1622 1421q0 70 37 111t96 41q41 0 65.5 -25.5t24.5 -68.5q0 -27 -9 -53.5t-27.5 -48t-43 -35t-55.5 -13.5q-43 0 -65.5 25.5t-22.5 66.5z" />
<glyph unicode="&#xfb04;" horiz-adv-x="1863" d="M-193 -457l27 109h189q35 23 70.5 84t53.5 178l170 1090h-167l20 114h166l12 76q39 236 150.5 350.5t269.5 114.5q53 0 93 -11.5t69 -25.5l-27 -104h-170q-92 0 -149.5 -78t-83.5 -228l-17 -94h486l12 76q41 250 160 357.5t309 107.5q68 0 130 -17.5t128 -48.5l145 60 l-270 -1536l137 20l-18 -104q-31 -31 -74 -45.5t-84 -14.5q-55 0 -84.5 20.5t-29.5 80.5q0 25 6 59l233 1335q-61 29 -116.5 45.5t-108.5 16.5q-125 0 -204 -73t-107 -245l-17 -94h279l-19 -114h-278l-168 -1094q-16 -111 -46 -187.5t-70 -126t-88 -72t-101 -22.5 q-80 0 -144 41l27 109h147q35 23 71 84t54 178l170 1090h-485l-168 -1094q-35 -219 -121 -313.5t-215 -94.5q-90 0 -154 41z" />
<glyph horiz-adv-x="0" />
<glyph horiz-adv-x="0" />
<glyph unicode="&#xd;" horiz-adv-x="614" />
<glyph unicode=" "  horiz-adv-x="614" />
<glyph unicode="&#x09;" horiz-adv-x="614" />
<glyph unicode="&#xa0;" horiz-adv-x="614" />
<glyph unicode="!" horiz-adv-x="555" d="M82 76q0 31 12 58.5t32.5 48t46.5 32.5t52 12q45 0 73 -29.5t28 -72.5q0 -31 -12.5 -58.5t-33 -48t-46 -33t-52.5 -12.5q-45 0 -72.5 30t-27.5 73zM213 381q16 188 27.5 325.5t20.5 234.5t16.5 161.5t12.5 106.5t10 69t9 49q16 82 51 127t84 45q78 0 78 -115 q0 -27 -3 -54t-12 -69t-25.5 -108t-43 -167t-64.5 -249.5t-91 -355.5h-70z" />
<glyph unicode="&#x22;" horiz-adv-x="679" d="M225 1126l39 516h195l-148 -516h-86zM559 1126l39 516h195l-148 -516h-86z" />
<glyph unicode="#" horiz-adv-x="1118" d="M57 393l19 123h254l45 252h-262l22 123h264l72 391h123l-74 -391h248l70 391h123l-72 -391h244l-17 -123h-248l-49 -252h260l-18 -123h-262l-74 -393h-125l74 393h-246l-72 -393h-125l74 393h-248zM453 516h241l49 252h-243z" />
<glyph unicode="$" horiz-adv-x="1118" d="M68 229q0 70 27.5 133.5t62.5 106.5h116l-49 -283q35 -33 94.5 -57.5t131.5 -30.5l106 607q-53 37 -104.5 76.5t-92.5 83.5t-65.5 96.5t-24.5 113.5q0 88 34 163t92.5 130t135 89t164.5 40l25 135h80l-25 -135q92 -4 154.5 -26.5t100.5 -56.5t54.5 -77t16.5 -88 q0 -55 -22.5 -115.5t-45.5 -99.5h-125l43 250q-29 35 -83 59.5t-115 28.5l-92 -524q55 -39 111 -81t101.5 -89t73 -103.5t27.5 -123.5q0 -96 -38 -180.5t-101.5 -148t-148.5 -102t-179 -45.5l-23 -133h-79l22 133q-104 4 -173 27t-111 57.5t-59 78.5t-17 91zM430 1135 q0 -72 46 -127.5t116 -108.5l82 471q-111 -12 -177.5 -79.5t-66.5 -155.5zM530 98q51 6 101.5 30t91.5 60.5t66.5 88t25.5 112.5q0 82 -54 144.5t-132 119.5z" />
<glyph unicode="%" horiz-adv-x="1591" d="M168 967q0 82 21.5 175t68.5 173t120 132t177 52q242 0 242 -276q0 -121 -31 -220.5t-83 -170t-121.5 -109.5t-149.5 -39q-119 0 -181.5 75t-62.5 208zM184 37l1231 1464l84 -61l-1237 -1469zM315 967q0 -152 119 -152q39 0 77 22.5t68.5 69.5t49 120t18.5 175 q0 170 -115 170q-41 0 -79.5 -26.5t-69.5 -77.5t-49.5 -127t-18.5 -174zM879 256q0 82 21.5 175t68.5 173t120 132t177 52q242 0 241 -276q0 -121 -30.5 -220t-83 -170t-122 -110t-149.5 -39q-119 0 -181 75t-62 208zM1026 256q0 -152 119 -152q39 0 77 23t68.5 70t49 119.5 t18.5 175.5q0 170 -115 170q-41 0 -80 -27t-69.5 -78t-49 -127t-18.5 -174z" />
<glyph unicode="&#x26;" horiz-adv-x="1402" d="M102 387q0 70 24 138.5t71 126t117.5 100.5t166.5 61q-90 41 -133 119t-43 168q0 72 30 143.5t88 127.5t142 92t195 36q94 0 157.5 -19.5t102.5 -52t54.5 -74.5t15.5 -87q0 -53 -21.5 -107.5t-50.5 -85.5h-115l49 234q-33 23 -73.5 42t-96.5 19q-76 0 -134 -23.5 t-99 -62.5t-62.5 -87t-21.5 -97q0 -104 63.5 -176t206.5 -72l-33 -98q-104 0 -184 -29t-132 -77t-78.5 -111.5t-26.5 -133.5q0 -57 20.5 -111t61 -96t104 -68t147.5 -26q199 0 326 149.5t166 461.5q-4 0 -24.5 2t-49 6t-59.5 12t-53 21l20 98h473l-22 -98 q-27 -10 -53.5 -18.5t-49.5 -12.5q-24 -6 -49 -10q-96 -737 -674 -738q-117 0 -203 35t-144 93.5t-87 133t-29 152.5z" />
<glyph unicode="'" horiz-adv-x="346" d="M225 1126l39 516h195l-148 -516h-86z" />
<glyph unicode="(" horiz-adv-x="608" d="M123 330q0 219 54 430t135 392t172 321.5t165 218.5l72 -33q-100 -154 -181 -319.5t-139.5 -343t-90 -362.5t-31.5 -376q0 -190 24.5 -353t58.5 -276l-83 -30q-29 45 -56.5 119.5t-49 170t-36 207t-14.5 234.5z" />
<glyph unicode=")" horiz-adv-x="622" d="M-102 -369q100 154 181 320t139 342t90 362.5t32 376.5t-24.5 353t-59.5 276l84 31q27 -47 55.5 -121t50 -169t36 -207t14.5 -234q0 -219 -54.5 -430.5t-135.5 -392.5t-172 -321.5t-165 -217.5z" />
<glyph unicode="*" horiz-adv-x="796" d="M145 1339q0 35 21.5 58.5t50.5 23.5q23 0 87.5 -26.5t160.5 -98.5q0 113 6 184.5t17.5 110.5t27.5 53.5t37 14.5q27 0 44 -13.5t17 -50.5q0 -68 -24.5 -137t-57.5 -162q33 18 71 41t76 41.5t72.5 30.5t59.5 12q33 0 48 -17.5t15 -39.5q0 -41 -38.5 -64.5t-93 -38 t-111 -20.5t-88.5 -12q14 -18 38.5 -52t49 -70t42 -69.5t17.5 -54.5q0 -29 -21.5 -55.5t-50.5 -26.5q-27 0 -50 36t-41.5 84t-31 95t-18.5 70q-12 -18 -37.5 -65.5t-59.5 -95.5t-71 -86t-69 -38q-23 0 -36.5 17.5t-13.5 35.5q0 31 30 71t70 80t80 72.5t60 51.5 q-16 2 -63.5 8t-96.5 18.5t-87 33t-38 50.5z" />
<glyph unicode="+" d="M84 504v129h459v438h141v-438h459v-129h-459v-443h-141v443h-459z" />
<glyph unicode="," horiz-adv-x="462" d="M-6 -274q23 18 47.5 43.5t46 56.5t35.5 64.5t14 68.5q0 14 -2 23q-53 0 -77.5 28.5t-24.5 69.5q0 27 10 56.5t30.5 53t49.5 39t63 15.5q53 0 83 -36t30 -102q0 -59 -21.5 -121.5t-56.5 -120t-83 -104.5t-99 -73z" />
<glyph unicode="-" horiz-adv-x="720" d="M82 539l24 137h539l-24 -137h-539z" />
<glyph unicode="." horiz-adv-x="514" d="M61 80q0 33 12.5 62.5t34 52t48 36t57.5 13.5q47 0 75.5 -30t28.5 -77q0 -33 -12 -62.5t-33.5 -52t-48 -36t-57.5 -13.5q-47 0 -76 30t-29 77z" />
<glyph unicode="/" horiz-adv-x="700" d="M-109 -246l869 1868l114 -27l-872 -1869z" />
<glyph unicode="0" horiz-adv-x="1118" d="M88 496q0 98 14.5 211.5t45 225t77.5 214t116 180.5t157.5 125t201.5 47q190 0 283.5 -126t93.5 -372q0 -231 -48 -420.5t-131 -324.5t-194.5 -209t-240.5 -74q-182 0 -278.5 137.5t-96.5 385.5zM246 479q0 -184 66.5 -274t183.5 -90q80 0 141 42t108.5 111.5t79 158.5 t52 184.5t29.5 188.5t9 171q0 190 -66 289.5t-183 99.5q-82 0 -144.5 -44t-109.5 -118t-79 -167t-51.5 -190.5t-27.5 -192.5t-8 -169z" />
<glyph unicode="1" horiz-adv-x="1118" d="M166 0l16 96q35 12 84 23.5t96 21.5q53 10 113 19l195 1102h-328l16 102q111 20 221.5 49t180.5 62h98l-242 -1379q39 16 78 29q35 10 75 19.5t79 9.5h13t13 -2l-26 -152h-682z" />
<glyph unicode="2" horiz-adv-x="1118" d="M29 0l20 111q268 229 428 398t245 295t111.5 216t26.5 162q0 78 -49 130t-172 52q-63 0 -115.5 -17.5t-97.5 -46.5l-45 -262h-125q-18 37 -18 92t19 120t70.5 120t137.5 92t221 37q66 0 128.5 -14.5t111.5 -48t78.5 -89t29.5 -135.5q0 -102 -39 -205.5t-103.5 -204 t-146 -195.5t-169 -181t-172.5 -158.5t-152 -128.5h551q6 31 16 68q10 31 23.5 67.5t36.5 75.5h104l-59 -350h-895z" />
<glyph unicode="3" horiz-adv-x="1118" d="M76 20l53 127q59 -14 122.5 -23t127.5 -9q86 0 169 16t146.5 56t102.5 110t39 174q0 68 -33 111t-88.5 68.5t-126 34.5t-144.5 9h-12l23 133h14q80 0 159 20.5t141 63.5t100 107.5t38 155.5q0 53 -19.5 89.5t-52 59.5t-74.5 33t-87 10q-63 0 -127 -18.5t-111 -47.5 l-45 -258h-125q-10 16 -14 41t-4 54q0 55 20.5 119.5t73.5 117.5t144.5 89t230.5 36q78 0 143.5 -18.5t112.5 -55t73.5 -93t26.5 -132.5q0 -92 -28.5 -163.5t-75.5 -124t-106.5 -86t-119.5 -48.5q41 -10 87.5 -31.5t86 -59.5t65.5 -92t26 -128q0 -127 -51.5 -220 t-136.5 -153.5t-194.5 -90.5t-226.5 -30q-109 0 -184.5 13.5t-138.5 33.5z" />
<glyph unicode="4" horiz-adv-x="1118" d="M55 375l25 137l774 963h168l-166 -967h195l-23 -133h-197l-65 -375h-150l64 375h-625zM240 508h465l131 749z" />
<glyph unicode="5" horiz-adv-x="1118" d="M84 20l37 119q59 -16 122.5 -24.5t127.5 -8.5q94 0 181 23t154.5 74t107.5 132t40 197q0 68 -29.5 118t-79 82t-116 47.5t-140.5 15.5q-111 0 -221 -31l-24 63l145 648h721l-27 -150h-583l-97 -426q94 31 203 31q80 0 155 -20.5t133 -64.5t93 -113.5t35 -168.5 q0 -147 -54.5 -257.5t-143.5 -184.5t-204.5 -111t-238.5 -37q-88 0 -167 14.5t-130 32.5z" />
<glyph unicode="6" horiz-adv-x="1118" d="M76 410q0 129 24.5 259t74.5 251.5t126 227t177.5 183.5t228.5 123t280 45q31 0 65.5 -3t73.5 -13l-20 -119q-29 2 -53 3t-49 1q-281 0 -460 -159.5t-251 -446.5q96 78 200.5 117t208.5 39q88 0 153 -29t107 -77t62 -112.5t20 -136.5q0 -100 -37.5 -204.5t-110.5 -190.5 t-177.5 -140.5t-237.5 -54.5q-209 0 -307 115t-98 322zM244 416q0 -154 62.5 -234t197.5 -80q82 0 150.5 37t117.5 97.5t75.5 138.5t26.5 162q0 131 -74.5 191t-185.5 60q-78 0 -168 -32.5t-176 -93.5q-14 -78 -20 -136.5t-6 -109.5z" />
<glyph unicode="7" horiz-adv-x="1118" d="M188 1184q0 129 86 210t277 81h620l-20 -115l-778 -1360h-178l800 1323h-618l-45 -260h-111q-14 33 -23.5 60.5t-9.5 60.5z" />
<glyph unicode="8" horiz-adv-x="1118" d="M39 289q0 90 37 160.5t96 128t134 102.5t153 84q-47 31 -88 63.5t-74 72.5t-51.5 87t-18.5 105q0 88 40 162.5t109.5 129t160 85t192.5 30.5q96 0 167 -22.5t117 -61.5t67.5 -89t21.5 -107q0 -78 -31 -142.5t-81 -117t-114.5 -94.5t-132.5 -79q51 -31 100.5 -63.5 t87.5 -73.5t60.5 -91t22.5 -114q0 -111 -48 -198.5t-126 -148t-179.5 -92.5t-205.5 -32q-78 0 -152 17.5t-133 54.5t-95 97.5t-36 146.5zM209 326q0 -106 78.5 -161.5t197.5 -55.5q63 0 127 20.5t116 59t85 95t33 130.5q0 49 -23.5 89t-61.5 74.5t-88 64.5t-104 60 q-74 -37 -139 -74.5t-114.5 -81.5t-78 -98.5t-28.5 -121.5zM385 1108q0 -43 19.5 -80t53.5 -68.5t78 -59.5t93 -54q63 33 120.5 67.5t98.5 74.5t65.5 88t24.5 110q0 92 -64.5 135t-168.5 43q-55 0 -112.5 -15.5t-104 -47t-75 -79.5t-28.5 -114z" />
<glyph unicode="9" horiz-adv-x="1118" d="M70 -12l22 127q25 -2 49 -4t49 -2q276 0 453.5 143t255.5 424q-92 -78 -190.5 -115t-196.5 -37q-74 0 -139.5 21.5t-114.5 66.5t-76.5 115t-27.5 168q0 119 39.5 227.5t113.5 192.5t178.5 134t233.5 50q207 0 306 -111.5t99 -318.5q0 -123 -23.5 -253t-71.5 -252 t-123 -229.5t-176 -187t-232 -127t-293 -47.5q-63 0 -135 15zM324 918q0 -139 73.5 -202t182.5 -63q78 0 168 33t176 94q23 96 27.5 161t4.5 116q0 156 -62.5 233.5t-197.5 77.5q-86 0 -154.5 -37t-116.5 -99.5t-74.5 -144t-26.5 -169.5z" />
<glyph unicode=":" horiz-adv-x="493" d="M61 80q0 33 12.5 62.5t34 52t48 36t57.5 13.5q47 0 75.5 -30t28.5 -77q0 -33 -12 -62.5t-33.5 -52t-48 -36t-57.5 -13.5q-47 0 -76 30t-29 77zM196 856q0 33 12.5 62.5t34 52t48 36t57.5 13.5q47 0 75.5 -30t28.5 -77q0 -33 -12 -62.5t-33.5 -52t-48 -36t-57.5 -13.5 q-47 0 -76 30t-29 77z" />
<glyph unicode=";" horiz-adv-x="460" d="M-6 -274q23 18 47.5 43.5t46 56.5t35.5 64.5t14 68.5q0 14 -2 23q-53 0 -77.5 28.5t-24.5 69.5q0 27 10 56.5t30.5 53t49.5 39t63 15.5q53 0 83 -36t30 -102q0 -59 -21.5 -121.5t-56.5 -120t-83 -104.5t-99 -73zM163 856q0 33 12.5 62.5t34 52t48 36t57.5 13.5 q47 0 75.5 -30t28.5 -77q0 -33 -12 -62.5t-33.5 -52t-48 -36t-57.5 -13.5q-47 0 -76 30t-29 77z" />
<glyph unicode="&#x3c;" d="M121 528v86l909 496l76 -106l-799 -435l799 -430l-76 -108z" />
<glyph unicode="=" d="M84 301v129h1059v-129h-1059zM84 703v129h1059v-129h-1059z" />
<glyph unicode="&#x3e;" d="M121 139l799 430l-799 435l76 106l909 -496v-86l-909 -497z" />
<glyph unicode="?" horiz-adv-x="907" d="M164 1161q0 51 18.5 109.5t67.5 110t136 85t222 33.5q164 0 252 -79t88 -214q0 -94 -33.5 -165.5t-85 -131t-113 -109.5t-117.5 -101.5t-98 -106.5t-55 -123l-16 -88h-115l17 88q12 72 48 131t82 114.5t96 109t92 110.5t68.5 120.5t26.5 141.5q0 172 -180 172 q-66 0 -124 -12.5t-99 -32.5l-45 -256h-117q-16 37 -16 94zM203 76q0 31 12 58.5t32.5 48t46 32.5t52.5 12q45 0 72.5 -29.5t27.5 -72.5q0 -31 -12 -58.5t-32.5 -48t-46 -33t-52.5 -12.5q-45 0 -72.5 30t-27.5 73z" />
<glyph unicode="@" horiz-adv-x="1574" d="M82 694q0 174 60.5 322.5t167 255t248.5 167t306 60.5q150 0 279 -46t225 -132t151.5 -207t55.5 -270q0 -111 -36 -203t-93 -158.5t-129 -103.5t-143 -37q-94 0 -153.5 45t-68.5 141q-25 -37 -55.5 -69.5t-65 -59t-75.5 -42t-86 -15.5q-31 0 -66 12.5t-63.5 44t-48 84 t-19.5 131.5q0 115 36 209.5t98.5 161t147.5 103t181 36.5q59 0 115.5 -14t113.5 -37q-12 -61 -24.5 -116.5t-23.5 -108.5t-23.5 -106.5t-24.5 -112.5q-6 -35 -6 -66q2 -51 26.5 -87t84.5 -36q57 0 109 32t91 87t61.5 128t22.5 157q0 125 -47 226t-127 173t-187.5 110 t-228.5 38q-145 0 -267 -52.5t-211 -145.5t-139 -221t-50 -278q0 -139 48 -250.5t134 -190.5t202.5 -122t256.5 -43q125 0 217 27.5t178 85.5l61 -95q-100 -68 -209.5 -100.5t-257.5 -32.5q-172 0 -310 53.5t-235.5 148.5t-150.5 227.5t-53 291.5zM606 643q0 -106 33 -145 t86 -39q63 0 114.5 41t90.5 111.5t63.5 166.5t34.5 209q-18 10 -60 21.5t-89 11.5q-59 0 -109.5 -27.5t-86.5 -78t-56.5 -120t-20.5 -151.5z" />
<glyph unicode="A" horiz-adv-x="1419" d="M-72 0l19 96q47 25 92 39.5t63 16.5l637 1179q-31 4 -63.5 11.5t-67.5 23.5l19 108h364l207 -1324q25 -4 62.5 -17.5t74.5 -36.5l-16 -96h-481l18 96q55 31 107.5 42.5t68.5 13.5l-59 378h-522l-201 -378q18 0 62 -14.5t94 -41.5l-19 -96h-459zM516 657h434l-94 650z" />
<glyph unicode="B" horiz-adv-x="1206" d="M-2 0l16 96q20 12 47 23.5t52 21.5q29 10 59 19l203 1155q-27 8 -51 18q-23 10 -44.5 20.5t-37.5 24.5l16 97h485q223 0 325.5 -70t102.5 -229q0 -154 -80.5 -260.5t-218.5 -155.5q102 -33 165 -102.5t63 -178.5q0 -123 -44 -213t-122 -149.5t-182.5 -88t-227.5 -28.5 h-526zM332 137h200q90 0 164 17.5t126 56.5t81 103.5t29 158.5q0 111 -75 160t-206 49h-223zM451 815h163q84 0 156 19.5t124 60.5t82 105.5t30 154.5q0 104 -74 143t-225 39h-164z" />
<glyph unicode="C" horiz-adv-x="1284" d="M123 555q0 164 48 332t145.5 304t246 222t348.5 86q117 0 194 -22.5t123 -58.5t65.5 -83t19.5 -96q0 -68 -25.5 -124t-68.5 -91h-115l45 256q-39 39 -108.5 62.5t-135.5 23.5q-152 0 -266.5 -71.5t-192 -185.5t-116.5 -253t-39 -274q0 -123 32.5 -210t92 -142.5 t141.5 -82t178 -26.5q104 0 197.5 33.5t171.5 87.5l31 -142q-106 -66 -216 -96.5t-251 -30.5q-111 0 -210.5 33t-174 103.5t-117.5 180t-43 265.5z" />
<glyph unicode="D" horiz-adv-x="1429" d="M-2 0l16 96q20 12 47 23.5t52 21.5q29 10 59 19l203 1155q-27 8 -51 18q-23 10 -44.5 20.5t-37.5 24.5l16 97h571q287 0 428.5 -139.5t141.5 -379.5q0 -172 -52.5 -342t-156 -307t-259 -222t-362.5 -85h-571zM332 137h237q164 0 288 66.5t207 176t125 253t42 297.5 q0 217 -119 312t-330 95h-239z" />
<glyph unicode="E" horiz-adv-x="1144" d="M-2 0l16 96q20 12 48 23.5t53 21.5q29 10 59 19l203 1155q-29 8 -53 18q-23 10 -44.5 20.5t-37.5 24.5l16 97h938l-61 -355h-111q-8 27 -11 55.5t-3 57.5q0 23 1 41t3 33q2 16 4 30h-473l-88 -501h477l-23 -129h-477l-100 -570h508q8 39 20 78q10 35 27.5 75t40.5 77h104 l-63 -367h-973z" />
<glyph unicode="F" horiz-adv-x="1052" d="M-2 0l16 96q20 12 48 23.5t53 21.5q29 10 59 19l203 1155q-29 8 -53 18q-23 10 -44.5 20.5t-37.5 24.5l16 97h905l-61 -355h-109q-10 29 -13 59.5t-3 59.5q0 20 1 37.5t3 32.5q2 16 4 28h-440l-88 -501h442l-22 -129h-443l-104 -590q27 10 57 18q25 6 55.5 12.5t59.5 6.5 h13t13 -2l-26 -152h-504z" />
<glyph unicode="G" horiz-adv-x="1415" d="M123 547q0 233 65.5 411.5t177 298t258 181t310.5 61.5q119 0 197.5 -22.5t127 -59.5t69 -85t20.5 -97q0 -66 -27 -121t-66 -90h-114l45 256q-43 45 -110.5 66.5t-139.5 21.5q-162 0 -283 -69.5t-200.5 -183.5t-119.5 -257t-40 -291q0 -131 36 -220t95 -143t139 -78 t168 -24q72 0 123 8.5t113 26.5l75 414q-27 2 -57 8q-27 4 -58.5 12.5t-62.5 20.5l17 96h497l-18 -96q-29 -12 -55.5 -20.5t-49.5 -12.5q-25 -6 -49 -8l-92 -504q-98 -35 -203.5 -54.5t-210.5 -19.5q-117 0 -221 29t-183 96.5t-126 177t-47 271.5z" />
<glyph unicode="H" horiz-adv-x="1523" d="M-2 0l16 96q20 12 47 23.5t52 21.5q29 10 59 19l211 1198q-23 -10 -45 -19q-20 -8 -43 -13t-43 -5q-14 0 -21 2l27 152h455l-17 -97q-20 -14 -46.5 -24.5t-51.5 -20.5q-29 -10 -59 -18l-84 -473h716l91 516q-23 -10 -45 -19q-20 -8 -42 -13t-45 -5q-14 0 -20 2l27 152 h454l-16 -97q-20 -14 -47 -24.5t-51 -20.5q-29 -10 -60 -18l-211 -1198q37 17 84 31q28 9 54 8q18 0 34 -4l-26 -152h-475l16 96q20 12 48 23.5t52 21.5q29 10 58 19l96 545h-715l-104 -588q35 17 84 31q29 9 54 8q18 0 34 -4l-29 -152h-473z" />
<glyph unicode="I" horiz-adv-x="659" d="M-2 0l14 96q20 12 47 23.5t52 21.5q29 10 59 19l211 1198q-23 -10 -45 -19q-20 -8 -43 -13t-43 -5q-14 0 -21 2l27 152h455l-17 -97q-20 -14 -46.5 -24.5t-51.5 -20.5q-29 -10 -59 -18l-211 -1198q25 10 49 18q23 6 48.5 12.5t49.5 6.5q16 0 25 -2l-29 -152h-471z" />
<glyph unicode="J" horiz-adv-x="616" d="M-266 -379l24 121h209q66 35 123 150.5t98 345.5l197 1120q-27 -10 -55 -19q-25 -8 -53.5 -13t-55.5 -5q-18 0 -26 2l26 152h494l-17 -97q-20 -14 -46.5 -24.5t-51.5 -20.5q-29 -10 -59 -18l-211 -1174q-35 -193 -89.5 -305t-114.5 -169.5t-119.5 -74t-102.5 -16.5 q-63 0 -101.5 13.5t-68.5 31.5z" />
<glyph unicode="K" horiz-adv-x="1349" d="M-2 0l16 96q20 12 47 23.5t52 21.5q29 10 59 19l211 1198q-23 -10 -45 -19q-20 -8 -43 -13t-43 -5q-14 0 -21 2l27 152h455l-17 -97q-20 -14 -46.5 -24.5t-51.5 -20.5q-29 -10 -59 -18l-105 -590l699 627q-29 -8 -56 -17q-23 -6 -50.5 -10t-49.5 -4q-16 0 -23 2l29 152 h447l-17 -97q-23 -14 -45 -24.5t-45 -20.5q-25 -10 -49 -18l-498 -441l309 -733h168l-20 -114q-27 -20 -62.5 -29.5t-70.5 -9.5q-70 0 -116 28.5t-81 114.5l-260 631l-240 -215l-75 -430q37 17 84 31q28 9 54 8q18 0 34 -4l-29 -152h-473z" />
<glyph unicode="L" horiz-adv-x="1028" d="M-2 0l16 96q20 12 48 23.5t53 21.5q29 10 59 19l211 1198q-23 -10 -45 -19q-20 -8 -43 -13t-43 -5q-14 0 -21 2l27 152h453l-17 -97q-35 -23 -75.5 -38t-79.5 -25l-207 -1178h426q8 39 20 78q10 35 26.5 75t39.5 77h108l-63 -367h-893z" />
<glyph unicode="M" horiz-adv-x="1789" d="M-2 0l16 96q20 12 47 23.5t52 21.5q29 10 59 19l203 1155q-27 8 -51 18q-23 10 -44.5 20.5t-37.5 24.5l16 97h389l193 -1180l639 1180h379l-19 -97q-20 -14 -47 -24.5t-51 -20.5q-29 -10 -58 -18l-210 -1198q25 10 49 18q23 6 48 12.5t48 6.5q16 0 24 -2l-26 -152h-467 l18 96q20 12 47 23.5t52 21.5q29 10 57 19l221 1175l-674 -1224h-137l-223 1224l-207 -1218q25 10 49 18q23 6 48.5 12.5t48.5 6.5q16 0 24 -2l-27 -152h-448z" />
<glyph unicode="N" horiz-adv-x="1536" d="M-2 0l16 96q20 12 47 23.5t52 21.5q29 10 59 19l203 1155q-27 8 -51 18q-23 10 -44.5 20.5t-37.5 24.5l16 97h315l555 -1231l191 1114q-23 -10 -45 -19q-20 -8 -43 -13t-43 -5q-14 0 -21 2l27 152h430l-16 -97q-23 -14 -49.5 -24.5t-51.5 -20.5q-29 -10 -57 -18 l-231 -1315h-158l-563 1247l-195 -1130q37 17 83 31q27 9 53 8q18 0 34 -4l-27 -152h-448z" />
<glyph unicode="O" horiz-adv-x="1419" d="M121 518q0 106 19.5 220t59.5 222.5t101 207t145 172t193 116.5t242 43q238 0 362.5 -141t124.5 -400q0 -106 -19.5 -219.5t-60.5 -223t-103.5 -208t-146.5 -172.5t-190.5 -118t-237.5 -44q-238 0 -363.5 143.5t-125.5 401.5zM289 541q0 -205 87 -320t257 -115 q92 0 170 38t141.5 103.5t110.5 149.5t79.5 176.5t49 185.5t16.5 177q0 205 -84 318.5t-248 113.5q-94 0 -174 -38t-144.5 -101.5t-112.5 -146.5t-81.5 -175t-50 -186t-16.5 -180z" />
<glyph unicode="P" horiz-adv-x="1116" d="M-2 0l16 96q20 12 48 23.5t53 21.5q29 10 59 19l203 1155q-29 8 -53 18q-23 10 -44.5 20.5t-37.5 24.5l16 97h487q205 0 303.5 -79t98.5 -245q0 -109 -40 -207t-112.5 -174t-175 -120t-227.5 -44h-176l-86 -489q27 10 57 18q25 6 55.5 12.5t59.5 6.5q18 0 26 -2l-26 -152 h-504zM438 737h146q84 0 155.5 28t125 80t84 123.5t30.5 161.5q0 111 -71.5 159t-219.5 48h-143z" />
<glyph unicode="Q" horiz-adv-x="1419" d="M121 518q0 106 19.5 220t59.5 222.5t101 207t145 172t193 116.5t242 43q238 0 362.5 -141t124.5 -400q0 -180 -49 -353t-141.5 -310t-223.5 -223t-295 -92q12 -68 43 -118t73 -85t93.5 -52.5t104.5 -17.5h168l-17 -121q-31 -10 -65.5 -17t-97.5 -7q-201 0 -308.5 112.5 t-142.5 307.5q-78 6 -148.5 42.5t-124 104.5t-85 165t-31.5 224zM289 541q0 -205 87 -320t257 -115q92 0 170 38t141.5 103.5t110.5 149.5t79.5 176.5t49 185.5t16.5 177q0 205 -84 318.5t-248 113.5q-94 0 -174 -38t-144.5 -101.5t-112.5 -146.5t-81.5 -175t-50 -186 t-16.5 -180z" />
<glyph unicode="R" horiz-adv-x="1269" d="M-2 0l16 96q20 12 47 23.5t52 21.5q29 10 59 19l203 1155q-27 8 -51 18q-23 10 -44.5 20.5t-37.5 24.5l16 97h516q211 0 312.5 -72t101.5 -232q0 -94 -31 -172.5t-84 -141t-126 -105.5t-159 -64l222 -547h174l-19 -114q-29 -20 -68.5 -29.5t-74.5 -9.5q-72 0 -114 27.5 t-77 115.5l-208 537h-199l-96 -551q41 15 83 27q31 9 65 9q12 0 24 -1l-29 -152h-473zM449 801h169q82 0 156 20.5t128 62.5t86 107.5t32 155.5q0 106 -78 148t-229 42h-170z" />
<glyph unicode="S" horiz-adv-x="1101" d="M59 236q0 72 32 131t65 104h120l-49 -278q39 -35 105.5 -63t144.5 -28q55 0 112.5 18.5t104.5 53.5t78 87t31 120q0 70 -41 126t-102.5 106.5t-134 99.5t-134 102t-102.5 115.5t-41 142.5q0 94 40 173t107.5 135.5t157.5 87t190 30.5q96 0 164 -22.5t111 -58.5t62.5 -82 t19.5 -95q0 -55 -26.5 -113.5t-53.5 -95.5h-125l43 250q-27 41 -90.5 65.5t-122.5 24.5q-72 0 -130 -19.5t-98 -51t-61.5 -75.5t-21.5 -93q0 -70 41 -125.5t102 -104.5t132 -96t132.5 -100.5t102.5 -117t41 -145.5q0 -102 -41 -188t-111 -149.5t-160 -98.5t-188 -35 q-117 0 -194.5 22.5t-125 59.5t-67 84t-19.5 97z" />
<glyph unicode="T" horiz-adv-x="1185" d="M150 1120l61 355h1077l-61 -355h-109q-10 29 -13 59.5t-3 59.5q0 20 1 37.5t3 32.5q2 16 4 28h-303l-215 -1220q35 17 83 31q28 9 54 8q17 0 33 -4l-27 -152h-473l17 96q20 12 46.5 23.5t51.5 21.5q29 10 59 19l207 1177h-301q-8 -39 -20 -75q-10 -33 -25.5 -71 t-38.5 -71h-108z" />
<glyph unicode="U" horiz-adv-x="1445" d="M180 373q0 14 1 34.5t6.5 58.5t15.5 102.5t27.5 169t43 256t64.5 364.5q-23 -10 -45 -19q-20 -8 -42 -13t-44 -5q-14 0 -21 2l27 152h455l-17 -97q-20 -14 -46.5 -24.5t-51.5 -20.5q-29 -10 -59 -18q-35 -195 -58.5 -335t-40 -237.5t-27 -159t-15.5 -99.5t-6 -59.5 t-1 -37.5q0 -158 69.5 -221.5t223.5 -63.5q106 0 186 31t137.5 94.5t94.5 162.5t61 235l129 733q-20 -10 -43 -19q-18 -8 -40.5 -13t-43.5 -5q-14 0 -20 2l26 152h424l-18 -97q-20 -14 -47 -24.5t-51 -20.5q-29 -10 -58 -18l-131 -733q-31 -174 -84 -291t-131 -187.5 t-183.5 -100.5t-240.5 -30q-215 0 -320.5 94.5t-105.5 305.5z" />
<glyph unicode="V" horiz-adv-x="1320" d="M162 1339l22 97l281 53q20 -47 37.5 -124t29 -191.5t17.5 -269t6 -355.5q0 -88 -1 -183.5t-3 -201.5q55 59 120.5 146t133 188.5t132 211t119 217t93.5 206t53 176.5q-27 2 -65.5 7t-106.5 23l23 97l321 53q6 -31 6 -66q0 -92 -44 -214t-113.5 -256t-158.5 -274 t-180 -267t-175 -234.5t-146 -177.5h-166q2 76 2 145.5v135.5q0 238 -6 412.5t-15 297.5t-20.5 200t-23.5 118q-27 2 -64 6t-108 24z" />
<glyph unicode="W" horiz-adv-x="2052" d="M162 1339l22 97l279 51q23 -49 39 -119t26.5 -170t15.5 -231t5 -303q0 -213 -6 -492q47 68 106.5 162t122 204.5t121.5 232.5t105 244t75 239.5t29 220.5h158q20 -76 39.5 -190t33 -253t21.5 -299t8 -330q0 -59 -1 -115.5t-3 -115.5q45 59 101.5 145t113.5 186.5 t113.5 210t103.5 215t80 204t45 176.5q-16 0 -58 5t-114 25l22 97l322 53q6 -29 6 -62q0 -92 -38 -212.5t-99.5 -256t-139 -275.5t-156.5 -269t-153.5 -236.5t-128.5 -177.5h-166q-2 406 -10 702.5t-33 456.5q-51 -178 -126.5 -348t-160.5 -321.5t-168 -276.5t-151 -213 h-166q2 94 2 180v164q0 221 -4 385t-13 278.5t-21.5 187.5t-26.5 114q-16 0 -58.5 5t-113.5 25z" />
<glyph unicode="X" horiz-adv-x="1378" d="M-35 0l17 96q33 20 74.5 32.5t78.5 16.5l488 660l-256 526q-31 2 -77 13.5t-75 33.5l16 96h498l-16 -96q-29 -18 -74 -29.5t-84 -15.5l231 -485l355 485q-41 4 -84 16.5t-64 28.5l17 96h446l-16 -96q-35 -23 -68 -32t-76 -13l-452 -602l289 -584q27 -4 66.5 -17t72.5 -34 l-17 -96h-485l16 96q16 10 40 19.5t46.5 15.5t42 10t29.5 6l-260 535l-385 -535q35 -6 71 -17t76 -34l-16 -96h-465z" />
<glyph unicode="Y" horiz-adv-x="1265" d="M123 1339l16 97l269 53q66 -90 138 -289t177 -514q59 68 128 150t130 165.5t108.5 165.5t65.5 150q-12 -1 -24 -1q-30 0 -62 4q-45 5 -88 19l16 97l326 53q2 -12 2 -23.5v-23.5q0 -102 -54 -214t-139 -225.5t-187.5 -227t-199.5 -220.5l-77 -438q35 16 84 31q29 8 54 8 q18 0 34 -4l-27 -152h-467l19 96q20 12 46.5 23.5t51.5 21.5q29 10 57 19l72 401q-96 328 -171 508t-122 240q-16 0 -59 5t-117 25z" />
<glyph unicode="Z" horiz-adv-x="1173" d="M10 0l23 127l975 1210h-592l-47 -274h-107q-20 35 -32.5 63.5t-12.5 63.5q0 127 90 206t281 79h635l-21 -125l-977 -1213h647q6 33 19 70q10 33 26.5 74t40.5 86h109l-63 -367h-994z" />
<glyph unicode="[" horiz-adv-x="595" d="M25 -401l368 2091h320l-21 -115h-182l-328 -1864h183l-21 -112h-319z" />
<glyph unicode="\" horiz-adv-x="700" d="M217 1595l113 23l209 -1868l-109 -24z" />
<glyph unicode="]" horiz-adv-x="595" d="M-90 -401l20 114h183l327 1864h-182l21 113h319l-369 -2091h-319z" />
<glyph unicode="^" d="M121 729l450 746h88l455 -746h-151l-351 561l-344 -561h-147z" />
<glyph unicode="_" horiz-adv-x="845" d="M-102 -217l20 115h866l-20 -115h-866z" />
<glyph unicode="`" horiz-adv-x="819" d="M418 1513l129 113l317 -315l-67 -66z" />
<glyph unicode="a" d="M102 338q0 215 65.5 367.5t168 250t228.5 142.5t247 45q78 0 158 -15.5t149 -44.5l-170 -966l137 20l-18 -104q-29 -29 -70 -44.5t-77 -15.5q-59 0 -86 36t-27 108q0 35 7 71.5t20 81.5h-9q-25 -45 -65.5 -97t-95 -96t-123 -74t-150.5 -30q-76 0 -130 28t-90 76 t-52.5 114.5t-16.5 146.5zM266 385q0 -121 47 -194.5t158 -73.5q66 0 132.5 40t122.5 105.5t97 146t56 164.5l73 416q-92 37 -182 37q-111 0 -204 -49t-159.5 -135t-103.5 -204t-37 -253z" />
<glyph unicode="b" horiz-adv-x="1226" d="M127 31l256 1452q-23 0 -51.5 3t-81.5 19l18 107l295 41l-110 -627q-6 -29 -10.5 -52.5t-8.5 -45t-9 -44t-13 -50.5h6q33 55 77 110t99 99t120.5 72t139.5 28q76 0 131 -28t90 -77t52.5 -115.5t17.5 -146.5q0 -150 -45 -293t-135.5 -256.5t-223.5 -183.5t-307 -70 q-78 0 -156.5 14.5t-150.5 43.5zM295 127q43 -18 97 -27.5t83 -9.5q111 0 204 49t160.5 135t104.5 203t37 252q0 123 -48 196.5t-159 73.5q-66 0 -131 -40.5t-121.5 -106.5t-98.5 -151t-56 -171z" />
<glyph unicode="c" horiz-adv-x="1038" d="M102 408q0 166 46.5 301t128 232t193.5 149.5t243 52.5q133 0 219 -53.5t86 -149.5q0 -51 -19 -102.5t-49 -79.5h-123l35 198q-25 31 -78 45.5t-106 14.5q-104 0 -182 -50.5t-128.5 -131t-76 -185t-25.5 -215.5q0 -90 24.5 -151.5t65.5 -99.5t95.5 -54t113.5 -16 q92 0 165 27.5t138 62.5l15 -129q-74 -45 -170.5 -73t-194.5 -28q-80 0 -155.5 22.5t-133 74t-92.5 134.5t-35 204z" />
<glyph unicode="d" d="M102 338q0 215 65.5 367.5t168 250t228.5 142.5t247 45q80 0 164 -19l63 359q-23 0 -59.5 6t-75.5 16l19 107l297 41l-271 -1536l137 20l-18 -104q-29 -29 -70 -44.5t-77 -15.5q-113 0 -113 129q0 41 6 79t21 89h-9q-25 -45 -65.5 -97t-95 -96t-123 -74t-150.5 -30 q-76 0 -130 28t-90 76t-52.5 114.5t-16.5 146.5zM266 385q0 -121 47 -194.5t158 -73.5q66 0 132.5 40t122.5 105.5t97 146t56 164.5l73 416q-92 37 -182 37q-111 0 -204 -49t-159.5 -135t-103.5 -204t-37 -253z" />
<glyph unicode="e" horiz-adv-x="1040" d="M102 408q0 166 45.5 301t124 232t187 149.5t235.5 52.5q78 0 134.5 -22.5t93 -61.5t54 -91.5t17.5 -111.5q0 -121 -59 -246q-113 -35 -224.5 -53t-234.5 -18q-96 0 -201 12q-4 -31 -6 -62.5t-2 -64.5q0 -86 24.5 -146.5t66.5 -97.5t97.5 -53t114.5 -16q96 0 167 26.5 t136 61.5l15 -125q-74 -45 -170 -73t-195 -28q-82 0 -157.5 23.5t-134 75t-93.5 134.5t-35 202zM293 655q35 -4 69.5 -7t69.5 -3q180 0 365 66q35 80 34 141q0 76 -43.5 122t-125.5 46q-74 0 -133.5 -28.5t-105.5 -78t-79 -116t-51 -142.5z" />
<glyph unicode="f" horiz-adv-x="702" d="M-193 -457l27 109h189q35 23 70.5 84t53.5 178l170 1090h-167l20 114h166l12 76q76 465 438 465q74 0 125.5 -11.5t79.5 -25.5l-26 -104h-244q-92 0 -143.5 -78t-77.5 -228l-17 -94h332l-18 -114h-332l-168 -1094q-35 -219 -121 -313.5t-215 -94.5q-90 0 -154 41z" />
<glyph unicode="g" horiz-adv-x="1230" d="M92 -440l29 139q66 -35 138.5 -52.5t137.5 -17.5q143 0 247.5 86.5t141.5 272.5q12 61 25.5 127.5t30.5 152.5q-25 -41 -64 -88t-92 -87t-119.5 -66.5t-146.5 -26.5q-78 0 -133.5 26.5t-92 73.5t-54 111.5t-17.5 142.5q0 150 46 292t135 253t221 177.5t304 66.5 q78 0 158 -14.5t150 -43.5l-185 -1024q-31 -170 -90 -280.5t-135 -175t-162 -90t-170 -25.5q-94 0 -174 22.5t-129 47.5zM285 403q0 -117 52 -188.5t163 -71.5q63 0 128.5 38t121 98.5t94.5 137.5t53 156l74 416q-92 37 -183 37q-109 0 -200.5 -48t-159.5 -131 t-105.5 -197.5t-37.5 -246.5z" />
<glyph unicode="h" horiz-adv-x="1261" d="M123 0l260 1483q-18 0 -41 4q-39 4 -94 18l18 107l297 41l-110 -627q-10 -53 -24.5 -94t-39.5 -98h8q23 55 64 109t99 99t134 73t168 28q111 0 186.5 -45t75.5 -140q0 -10 -1 -20t-3 -20l-139 -801l137 20l-18 -104q-31 -31 -74 -45.5t-84 -14.5q-55 0 -85 23.5t-30 83.5 q0 25 7 59l145 824q-98 45 -193 45q-82 0 -150.5 -34t-122.5 -96.5t-91 -149.5t-55 -193l-95 -535h-149z" />
<glyph unicode="i" horiz-adv-x="589" d="M156 76q0 27 6 57l147 836q-20 0 -51 3t-84 19l19 107l296 41l-180 -1022l137 20l-18 -104q-31 -31 -74 -45.5t-84 -14.5q-66 0 -90 28t-24 75zM350 1423q0 70 37 111t96 41q41 0 65.5 -25.5t24.5 -68.5q0 -27 -9 -53.5t-27.5 -48t-43 -35t-55.5 -13.5q-43 0 -65.5 25.5 t-22.5 66.5z" />
<glyph unicode="j" horiz-adv-x="569" d="M-174 -457l27 109h170q39 23 58 75t36 142l192 1100q-18 0 -50 3t-85 19l19 107l296 41l-215 -1233q-18 -111 -43.5 -187.5t-60.5 -125t-83 -70t-114 -21.5q-84 0 -147 41zM350 1423q0 70 37 111t96 41q41 0 65.5 -25.5t24.5 -68.5q0 -27 -9 -53.5t-27.5 -48t-43 -35 t-55.5 -13.5q-43 0 -65.5 25.5t-22.5 66.5z" />
<glyph unicode="k" horiz-adv-x="1177" d="M123 0l260 1483q-16 0 -49 3t-86 19l18 107l297 41l-190 -1078l491 402q-25 4 -65.5 14t-67.5 23l19 104h450l-18 -104q-47 -23 -85 -34t-77 -19l-361 -289l265 -541l157 21l-18 -105q-29 -29 -68 -44t-77 -15q-55 0 -89 27.5t-65 95.5l-221 469l-197 -160l-74 -420h-149 z" />
<glyph unicode="l" horiz-adv-x="589" d="M156 76q0 27 6 57l237 1350q-23 0 -52.5 3t-82.5 19l19 107l297 41l-271 -1536l137 20l-18 -104q-31 -31 -74 -45.5t-84 -14.5q-66 0 -90 28t-24 75z" />
<glyph unicode="m" horiz-adv-x="1921" d="M139 0l168 969q-18 0 -41 4q-39 4 -94 18l18 107l297 41l-20 -113q-10 -55 -24.5 -95t-39.5 -97h9q23 55 61.5 109t95 99t128 73t159.5 28q55 0 102.5 -11.5t82 -35t55 -60.5t20.5 -86q0 -12 -1 -23.5t-3 -23.5q27 45 67 89t92 77t114.5 53.5t136.5 20.5q111 0 186.5 -45 t75.5 -140q0 -10 -1 -20t-3 -20l-140 -801l138 20l-19 -104q-31 -31 -74 -45.5t-83 -14.5q-55 0 -85 23.5t-30 83.5q0 25 6 59l145 824q-98 45 -192 45q-72 0 -134.5 -30t-113.5 -83t-87 -129t-52 -170l-105 -596h-149l168 963q-98 45 -193 45q-76 0 -141.5 -34 t-116.5 -96.5t-87 -149.5t-54 -193l-92 -535h-150z" />
<glyph unicode="n" horiz-adv-x="1277" d="M139 0l170 969q-18 0 -41 4q-39 4 -94 18l19 107l296 41l-20 -113q-10 -55 -24.5 -95t-38.5 -97h8q23 55 63.5 109t99 99t134 73t168.5 28q111 0 186.5 -45t75.5 -140q0 -10 -1 -20t-3 -20l-140 -801l138 20l-19 -104q-31 -31 -74 -45.5t-84 -14.5q-55 0 -84.5 23.5 t-29.5 83.5q0 25 6 59l145 824q-98 45 -192 45q-82 0 -150.5 -34t-123 -96.5t-91.5 -149.5t-55 -193l-94 -535h-150z" />
<glyph unicode="o" horiz-adv-x="1181" d="M102 385q0 176 46.5 316.5t128 238.5t191.5 150.5t239 52.5q199 0 297 -106.5t98 -305.5q0 -176 -46 -316.5t-127 -238.5t-190.5 -150.5t-236.5 -52.5q-199 0 -299.5 106.5t-100.5 305.5zM262 414q0 -152 65.5 -236t194.5 -84q86 0 163 42t133 121t90 191.5t34 253.5 q0 152 -65.5 237t-190.5 85q-88 0 -165 -42t-134 -122t-91 -192.5t-34 -253.5z" />
<glyph unicode="p" horiz-adv-x="1239" d="M53 -483l256 1452q-18 0 -41 4q-18 2 -42.5 6t-51.5 12l19 107l296 41l-20 -113q-10 -53 -17.5 -90t-21.5 -90h6q29 49 72 101t98.5 95t122 72t141.5 29q76 0 130.5 -28t90 -77t52 -115.5t16.5 -146.5q0 -150 -45 -293t-134 -256.5t-222 -183.5t-307 -70q-84 0 -164 19 l-84 -475h-150zM309 127q92 -37 183 -37q111 0 203.5 49t159.5 135t103.5 204t36.5 253q0 121 -48 194.5t-156 73.5q-66 0 -132.5 -39.5t-123 -105.5t-97.5 -147.5t-55 -163.5z" />
<glyph unicode="q" d="M102 338q0 215 65.5 367.5t168 250t228.5 142.5t247 45q78 0 158 -14.5t149 -43.5l-256 -1439l142 20l-19 -104q-39 -27 -82 -43.5t-82 -16.5q-45 0 -75.5 29t-30.5 96q0 27 6 62l104 581q-25 -45 -65.5 -97t-95 -96t-123 -74t-150.5 -30q-76 0 -130 28t-90 76 t-52.5 114.5t-16.5 146.5zM266 385q0 -121 47 -194.5t158 -73.5q66 0 132.5 40t122.5 105.5t97 146t56 164.5l73 416q-92 37 -182 37q-111 0 -204 -49t-159.5 -135t-103.5 -204t-37 -253z" />
<glyph unicode="r" horiz-adv-x="917" d="M139 0l164 969q-16 0 -39 4q-18 2 -41.5 6t-48.5 12l19 107l290 41l-20 -113q-10 -59 -28.5 -108.5t-41.5 -106.5h8q174 332 437 332q68 0 96.5 -30t28.5 -79q0 -55 -26 -116.5t-54 -114.5h-123l35 203q-156 0 -272.5 -129t-162.5 -418l-71 -459h-150z" />
<glyph unicode="s" horiz-adv-x="962" d="M55 180q0 57 23.5 108.5t54.5 82.5h123l-39 -219q29 -23 82.5 -40.5t114.5 -17.5q37 0 79 11.5t78.5 36t61 61.5t24.5 88q0 53 -33.5 94t-84 78t-109.5 71.5t-109.5 74.5t-84 88t-33.5 112q0 76 32.5 137.5t88 105.5t130 67.5t158.5 23.5q82 0 137.5 -17.5t88 -45 t46 -62.5t13.5 -72q0 -51 -19.5 -100t-43.5 -80h-123l34 201q-23 25 -62.5 42t-86.5 17q-113 0 -176.5 -51t-63.5 -117q0 -51 34 -90t85 -75t109.5 -69.5t109.5 -73.5t85 -91t34 -119q0 -80 -32.5 -146.5t-89 -115.5t-132.5 -77t-162 -28q-98 0 -164.5 17.5t-105.5 46.5 t-55.5 65.5t-16.5 77.5z" />
<glyph unicode="t" horiz-adv-x="745" d="M127 1004l20 114h172l107 283h94l-51 -283h317l-18 -114h-319l-119 -674q-4 -29 -7.5 -53.5t-3.5 -47.5q0 -59 28 -94t102 -35q59 0 108 15.5t94 38.5l29 -91q-59 -41 -135 -65.5t-150 -24.5q-121 0 -175 68t-54 170q0 20 2 42.5t6 45.5l125 705h-172z" />
<glyph unicode="u" horiz-adv-x="1282" d="M174 186q0 25 6 56l129 727q-18 0 -41 4q-18 2 -42.5 6t-51.5 12l19 107l296 41l-167 -963q78 -63 165 -63q74 0 144.5 41t129 106.5t100.5 147t57 165.5l69 396q-18 0 -41 4q-18 2 -42.5 6t-51.5 12l18 107l297 41l-180 -1022l137 20l-18 -104q-29 -29 -70 -44.5 t-78 -15.5q-112 0 -112 131q0 72 26 166h-10q-27 -51 -65.5 -103t-91 -95t-119 -71t-148.5 -28q-111 0 -187.5 52.5t-76.5 160.5z" />
<glyph unicode="v" horiz-adv-x="1069" d="M80 991l18 107l260 41q25 -43 42.5 -119t30.5 -194.5t23.5 -285.5t20.5 -395q59 68 130 172.5t134.5 221t110.5 231.5t59 205q-20 0 -43 4q-45 4 -98 18l16 101l283 41q10 -35 10 -70q0 -72 -30.5 -164t-79.5 -193.5t-112.5 -206t-127 -199.5t-123 -175t-102.5 -131h-162 q-12 236 -26.5 403.5t-28 281.5t-28.5 181.5t-32 102.5q-23 0 -45 4q-20 2 -45.5 6t-54.5 12z" />
<glyph unicode="w" horiz-adv-x="1662" d="M80 991l18 107l260 41q20 -43 35 -119t26 -194.5t19 -285.5t17 -395q51 68 116.5 176.5t126 240.5t105.5 275.5t57 280.5l135 2q14 -84 30.5 -191.5t30 -233.5t26 -265t18.5 -285q53 68 118.5 173.5t125 222t102.5 231.5t53 203q-20 0 -43 4q-45 4 -98 18l16 101l283 41 q10 -35 10 -72q0 -72 -27.5 -164t-73.5 -192.5t-104.5 -205t-119 -198.5t-118 -174t-102.5 -133h-147q-10 205 -26.5 397.5t-37.5 397.5q-43 -125 -100 -245t-115.5 -223.5t-112 -187.5t-91.5 -139h-162q-14 233 -27.5 400t-26 282t-25.5 183.5t-26 103.5q-23 0 -45 4 q-20 2 -45.5 6t-54.5 12z" />
<glyph unicode="x" horiz-adv-x="1153" d="M-4 -6l35 132h139q25 20 50.5 51.5t60 88t84 141.5t120.5 211l-159 351q-29 0 -56 4q-25 2 -52.5 6t-55.5 12l18 107l213 41q33 -31 63.5 -81t53.5 -106l131 -311q61 111 115.5 203t105.5 158.5t101.5 103.5t103.5 37q45 0 69.5 -6.5t47.5 -14.5l-23 -131h-100 q-33 0 -68 -30.5t-78 -89t-98 -142.5t-127 -192l211 -420l154 19l-19 -103q-29 -29 -68.5 -44.5t-76.5 -15.5q-47 0 -84 23.5t-68 89.5l-194 424q-66 -129 -116 -228.5t-99 -168t-100.5 -104.5t-118.5 -36q-39 0 -66 6.5t-49 14.5z" />
<glyph unicode="y" horiz-adv-x="1046" d="M-174 -457l27 109h202q92 37 180.5 125t192.5 223h-82q-16 223 -33.5 389t-36 282.5t-37 189.5t-34.5 108q-23 0 -45 4q-20 2 -46 6t-55 12l19 107l260 41q23 -43 44 -137.5t39.5 -231.5t35 -310t28.5 -374q63 92 125 199.5t114 221.5t93 232.5t66 235.5q-20 0 -43 4 q-45 4 -99 18l17 101l276 41q4 -12 8.5 -35t4.5 -45q0 -57 -31 -160.5t-85 -232.5t-128 -272.5t-160 -278.5q-104 -164 -192.5 -280t-169 -189.5t-157.5 -108.5t-159 -35q-47 0 -85 13.5t-54 27.5z" />
<glyph unicode="z" horiz-adv-x="1038" d="M43 0l16 96l748 899h-465l-41 -237h-125q-6 18 -10 38.5t-4 43.5q0 51 14 100t49 89t93.5 64.5t144.5 24.5h565l-16 -92l-748 -901h477q6 29 17 61q10 29 23.5 62t33.5 67h117l-58 -315h-831z" />
<glyph unicode="{" horiz-adv-x="595" d="M47 604l14 76q57 8 99.5 30.5t73 64.5t51 104.5t37.5 152.5l45 248q20 111 47.5 188.5t69.5 127t100.5 72t140.5 22.5h10l-12 -66q-92 -4 -133 -80t-68 -231l-30 -170q-14 -80 -32 -158t-50.5 -143.5t-88 -117.5t-145.5 -81q98 -37 133 -105.5t35 -158.5q0 -55 -9 -114.5 t-20 -123.5l-30 -170q-18 -98 -19 -166q0 -72 25.5 -106.5t85.5 -38.5l-10 -61h-11q-125 0 -179 54t-54 177q0 74 18 178l43 246q8 47 12.5 86t4.5 74q0 92 -36 134t-118 56z" />
<glyph unicode="|" horiz-adv-x="483" d="M195 -373v2067h122v-2067h-122z" />
<glyph unicode="}" horiz-adv-x="595" d="M-111 -401l13 65q45 2 77.5 21.5t55 58.5t38 96.5t29.5 134.5l31 170q14 80 31.5 158t50.5 143.5t88 117.5t146 81q-98 37 -133 105.5t-35 158.5q0 53 9 113.5t19 124.5l31 170q18 98 18 166q0 70 -25.5 105.5t-84.5 39.5l10 62h10q123 0 178.5 -54.5t55.5 -177.5 q0 -74 -19 -178l-43 -246q-18 -96 -18 -160q0 -92 37 -134t119 -56l-15 -76q-59 -10 -100 -31.5t-72 -63.5t-51.5 -104.5t-36.5 -152.5l-45 -248q-20 -111 -48 -188.5t-70 -126.5t-100 -71.5t-140 -22.5h-11z" />
<glyph unicode="~" d="M119 547q66 59 135.5 108.5t142.5 49.5q55 0 115.5 -20.5t119 -45.5t109 -45.5t84.5 -20.5q47 0 95.5 35t107.5 92l80 -102q-61 -61 -133 -110.5t-148 -49.5q-53 0 -113.5 20.5t-118.5 45t-108.5 45t-85.5 20.5q-47 0 -95 -33.5t-107 -93.5z" />
<glyph unicode="&#xa1;" horiz-adv-x="493" d="M23 -268q0 27 3 54.5t12 69.5t25.5 107.5t43 166.5t64.5 248.5t91 356.5h70q-16 -188 -27.5 -325.5t-21 -234.5t-16.5 -161.5t-12 -106.5t-10 -68.5t-9 -49.5q-16 -82 -51 -127t-85 -45q-78 0 -77 115zM219 991q0 31 12.5 58.5t33 48t45.5 33t52 12.5q45 0 73 -30t28 -73 q0 -31 -12.5 -58.5t-33 -48t-46 -32.5t-52.5 -12q-45 0 -72.5 29.5t-27.5 72.5z" />
<glyph unicode="&#xa2;" horiz-adv-x="1118" d="M109 391q0 174 45 309.5t120.5 229.5t176 148.5t211.5 64.5l18 114h80l-21 -114q80 -2 134.5 -20.5t87 -47t46 -64.5t13.5 -73q0 -53 -19.5 -102.5t-48.5 -77.5h-104l35 198q-23 25 -68 39.5t-98 18.5l-160 -914q16 -2 28.5 -2h28.5q51 0 109.5 11.5t124.5 27.5l-6 -104 q-74 -29 -143.5 -44.5t-163.5 -15.5l-21 -116h-80l21 120q-164 20 -255 122t-91 292zM268 428q0 -137 53.5 -212t157.5 -101l158 899q-102 -10 -172 -68.5t-114 -142.5t-63.5 -183.5t-19.5 -191.5z" />
<glyph unicode="&#xa3;" horiz-adv-x="1118" d="M-2 0l12 68q31 14 61.5 36.5t58.5 59.5t49.5 91t35.5 128l59 319h-147l16 99h146l37 219q20 129 71.5 220t117 148.5t141 84t147.5 26.5q86 0 143.5 -19.5t93 -52t50 -74.5t14.5 -87q0 -66 -21.5 -124.5t-50.5 -94.5h-125l45 256q-27 29 -64.5 47t-84.5 18 q-123 0 -207 -88t-119 -281l-35 -198h387l-16 -99h-385l-43 -225q-20 -104 -56 -186t-102 -154h588q6 27 16 58q10 27 24.5 60.5t37.5 70.5h108l-57 -326h-946z" />
<glyph unicode="&#xa4;" horiz-adv-x="1118" d="M160 324l114 102q-41 53 -61 118.5t-20 139.5q0 72 20 137.5t61 116.5l-114 102l78 78l106 -106q92 70 219 69q123 0 221 -69l103 106l80 -78l-115 -102q41 -51 61.5 -116.5t20.5 -137.5q0 -74 -20.5 -139.5t-61.5 -118.5l115 -102l-80 -76l-109 108q-43 -33 -97 -51 t-118 -18q-63 0 -117.5 18.5t-101.5 50.5l-106 -108zM328 684q0 -55 15 -103.5t45 -85t74 -58t101 -21.5t101.5 21.5t74 58t45 85t15.5 103.5t-15.5 103.5t-45 85t-73.5 58t-102 21.5q-57 0 -101 -21.5t-74 -58t-45 -85t-15 -103.5z" />
<glyph unicode="&#xa5;" horiz-adv-x="1118" d="M90 424l14 86h351l14 78l-31 114h-299l15 89h260l-156 538q-20 4 -52 16.5t-63 34.5l17 95h434l-19 -95q-39 -23 -74.5 -34t-58.5 -17l154 -588l377 586q-23 4 -64 17.5t-78 35.5l17 95h416l-17 -95q-43 -25 -84 -38t-57 -15l-352 -536h276l-16 -89h-322l-71 -108 l-15 -84h375l-16 -86h-373l-57 -328q29 29 81 44.5t93 11.5l-27 -152h-465l16 96q23 12 49.5 23.5t51.5 21.5q29 10 59 19l47 264h-350z" />
<glyph unicode="&#xa6;" horiz-adv-x="483" d="M195 -373v828h122v-828h-122zM195 868v826h122v-826h-122z" />
<glyph unicode="&#xa7;" horiz-adv-x="1116" d="M135 553q0 131 96.5 235.5t274.5 163.5q-78 49 -113 102.5t-35 116.5q0 74 33 134.5t90.5 103.5t135 66.5t165.5 23.5q70 0 118 -15.5t76 -41t40 -57t12 -64.5q0 -41 -16.5 -86t-44.5 -78h-111l37 205q-27 14 -53.5 19t-61.5 5q-113 0 -180.5 -43t-67.5 -126 q0 -47 41 -89.5t142 -97.5q49 -27 104 -57.5t102.5 -70.5t79 -92t31.5 -124q0 -51 -23.5 -106.5t-69.5 -106.5t-114.5 -96t-160.5 -78q78 -47 112.5 -98t34.5 -117q0 -80 -37 -140.5t-96.5 -101.5t-135 -61.5t-151.5 -20.5q-72 0 -119 14.5t-76.5 39t-42 55.5t-12.5 65 q0 41 17.5 86.5t50.5 83.5h108l-36 -210q45 -23 114 -23q106 0 175 39t69 117q0 53 -45 99t-133 95q-98 55 -160.5 96t-98.5 79t-50.5 75t-14.5 82zM309 614q0 -45 22.5 -80.5t58.5 -66.5t78 -55.5t81 -44.5q47 12 102.5 32.5t101.5 51t76.5 76.5t30.5 112q0 45 -22.5 82 t-58.5 65.5t-79 52t-84 46.5q-170 -43 -238.5 -114t-68.5 -157z" />
<glyph unicode="&#xa8;" horiz-adv-x="819" d="M371 1411q0 68 35.5 108t93.5 40q41 0 64.5 -25t23.5 -66q0 -27 -9.5 -52t-26.5 -45.5t-41 -34t-54 -13.5q-41 0 -63.5 23.5t-22.5 64.5zM768 1411q0 68 36 108t93 40q41 0 64.5 -25t23.5 -66q0 -27 -9 -52t-26.5 -45.5t-41 -34t-54.5 -13.5q-41 0 -63.5 23.5t-22.5 64.5 z" />
<glyph unicode="&#xa9;" horiz-adv-x="1662" d="M102 735q0 154 58.5 288t161 234.5t243 159t305.5 58.5q162 0 301.5 -57.5t239.5 -158t157.5 -235.5t57.5 -289q0 -150 -57.5 -284t-158.5 -234t-241.5 -158.5t-306.5 -58.5q-162 0 -300 57.5t-240.5 156.5t-161 233.5t-58.5 287.5zM227 735q0 -129 48.5 -243.5 t133.5 -199.5t201.5 -135.5t253.5 -50.5q139 0 256 51.5t202 137.5t132 201.5t47 244.5t-47 243t-131 200t-199.5 136t-253.5 50q-141 0 -258.5 -51t-202.5 -138t-133.5 -202t-48.5 -244zM465 733q0 231 114.5 348t309.5 117q82 0 137 -18.5t88 -47t47.5 -64.5t14.5 -71 q0 -61 -33 -110h-86v160q-35 23 -85 33t-98 10q-51 0 -99 -15.5t-86 -54.5t-60.5 -104.5t-22.5 -163.5q0 -96 24.5 -166t68.5 -115t103.5 -67.5t127.5 -22.5q90 0 215 45l16 -92q-133 -63 -272 -64q-84 0 -160 26t-135 82t-94 144t-35 211z" />
<glyph unicode="&#xaa;" horiz-adv-x="829" d="M145 997q0 119 38 214.5t102.5 163t149.5 103t181 35.5q117 0 230 -45l-109 -600l94 13l-16 -93q-23 -18 -53.5 -27t-59.5 -9q-90 0 -90 102q0 31 13 78h-9q-16 -29 -41.5 -60.5t-60.5 -58.5t-79 -44t-97 -17q-100 0 -146.5 69.5t-46.5 175.5zM285 1036q0 -74 29.5 -121 t99.5 -47q39 0 77.5 22.5t71.5 60.5t56.5 85t33.5 97l47 258q-29 12 -57.5 17t-56.5 5q-68 0 -123 -31.5t-95 -84t-61.5 -120t-21.5 -141.5z" />
<glyph unicode="&#xab;" horiz-adv-x="901" d="M51 563l369 455l90 -86l-305 -379l176 -391l-125 -56zM409 563l369 455l90 -86l-305 -379l176 -391l-125 -56z" />
<glyph unicode="&#xac;" d="M84 702v132h1059v-533h-139v401h-920z" />
<glyph unicode="&#xad;" horiz-adv-x="819" d="M119 539l24 137h539l-24 -137h-539z" />
<glyph unicode="&#xae;" horiz-adv-x="1662" d="M102 735q0 154 58.5 288t161 234.5t243 159t305.5 58.5q162 0 301.5 -57.5t239.5 -158t157.5 -235.5t57.5 -289q0 -150 -57.5 -284t-158.5 -234t-241.5 -158.5t-306.5 -58.5q-162 0 -300 57.5t-240.5 156.5t-161 233.5t-58.5 287.5zM227 735q0 -129 48.5 -243.5 t133.5 -199.5t201.5 -135.5t253.5 -50.5q139 0 256 51.5t202 137.5t132 201.5t47 244.5t-47 243t-131 200t-199.5 136t-253.5 50q-141 0 -258.5 -51t-202.5 -138t-133.5 -202t-48.5 -244zM512 297v78q12 8 27.5 16t31.5 15q16 8 35 14v647q-16 4 -43.5 15.5t-50.5 27.5v78 h338q162 0 237.5 -56.5t75.5 -183.5q0 -88 -52 -152.5t-136 -93.5l149 -239q23 -35 48.5 -56.5t56.5 -21.5h45v-88h-195l-243 391h-101v-293q29 10 59.5 16.5t61.5 0.5v-115h-344zM735 795h92q92 0 145.5 36.5t53.5 112.5t-49 104.5t-150 28.5h-92v-282z" />
<glyph unicode="&#xaf;" horiz-adv-x="819" d="M354 1311l25 133h618l-24 -133h-619z" />
<glyph unicode="&#xb0;" horiz-adv-x="790" d="M143 1143q0 78 30 149.5t82 127t124 88t156 32.5q59 0 108 -21.5t85 -58.5t56.5 -87t20.5 -107q0 -80 -32 -151t-85 -125t-123.5 -86t-150.5 -32q-59 0 -109.5 20.5t-86.5 56.5t-55.5 85t-19.5 109zM270 1167q0 -72 47 -121t121 -49q45 0 88 18.5t77 51.5t54.5 78 t20.5 98q0 74 -47 123t-119 49q-53 0 -98 -20.5t-77 -54t-49.5 -78.5t-17.5 -95z" />
<glyph unicode="&#xb1;" d="M84 201v131h1059v-131h-1059zM84 702v132h459v292h141v-292h459v-132h-459v-274h-141v274h-459z" />
<glyph unicode="&#xb2;" horiz-adv-x="667" d="M92 678l14 86q150 123 240 212t137 152.5t61.5 107.5t14.5 81q0 33 -21.5 55.5t-80.5 22.5q-31 0 -55.5 -8.5t-47.5 -20.5l-22 -143h-107q-8 16 -10 32.5t-2 32.5q0 33 11.5 70t42 68.5t82.5 52t134 20.5q41 0 80 -8t69 -27.5t48 -51.5t18 -79q0 -76 -40 -150.5 t-103 -145t-139 -134t-146 -117.5h260q4 16 15.5 46t29.5 65h101l-41 -219h-543z" />
<glyph unicode="&#xb3;" horiz-adv-x="667" d="M102 686l43 100q37 -10 74 -16t80 -6q45 0 87 8t75 27.5t52 50.5t19 78q0 35 -18 55.5t-50 31.5t-74 14t-87 3l21 107h38q41 0 79 11t68 32.5t47 54.5t17 74q0 47 -33.5 65.5t-74.5 18.5q-29 0 -59.5 -8.5t-55.5 -20.5l-24 -135h-107q-14 35 -14 67q0 33 12 68t45 64.5 t87 49t138 19.5q98 0 160 -42t62 -132q0 -41 -14.5 -78t-38 -65.5t-52.5 -51t-57 -36.5q45 -18 86 -55.5t41 -102.5q0 -72 -31 -124t-82 -87t-116.5 -52.5t-135.5 -17.5q-66 0 -116 8.5t-91 22.5z" />
<glyph unicode="&#xb4;" horiz-adv-x="819" d="M418 1325l373 315l106 -112l-410 -268z" />
<glyph unicode="&#xb5;" horiz-adv-x="1384" d="M84 1026v92h322v-921q33 -35 91 -59.5t132 -24.5q76 0 142.5 24.5t115.5 65.5t76.5 94t27.5 113v567q-25 2 -51 10q-23 6 -51.5 14.5t-59.5 24.5v92h322v-1001h156v-105q-23 -20 -59 -29.5t-70 -9.5q-80 0 -127 42t-47 137v17t2 19h-11q-16 -37 -48 -75.5t-80 -69.5 t-112.5 -50.5t-146.5 -19.5q-57 0 -108 9.5t-94 31.5v-497h-158v1460q-25 2 -51 10q-23 6 -52.5 14.5t-60.5 24.5z" />
<glyph unicode="&#xb6;" horiz-adv-x="1171" d="M166 1071q0 98 37 173t98 126t141 78t166 27h502l-285 -1618h-137l266 1513h-204l-267 -1513h-141l168 956q-160 2 -252 64.5t-92 193.5z" />
<glyph unicode="&#xb7;" horiz-adv-x="514" d="M184 768q0 70 37 111t96 41q41 0 66 -26t25 -69q0 -27 -9.5 -53.5t-28 -48t-43 -34.5t-55.5 -13q-43 0 -65.5 25.5t-22.5 66.5z" />
<glyph unicode="&#xb8;" horiz-adv-x="819" d="M119 -483l10 86q27 0 73 3t92 15t80 38t34 73q0 51 -82 51q-10 0 -21.5 -1t-23.5 -3l-29 49l86 172h92l-61 -125q115 0 157.5 -36t42.5 -91q0 -74 -33.5 -119t-85 -71.5t-114 -35.5t-119.5 -9q-27 0 -51.5 1t-46.5 3z" />
<glyph unicode="&#xb9;" horiz-adv-x="550" d="M113 676l14 80q18 8 46 15t54 11q31 6 64 11l100 536h-180l10 86q70 12 137.5 27.5t104.5 32.5h84l-129 -703q20 8 45.5 13.5t54.5 5.5h43l-22 -115h-426z" />
<glyph unicode="&#xba;" horiz-adv-x="788" d="M143 1028q0 106 30 196.5t84 154t130 99t168 35.5q137 0 205.5 -70.5t68.5 -203.5q0 -115 -31.5 -205t-87 -153.5t-130 -96t-160.5 -32.5q-135 0 -206 70.5t-71 205.5zM283 1042q0 -90 38.5 -139t114.5 -49q51 0 97.5 25.5t81 72.5t55 115t20.5 154q0 90 -39 141t-114 51 q-51 0 -97.5 -25.5t-81 -73.5t-55 -117t-20.5 -155z" />
<glyph unicode="&#xbb;" horiz-adv-x="911" d="M33 195l305 378l-176 392l125 55l205 -457l-369 -454zM391 195l305 378l-176 392l125 55l205 -457l-369 -454z" />
<glyph unicode="&#xbc;" horiz-adv-x="1615" d="M113 676l14 80q18 8 46 15t54 11q31 6 64 11l100 536h-180l10 86q70 12 137.5 27.5t104.5 32.5h84l-129 -703q20 8 45.5 13.5t54.5 5.5h43l-22 -115h-426zM230 33l1235 1468l81 -67l-1232 -1463zM895 188l21 97l459 514h110l-90 -506h109l-19 -105h-110l-35 -188h-115 l35 188h-365zM1057 293h221l70 336z" />
<glyph unicode="&#xbd;" horiz-adv-x="1644" d="M113 676l14 80q18 8 46 15t54 11q31 6 64 11l100 536h-180l10 86q70 12 137.5 27.5t104.5 32.5h84l-129 -703q20 8 45.5 13.5t54.5 5.5h43l-22 -115h-426zM181 33l1235 1468l81 -67l-1232 -1463zM926 2l14 86q150 123 240 212t137 152.5t61.5 107.5t14.5 81 q0 33 -21.5 55.5t-80.5 22.5q-31 0 -55.5 -8.5t-47.5 -20.5l-22 -143h-107q-8 16 -10 32.5t-2 32.5q0 33 11.5 70t42 68.5t82.5 52t134 20.5q41 0 80 -8t69 -27.5t48 -51.5t18 -79q0 -76 -40 -150.5t-103 -145t-139 -134t-146 -117.5h260q4 16 15.5 46t29.5 65h101l-41 -219 h-543z" />
<glyph unicode="&#xbe;" horiz-adv-x="1732" d="M102 686l43 100q37 -10 74 -16t80 -6q45 0 87 8t75 27.5t52 50.5t19 78q0 35 -18 55.5t-50 31.5t-74 14t-87 3l21 107h38q41 0 79 11t68 32.5t47 54.5t17 74q0 47 -33.5 65.5t-74.5 18.5q-29 0 -59.5 -8.5t-55.5 -20.5l-24 -135h-107q-14 35 -14 67q0 33 12 68t45 64.5 t87 49t138 19.5q98 0 160 -42t62 -132q0 -41 -14.5 -78t-38 -65.5t-52.5 -51t-57 -36.5q45 -18 86 -55.5t41 -102.5q0 -72 -31 -124t-82 -87t-116.5 -52.5t-135.5 -17.5q-66 0 -116 8.5t-91 22.5zM287 33l1235 1468l81 -67l-1232 -1463zM1011 188l21 97l459 514h110 l-90 -506h109l-19 -105h-110l-35 -188h-115l35 188h-365zM1173 293h221l70 336z" />
<glyph unicode="&#xbf;" horiz-adv-x="841" d="M-41 -90q0 92 34 164.5t85 132t112.5 110t118 101.5t98.5 106.5t54 122.5l16 88h115l-17 -88q-12 -72 -47.5 -131t-82 -114.5t-96.5 -108.5t-92 -110.5t-68.5 -121t-26.5 -141.5q0 -172 180 -172q66 0 124 12.5t99 32.5l45 256h117q16 -37 16 -94q0 -51 -18 -110.5 t-67.5 -109.5t-136.5 -84t-222 -34q-164 0 -252 79t-88 214zM461 991q0 31 12 58.5t32.5 48t46 33t52.5 12.5q45 0 73 -30t28 -73q0 -31 -12.5 -58.5t-33 -48t-46 -32.5t-52.5 -12q-45 0 -72.5 29.5t-27.5 72.5z" />
<glyph unicode="&#xc0;" horiz-adv-x="1419" d="M-72 0l19 96q47 25 92 39.5t63 16.5l637 1179q-31 4 -63.5 11.5t-67.5 23.5l19 109h364l207 -1325q25 -4 62.5 -17.5t74.5 -36.5l-16 -96h-481l18 96q55 31 107.5 42.5t68.5 13.5l-59 378h-522l-201 -378q18 0 62 -14.5t94 -41.5l-19 -96h-459zM516 657h434l-94 650z M690 1841l129 113l318 -316l-68 -65z" />
<glyph unicode="&#xc1;" horiz-adv-x="1419" d="M-72 0l19 96q47 25 92 39.5t63 16.5l637 1179q-31 4 -63.5 11.5t-67.5 23.5l19 109h364l207 -1325q25 -4 62.5 -17.5t74.5 -36.5l-16 -96h-481l18 96q55 31 107.5 42.5t68.5 13.5l-59 378h-522l-201 -378q18 0 62 -14.5t94 -41.5l-19 -96h-459zM516 657h434l-94 650z M715 1661l373 315l106 -112l-410 -269z" />
<glyph unicode="&#xc2;" horiz-adv-x="1419" d="M-72 0l19 96q47 25 92 39.5t63 16.5l637 1179q-31 4 -63.5 11.5t-67.5 23.5l19 109h364l207 -1325q25 -4 62.5 -17.5t74.5 -36.5l-16 -96h-481l18 96q55 31 107.5 42.5t68.5 13.5l-59 378h-522l-201 -378q18 0 62 -14.5t94 -41.5l-19 -96h-459zM516 657h434l-94 650z M565 1661l385 315l272 -315l-73 -66l-234 185l-295 -185z" />
<glyph unicode="&#xc3;" horiz-adv-x="1419" d="M-72 0l19 96q47 25 92 39.5t63 16.5l637 1179q-31 4 -63.5 11.5t-67.5 23.5l19 109h364l207 -1325q25 -4 62.5 -17.5t74.5 -36.5l-16 -96h-481l18 96q55 31 107.5 42.5t68.5 13.5l-59 378h-522l-201 -378q18 0 62 -14.5t94 -41.5l-19 -96h-459zM516 657h434l-94 650z M542 1692q57 86 117.5 141t114.5 55q43 0 80.5 -15t74.5 -32.5t75 -33t83 -15.5q27 0 58.5 21.5t80.5 78.5l58 -51q-55 -86 -114.5 -140t-113.5 -54q-43 0 -80.5 14t-74.5 32.5t-76 33t-84 14.5q-27 0 -58.5 -21.5t-80.5 -81.5z" />
<glyph unicode="&#xc4;" horiz-adv-x="1419" d="M-72 0l19 96q47 25 92 39.5t63 16.5l637 1179q-31 4 -63.5 11.5t-67.5 23.5l19 109h364l207 -1325q25 -4 62.5 -17.5t74.5 -36.5l-16 -96h-481l18 96q55 31 107.5 42.5t68.5 13.5l-59 378h-522l-201 -378q18 0 62 -14.5t94 -41.5l-19 -96h-459zM516 657h434l-94 650z M622 1737q0 66 35 104.5t90 38.5q41 0 63.5 -23.5t22.5 -64.5q0 -51 -33.5 -96t-93.5 -45q-41 0 -62.5 23.5t-21.5 62.5zM1009 1737q0 66 35 104.5t90 38.5q39 0 62.5 -23.5t23.5 -64.5q0 -51 -33.5 -96t-93.5 -45q-41 0 -62.5 23.5t-21.5 62.5z" />
<glyph unicode="&#xc5;" horiz-adv-x="1419" d="M-72 0l19 96q47 25 92 39.5t63 16.5l637 1179q-31 4 -63.5 11.5t-67.5 23.5l19 109h364l207 -1325q25 -4 62.5 -17.5t74.5 -36.5l-16 -96h-481l18 96q55 31 107.5 42.5t68.5 13.5l-59 378h-522l-201 -378q18 0 62 -14.5t94 -41.5l-19 -96h-459zM516 657h434l-94 650z M698 1749q0 59 22.5 107.5t61.5 81t88.5 50t104.5 17.5q92 0 146 -44t54 -124q0 -61 -22.5 -109.5t-60 -82t-89 -51t-106.5 -17.5q-92 0 -145.5 44t-53.5 128zM815 1761q0 -41 23.5 -66.5t74.5 -25.5q68 0 107 44t39 110q0 39 -24.5 65.5t-76.5 26.5q-70 0 -106.5 -47 t-36.5 -107z" />
<glyph unicode="&#xc6;" horiz-adv-x="1798" d="M-72 0l17 96q29 14 62.5 28.5t78.5 27.5l700 1171q-18 2 -54 11t-70 32l18 109h1169l-55 -314h-111q-10 35 -13 65.5t-3 55.5q0 29 2 39q0 8 2 16h-448l-88 -501h450l-22 -129h-451l-100 -570h483q6 27 16 58q10 27 24.5 60.5t37.5 70.5h108l-57 -326h-946l16 96 q23 12 49.5 23.5t51.5 21.5q29 10 59 19l66 370h-463l-224 -378q39 -10 80 -22.5t86 -33.5l-16 -96h-455zM530 657h412l119 680h-131z" />
<glyph unicode="&#xc7;" horiz-adv-x="1284" d="M123 555q0 164 48 332t145.5 304t246 222t348.5 86q117 0 194 -22.5t123 -58.5t65.5 -83t19.5 -96q0 -68 -25.5 -124t-68.5 -91h-115l45 256q-39 39 -108.5 62.5t-135.5 23.5q-152 0 -266.5 -71.5t-192 -185.5t-116.5 -253t-39 -274q0 -123 32.5 -210t92 -142.5 t141.5 -82t178 -26.5q104 0 197.5 33.5t171.5 87.5l31 -142q-102 -63 -206 -93t-237 -34l-47 -98q109 0 155 -42t46 -107q0 -59 -34 -100.5t-85 -66t-113.5 -35.5t-119.5 -11q-27 0 -51.5 1t-47.5 3l11 86q27 0 72.5 2t91.5 13t80 35.5t34 72.5q0 35 -29.5 45t-60.5 10 q-27 0 -37 -2l-29 49l74 149q-100 8 -188 46t-152.5 108t-101.5 175.5t-37 248.5z" />
<glyph unicode="&#xc8;" horiz-adv-x="1144" d="M-2 0l16 96q20 12 48 23.5t53 21.5q29 10 59 19l203 1155q-29 8 -53 18q-23 10 -44.5 20.5t-37.5 24.5l16 97h938l-61 -355h-111q-8 27 -11 55.5t-3 57.5q0 23 1 41t3 33q2 16 4 30h-473l-88 -501h477l-23 -129h-477l-100 -570h508q8 39 20 78q10 35 27.5 75t40.5 77h104 l-63 -367h-973zM575 1841l129 113l318 -316l-68 -65z" />
<glyph unicode="&#xc9;" horiz-adv-x="1144" d="M-2 0l16 96q20 12 48 23.5t53 21.5q29 10 59 19l203 1155q-29 8 -53 18q-23 10 -44.5 20.5t-37.5 24.5l16 97h938l-61 -355h-111q-8 27 -11 55.5t-3 57.5q0 23 1 41t3 33q2 16 4 30h-473l-88 -501h477l-23 -129h-477l-100 -570h508q8 39 20 78q10 35 27.5 75t40.5 77h104 l-63 -367h-973zM580 1661l373 315l106 -112l-410 -269z" />
<glyph unicode="&#xca;" horiz-adv-x="1144" d="M-2 0l16 96q20 12 48 23.5t53 21.5q29 10 59 19l203 1155q-29 8 -53 18q-23 10 -44.5 20.5t-37.5 24.5l16 97h938l-61 -355h-111q-8 27 -11 55.5t-3 57.5q0 23 1 41t3 33q2 16 4 30h-473l-88 -501h477l-23 -129h-477l-100 -570h508q8 39 20 78q10 35 27.5 75t40.5 77h104 l-63 -367h-973zM469 1661l385 315l272 -315l-73 -66l-234 185l-295 -185z" />
<glyph unicode="&#xcb;" horiz-adv-x="1144" d="M-2 0l16 96q20 12 48 23.5t53 21.5q29 10 59 19l203 1155q-29 8 -53 18q-23 10 -44.5 20.5t-37.5 24.5l16 97h938l-61 -355h-111q-8 27 -11 55.5t-3 57.5q0 23 1 41t3 33q2 16 4 30h-473l-88 -501h477l-23 -129h-477l-100 -570h508q8 39 20 78q10 35 27.5 75t40.5 77h104 l-63 -367h-973zM524 1737q0 66 35 104.5t90 38.5q41 0 63.5 -23.5t22.5 -64.5q0 -51 -33.5 -96t-93.5 -45q-41 0 -62.5 23.5t-21.5 62.5zM911 1737q0 66 35 104.5t90 38.5q39 0 62.5 -23.5t23.5 -64.5q0 -51 -33.5 -96t-93.5 -45q-41 0 -62.5 23.5t-21.5 62.5z" />
<glyph unicode="&#xcc;" horiz-adv-x="659" d="M-2 0l14 96q20 12 47 23.5t52 21.5q29 10 59 19l211 1198q-23 -10 -45 -19q-20 -8 -43 -13t-43 -5q-14 0 -21 2l27 152h455l-17 -97q-20 -14 -46.5 -24.5t-51.5 -20.5q-29 -10 -59 -18l-211 -1198q25 10 49 18q23 6 48.5 12.5t49.5 6.5q16 0 25 -2l-29 -152h-471z M323 1841l129 113l318 -316l-68 -65z" />
<glyph unicode="&#xcd;" horiz-adv-x="659" d="M-2 0l14 96q20 12 47 23.5t52 21.5q29 10 59 19l211 1198q-23 -10 -45 -19q-20 -8 -43 -13t-43 -5q-14 0 -21 2l27 152h455l-17 -97q-20 -14 -46.5 -24.5t-51.5 -20.5q-29 -10 -59 -18l-211 -1198q25 10 49 18q23 6 48.5 12.5t49.5 6.5q16 0 25 -2l-29 -152h-471z M328 1661l373 315l106 -112l-410 -269z" />
<glyph unicode="&#xce;" horiz-adv-x="659" d="M-2 0l14 96q20 12 47 23.5t52 21.5q29 10 59 19l211 1198q-23 -10 -45 -19q-20 -8 -43 -13t-43 -5q-14 0 -21 2l27 152h455l-17 -97q-20 -14 -46.5 -24.5t-51.5 -20.5q-29 -10 -59 -18l-211 -1198q25 10 49 18q23 6 48.5 12.5t49.5 6.5q16 0 25 -2l-29 -152h-471z M219 1661l385 315l272 -315l-73 -66l-234 185l-295 -185z" />
<glyph unicode="&#xcf;" horiz-adv-x="659" d="M-2 0l14 96q20 12 47 23.5t52 21.5q29 10 59 19l211 1198q-23 -10 -45 -19q-20 -8 -43 -13t-43 -5q-14 0 -21 2l27 152h455l-17 -97q-20 -14 -46.5 -24.5t-51.5 -20.5q-29 -10 -59 -18l-211 -1198q37 16 84 30.5t88 4.5l-29 -152h-471zM266 1737q0 66 35 104.5t90 38.5 q41 0 63.5 -23.5t22.5 -64.5q0 -51 -33.5 -96t-93.5 -45q-41 0 -62.5 23.5t-21.5 62.5zM618 1737q0 66 35 104.5t90 38.5q39 0 62.5 -23.5t23.5 -64.5q0 -51 -33.5 -96t-93.5 -45q-41 0 -62.5 23.5t-21.5 62.5z" />
<glyph unicode="&#xd0;" horiz-adv-x="1435" d="M4 0l16 96q20 12 47 23.5t52 21.5q29 10 59 19l96 551h-145l21 110h143l88 494q-27 8 -51 18q-23 10 -44.5 20.5t-37.5 24.5l16 97h572q287 0 428 -139.5t141 -379.5q0 -172 -52.5 -342t-155.5 -307t-259 -222t-363 -85h-571zM338 137h237q164 0 288 66.5t207 176 t125 253t42 297.5q0 217 -119 312t-330 95h-239l-92 -516h354l-18 -110h-355z" />
<glyph unicode="&#xd1;" horiz-adv-x="1536" d="M-2 0l16 96q20 12 47 23.5t52 21.5q29 10 59 19l203 1155q-27 8 -51 18q-23 10 -44.5 20.5t-37.5 24.5l16 97h315l555 -1231l191 1114q-23 -10 -45 -19q-20 -8 -43 -13t-43 -5q-14 0 -21 2l27 152h430l-16 -97q-23 -14 -49.5 -24.5t-51.5 -20.5q-29 -10 -57 -18 l-231 -1315h-158l-563 1247l-195 -1130q37 16 83 30.5t87 4.5l-27 -152h-448zM622 1692q57 86 117.5 141t114.5 55q43 0 80.5 -15t74.5 -32.5t75 -33t83 -15.5q27 0 58.5 21.5t80.5 78.5l58 -51q-55 -86 -114.5 -140t-113.5 -54q-43 0 -80.5 14t-74.5 32.5t-76 33t-84 14.5 q-27 0 -58.5 -21.5t-80.5 -81.5z" />
<glyph unicode="&#xd2;" horiz-adv-x="1419" d="M121 518q0 106 19.5 220t59.5 222.5t101 207t145 172t193 116.5t242 43q238 0 362.5 -141t124.5 -400q0 -106 -19.5 -219.5t-60.5 -223t-103.5 -208t-146.5 -172.5t-190.5 -118t-237.5 -44q-238 0 -363.5 143.5t-125.5 401.5zM289 541q0 -205 87 -320t257 -115 q92 0 170 38t141.5 103.5t110.5 149.5t79.5 176.5t49 185.5t16.5 177q0 205 -84 318.5t-248 113.5q-94 0 -174 -38t-144.5 -101.5t-112.5 -146.5t-81.5 -175t-50 -186t-16.5 -180zM723 1841l129 113l318 -316l-68 -65z" />
<glyph unicode="&#xd3;" horiz-adv-x="1419" d="M121 518q0 106 19.5 220t59.5 222.5t101 207t145 172t193 116.5t242 43q238 0 362.5 -141t124.5 -400q0 -106 -19.5 -219.5t-60.5 -223t-103.5 -208t-146.5 -172.5t-190.5 -118t-237.5 -44q-238 0 -363.5 143.5t-125.5 401.5zM289 541q0 -205 87 -320t257 -115 q92 0 170 38t141.5 103.5t110.5 149.5t79.5 176.5t49 185.5t16.5 177q0 205 -84 318.5t-248 113.5q-94 0 -174 -38t-144.5 -101.5t-112.5 -146.5t-81.5 -175t-50 -186t-16.5 -180zM750 1661l373 315l106 -112l-410 -269z" />
<glyph unicode="&#xd4;" horiz-adv-x="1419" d="M121 518q0 106 19.5 220t59.5 222.5t101 207t145 172t193 116.5t242 43q238 0 362.5 -141t124.5 -400q0 -106 -19.5 -219.5t-60.5 -223t-103.5 -208t-146.5 -172.5t-190.5 -118t-237.5 -44q-238 0 -363.5 143.5t-125.5 401.5zM289 541q0 -205 87 -320t257 -115 q92 0 170 38t141.5 103.5t110.5 149.5t79.5 176.5t49 185.5t16.5 177q0 205 -84 318.5t-248 113.5q-94 0 -174 -38t-144.5 -101.5t-112.5 -146.5t-81.5 -175t-50 -186t-16.5 -180zM610 1661l385 315l272 -315l-73 -66l-234 185l-295 -185z" />
<glyph unicode="&#xd5;" horiz-adv-x="1419" d="M121 518q0 106 19.5 220t59.5 222.5t101 207t145 172t193 116.5t242 43q238 0 362.5 -141t124.5 -400q0 -106 -19.5 -219.5t-60.5 -223t-103.5 -208t-146.5 -172.5t-190.5 -118t-237.5 -44q-238 0 -363.5 143.5t-125.5 401.5zM289 541q0 -205 87 -320t257 -115 q92 0 170 38t141.5 103.5t110.5 149.5t79.5 176.5t49 185.5t16.5 177q0 205 -84 318.5t-248 113.5q-94 0 -174 -38t-144.5 -101.5t-112.5 -146.5t-81.5 -175t-50 -186t-16.5 -180zM555 1692q57 86 117.5 141t114.5 55q43 0 80.5 -15t74.5 -32.5t75 -33t83 -15.5 q27 0 58.5 21.5t80.5 78.5l58 -51q-55 -86 -114.5 -140t-113.5 -54q-43 0 -80.5 14t-74.5 32.5t-76 33t-84 14.5q-27 0 -58.5 -21.5t-80.5 -81.5z" />
<glyph unicode="&#xd6;" horiz-adv-x="1419" d="M121 518q0 106 19.5 220t59.5 222.5t101 207t145 172t193 116.5t242 43q238 0 362.5 -141t124.5 -400q0 -106 -19.5 -219.5t-60.5 -223t-103.5 -208t-146.5 -172.5t-190.5 -118t-237.5 -44q-238 0 -363.5 143.5t-125.5 401.5zM289 541q0 -205 87 -320t257 -115 q92 0 170 38t141.5 103.5t110.5 149.5t79.5 176.5t49 185.5t16.5 177q0 205 -84 318.5t-248 113.5q-94 0 -174 -38t-144.5 -101.5t-112.5 -146.5t-81.5 -175t-50 -186t-16.5 -180zM657 1737q0 66 35 104.5t90 38.5q41 0 63.5 -23.5t22.5 -64.5q0 -51 -33.5 -96t-93.5 -45 q-41 0 -62.5 23.5t-21.5 62.5zM1044 1737q0 66 35 104.5t90 38.5q39 0 62.5 -23.5t23.5 -64.5q0 -51 -33.5 -96t-93.5 -45q-41 0 -62.5 23.5t-21.5 62.5z" />
<glyph unicode="&#xd7;" d="M115 188l401 377l-399 373l104 109l391 -388l396 388l104 -109l-403 -373l405 -377l-108 -94l-394 381l-389 -381z" />
<glyph unicode="&#xd8;" horiz-adv-x="1419" d="M29 0l168 190q-74 129 -74 328q0 106 19.5 220t59.5 222.5t101.5 207t145 172t192.5 116.5t242 43q229 0 354 -135l152 174l71 -63l-166 -189q76 -133 76 -328q0 -106 -19.5 -219.5t-60.5 -223t-103.5 -208t-146.5 -172.5t-190.5 -118t-237.5 -44q-231 0 -356 138 l-156 -174zM291 541q0 -123 31 -211l804 911q-43 63 -104 95t-152 32q-94 0 -174 -38t-144.5 -101.5t-113.5 -146.5t-81.5 -175t-49 -186t-16.5 -180zM367 236q43 -66 112.5 -98t155.5 -32q92 0 170 38t141.5 103.5t110.5 149.5t79.5 176.5t49 185.5t16.5 177q0 119 -31 211 z" />
<glyph unicode="&#xd9;" horiz-adv-x="1445" d="M180 373q0 14 1 34.5t6.5 58.5t15.5 102.5t27.5 169t43 256t64.5 364.5q-23 -10 -45 -19q-20 -8 -42 -13t-44 -5q-14 0 -21 2l27 152h455l-17 -97q-20 -14 -46.5 -24.5t-51.5 -20.5q-29 -10 -59 -18q-35 -195 -58.5 -335t-40 -237.5t-27 -159t-15.5 -99.5t-6 -59.5 t-1 -37.5q0 -158 69.5 -221.5t223.5 -63.5q106 0 186 31t137.5 94.5t94.5 162.5t61 235l129 733q-20 -10 -43 -19q-18 -8 -40.5 -13t-43.5 -5q-14 0 -20 2l26 152h424l-18 -97q-20 -14 -47 -24.5t-51 -20.5q-29 -10 -58 -18l-131 -733q-31 -174 -84 -291t-131 -187.5 t-183.5 -100.5t-240.5 -30q-215 0 -320.5 94.5t-105.5 305.5zM626 1841l129 113l318 -316l-68 -65z" />
<glyph unicode="&#xda;" horiz-adv-x="1445" d="M180 373q0 14 1 34.5t6.5 58.5t15.5 102.5t27.5 169t43 256t64.5 364.5q-23 -10 -45 -19q-20 -8 -42 -13t-44 -5q-14 0 -21 2l27 152h455l-17 -97q-20 -14 -46.5 -24.5t-51.5 -20.5q-29 -10 -59 -18q-35 -195 -58.5 -335t-40 -237.5t-27 -159t-15.5 -99.5t-6 -59.5 t-1 -37.5q0 -158 69.5 -221.5t223.5 -63.5q106 0 186 31t137.5 94.5t94.5 162.5t61 235l129 733q-20 -10 -43 -19q-18 -8 -40.5 -13t-43.5 -5q-14 0 -20 2l26 152h424l-18 -97q-20 -14 -47 -24.5t-51 -20.5q-29 -10 -58 -18l-131 -733q-31 -174 -84 -291t-131 -187.5 t-183.5 -100.5t-240.5 -30q-215 0 -320.5 94.5t-105.5 305.5zM746 1661l373 315l106 -112l-410 -269z" />
<glyph unicode="&#xdb;" horiz-adv-x="1445" d="M180 373q0 14 1 34.5t6.5 58.5t15.5 102.5t27.5 169t43 256t64.5 364.5q-23 -10 -45 -19q-20 -8 -42 -13t-44 -5q-14 0 -21 2l27 152h455l-17 -97q-20 -14 -46.5 -24.5t-51.5 -20.5q-29 -10 -59 -18q-35 -195 -58.5 -335t-40 -237.5t-27 -159t-15.5 -99.5t-6 -59.5 t-1 -37.5q0 -158 69.5 -221.5t223.5 -63.5q106 0 186 31t137.5 94.5t94.5 162.5t61 235l129 733q-20 -10 -43 -19q-18 -8 -40.5 -13t-43.5 -5q-14 0 -20 2l26 152h424l-18 -97q-20 -14 -47 -24.5t-51 -20.5q-29 -10 -58 -18l-131 -733q-31 -174 -84 -291t-131 -187.5 t-183.5 -100.5t-240.5 -30q-215 0 -320.5 94.5t-105.5 305.5zM577 1661l385 315l272 -315l-73 -66l-234 185l-295 -185z" />
<glyph unicode="&#xdc;" horiz-adv-x="1445" d="M180 373q0 14 1 34.5t6.5 58.5t15.5 102.5t27.5 169t43 256t64.5 364.5q-23 -10 -45 -19q-20 -8 -42 -13t-44 -5q-14 0 -21 2l27 152h455l-17 -97q-20 -14 -46.5 -24.5t-51.5 -20.5q-29 -10 -59 -18q-35 -195 -58.5 -335t-40 -237.5t-27 -159t-15.5 -99.5t-6 -59.5 t-1 -37.5q0 -158 69.5 -221.5t223.5 -63.5q106 0 186 31t137.5 94.5t94.5 162.5t61 235l129 733q-20 -10 -43 -19q-18 -8 -40.5 -13t-43.5 -5q-14 0 -20 2l26 152h424l-18 -97q-20 -14 -47 -24.5t-51 -20.5q-29 -10 -58 -18l-131 -733q-31 -174 -84 -291t-131 -187.5 t-183.5 -100.5t-240.5 -30q-215 0 -320.5 94.5t-105.5 305.5zM641 1737q0 66 35 104.5t90 38.5q41 0 63.5 -23.5t22.5 -64.5q0 -51 -33.5 -96t-93.5 -45q-41 0 -62.5 23.5t-21.5 62.5zM1028 1737q0 66 35 104.5t90 38.5q39 0 62.5 -23.5t23.5 -64.5q0 -51 -33.5 -96 t-93.5 -45q-41 0 -62.5 23.5t-21.5 62.5z" />
<glyph unicode="&#xdd;" horiz-adv-x="1265" d="M123 1339l16 97l269 53q66 -90 138 -289t177 -514q59 68 128 150t130 165.5t108.5 165.5t65.5 150q-41 -2 -86 3t-88 19l16 97l326 53q2 -12 2 -23.5v-23.5q0 -102 -54 -214t-139 -225.5t-187.5 -227t-199.5 -220.5l-77 -438q35 16 84 30.5t88 4.5l-27 -152h-467l19 96 q20 12 46.5 23.5t51.5 21.5q29 10 57 19l72 401q-96 328 -171 508t-122 240q-16 0 -59 5t-117 25zM649 1661l373 315l106 -112l-410 -269z" />
<glyph unicode="&#xde;" horiz-adv-x="1105" d="M0 0l14 96q20 12 47 23.5t52 21.5q29 10 59 19l211 1198q-27 -14 -63.5 -25.5t-67.5 -11.5q-14 0 -21 2l27 152h455l-17 -97q-20 -14 -46.5 -24.5t-51.5 -20.5q-29 -10 -59 -18l-23 -127h176q207 0 305.5 -76t98.5 -242q0 -127 -41 -228t-115 -173t-176 -111t-223 -39 h-176l-37 -202q37 14 75.5 25.5t85.5 11.5h18.5t18.5 -2l-26 -152h-500zM387 453h141q186 0 293 99t107 294q0 111 -73 159t-220 48h-141z" />
<glyph unicode="&#xdf;" horiz-adv-x="1214" d="M117 0l192 1098q23 133 62 237.5t103.5 176t162.5 109.5t240 38q135 0 220 -63.5t85 -178.5q0 -72 -31 -130t-76 -106t-98 -88t-98 -77t-76 -73t-31 -73q0 -49 25.5 -88t64.5 -76.5t85 -77.5t85 -87t64.5 -107.5t25.5 -138.5q0 -74 -31.5 -133.5t-83 -102.5t-117 -65.5 t-132.5 -22.5q-98 0 -158.5 16.5t-101.5 39.5l18 94h275q76 0 126 49t50 121q0 53 -26 97t-64.5 84t-82.5 79t-83 80t-64.5 87t-25.5 103q0 70 29.5 123t73.5 97t95 83t95 79t74 86t30 106q0 72 -42 108.5t-134 36.5q-158 0 -247 -94t-128 -309l-201 -1137h-149z" />
<glyph unicode="&#xe0;" d="M102 338q0 215 65.5 367.5t168 250t228.5 142.5t247 45q78 0 158 -15.5t149 -44.5l-170 -966l137 20l-18 -104q-29 -29 -70 -44.5t-77 -15.5q-59 0 -86 36t-27 108q0 35 7 71.5t20 81.5h-9q-25 -45 -65.5 -97t-95 -96t-123 -74t-150.5 -30q-76 0 -130 28t-90 76 t-52.5 114.5t-16.5 146.5zM266 385q0 -121 47 -194.5t158 -73.5q66 0 132.5 40t122.5 105.5t97 146t56 164.5l73 416q-92 37 -182 37q-111 0 -204 -49t-159.5 -135t-103.5 -204t-37 -253zM596 1513l129 113l317 -315l-67 -66z" />
<glyph unicode="&#xe1;" d="M102 338q0 215 65.5 367.5t168 250t228.5 142.5t247 45q78 0 158 -15.5t149 -44.5l-170 -966l137 20l-18 -104q-29 -29 -70 -44.5t-77 -15.5q-59 0 -86 36t-27 108q0 35 7 71.5t20 81.5h-9q-25 -45 -65.5 -97t-95 -96t-123 -74t-150.5 -30q-76 0 -130 28t-90 76 t-52.5 114.5t-16.5 146.5zM266 385q0 -121 47 -194.5t158 -73.5q66 0 132.5 40t122.5 105.5t97 146t56 164.5l73 416q-92 37 -182 37q-111 0 -204 -49t-159.5 -135t-103.5 -204t-37 -253zM600 1325l373 315l106 -112l-410 -268z" />
<glyph unicode="&#xe2;" d="M102 338q0 215 65.5 367.5t168 250t228.5 142.5t247 45q78 0 158 -15.5t149 -44.5l-170 -966l137 20l-18 -104q-29 -29 -70 -44.5t-77 -15.5q-59 0 -86 36t-27 108q0 35 7 71.5t20 81.5h-9q-25 -45 -65.5 -97t-95 -96t-123 -74t-150.5 -30q-76 0 -130 28t-90 76 t-52.5 114.5t-16.5 146.5zM266 385q0 -121 47 -194.5t158 -73.5q66 0 132.5 40t122.5 105.5t97 146t56 164.5l73 416q-92 37 -182 37q-111 0 -204 -49t-159.5 -135t-103.5 -204t-37 -253zM493 1311l385 315l273 -315l-74 -66l-234 185l-294 -185z" />
<glyph unicode="&#xe3;" d="M102 338q0 215 65.5 367.5t168 250t228.5 142.5t247 45q78 0 158 -15.5t149 -44.5l-170 -966l137 20l-18 -104q-29 -29 -70 -44.5t-77 -15.5q-59 0 -86 36t-27 108q0 35 7 71.5t20 81.5h-9q-25 -45 -65.5 -97t-95 -96t-123 -74t-150.5 -30q-76 0 -130 28t-90 76 t-52.5 114.5t-16.5 146.5zM266 385q0 -121 47 -194.5t158 -73.5q66 0 132.5 40t122.5 105.5t97 146t56 164.5l73 416q-92 37 -182 37q-111 0 -204 -49t-159.5 -135t-103.5 -204t-37 -253zM449 1356q57 86 117.5 141t113.5 55q43 0 81 -15t75 -32.5t74.5 -33t83.5 -15.5 q27 0 58.5 21.5t80.5 78.5l57 -51q-55 -86 -114.5 -140t-112.5 -54q-43 0 -81 14t-75 32.5t-76 33t-84 14.5q-27 0 -58.5 -21.5t-80.5 -80.5z" />
<glyph unicode="&#xe4;" d="M102 338q0 215 65.5 367.5t168 250t228.5 142.5t247 45q78 0 158 -15.5t149 -44.5l-170 -966l137 20l-18 -104q-29 -29 -70 -44.5t-77 -15.5q-59 0 -86 36t-27 108q0 35 7 71.5t20 81.5h-9q-25 -45 -65.5 -97t-95 -96t-123 -74t-150.5 -30q-76 0 -130 28t-90 76 t-52.5 114.5t-16.5 146.5zM266 385q0 -121 47 -194.5t158 -73.5q66 0 132.5 40t122.5 105.5t97 146t56 164.5l73 416q-92 37 -182 37q-111 0 -204 -49t-159.5 -135t-103.5 -204t-37 -253zM529 1411q0 68 35.5 108t93.5 40q41 0 64.5 -25t23.5 -66q0 -27 -9.5 -52 t-26.5 -45.5t-41 -34t-54 -13.5q-41 0 -63.5 23.5t-22.5 64.5zM926 1411q0 68 36 108t93 40q41 0 64.5 -25t23.5 -66q0 -27 -9 -52t-26.5 -45.5t-41 -34t-54.5 -13.5q-41 0 -63.5 23.5t-22.5 64.5z" />
<glyph unicode="&#xe5;" d="M102 338q0 215 65.5 367.5t168 250t228.5 142.5t247 45q78 0 158 -15.5t149 -44.5l-170 -966l137 20l-18 -104q-29 -29 -70 -44.5t-77 -15.5q-59 0 -86 36t-27 108q0 35 7 71.5t20 81.5h-9q-25 -45 -65.5 -97t-95 -96t-123 -74t-150.5 -30q-76 0 -130 28t-90 76 t-52.5 114.5t-16.5 146.5zM266 385q0 -121 47 -194.5t158 -73.5q66 0 132.5 40t122.5 105.5t97 146t56 164.5l73 416q-92 37 -182 37q-111 0 -204 -49t-159.5 -135t-103.5 -204t-37 -253zM608 1429q0 59 22.5 107.5t61.5 81.5t88 50t104 17q92 0 146.5 -44t54.5 -124 q0 -61 -22.5 -109t-60.5 -82t-89 -51.5t-106 -17.5q-92 0 -145.5 44t-53.5 128zM725 1442q0 -41 23.5 -67t74.5 -26q68 0 106.5 44.5t38.5 109.5q0 39 -24.5 65.5t-75.5 26.5q-70 0 -106.5 -47t-36.5 -106z" />
<glyph unicode="&#xe6;" horiz-adv-x="1712" d="M86 233q0 113 35 190t118 126t220 74.5t340 35.5l22 132q2 12 3 24t1 25q0 33 -10 64.5t-33.5 56t-63.5 40t-97 15.5q-68 0 -119 -17.5t-90 -37.5l-37 -203h-123q-12 27 -12 71q0 47 19.5 102.5t66.5 102.5t128 78t203 31q256 0 304 -180q78 86 181 133t224 47 q78 0 134 -22.5t93 -61.5t54.5 -91.5t17.5 -111.5q0 -121 -59 -246q-113 -35 -224.5 -53t-234.5 -18q-96 0 -201 12q-4 -31 -6 -62.5t-2 -64.5q0 -86 24.5 -146.5t65.5 -97.5t96.5 -53t116.5 -16q96 0 167 26.5t136 61.5l15 -125q-74 -45 -172.5 -73t-192.5 -28 q-131 0 -240.5 60.5t-154.5 199.5q-35 -55 -80 -102t-99.5 -82t-115 -55.5t-123.5 -20.5q-147 0 -221 70t-74 190zM246 264q0 -86 50 -120.5t130 -34.5q55 0 109.5 24.5t99.5 65.5t76.5 94t42.5 113l24 139q-61 -4 -124.5 -9.5t-125 -13.5t-117 -20.5t-98.5 -26.5 q-35 -41 -51 -96t-16 -115zM965 655q35 -4 69.5 -7t69.5 -3q180 0 364 66q35 80 35 141q0 76 -44 122t-126 46q-74 0 -133 -28.5t-105 -78t-79 -116t-51 -142.5z" />
<glyph unicode="&#xe7;" horiz-adv-x="1038" d="M102 408q0 166 46.5 301t128 232t193.5 149.5t243 52.5q133 0 219 -53.5t86 -149.5q0 -51 -19.5 -102.5t-48.5 -79.5h-123l35 198q-25 31 -78 45.5t-106 14.5q-104 0 -182 -50.5t-128.5 -131t-76 -185t-25.5 -215.5q0 -90 24.5 -151.5t65.5 -99.5t95.5 -54t113.5 -16 q92 0 165 27.5t138 62.5l15 -129q-72 -43 -165 -71t-190 -30l-47 -98h29q96 0 134 -40t38 -87q0 -74 -34 -119t-85 -71.5t-113.5 -35.5t-119.5 -9q-27 0 -51.5 1t-47.5 3l11 86q27 0 72.5 3t92 15t80 38t33.5 73q0 51 -82 51q-10 0 -21 -1t-24 -3l-28 49l73 152 q-68 8 -129 36.5t-107 79.5t-73 128t-27 184z" />
<glyph unicode="&#xe8;" horiz-adv-x="1040" d="M102 408q0 166 45.5 301t124 232t187 149.5t235.5 52.5q78 0 134.5 -22.5t93 -61.5t54 -91.5t17.5 -111.5q0 -121 -59 -246q-113 -35 -224.5 -53t-234.5 -18q-96 0 -201 12q-4 -31 -6 -62.5t-2 -64.5q0 -86 24.5 -146.5t66.5 -97.5t97.5 -53t114.5 -16q96 0 167 26.5 t136 61.5l15 -125q-74 -45 -170 -73t-195 -28q-82 0 -157.5 23.5t-134 75t-93.5 134.5t-35 202zM293 655q35 -4 69.5 -7t69.5 -3q180 0 365 66q35 80 34 141q0 76 -43.5 122t-125.5 46q-74 0 -133.5 -28.5t-105.5 -78t-79 -116t-51 -142.5zM461 1513l129 113l317 -315 l-67 -66z" />
<glyph unicode="&#xe9;" horiz-adv-x="1040" d="M102 408q0 166 45.5 301t124 232t187 149.5t235.5 52.5q78 0 134.5 -22.5t93 -61.5t54 -91.5t17.5 -111.5q0 -121 -59 -246q-113 -35 -224.5 -53t-234.5 -18q-96 0 -201 12q-4 -31 -6 -62.5t-2 -64.5q0 -86 24.5 -146.5t66.5 -97.5t97.5 -53t114.5 -16q96 0 167 26.5 t136 61.5l15 -125q-74 -45 -170 -73t-195 -28q-82 0 -157.5 23.5t-134 75t-93.5 134.5t-35 202zM293 655q35 -4 69.5 -7t69.5 -3q180 0 365 66q35 80 34 141q0 76 -43.5 122t-125.5 46q-74 0 -133.5 -28.5t-105.5 -78t-79 -116t-51 -142.5zM486 1325l373 315l106 -112 l-410 -268z" />
<glyph unicode="&#xea;" horiz-adv-x="1040" d="M102 408q0 166 45.5 301t124 232t187 149.5t235.5 52.5q78 0 134.5 -22.5t93 -61.5t54 -91.5t17.5 -111.5q0 -121 -59 -246q-113 -35 -224.5 -53t-234.5 -18q-96 0 -201 12q-4 -31 -6 -62.5t-2 -64.5q0 -86 24.5 -146.5t66.5 -97.5t97.5 -53t114.5 -16q96 0 167 26.5 t136 61.5l15 -125q-74 -45 -170 -73t-195 -28q-82 0 -157.5 23.5t-134 75t-93.5 134.5t-35 202zM293 655q35 -4 69.5 -7t69.5 -3q180 0 365 66q35 80 34 141q0 76 -43.5 122t-125.5 46q-74 0 -133.5 -28.5t-105.5 -78t-79 -116t-51 -142.5zM397 1311l385 315l273 -315 l-74 -66l-234 185l-294 -185z" />
<glyph unicode="&#xeb;" horiz-adv-x="1040" d="M102 408q0 166 45.5 301t124 232t187 149.5t235.5 52.5q78 0 134.5 -22.5t93 -61.5t54 -91.5t17.5 -111.5q0 -121 -59 -246q-113 -35 -224.5 -53t-234.5 -18q-96 0 -201 12q-4 -31 -6 -62.5t-2 -64.5q0 -86 24.5 -146.5t66.5 -97.5t97.5 -53t114.5 -16q96 0 167 26.5 t136 61.5l15 -125q-74 -45 -170 -73t-195 -28q-82 0 -157.5 23.5t-134 75t-93.5 134.5t-35 202zM293 655q35 -4 69.5 -7t69.5 -3q180 0 365 66q35 80 34 141q0 76 -43.5 122t-125.5 46q-74 0 -133.5 -28.5t-105.5 -78t-79 -116t-51 -142.5zM420 1411q0 68 35.5 108t93.5 40 q41 0 64.5 -25t23.5 -66q0 -27 -9.5 -52t-26.5 -45.5t-41 -34t-54 -13.5q-41 0 -63.5 23.5t-22.5 64.5zM817 1411q0 68 36 108t93 40q41 0 64.5 -25t23.5 -66q0 -27 -9 -52t-26.5 -45.5t-41 -34t-54.5 -13.5q-41 0 -63.5 23.5t-22.5 64.5z" />
<glyph unicode="&#xec;" horiz-adv-x="589" d="M156 74q0 25 6 59l147 836q-18 0 -41 4q-18 2 -42.5 6t-51.5 12l19 107l296 41l-180 -1022l137 20l-18 -104q-31 -31 -74 -45.5t-84 -14.5q-55 0 -84.5 20.5t-29.5 80.5zM219 1513l129 113l287 -287l-68 -65z" />
<glyph unicode="&#xed;" horiz-adv-x="589" d="M156 74q0 25 6 59l147 836q-18 0 -41 4q-18 2 -42.5 6t-51.5 12l19 107l296 41l-180 -1022l137 20l-18 -104q-31 -31 -74 -45.5t-84 -14.5q-55 0 -84.5 20.5t-29.5 80.5zM240 1325l373 315l106 -112l-410 -268z" />
<glyph unicode="&#xee;" horiz-adv-x="589" d="M113 1311l344 315l231 -315l-74 -66l-192 185l-254 -185zM156 74q0 25 6 59l147 836q-18 0 -41 4q-18 2 -42.5 6t-51.5 12l19 107l296 41l-180 -1022l137 20l-18 -104q-31 -31 -74 -45.5t-84 -14.5q-55 0 -84.5 20.5t-29.5 80.5z" />
<glyph unicode="&#xef;" horiz-adv-x="589" d="M156 74q0 25 6 59l147 836q-18 0 -41 4q-18 2 -42.5 6t-51.5 12l19 107l296 41l-180 -1022l137 20l-18 -104q-31 -31 -74 -45.5t-84 -14.5q-55 0 -84.5 20.5t-29.5 80.5zM172 1411q0 68 36 108t93 40q41 0 64.5 -25t23.5 -66q0 -27 -9 -52t-26.5 -45.5t-41 -34 t-54.5 -13.5q-41 0 -63.5 23.5t-22.5 64.5zM508 1411q0 68 36 108t93 40q41 0 64.5 -25t23.5 -66q0 -27 -9 -52t-26.5 -45.5t-41 -34t-54.5 -13.5q-41 0 -63.5 23.5t-22.5 64.5z" />
<glyph unicode="&#xf0;" horiz-adv-x="1181" d="M100 385q0 160 45 291t121 224t176.5 144.5t210.5 51.5q94 0 160 -24.5t113 -70.5q-23 98 -63 188.5t-109 162.5l-222 -121l-43 74l197 108q-88 68 -215 115l53 106q78 -23 154 -59.5t139 -89.5l219 121l41 -78l-190 -107q98 -104 157.5 -254.5t59.5 -355.5 q0 -188 -43 -342t-125 -264.5t-197.5 -171t-259.5 -60.5q-186 0 -282.5 111t-96.5 301zM260 391q0 -139 60.5 -218t189.5 -79q123 0 206 66.5t132 168t70.5 220.5t21.5 221q0 41 -25.5 77t-66.5 62.5t-90 42t-96 15.5q-96 0 -170 -46.5t-126.5 -124t-79 -182t-26.5 -223.5z " />
<glyph unicode="&#xf1;" horiz-adv-x="1277" d="M139 0l170 969q-18 0 -41 4q-39 4 -94 18l19 107l296 41l-20 -113q-10 -55 -24.5 -95t-38.5 -97h8q23 55 63.5 109t99 99t134 73t168.5 28q111 0 186.5 -45t75.5 -140q0 -10 -1 -20t-3 -20l-140 -801l138 20l-19 -104q-31 -31 -74 -45.5t-84 -14.5q-55 0 -84.5 23.5 t-29.5 83.5q0 25 6 59l145 824q-98 45 -192 45q-82 0 -150.5 -34t-123 -96.5t-91.5 -149.5t-55 -193l-94 -535h-150zM453 1356q57 86 117.5 141t113.5 55q43 0 81 -15t75 -32.5t74.5 -33t83.5 -15.5q27 0 58.5 21.5t80.5 78.5l57 -51q-55 -86 -114.5 -140t-112.5 -54 q-43 0 -81 14t-75 32.5t-76 33t-84 14.5q-27 0 -58.5 -21.5t-80.5 -80.5z" />
<glyph unicode="&#xf2;" horiz-adv-x="1181" d="M102 385q0 176 46.5 316.5t128 238.5t191.5 150.5t239 52.5q199 0 297 -106.5t98 -305.5q0 -176 -46 -316.5t-127 -238.5t-190.5 -150.5t-236.5 -52.5q-199 0 -299.5 106.5t-100.5 305.5zM262 414q0 -152 65.5 -236t194.5 -84q86 0 163 42t133 121t90 191.5t34 253.5 q0 152 -65.5 237t-190.5 85q-88 0 -165 -42t-134 -122t-91 -192.5t-34 -253.5zM471 1513l129 113l317 -315l-67 -66z" />
<glyph unicode="&#xf3;" horiz-adv-x="1181" d="M102 385q0 176 46.5 316.5t128 238.5t191.5 150.5t239 52.5q199 0 297 -106.5t98 -305.5q0 -176 -46 -316.5t-127 -238.5t-190.5 -150.5t-236.5 -52.5q-199 0 -299.5 106.5t-100.5 305.5zM262 414q0 -152 65.5 -236t194.5 -84q86 0 163 42t133 121t90 191.5t34 253.5 q0 152 -65.5 237t-190.5 85q-88 0 -165 -42t-134 -122t-91 -192.5t-34 -253.5zM516 1325l373 315l106 -112l-410 -268z" />
<glyph unicode="&#xf4;" horiz-adv-x="1181" d="M102 385q0 176 46.5 316.5t128 238.5t191.5 150.5t239 52.5q199 0 297 -106.5t98 -305.5q0 -176 -46 -316.5t-127 -238.5t-190.5 -150.5t-236.5 -52.5q-199 0 -299.5 106.5t-100.5 305.5zM262 414q0 -152 65.5 -236t194.5 -84q86 0 163 42t133 121t90 191.5t34 253.5 q0 152 -65.5 237t-190.5 85q-88 0 -165 -42t-134 -122t-91 -192.5t-34 -253.5zM403 1311l385 315l273 -315l-74 -66l-234 185l-294 -185z" />
<glyph unicode="&#xf5;" horiz-adv-x="1181" d="M102 385q0 176 46.5 316.5t128 238.5t191.5 150.5t239 52.5q199 0 297 -106.5t98 -305.5q0 -176 -46 -316.5t-127 -238.5t-190.5 -150.5t-236.5 -52.5q-199 0 -299.5 106.5t-100.5 305.5zM262 414q0 -152 65.5 -236t194.5 -84q86 0 163 42t133 121t90 191.5t34 253.5 q0 152 -65.5 237t-190.5 85q-88 0 -165 -42t-134 -122t-91 -192.5t-34 -253.5zM385 1356q57 86 117.5 141t113.5 55q43 0 81 -15t75 -32.5t74.5 -33t83.5 -15.5q27 0 58.5 21.5t80.5 78.5l57 -51q-55 -86 -114.5 -140t-112.5 -54q-43 0 -81 14t-75 32.5t-76 33t-84 14.5 q-27 0 -58.5 -21.5t-80.5 -80.5z" />
<glyph unicode="&#xf6;" horiz-adv-x="1181" d="M102 385q0 176 46.5 316.5t128 238.5t191.5 150.5t239 52.5q199 0 297 -106.5t98 -305.5q0 -176 -46 -316.5t-127 -238.5t-190.5 -150.5t-236.5 -52.5q-199 0 -299.5 106.5t-100.5 305.5zM262 414q0 -152 65.5 -236t194.5 -84q86 0 163 42t133 121t90 191.5t34 253.5 q0 152 -65.5 237t-190.5 85q-88 0 -165 -42t-134 -122t-91 -192.5t-34 -253.5zM455 1411q0 68 35.5 108t93.5 40q41 0 64.5 -25t23.5 -66q0 -27 -9.5 -52t-26.5 -45.5t-41 -34t-54 -13.5q-41 0 -63.5 23.5t-22.5 64.5zM852 1411q0 68 36 108t93 40q41 0 64.5 -25t23.5 -66 q0 -27 -9 -52t-26.5 -45.5t-41 -34t-54.5 -13.5q-41 0 -63.5 23.5t-22.5 64.5z" />
<glyph unicode="&#xf7;" d="M84 504v129h1059v-129h-1059zM489 252q0 51 35 88t88 37t89 -37t36 -88q0 -53 -35.5 -89t-89.5 -36q-53 0 -88 36t-35 89zM489 885q0 53 35 88t88 35t89 -35t36 -88t-35.5 -88t-89.5 -35q-53 0 -88 35t-35 88z" />
<glyph unicode="&#xf8;" horiz-adv-x="1181" d="M23 -16l135 155q-55 98 -56 246q0 176 46.5 316.5t128 238.5t191.5 150.5t239 52.5q160 0 256 -72l114 131l58 -49l-117 -137q84 -102 84 -285q0 -176 -46 -316.5t-127 -238.5t-190.5 -150.5t-236.5 -52.5q-193 0 -295 103l-125 -146zM262 414q0 -39 3 -73t14 -62 l583 675q-65 70 -176 70q-88 0 -165 -42t-134 -122t-91 -192.5t-34 -253.5zM313 199q66 -104 209 -105q86 0 163 42t133 121t90 191.5t34 253.5q0 109 -35 185z" />
<glyph unicode="&#xf9;" horiz-adv-x="1282" d="M174 186q0 25 6 56l129 727q-18 0 -41 4q-18 2 -42.5 6t-51.5 12l19 107l296 41l-167 -963q78 -63 165 -63q74 0 144.5 41t129 106.5t100.5 147t57 165.5l69 396q-18 0 -41 4q-18 2 -42.5 6t-51.5 12l18 107l297 41l-180 -1022l137 20l-18 -104q-29 -29 -70 -44.5 t-78 -15.5q-113 0 -112 133q0 70 26 164h-10q-27 -51 -65.5 -103t-91 -95t-119 -71t-148.5 -28q-111 0 -187.5 52.5t-76.5 160.5zM500 1513l129 113l317 -315l-67 -66z" />
<glyph unicode="&#xfa;" horiz-adv-x="1282" d="M174 186q0 25 6 56l129 727q-18 0 -41 4q-18 2 -42.5 6t-51.5 12l19 107l296 41l-167 -963q78 -63 165 -63q74 0 144.5 41t129 106.5t100.5 147t57 165.5l69 396q-18 0 -41 4q-18 2 -42.5 6t-51.5 12l18 107l297 41l-180 -1022l137 20l-18 -104q-29 -29 -70 -44.5 t-78 -15.5q-113 0 -112 133q0 70 26 164h-10q-27 -51 -65.5 -103t-91 -95t-119 -71t-148.5 -28q-111 0 -187.5 52.5t-76.5 160.5zM586 1325l373 315l106 -112l-410 -268z" />
<glyph unicode="&#xfb;" horiz-adv-x="1282" d="M174 186q0 25 6 56l129 727q-18 0 -41 4q-18 2 -42.5 6t-51.5 12l19 107l296 41l-167 -963q78 -63 165 -63q74 0 144.5 41t129 106.5t100.5 147t57 165.5l69 396q-18 0 -41 4q-18 2 -42.5 6t-51.5 12l18 107l297 41l-180 -1022l137 20l-18 -104q-29 -29 -70 -44.5 t-78 -15.5q-113 0 -112 133q0 70 26 164h-10q-27 -51 -65.5 -103t-91 -95t-119 -71t-148.5 -28q-111 0 -187.5 52.5t-76.5 160.5zM438 1311l385 315l273 -315l-74 -66l-234 185l-294 -185z" />
<glyph unicode="&#xfc;" horiz-adv-x="1282" d="M174 186q0 25 6 56l129 727q-18 0 -41 4q-18 2 -42.5 6t-51.5 12l19 107l296 41l-167 -963q78 -63 165 -63q74 0 144.5 41t129 106.5t100.5 147t57 165.5l69 396q-18 0 -41 4q-18 2 -42.5 6t-51.5 12l18 107l297 41l-180 -1022l137 20l-18 -104q-29 -29 -70 -44.5 t-78 -15.5q-113 0 -112 133q0 70 26 164h-10q-27 -51 -65.5 -103t-91 -95t-119 -71t-148.5 -28q-111 0 -187.5 52.5t-76.5 160.5zM486 1411q0 68 35.5 108t93.5 40q41 0 64.5 -25t23.5 -66q0 -27 -9.5 -52t-26.5 -45.5t-41 -34t-54 -13.5q-41 0 -63.5 23.5t-22.5 64.5z M883 1411q0 68 36 108t93 40q41 0 64.5 -25t23.5 -66q0 -27 -9 -52t-26.5 -45.5t-41 -34t-54.5 -13.5q-41 0 -63.5 23.5t-22.5 64.5z" />
<glyph unicode="&#xfd;" horiz-adv-x="1046" d="M-174 -457l27 109h202q92 37 180.5 125t192.5 223h-82q-16 223 -33.5 389t-36 282.5t-37 189.5t-34.5 108q-23 0 -45 4q-20 2 -46 6t-55 12l19 107l260 41q23 -43 44 -137.5t39.5 -231.5t35 -310t28.5 -374q63 92 125 199.5t114 221.5t93 232.5t66 235.5q-20 0 -43 4 q-45 4 -99 18l17 101l276 41q4 -12 8.5 -35t4.5 -45q0 -57 -31 -160.5t-85 -232.5t-128 -272.5t-160 -278.5q-104 -164 -192.5 -280t-169 -189.5t-157.5 -108.5t-159 -35q-47 0 -85 13.5t-54 27.5zM459 1325l373 315l106 -112l-410 -268z" />
<glyph unicode="&#xfe;" horiz-adv-x="1259" d="M53 -483l346 1966q-18 0 -41 4q-18 2 -42.5 6t-51.5 12l19 107l297 41l-111 -627q-10 -53 -17.5 -91t-21.5 -89h6q33 51 79 104.5t103.5 96.5t126 69.5t146.5 26.5q76 0 130 -28t89 -77t52.5 -115.5t17.5 -146.5q0 -154 -46.5 -298t-135.5 -255.5t-221 -180.5t-306 -69 q-92 0 -184 19l-84 -475h-150zM311 127q25 -10 52.5 -16.5t55 -11.5t52.5 -7t41 -2q111 0 204 49t160.5 135t104.5 203t37 252q0 123 -48 196.5t-159 73.5q-68 0 -137.5 -39.5t-129 -105.5t-102.5 -147.5t-57 -163.5z" />
<glyph unicode="&#xff;" horiz-adv-x="1046" d="M-174 -457l27 109h202q92 37 180.5 125t192.5 223h-82q-16 223 -33.5 389t-36 282.5t-37 189.5t-34.5 108q-23 0 -45 4q-20 2 -46 6t-55 12l19 107l260 41q23 -43 44 -137.5t39.5 -231.5t35 -310t28.5 -374q63 92 125 199.5t114 221.5t93 232.5t66 235.5q-20 0 -43 4 q-45 4 -99 18l17 101l276 41q4 -12 8.5 -35t4.5 -45q0 -57 -31 -160.5t-85 -232.5t-128 -272.5t-160 -278.5q-104 -164 -192.5 -280t-169 -189.5t-157.5 -108.5t-159 -35q-47 0 -85 13.5t-54 27.5zM391 1411q0 68 35.5 108t93.5 40q41 0 64.5 -25t23.5 -66q0 -27 -9.5 -52 t-26.5 -45.5t-41 -34t-54 -13.5q-41 0 -63.5 23.5t-22.5 64.5zM788 1411q0 68 36 108t93 40q41 0 64.5 -25t23.5 -66q0 -27 -9 -52t-26.5 -45.5t-41 -34t-54.5 -13.5q-41 0 -63.5 23.5t-22.5 64.5z" />
<glyph unicode="&#x152;" horiz-adv-x="1914" d="M119 502q0 104 18.5 219t57 225.5t99 210.5t142.5 176t188.5 121t237.5 45q213 0 326 -119l18 95h760l-55 -314h-107q-16 61 -16 117q0 16 1 29.5t3 29.5h-446l-91 -501h449l-23 -129h-448l-100 -570h481q6 27 16 58q10 27 24.5 60.5t37.5 70.5h110l-57 -326h-799l17 96 q-164 -123 -369 -123q-229 0 -352 137.5t-123 391.5zM287 520q0 -201 84.5 -310.5t244.5 -109.5q115 0 210.5 43t166.5 125l162 920q-41 86 -119 132t-182 46t-206.5 -62.5t-182.5 -174t-129 -267t-49 -342.5z" />
<glyph unicode="&#x153;" horiz-adv-x="1865" d="M102 385q0 176 46.5 316.5t128 238.5t191.5 150.5t239 52.5q147 0 238 -59.5t130 -172.5q80 111 193.5 171.5t251.5 60.5q78 0 134 -22.5t93 -61.5t54.5 -91.5t17.5 -111.5q-1 -121 -60 -246q-113 -35 -224.5 -53t-234.5 -18q-96 0 -200 12q-4 -31 -6 -62.5t-2 -64.5 q0 -86 24.5 -146.5t66.5 -97.5t96 -53t116 -16q92 0 164.5 26.5t138.5 61.5l12 -125q-72 -45 -170 -73t-192 -28q-63 0 -123 13.5t-111 42t-91 75t-65 111.5q-82 -117 -199.5 -179.5t-256.5 -62.5q-199 0 -299.5 106.5t-100.5 305.5zM262 414q0 -152 65.5 -236t194.5 -84 q86 0 163 42t133 121t90 191.5t34 253.5q0 152 -65.5 237t-190.5 85q-88 0 -165 -43t-134 -122t-91 -191.5t-34 -253.5zM1118 655q35 -4 70 -7t69 -3q180 0 365 66q35 80 35 141q0 76 -44 122t-126 46q-74 0 -133.5 -28.5t-105.5 -78t-78.5 -116t-51.5 -142.5z" />
<glyph unicode="&#x178;" horiz-adv-x="1265" d="M123 1339l16 97l269 53q66 -90 138 -289t177 -514q59 68 128 150t130 165.5t108.5 165.5t65.5 150q-41 -2 -86 3t-88 19l16 97l326 53q2 -12 2 -23.5v-23.5q0 -102 -54 -214t-139 -225.5t-187.5 -227t-199.5 -220.5l-77 -438q35 16 84 30.5t88 4.5l-27 -152h-467l19 96 q20 12 46.5 23.5t51.5 21.5q29 10 57 19l72 401q-96 328 -171 508t-122 240q-16 0 -59 5t-117 25zM561 1737q0 66 35 104.5t90 38.5q41 0 63.5 -23.5t22.5 -64.5q0 -51 -33.5 -96t-93.5 -45q-41 0 -62.5 23.5t-21.5 62.5zM948 1737q0 66 35 104.5t90 38.5q39 0 62.5 -23.5 t23.5 -64.5q0 -51 -33.5 -96t-93.5 -45q-41 0 -62.5 23.5t-21.5 62.5z" />
<glyph unicode="&#x2c6;" horiz-adv-x="819" d="M309 1311l385 315l273 -315l-74 -66l-234 185l-294 -185z" />
<glyph unicode="&#x2dc;" horiz-adv-x="819" d="M289 1356q57 86 117.5 141t113.5 55q43 0 81 -15t75 -32.5t74.5 -33t83.5 -15.5q27 0 58.5 21.5t80.5 78.5l57 -51q-55 -86 -114.5 -140t-112.5 -54q-43 0 -81 14t-75 32.5t-76 33t-84 14.5q-27 0 -58.5 -21.5t-80.5 -80.5z" />
<glyph unicode="&#x2000;" horiz-adv-x="1002" />
<glyph unicode="&#x2001;" horiz-adv-x="2005" />
<glyph unicode="&#x2002;" horiz-adv-x="1002" />
<glyph unicode="&#x2003;" horiz-adv-x="2005" />
<glyph unicode="&#x2004;" horiz-adv-x="668" />
<glyph unicode="&#x2005;" horiz-adv-x="501" />
<glyph unicode="&#x2006;" horiz-adv-x="334" />
<glyph unicode="&#x2007;" horiz-adv-x="334" />
<glyph unicode="&#x2008;" horiz-adv-x="250" />
<glyph unicode="&#x2009;" horiz-adv-x="401" />
<glyph unicode="&#x200a;" horiz-adv-x="111" />
<glyph unicode="&#x2010;" horiz-adv-x="720" d="M82 539l24 137h539l-24 -137h-539z" />
<glyph unicode="&#x2011;" horiz-adv-x="720" d="M82 539l24 137h539l-24 -137h-539z" />
<glyph unicode="&#x2012;" horiz-adv-x="720" d="M82 539l24 137h539l-24 -137h-539z" />
<glyph unicode="&#x2013;" horiz-adv-x="948" d="M90 539l25 137h784l-25 -137h-784z" />
<glyph unicode="&#x2014;" horiz-adv-x="1894" d="M90 539l25 137h1730l-24 -137h-1731z" />
<glyph unicode="&#x2018;" horiz-adv-x="364" d="M174 1280q0 51 19.5 110.5t54.5 115t80 101.5t98 72l41 -39q-20 -16 -44 -39.5t-43.5 -51t-31.5 -57.5t-12 -60v-13.5t2 -13.5q53 0 77.5 -28.5t24.5 -69.5q0 -29 -11 -57.5t-30.5 -52t-48 -39t-63.5 -15.5q-53 0 -83 35.5t-30 101.5z" />
<glyph unicode="&#x2019;" horiz-adv-x="354" d="M164 1161q20 16 43.5 40t43 51.5t32 57t12.5 60.5v13.5t-2 13.5q-53 0 -78 28.5t-25 69.5q0 27 10.5 56.5t31 53t49 39t63.5 15.5q53 0 83 -36t30 -101q0 -53 -19.5 -111.5t-54.5 -114t-81 -101.5t-97 -73z" />
<glyph unicode="&#x201a;" horiz-adv-x="450" d="M-6 -260q20 16 43.5 39.5t43 51.5t32 57.5t12.5 60.5v13t-2 13q-53 0 -78 29t-25 70q0 27 10.5 56.5t31 53t49 39t63.5 15.5q53 0 83 -36t30 -102q0 -53 -19.5 -111.5t-54.5 -113.5t-81 -101t-97 -73z" />
<glyph unicode="&#x201c;" horiz-adv-x="765" d="M174 1280q0 51 19.5 110.5t54.5 115t80 101.5t98 72l41 -39q-20 -16 -44 -39.5t-43.5 -51t-31.5 -57.5t-12 -60v-13.5t2 -13.5q53 0 77.5 -28.5t24.5 -69.5q0 -29 -11 -57.5t-30.5 -52t-48 -39t-63.5 -15.5q-53 0 -83 35.5t-30 101.5zM575 1280q0 51 19.5 110.5t54.5 115 t80 101.5t98 72l41 -39q-20 -16 -44 -39.5t-43.5 -51t-31.5 -57.5t-12 -60v-13.5t2 -13.5q53 0 77.5 -28.5t24.5 -69.5q0 -29 -11 -57.5t-30.5 -52t-48 -39t-63.5 -15.5q-53 0 -83 35.5t-30 101.5z" />
<glyph unicode="&#x201d;" horiz-adv-x="755" d="M164 1161q20 16 43.5 40t43 51.5t32 57t12.5 60.5v13.5t-2 13.5q-53 0 -78 28.5t-25 69.5q0 27 10.5 56.5t31 53t49 39t63.5 15.5q53 0 83 -36t30 -101q0 -53 -19.5 -111.5t-54.5 -114t-81 -101.5t-97 -73zM565 1161q20 16 43.5 40t43 51.5t32 57t12.5 60.5v13.5t-2 13.5 q-53 0 -78 28.5t-25 69.5q0 27 10.5 56.5t31 53t49 39t63.5 15.5q53 0 83 -36t30 -101q0 -53 -19.5 -111.5t-54.5 -114t-81 -101.5t-97 -73z" />
<glyph unicode="&#x201e;" horiz-adv-x="851" d="M-6 -260q20 16 43.5 39.5t43 51.5t32 57.5t12.5 60.5v13t-2 13q-53 0 -78 29t-25 70q0 27 10.5 56.5t31 53t49 39t63.5 15.5q53 0 83 -36t30 -102q0 -53 -19.5 -111.5t-54.5 -113.5t-81 -101t-97 -73zM395 -260q20 16 43.5 39.5t43 51.5t32 57.5t12.5 60.5v13t-2 13 q-53 0 -78 29t-25 70q0 27 10.5 56.5t31 53t49 39t63.5 15.5q53 0 83 -36t30 -102q0 -53 -19.5 -111.5t-54.5 -113.5t-81 -101t-97 -73z" />
<glyph unicode="&#x2022;" horiz-adv-x="778" d="M170 713q0 51 19.5 95t53 78t80 53t97.5 19t95 -19t78 -53t53.5 -78t19.5 -95q0 -53 -19.5 -98.5t-53.5 -79t-78 -53t-95 -19.5t-97.5 19.5t-80 53t-53 79t-19.5 98.5z" />
<glyph unicode="&#x2026;" horiz-adv-x="1566" d="M61 80q0 33 12.5 62.5t34 52t48 36t57.5 13.5q47 0 75.5 -30t28.5 -77q0 -33 -12 -62.5t-33.5 -52t-48 -36t-57.5 -13.5q-47 0 -76 30t-29 77zM587 80q0 33 12.5 62.5t34 52t48 36t57.5 13.5q47 0 75.5 -30t28.5 -77q0 -33 -12 -62.5t-33.5 -52t-48 -36t-57.5 -13.5 q-47 0 -76 30t-29 77zM1114 80q0 33 12.5 62.5t34 52t48 36t57.5 13.5q47 0 75.5 -30t28.5 -77q0 -33 -12 -62.5t-33.5 -52t-48 -36t-57.5 -13.5q-47 0 -76 30t-29 77z" />
<glyph unicode="&#x202f;" horiz-adv-x="401" />
<glyph unicode="&#x2039;" horiz-adv-x="552" d="M61 563l369 455l90 -86l-305 -379l176 -391l-125 -56z" />
<glyph unicode="&#x203a;" horiz-adv-x="542" d="M33 195l305 378l-176 392l125 55l205 -457l-369 -454z" />
<glyph unicode="&#x205f;" horiz-adv-x="501" />
<glyph unicode="&#x20ac;" horiz-adv-x="1118" d="M0 547l14 92h164q6 98 27 195h-156l17 88h161q33 117 90.5 221t137.5 184t185 126t237 46q100 0 167.5 -22.5t107.5 -58.5t56.5 -83t16.5 -96q0 -68 -21.5 -124t-60.5 -91h-101l41 256q-35 45 -105.5 66.5t-137.5 21.5q-88 0 -159 -36t-127 -96t-96 -141t-67 -173h514 l-16 -88h-518q-10 -51 -15.5 -98.5t-9.5 -96.5h506l-14 -92h-492q4 -113 35 -196t81 -136t116.5 -79.5t144.5 -26.5q92 0 170 29.5t174 94.5l-4 -133q-90 -66 -177 -96.5t-204 -30.5q-104 0 -195.5 33t-160 101.5t-109.5 177t-41 262.5h-176z" />
<glyph unicode="&#x2122;" horiz-adv-x="1579" d="M123 1368v107h610v-107h-241v-649h-125v649h-244zM831 719v756h175l190 -514l205 514h158v-756h-119v536l-199 -481h-111l-182 471v-526h-117z" />
<glyph unicode="&#x25fc;" horiz-adv-x="1146" d="M0 0v1147h1147v-1147h-1147z" />
</font>
</defs>
</svg>
