<?xml version="1.0" standalone="no"?>
<!DOCTYPE svg PUBLIC "-//W3C//DTD SVG 1.1//EN" "http://www.w3.org/Graphics/SVG/1.1/DTD/svg11.dtd" >
<svg xmlns="http://www.w3.org/2000/svg">
<metadata></metadata>
<defs>
<font id="achille_fy_lregular" horiz-adv-x="1208" >
<font-face units-per-em="2048" ascent="1638" descent="-410" />
<missing-glyph horiz-adv-x="614" />
<glyph unicode="&#xfb01;" horiz-adv-x="1343" d="M72 1004v114h170v94q0 119 32.5 205t84 139.5t114 79t121.5 25.5q63 0 101 -13.5t73 -35.5v-103h-193q-92 0 -133 -56t-41 -193v-142h707v-999q16 8 39 16q16 6 39.5 12.5t48.5 6.5h13t14 -2v-152h-447v96q18 12 42 23.5t44 21.5q23 10 49 19v844h-549v-885q33 8 68 16 q29 6 64.5 12.5t68.5 6.5h18.5t16.5 -2v-152h-531v96q18 12 42 23.5t45 21.5q23 10 49 19v844h-170zM903 1454q0 53 30 85t83 32q51 0 82.5 -32t31.5 -85t-31.5 -86t-82.5 -33q-53 0 -83 33t-30 86z" />
<glyph unicode="&#xfb02;" horiz-adv-x="1363" d="M72 1004v114h170v94q0 119 31.5 205t86 139.5t129 79t160.5 25.5q94 0 152.5 -20.5t93.5 -43.5l233 41v-1519q16 8 39 16q18 6 41 12.5t47 6.5h13.5t13.5 -2v-152h-448v96q20 12 42.5 23.5t45.5 21.5t49 19v1296q-45 20 -97 37q-45 14 -101 25.5t-116 11.5 q-55 0 -102 -11.5t-81 -41t-53.5 -82t-19.5 -135.5v-142h320v-114h-320v-885q33 8 68 16q29 6 64.5 12.5t68.5 6.5h18.5t16.5 -2v-152h-531v96q18 12 42 23.5t45 21.5q23 10 49 19v844h-170z" />
<glyph unicode="&#xfb03;" horiz-adv-x="2052" d="M72 1004v114h170v94q0 119 32.5 205t84 139.5t114 79t121.5 25.5q72 0 116 -13.5t78 -35.5v-103h-213q-92 0 -133 -56t-41 -193v-142h549v94q0 119 33 205t84 139.5t113.5 79t122.5 25.5q63 0 101 -13.5t73 -35.5v-103h-193q-92 0 -133 -56t-41 -193v-142h707v-999 q16 8 38 16q16 6 40 12.5t49 6.5h13t13 -2v-152h-446v96q18 12 41.5 23.5t44.5 21.5q23 10 49 19v844h-549v-885q33 8 68 16q29 6 64.5 12.5t68.5 6.5h18t17 -2v-152h-531v96q18 12 42 23.5t44 21.5q23 10 49 19v844h-549v-885q27 8 56 16q25 6 55.5 12.5t60.5 6.5h16.5 t16.5 -2v-152h-500v96q18 12 42 23.5t45 21.5q23 10 49 19v844h-170zM1612 1454q0 53 29.5 85t82.5 32q51 0 83 -32t32 -85t-31.5 -86t-83.5 -33q-53 0 -82.5 33t-29.5 86z" />
<glyph unicode="&#xfb04;" horiz-adv-x="2072" d="M72 1004v114h170v94q0 119 32.5 205t84 139.5t114 79t121.5 25.5q72 0 116 -13.5t78 -35.5v-103h-213q-92 0 -133 -56t-41 -193v-142h549v94q0 119 32 205t86 139.5t129 79t161 25.5q94 0 152.5 -20.5t93.5 -43.5l233 41v-1519q16 8 39 16q18 6 40.5 12.5t47.5 6.5h13.5 t13.5 -2v-152h-449v96q20 12 43 23.5t45 21.5q23 10 49 19v1296q-45 20 -96 37q-45 14 -101.5 25.5t-115.5 11.5q-55 0 -102 -11.5t-81 -41t-53.5 -82t-19.5 -135.5v-142h320v-114h-320v-885q33 8 68 16q29 6 64.5 12.5t68.5 6.5h18t17 -2v-152h-531v96q18 12 42 23.5 t44 21.5q23 10 49 19v844h-549v-885q27 8 56 16q25 6 55.5 12.5t60.5 6.5h16.5t16.5 -2v-152h-500v96q18 12 42 23.5t45 21.5q23 10 49 19v844h-170z" />
<glyph horiz-adv-x="0" />
<glyph horiz-adv-x="0" />
<glyph unicode="&#xd;" horiz-adv-x="614" />
<glyph unicode=" "  horiz-adv-x="614" />
<glyph unicode="&#x09;" horiz-adv-x="614" />
<glyph unicode="&#xa0;" horiz-adv-x="614" />
<glyph unicode="!" horiz-adv-x="604" d="M174 102q0 51 37 88t90 37t91 -36.5t38 -88.5q0 -53 -38 -91t-91 -38t-90 38t-37 91zM195 1327q0 82 29.5 127t82.5 45q51 0 82 -45t31 -127q0 -6 -1 -49t-8.5 -149.5t-22.5 -286.5t-42 -461h-76q-29 283 -44 465t-22 287.5t-8 147.5t-1 46z" />
<glyph unicode="&#x22;" horiz-adv-x="757" d="M102 1642h195l-55 -516h-86zM460 1642h195l-55 -516h-86z" />
<glyph unicode="#" d="M57 393l19 123h254l45 252h-262l22 123h264l72 391h133l-74 -391h238l70 391h133l-72 -391h244l-17 -123h-247l-50 -252h261l-19 -123h-262l-74 -393h-135l74 393h-236l-71 -393h-136l74 393h-248zM463 516h231l49 252h-233z" />
<glyph unicode="$" d="M119 285q0 53 16.5 101t38.5 83h127v-283q45 -33 111.5 -57.5t144.5 -30.5v607q-76 41 -148.5 83.5t-129 93t-91 110t-34.5 132.5q0 160 106.5 261.5t296.5 111.5v135h90v-135q117 -4 196 -32.5t125 -71.5t65.5 -95.5t19.5 -103.5q0 -43 -13.5 -88t-25.5 -72h-135v250 q-39 35 -101.5 59.5t-130.5 28.5v-526q78 -43 157 -88t142.5 -98.5t103.5 -118t40 -144.5q0 -88 -31 -162.5t-88.5 -132t-139 -91.5t-184.5 -38v-131h-90v133q-129 6 -214 35t-134 72t-69.5 96t-20.5 107zM317 1167q0 -84 69 -149.5t171 -122.5v477q-117 -12 -178.5 -69.5 t-61.5 -135.5zM647 98q66 6 117 29t87 57.5t55.5 77.5t19.5 90q0 49 -22.5 90t-60.5 78t-88 71t-108 66v-559z" />
<glyph unicode="%" horiz-adv-x="1740" d="M92 1085q0 205 82 309.5t244 104.5q160 0 239.5 -104.5t79.5 -309.5q0 -186 -84 -293.5t-235 -107.5q-156 0 -241 107.5t-85 293.5zM250 1085q0 -143 42 -206.5t126 -63.5t126 63.5t42 206.5q0 141 -44 214t-124 73q-168 0 -168 -287zM295 37l1053 1464l102 -61 l-1059 -1469zM999 385q0 188 85 295.5t237 107.5q154 0 241 -107.5t87 -295.5q0 -203 -83 -307.5t-245 -104.5t-242 104.5t-80 307.5zM1155 385q0 -141 44 -212t122 -71q166 0 166 283q0 145 -41 208.5t-125 63.5q-82 0 -124 -63.5t-42 -208.5z" />
<glyph unicode="&#x26;" horiz-adv-x="1552" d="M121 381q0 70 22.5 129t60.5 110.5t87 92.5t104 73q-80 86 -129 175.5t-49 185.5q0 78 28.5 143.5t78 111.5t118 71.5t148.5 25.5q158 0 248 -81t90 -222q0 -135 -81 -230.5t-235 -174.5l385 -447q57 76 91 176.5t34 198.5q-4 0 -26.5 2t-54 6t-66.5 12.5t-62 20.5v98 h510v-98q-27 -10 -54.5 -18.5t-49.5 -12.5l-51 -10q-8 -127 -57.5 -252t-127.5 -211q66 -72 110 -101.5t87 -29.5q45 0 109 29l41 -72q-39 -47 -93.5 -78t-109.5 -31q-59 0 -123 34t-135 118q-76 -63 -181.5 -107.5t-230.5 -44.5q-104 0 -185 33t-136.5 88.5t-85 129 t-29.5 157.5zM293 406q0 -143 78.5 -226.5t232.5 -83.5q164 0 283 119q-29 29 -62.5 68t-83 96t-115 135t-153.5 186q-76 -53 -128 -124.5t-52 -169.5zM391 1171q0 -68 39 -141.5t117 -159.5q127 76 181 148t54 162q0 98 -53 148t-141 50q-82 0 -139.5 -57t-57.5 -150z" />
<glyph unicode="'" horiz-adv-x="399" d="M102 1642h195l-55 -516h-86z" />
<glyph unicode="(" horiz-adv-x="665" d="M182 651q0 172 34 333t84 298t109.5 242.5t110.5 167.5l84 -33q-45 -84 -89 -195.5t-80 -242.5t-58.5 -275.5t-22.5 -294.5q0 -147 22.5 -293.5t58.5 -280.5t80 -249t89 -199l-84 -30q-51 61 -110.5 168.5t-109.5 248t-84 303t-34 332.5z" />
<glyph unicode=")" horiz-adv-x="665" d="M61 -371q45 84 89.5 199t80 249t58 280.5t22.5 293.5q0 150 -22.5 294.5t-58 275.5t-80 242.5t-89.5 195.5l84 33q51 -61 109.5 -167t110 -243t85 -298t33.5 -333q0 -170 -33.5 -332.5t-85 -303t-109.5 -248t-110 -168.5z" />
<glyph unicode="*" horiz-adv-x="899" d="M41 1352q0 33 18.5 51t46.5 18q27 0 63 -12t74 -30.5t77.5 -40t74.5 -40.5q-12 68 -23.5 133.5t-11.5 118.5q0 49 15.5 79t56.5 30t57.5 -31t16.5 -82t-12.5 -115.5t-24.5 -132.5q29 16 65.5 38t75.5 40.5t78 31.5t70 13q27 0 48 -16t21 -47q0 -35 -31.5 -56.5t-80.5 -35 t-107.5 -22.5t-111.5 -17q14 -14 49 -46t70.5 -69t62.5 -75t27 -66q0 -29 -20.5 -49.5t-55.5 -20.5q-23 0 -45.5 21.5t-47 60.5t-51 91t-53.5 112q-25 -57 -49.5 -108.5t-48 -90.5t-48 -61.5t-50.5 -22.5q-33 0 -52.5 21.5t-19.5 44.5q0 31 17.5 60.5t46 61t66.5 65.5t79 71 q-96 16 -159.5 29.5t-102.5 26.5t-54.5 28.5t-15.5 40.5z" />
<glyph unicode="+" horiz-adv-x="1228" d="M84 504v129h459v438h141v-438h459v-129h-459v-443h-141v443h-459z" />
<glyph unicode="," horiz-adv-x="503" d="M109 115q0 59 40.5 94t98.5 35q70 0 111.5 -50.5t41.5 -142.5q0 -57 -18 -113.5t-50 -106.5t-73 -90t-86 -65l-57 43q20 16 43.5 41t43 53.5t32 61.5t12.5 68q0 10 -1 19t-3 20q-66 0 -100.5 36.5t-34.5 96.5z" />
<glyph unicode="-" horiz-adv-x="819" d="M119 539v137h581v-137h-581z" />
<glyph unicode="." horiz-adv-x="538" d="M133 111q0 55 40 94t95 39q59 0 98.5 -39t39.5 -94q0 -57 -39 -97.5t-99 -40.5q-55 0 -95 40.5t-40 97.5z" />
<glyph unicode="/" horiz-adv-x="757" d="M23 -246l581 1868l129 -27l-586 -1869z" />
<glyph unicode="0" d="M102 729q0 158 22.5 298t79 244.5t152.5 166t246 61.5t247 -61.5t154.5 -166t80 -244.5t22.5 -298t-22.5 -296t-80 -240.5t-154.5 -161t-247 -58.5t-246 58.5t-152.5 161t-79 240.5t-22.5 296zM279 729q0 -139 14 -254t51 -195.5t99.5 -124.5t158.5 -44q94 0 157.5 44 t101.5 124.5t53.5 195.5t15.5 254q0 135 -15.5 251t-53.5 201t-101.5 134t-157.5 49q-96 0 -158.5 -49t-99.5 -134t-51 -201t-14 -251z" />
<glyph unicode="1" d="M260 1255v109q57 10 117.5 22.5t116 26.5t103.5 29.5t83 32.5h108v-1379q33 16 70 29q31 10 71 19.5t81 9.5q6 0 13 -1t15 -1v-152h-743v96q35 12 89 23.5t108 21.5q61 10 129 19v1095h-361z" />
<glyph unicode="2" d="M125 0v111q225 203 367.5 347t223.5 255.5t110.5 205t29.5 191.5q0 121 -66.5 187.5t-209.5 66.5q-68 0 -122.5 -21.5t-95.5 -50.5v-262h-135q-20 29 -31.5 73t-11.5 91q0 51 19.5 105.5t69 99.5t131 72.5t208.5 27.5q215 0 321.5 -102.5t106.5 -268.5q0 -96 -35.5 -193 t-95 -191.5t-135.5 -182.5t-154.5 -166t-154.5 -143.5t-135 -112.5h606q0 27 6 58q4 27 14.5 60.5t26.5 72.5h98v-330h-956z" />
<glyph unicode="3" d="M117 53l39 133q78 -31 177 -51t216 -20q63 0 126.5 16t114 54t81 98.5t30.5 150.5q0 86 -39 137.5t-103.5 79t-148.5 36.5t-172 9h-14v133h14q82 0 156 16.5t129 52.5t88 90t33 128q0 125 -83 186.5t-237 61.5q-66 0 -118 -23.5t-93 -48.5v-258h-135q-43 59 -43 160 q0 51 20.5 105.5t72 99.5t137.5 72.5t215 27.5q94 0 176 -23.5t142 -69.5t94 -111.5t34 -151.5q0 -72 -22.5 -130.5t-61.5 -103.5t-91 -76.5t-110 -46.5q57 -10 118 -35.5t108 -70.5t77.5 -111.5t30.5 -160.5q0 -109 -43 -190t-118.5 -135t-176 -82t-215.5 -28 q-70 0 -125 6.5t-103 16.5t-91 25.5t-86 31.5z" />
<glyph unicode="4" d="M104 385v162l637 928h181v-957h211v-133h-211v-385h-162v385h-656zM248 518h512v772z" />
<glyph unicode="5" d="M129 33l14 114q49 -10 124 -21t145 -11q109 0 198.5 20.5t154 65.5t100.5 115.5t36 170.5q0 98 -43 160t-112.5 97.5t-155.5 49t-174 13.5q-37 0 -86 -5t-84 -9l-33 43v639h780v-150h-633v-416q47 20 101.5 30.5t103.5 10.5q115 0 209 -28.5t162 -85t105.5 -143.5 t37.5 -204q0 -127 -45 -223t-122.5 -161.5t-184 -98.5t-231.5 -33q-113 0 -213.5 18.5t-153.5 41.5z" />
<glyph unicode="6" d="M86 623q0 199 52 360.5t151.5 276t247 177t337.5 62.5q35 0 73 -3t81 -13v-119q-29 2 -56 3t-54 1q-152 0 -267.5 -41t-196.5 -119t-127 -190.5t-59 -255.5q180 156 410 156q88 0 168 -25t141.5 -79t97 -140t35.5 -207q0 -100 -32.5 -190.5t-96 -158t-158 -106.5 t-215.5 -39q-139 0 -240.5 44t-166 127t-95 204t-30.5 275zM264 647q0 -270 80 -407.5t274 -137.5q80 0 140.5 29t101.5 77t62.5 112.5t21.5 136.5q0 88 -26.5 150.5t-72.5 102.5t-107.5 59t-131.5 19q-86 0 -174 -32.5t-168 -93.5v-15z" />
<glyph unicode="7" d="M109 1219q0 57 15 104t53 81t103.5 52.5t165.5 18.5h627v-115l-569 -1360h-193l602 1323h-624v-260h-119q-27 41 -44 76t-17 80z" />
<glyph unicode="8" d="M86 362q0 74 30.5 132.5t81 106.5t117 87t140.5 76q-61 33 -118.5 67.5t-100.5 77.5t-69 95.5t-26 117.5q0 90 35 161t96.5 119t146.5 72.5t187 24.5q119 0 205 -28.5t141.5 -76.5t82 -110.5t26.5 -130.5q0 -66 -24.5 -119t-66.5 -97t-96.5 -81t-115.5 -70 q70 -35 135 -71.5t115.5 -83.5t81 -107.5t30.5 -138.5q0 -96 -40 -173t-110.5 -130t-165.5 -81t-204 -28q-98 0 -191.5 20.5t-165 66.5t-114.5 119.5t-43 182.5zM264 375q0 -66 27.5 -116t74 -84t109 -50t133.5 -16q154 0 245 70.5t91 193.5q0 57 -29.5 104t-80 86t-115 73 t-133.5 66q-68 -33 -126.5 -66.5t-101.5 -72.5t-68.5 -85t-25.5 -103zM305 1143q0 -53 25.5 -95t69.5 -77t101.5 -64.5t121.5 -60.5q57 31 107 60.5t87 63.5t58.5 74.5t21.5 90.5q0 117 -81 173t-210 56q-43 0 -95 -9t-98 -34t-77 -67.5t-31 -110.5z" />
<glyph unicode="9" d="M80 997q0 102 32.5 193.5t97 160t159 108.5t215.5 40q139 0 239.5 -44t165 -129t95 -207t30.5 -277q0 -201 -50 -362t-148.5 -273.5t-247 -173t-344.5 -60.5q-33 0 -70 3.5t-80 11.5v123q29 -2 55.5 -4.5t53.5 -2.5q299 0 457.5 145.5t189.5 426.5q-90 -78 -192.5 -115 t-215.5 -37q-88 0 -168 27t-141 83t-97 146t-36 217zM258 1012q0 -96 26.5 -164t72.5 -111t106.5 -63.5t130.5 -20.5q86 0 174 33t170 94v37q0 276 -80 413.5t-274 137.5q-80 0 -140.5 -28.5t-101.5 -77t-62.5 -113t-21.5 -137.5z" />
<glyph unicode=":" horiz-adv-x="538" d="M133 111q0 55 40 94t95 39q59 0 98.5 -39t39.5 -94q0 -57 -39 -97.5t-99 -40.5q-55 0 -95 40.5t-40 97.5zM133 887q0 55 40 94t95 39q59 0 98.5 -39t39.5 -94q0 -57 -39 -97.5t-99 -40.5q-55 0 -95 40.5t-40 97.5z" />
<glyph unicode=";" horiz-adv-x="526" d="M125 887q0 55 40 94t95 39q59 0 98.5 -39t39.5 -94q0 -57 -39 -97.5t-99 -40.5q-55 0 -95 40.5t-40 97.5zM132 115q0 59 40.5 94t98.5 35q70 0 111.5 -50.5t41.5 -142.5q0 -57 -18 -113.5t-50 -106.5t-73 -90t-86 -65l-57 43q20 16 43.5 41t43 53.5t32 61.5t12.5 68 q0 10 -1 19t-3 20q-66 0 -100.5 36.5t-34.5 96.5z" />
<glyph unicode="&#x3c;" horiz-adv-x="1228" d="M121 528v86l909 496l76 -106l-799 -435l799 -430l-76 -108z" />
<glyph unicode="=" horiz-adv-x="1228" d="M84 301v129h1059v-129h-1059zM84 705v129h1059v-129h-1059z" />
<glyph unicode="&#x3e;" horiz-adv-x="1228" d="M121 139l799 430l-799 435l76 106l909 -496v-86l-909 -497z" />
<glyph unicode="?" horiz-adv-x="1038" d="M92 1227q0 47 19.5 96t68.5 88t130 63.5t204 24.5q201 0 306.5 -100.5t105.5 -268.5q0 -78 -29 -139t-72 -113.5t-94 -99.5t-94 -94t-71.5 -99.5t-28.5 -115.5v-88h-125v88q0 102 49 181t109.5 151.5t109.5 145.5t49 163q0 131 -56.5 194.5t-178.5 63.5 q-72 0 -132.5 -12.5t-101.5 -32.5v-256h-125q-18 29 -30.5 71t-12.5 89zM346 102q0 51 37 88t90 37t91 -36.5t38 -88.5q0 -53 -38 -91t-91 -38t-90 38t-37 91z" />
<glyph unicode="@" horiz-adv-x="1652" d="M78 733q0 160 60.5 300.5t167 243.5t248.5 162.5t306 59.5q150 0 280 -46t226 -132t152.5 -207t56.5 -270q0 -111 -33 -203t-87 -158.5t-123.5 -103.5t-141.5 -37q-68 0 -119 34t-74 120q-43 -66 -118.5 -110t-153.5 -44q-55 0 -106.5 18.5t-91.5 56.5t-64.5 98 t-24.5 144q0 104 35 190.5t92.5 147t131 94t149.5 33.5q68 0 123 -26.5t86 -85.5l35 96h120q-27 -125 -52 -242.5t-52 -236.5q-4 -14 -6 -29.5t-2 -32.5q0 -41 19.5 -76.5t76.5 -35.5t106.5 37.5t84 96t54 126t19.5 129.5q0 125 -47 226t-128 173t-189.5 110t-229.5 38 q-145 0 -267 -52.5t-211 -141.5t-139 -209t-50 -255q0 -143 50 -263t139 -206t209 -134t261 -48q100 0 198.5 30.5t178.5 88.5l61 -95q-92 -68 -202.5 -100.5t-235.5 -32.5q-166 0 -308 56.5t-246.5 158t-164 240.5t-59.5 305zM571 686q0 -121 52.5 -174t124.5 -53 q47 0 95 23.5t87 69.5t63.5 113.5t24.5 155.5q0 78 -45 134.5t-139 56.5q-47 0 -94.5 -25.5t-84.5 -71t-60.5 -103.5t-23.5 -126z" />
<glyph unicode="A" horiz-adv-x="1509" d="M4 0v96q47 25 92 39.5t66 16.5l459 1171q-18 2 -59.5 11t-84.5 32v109h393l478 -1325q29 -4 71.5 -17.5t85.5 -36.5v-96h-518v96q53 31 107.5 42.5t72.5 13.5l-137 376h-567l-144 -376q20 0 71.5 -14.5t109.5 -41.5v-96h-496zM512 657h471l-227 656z" />
<glyph unicode="B" horiz-adv-x="1269" d="M84 0v96q18 12 46 23.5t52 21.5q29 10 60 19v1155q-31 8 -60 18q-25 10 -52.5 20.5t-45.5 24.5v97h516q274 0 399 -90.5t125 -288.5q0 -123 -65.5 -207t-181.5 -129q135 -37 217 -125t82 -229q0 -211 -127 -308.5t-404 -97.5h-561zM408 137h219q188 0 280 60.5t92 212.5 q0 145 -94 208.5t-254 63.5h-243v-545zM410 815h176q174 0 269 64.5t95 210.5q0 141 -88 194t-276 53h-176v-522z" />
<glyph unicode="C" horiz-adv-x="1353" d="M98 754q0 184 49.5 323.5t140.5 233.5t218 141t280 47q143 0 237.5 -28.5t151 -73.5t79 -101.5t22.5 -111.5q0 -49 -18.5 -90t-49.5 -70h-135v256q-51 45 -137 66.5t-170 21.5q-92 0 -180 -27.5t-158 -96t-112 -184.5t-42 -290q0 -172 45.5 -294t124 -198.5t184 -111.5 t226.5 -35q104 0 190 26.5t158 61.5l23 -149q-88 -45 -195.5 -71t-257.5 -26q-129 0 -250 43t-215 137.5t-151.5 243t-57.5 357.5z" />
<glyph unicode="D" horiz-adv-x="1490" d="M84 0v96q18 12 46 23.5t52 21.5q29 10 60 19v1155q-31 8 -60 18q-25 10 -52.5 20.5t-45.5 24.5v97h578q182 0 319 -49.5t228 -139.5t137.5 -218t46.5 -284q0 -199 -54.5 -346t-151.5 -244.5t-231.5 -145.5t-293.5 -48h-578zM410 137h227q135 0 241.5 38t182.5 115 t116 193.5t40 272.5t-40 266.5t-115 180t-182.5 102t-242.5 32.5h-227v-1200z" />
<glyph unicode="E" horiz-adv-x="1210" d="M84 0v96q18 12 46 23.5t52 21.5q29 10 62 19v1155q-33 8 -62 18q-25 10 -52.5 20.5t-45.5 24.5v97h1006v-355h-119q-16 35 -26.5 72t-14.5 70q-6 37 -6 75h-512v-501h516v-129h-516v-570h549q2 39 8 78q4 35 14 75t29 77h114v-367h-1042z" />
<glyph unicode="F" horiz-adv-x="1095" d="M84 0v96q18 12 46 23.5t52 21.5q29 10 62 19v1155q-33 8 -62 18q-25 10 -52.5 20.5t-45.5 24.5v97h970v-355h-116q-18 35 -29.5 72t-15.5 70q-6 37 -6 75h-475v-501h479v-129h-479v-590q47 17 102 31q33 9 64 8q22 0 43 -4v-152h-537z" />
<glyph unicode="G" horiz-adv-x="1509" d="M98 754q0 184 51.5 323.5t144.5 233.5t224 141t291 47q143 0 240.5 -28.5t155 -73.5t82 -101.5t24.5 -111.5q0 -49 -18.5 -90t-47.5 -70h-135v256q-25 23 -60.5 39t-75.5 27.5t-82 16.5t-81 5q-100 0 -196.5 -27.5t-172 -96t-122 -184.5t-46.5 -290q0 -190 49.5 -318 t130.5 -206t185 -111t217 -33q78 0 133 8.5t119 26.5v404q-31 2 -64 8q-29 4 -64.5 12t-72.5 21v106h529v-106q-29 -12 -57.5 -20.5t-51.5 -12.5q-27 -6 -51 -8v-494q-106 -35 -221 -54.5t-232 -19.5q-141 0 -271 38t-231.5 129t-162 240.5t-60.5 373.5z" />
<glyph unicode="H" horiz-adv-x="1622" d="M84 0v96q18 12 46 23.5t52 21.5q29 10 60 19v1198q-23 -10 -45 -19q-20 -8 -44 -13t-47 -5q-16 0 -22 2v152h483v-97q-20 -14 -46.5 -24.5t-51.5 -20.5q-29 -10 -59 -18v-473h782v516q-23 -10 -45 -19q-20 -8 -44 -13t-46 -5q-16 0 -23 2v152h484v-97q-20 -14 -47 -24.5 t-52 -20.5q-29 -10 -59 -18v-1198q27 10 51 18q23 6 48.5 12.5t51.5 6.5q18 0 27 -2v-152h-504v96q20 12 47 23.5t52 21.5q29 10 59 19v545h-782v-588q25 10 51 18q23 6 50.5 12.5t51.5 6.5q16 0 25 -2v-152h-504z" />
<glyph unicode="I" horiz-adv-x="671" d="M84 0v96q18 12 46 23.5t52 21.5q29 10 60 19v1198q-23 -10 -45 -19q-20 -8 -44 -13t-47 -5q-16 0 -22 2v152h483v-97q-20 -14 -46.5 -24.5t-51.5 -20.5q-29 -10 -59 -18v-1198q27 10 51 18q23 6 48.5 12.5t51.5 6.5q18 0 27 -2v-152h-504z" />
<glyph unicode="J" horiz-adv-x="686" d="M20 -254h234q29 45 29 139v1473q-27 -10 -56 -19q-25 -8 -55.5 -13t-58.5 -5q-20 0 -29 2v152h524v-97q-20 -14 -46.5 -24.5t-51.5 -20.5q-29 -10 -59 -18v-1438q0 -84 -22.5 -142.5t-58.5 -93t-78 -50t-81 -15.5q-72 0 -114 12.5t-77 34.5v123z" />
<glyph unicode="K" horiz-adv-x="1396" d="M84 0v96q18 12 46 23.5t52 21.5q29 10 60 19v1198q-23 -10 -45 -19q-20 -8 -44 -13t-47 -5q-16 0 -22 2v152h483v-97q-20 -14 -46.5 -24.5t-51.5 -20.5q-29 -10 -59 -18v-490h262l370 533q-29 -10 -55 -19q-25 -8 -52.5 -13t-51.5 -5q-18 0 -25 2v152h483v-97 q-20 -14 -46.5 -24.5t-51.5 -20.5q-29 -10 -59 -18l-387 -545l401 -629h158v-114q-25 -20 -57.5 -29.5t-86.5 -9.5q-63 0 -112 27.5t-103 115.5l-344 557h-243v-571q25 10 49 18q23 6 49.5 12.5t52.5 6.5h13.5t13.5 -2v-152h-504z" />
<glyph unicode="L" horiz-adv-x="1110" d="M84 0v96q18 12 46 23.5t52 21.5q29 10 60 19v1198q-23 -10 -45 -19q-20 -8 -44 -13t-47 -5q-16 0 -22 2v152h483v-97q-20 -14 -46.5 -24.5t-51.5 -20.5q-29 -10 -59 -18v-1178h481q2 43 8 88q4 37 14.5 81t26.5 81h120v-387h-976z" />
<glyph unicode="M" horiz-adv-x="1908" d="M84 0v96q18 12 46 23.5t52 21.5q29 10 60 19v1155q-31 8 -60 18q-25 10 -52.5 20.5t-45.5 24.5v97h420l444 -1149l467 1149h389v-97q-20 -14 -45.5 -24.5t-50.5 -20.5q-29 -10 -59 -18v-1198q25 10 49 18q23 6 48.5 12.5t51.5 6.5h13.5t13.5 -2v-152h-496v96 q20 12 47 23.5t51 21.5q29 10 60 19v1149l-481 -1198h-156l-459 1198v-1192q27 10 51 18q23 6 48.5 12.5t52.5 6.5q18 0 26 -2v-152h-485z" />
<glyph unicode="N" horiz-adv-x="1644" d="M84 0v96q18 12 46 23.5t52 21.5q29 10 60 19v1155q-31 8 -60 18q-25 10 -52.5 20.5t-45.5 24.5v97h350l819 -1211v1094q-23 -10 -45 -19q-20 -8 -43.5 -13t-46.5 -5q-16 0 -22 2v152h465v-97q-20 -14 -47 -24.5t-52 -20.5q-29 -10 -59 -18v-1315h-168l-844 1251v-1134 q27 10 51 18q23 6 48.5 12.5t52.5 6.5q18 0 26 -2v-152h-485z" />
<glyph unicode="O" horiz-adv-x="1501" d="M98 737q0 178 44 319.5t129 240t206 150.5t275 52t274.5 -52t204.5 -150.5t128 -240t44 -319.5t-44 -319.5t-128 -239.5t-205 -151.5t-274 -53.5q-154 0 -275 53.5t-206 151.5t-129 239.5t-44 319.5zM281 737q0 -291 124 -455.5t347 -164.5t346 164.5t123 455.5 q0 293 -123 457t-346 164t-347 -164t-124 -457z" />
<glyph unicode="P" horiz-adv-x="1173" d="M84 0v96q18 12 46 23.5t52 21.5q29 10 60 19v1155q-31 8 -60 18q-25 10 -52.5 20.5t-45.5 24.5v97h516q260 0 381 -98.5t121 -315.5q0 -104 -37 -189.5t-103.5 -143.5t-158.5 -90t-203 -32h-190v-489q29 10 59 18q27 6 57.5 12.5t61.5 6.5q20 0 30 -2v-152h-534zM410 737 h155q168 0 264.5 79t96.5 239q0 152 -87 217t-274 65h-155v-600z" />
<glyph unicode="Q" horiz-adv-x="1501" d="M98 737q0 178 44 319.5t129 240t206 150.5t275 52t274.5 -52t204.5 -150.5t128 -240t44 -319.5q0 -332 -148.5 -531.5t-416.5 -228.5q27 -63 56.5 -113t72.5 -86t101 -55.5t140 -19.5q74 0 140 12v-127q-33 -12 -87.5 -21t-138.5 -9q-174 0 -284.5 111.5t-161.5 307.5 q-135 12 -242.5 69.5t-182.5 156t-114 233.5t-39 301zM281 737q0 -291 124 -455.5t347 -164.5t346 164.5t123 455.5q0 293 -123 457t-346 164t-347 -164t-124 -457z" />
<glyph unicode="R" horiz-adv-x="1351" d="M84 0v96q18 12 46 23.5t52 21.5q29 10 60 19v1155q-31 8 -60 18q-25 10 -52.5 20.5t-45.5 24.5v97h549q264 0 387 -90.5t123 -294.5q0 -156 -92.5 -260.5t-245.5 -141.5l301 -547h178v-114q-25 -20 -64.5 -29.5t-76.5 -9.5q-74 0 -131.5 25.5t-106.5 117.5l-282 537h-213 v-551q25 10 51 18q23 6 50.5 12.5t51.5 6.5q16 0 25 -2v-152h-504zM410 801h184q170 0 271.5 68.5t101.5 215.5q0 141 -93.5 196.5t-279.5 55.5h-184v-536z" />
<glyph unicode="S" horiz-adv-x="1177" d="M102 287q0 53 21.5 101t44.5 83h135v-278q49 -35 123 -63t160 -28q152 0 235.5 71t83.5 171q0 78 -56 139.5t-140 115.5t-182.5 107.5t-182.5 114t-140.5 133t-56.5 168.5q0 86 34 156t96.5 119t151.5 75.5t200 26.5q117 0 199.5 -27.5t135 -71.5t76 -98.5t23.5 -107.5 q0 -43 -17.5 -89t-33.5 -73h-135v250q-18 20 -47 36.5t-62 29t-68.5 18.5t-66.5 6q-152 0 -234 -59.5t-82 -145.5q0 -74 56.5 -133t140.5 -112.5t182.5 -105.5t182.5 -112.5t140 -136t56 -176.5q0 -92 -33.5 -169t-96 -132t-151.5 -86t-198 -31q-141 0 -236.5 28t-151.5 73 t-81 101t-25 112z" />
<glyph unicode="T" horiz-adv-x="1261" d="M49 1120v355h1163v-355h-116q-18 33 -28.5 71t-14.5 71q-6 37 -9 75h-329v-1220q25 10 51 18q23 6 50.5 12.5t51.5 6.5q16 0 25 -2v-152h-504v96q18 12 46 23.5t52 21.5q29 10 60 19v1177h-330q-2 -39 -8 -75q-4 -33 -15.5 -71t-27.5 -71h-117z" />
<glyph unicode="U" horiz-adv-x="1538" d="M51 1323v152h484v-97q-20 -14 -47 -24.5t-52 -20.5q-29 -10 -59 -18v-686q0 -147 21.5 -246.5t68.5 -161t119.5 -87t177.5 -25.5q100 0 178 24.5t130 83.5t79 158.5t27 249.5v733q-18 -10 -41 -19q-18 -8 -40 -13t-44 -5q-16 0 -23 2v152h457v-97q-20 -14 -47 -24.5 t-51 -20.5q-29 -10 -60 -18v-733q0 -313 -134 -461t-441 -148q-283 0 -414 143.5t-131 465.5v776q-23 -10 -45 -19q-20 -8 -44 -13t-46 -5q-16 0 -23 2z" />
<glyph unicode="V" horiz-adv-x="1484" d="M20 1323v152h512v-97q-23 -14 -53 -24.5t-59 -20.5q-35 -10 -68 -18l393 -1143l422 1182q-18 -6 -63 -19.5t-92 -13.5q-20 0 -29 2v152h481v-97q-20 -14 -46.5 -24.5t-51.5 -20.5q-29 -10 -59 -18l-494 -1315h-166l-489 1348q-18 -8 -49 -17.5t-62 -9.5q-18 0 -27 2z" />
<glyph unicode="W" horiz-adv-x="2195" d="M20 1323v152h484v-97q-20 -14 -47 -24.5t-51 -20.5q-29 -10 -60 -18l328 -1137l362 1297h142l354 -1299l342 1176q-23 -8 -66 -19.5t-88 -11.5q-20 0 -30 2v152h485v-97q-20 -14 -47 -24.5t-51 -20.5q-29 -10 -60 -18l-407 -1315h-183l-337 1190l-338 -1190h-183 l-417 1346q-20 -10 -49 -17.5t-58 -7.5q-16 0 -25 2z" />
<glyph unicode="X" horiz-adv-x="1478" d="M31 0v96q18 12 42.5 22.5t49 18.5t45 13.5t27.5 7.5l444 600l-399 559q-10 2 -28.5 8t-41.5 13.5t-45.5 17.5t-38.5 22v96h512v-96q-27 -18 -77 -32.5t-83 -22.5l310 -440l309 438q-31 8 -79 22.5t-77 34.5v96h483v-96q-39 -23 -79.5 -38t-77.5 -25l-389 -531l440 -626 q6 -2 27.5 -7.5t47 -13.5t51.5 -18t44 -23v-96h-524v96q33 23 82 40.5t71 21.5l-358 497l-348 -495q2 0 20.5 -6.5t43 -14.5t51 -19t46.5 -24v-96h-501z" />
<glyph unicode="Y" horiz-adv-x="1466" d="M16 1323v152h529v-97q-20 -14 -47 -24.5t-52 -18.5q-29 -8 -59 -16l371 -602l413 635q-20 -10 -65 -20.5t-90 -10.5q-20 0 -29 2v152h463v-97q-20 -14 -47 -24.5t-51 -20.5q-29 -10 -60 -18l-477 -721v-477q27 10 53 18q23 6 49.5 12.5t51.5 6.5q16 0 24 -2v-152h-504v96 q20 12 47 23.5t52 21.5q29 10 59 19v428l-479 758q-20 -10 -56 -17.5t-69 -7.5q-18 0 -27 2z" />
<glyph unicode="Z" horiz-adv-x="1241" d="M84 0v127l852 1210h-644v-274h-136q-25 41 -40.5 76t-15.5 82q0 57 17.5 103t57.5 80t107.5 52.5t168.5 18.5h686v-125l-852 -1213h704q2 33 8 70q4 33 14.5 74t28.5 86h118v-367h-1074z" />
<glyph unicode="[" horiz-adv-x="645" d="M211 -401v2091h346v-115h-197v-1864h197v-112h-346z" />
<glyph unicode="\" horiz-adv-x="757" d="M23 1595l129 27l581 -1868l-125 -28z" />
<glyph unicode="]" horiz-adv-x="645" d="M88 -289h197v1864h-197v115h346v-2091h-346v112z" />
<glyph unicode="^" horiz-adv-x="1228" d="M121 729l450 746h88l455 -746h-151l-351 561l-344 -561h-147z" />
<glyph unicode="_" horiz-adv-x="1024" d="M41 -102h942v-115h-942v115z" />
<glyph unicode="`" horiz-adv-x="819" d="M188 1513l129 113l314 -315l-78 -66z" />
<glyph unicode="a" horiz-adv-x="1243" d="M129 315q0 88 35 151.5t118 106.5t221 66t347 33v119q0 39 -12.5 79.5t-42 72.5t-79.5 52.5t-126 20.5q-82 0 -138.5 -17.5t-99.5 -37.5v-203h-133q-16 23 -25.5 54.5t-9.5 66.5q0 45 20.5 92t69 85t129 62.5t203.5 24.5q207 0 306.5 -99.5t99.5 -281.5v-645h153v-105 q-23 -20 -58.5 -29.5t-70.5 -9.5q-78 0 -126 43t-48 136v18t2 18h-10q-14 -37 -43 -75.5t-72 -69.5t-100 -50.5t-131 -19.5q-186 0 -282.5 93.5t-96.5 248.5zM299 330q0 -123 64.5 -172t168.5 -49q66 0 123.5 24.5t100.5 65.5t68.5 94t25.5 113v149q-68 -4 -139.5 -10 t-139 -17.5t-128 -25t-105.5 -27.5q-16 -25 -27.5 -61.5t-11.5 -83.5z" />
<glyph unicode="b" horiz-adv-x="1294" d="M51 1526v112h307v-612q0 -53 -7 -87t-19 -85h8q47 156 156.5 222.5t246.5 66.5q106 0 188.5 -41t139.5 -112.5t87 -172t30 -219.5q0 -160 -51.5 -276.5t-137.5 -194.5t-200.5 -116t-243.5 -38q-168 0 -354 56v1454q-23 0 -45 6q-20 4 -47 12t-58 25zM358 127 q53 -16 104.5 -23.5t98.5 -7.5q98 0 182 33t144.5 94.5t95.5 151.5t35 205q0 88 -18.5 164.5t-58.5 134t-103.5 91.5t-153.5 34q-84 0 -145.5 -30t-101.5 -81t-59.5 -123t-19.5 -154v-489z" />
<glyph unicode="c" horiz-adv-x="1097" d="M106 559q0 143 37 253t105.5 183.5t167 110.5t219.5 37q109 0 180.5 -22.5t114.5 -57.5t60.5 -79t17.5 -87q0 -41 -11.5 -79t-31.5 -60h-134v198q-33 31 -92 45.5t-118 14.5q-68 0 -130.5 -20.5t-110.5 -69.5t-77 -133t-29 -209q0 -131 33 -220.5t88.5 -144.5t127 -79.5 t149.5 -24.5q92 0 164.5 23.5t124.5 51.5l36 -124q-61 -35 -148 -64t-187 -29q-127 0 -229.5 36t-174.5 108.5t-112 183.5t-40 258z" />
<glyph unicode="d" horiz-adv-x="1329" d="M106 506q0 166 46.5 285.5t125 198.5t185 116t227.5 37q59 0 121.5 -8.5t126.5 -24.5v373q-23 0 -45 6q-20 4 -47 11t-58 22v116h310v-1521h153v-105q-23 -20 -54.5 -29.5t-63.5 -9.5q-84 0 -137.5 38t-53.5 145v15t2 17h-6q-16 -43 -47 -81.5t-78 -68.5t-111.5 -47.5 t-146.5 -17.5q-113 0 -197 41t-140 113t-84 169t-28 210zM276 537q0 -92 19.5 -169t60.5 -132.5t106.5 -87t155.5 -31.5q68 0 125.5 23.5t99.5 62.5t65.5 91t23.5 112v585q-121 35 -219 35q-211 0 -324 -130t-113 -359z" />
<glyph unicode="e" horiz-adv-x="1124" d="M106 537q0 172 46.5 287.5t121 186t169 101.5t192.5 31q94 0 166.5 -29t122 -80t74 -120.5t24.5 -151.5q0 -35 -3 -73t-13 -79q-123 -35 -252 -50t-262 -15q-53 0 -108.5 2t-109.5 6q2 -119 33 -203t83 -136t124 -75.5t158 -23.5q92 0 164.5 23.5t124.5 51.5l36 -124 q-61 -35 -148 -64t-187 -29q-125 0 -227.5 38t-175.5 110t-113 176t-40 240zM276 657q41 -2 80 -3t80 -1q106 0 212 11.5t212 46.5q2 12 3 25.5t1 25.5q0 51 -15 98t-46 82t-76 56.5t-104 21.5q-90 0 -153.5 -27.5t-104.5 -76t-62.5 -115t-26.5 -144.5z" />
<glyph unicode="f" horiz-adv-x="737" d="M72 1004v114h170v94q0 119 32.5 205t84 139.5t114 79t121.5 25.5q72 0 116 -13.5t78 -35.5v-103h-213q-92 0 -133 -56t-41 -193v-142h320v-114h-320v-885q33 8 68 16q29 6 64.5 12.5t68.5 6.5h18.5t16.5 -2v-152h-531v96q18 12 42 23.5t45 21.5q23 10 49 19v844h-170z " />
<glyph unicode="g" horiz-adv-x="1220" d="M61 -221q0 98 73 176t206 111q-63 23 -95 62.5t-32 86.5q0 53 37 103.5t115 91.5q-113 41 -173.5 127t-60.5 219q0 186 118 286.5t331 100.5q82 0 140 -13.5t99 -31.5q47 45 114.5 71.5t168.5 26.5h49v-154h-256q57 -53 86 -125.5t29 -144.5q0 -193 -119 -294t-326 -101 q-29 0 -57.5 2t-52.5 6q-35 -27 -58.5 -60.5t-23.5 -56.5q0 -47 51 -78.5t160 -31.5h239q147 0 235.5 -66.5t88.5 -208.5q0 -102 -45 -178t-125 -127t-188.5 -75.5t-235.5 -24.5q-100 0 -189.5 19.5t-157 57t-106.5 94t-39 130.5zM238 -188q0 -59 28.5 -100.5t75.5 -67 t110.5 -38t131.5 -12.5t139.5 14.5t129.5 45.5t95 78.5t37 117.5q0 100 -65.5 132t-206.5 32h-232q-55 0 -100 -16t-77 -44t-49 -64.5t-17 -77.5zM297 758q0 -129 70.5 -203t199.5 -74q131 0 205 76t74 205q0 135 -70.5 206.5t-206.5 71.5q-129 0 -200.5 -76.5t-71.5 -205.5 z" />
<glyph unicode="h" horiz-adv-x="1366" d="M84 1526v112h309v-612q0 -53 -8 -87l-20 -85h8q12 51 42.5 102.5t81 92.5t120 67.5t159.5 26.5q74 0 139.5 -18.5t113.5 -56.5t77 -95.5t29 -136.5v-717q18 8 41 16q18 6 41.5 12.5t46.5 6.5q16 0 24 -2v-152h-452v96q25 16 49 28.5t45 20.5q23 8 45 15v741 q-33 41 -90.5 73t-130.5 32q-92 0 -161 -29t-113 -80t-65.5 -123t-21.5 -158v-497q20 8 43 16q18 6 41 12.5t45 6.5q16 0 25 -2v-152h-451v96q23 16 47.5 28.5t44.5 20.5q23 8 45 15v1323q-23 0 -45 6q-20 4 -46.5 12t-57.5 25z" />
<glyph unicode="i" horiz-adv-x="626" d="M86 1006v112h305v-999q16 8 39 16q16 6 40 12.5t48 6.5h13.5t13.5 -2v-152h-447v96q18 12 42 23.5t44 21.5q23 10 49 19v803q-25 2 -47 8q-23 4 -47 12t-53 23zM182 1454q0 53 30 85t83 32q51 0 83 -32t32 -85t-32 -86t-83 -33q-53 0 -83 33t-30 86z" />
<glyph unicode="j" horiz-adv-x="598" d="M10 -336h195q28 44 28 133v6v1160q-25 2 -47 8q-23 4 -47 12t-53 23v112h305v-1323q0 -80 -18.5 -136t-48 -91t-66.5 -50.5t-74 -15.5q-115 0 -174 39v123zM186 1454q0 53 30 85t83 32q51 0 83 -32t32 -85t-32 -86t-83 -33q-53 0 -83 33t-30 86z" />
<glyph unicode="k" horiz-adv-x="1251" d="M84 1522v116h309v-952h215l256 291q-23 2 -64.5 11t-78.5 26v104h465v-104q-47 -23 -87 -32t-81 -17l-289 -334l332 -500h135v-111q-23 -16 -56.5 -24t-64.5 -8q-61 0 -107 24.5t-94 98.5l-276 440h-205v-432q16 8 39 16q18 6 41 12.5t47 6.5h13.5t13.5 -2v-152h-449v96 q20 12 43 23.5t45 21.5q23 10 50 19v1323q-23 0 -48 6q-23 4 -49 11t-55 22z" />
<glyph unicode="l" horiz-adv-x="628" d="M84 1522v116h309v-1519q16 8 39 16q18 6 41 12.5t47 6.5h13.5t13.5 -2v-152h-449v96q20 12 43 23.5t45 21.5q23 10 50 19v1323q-23 0 -48 6q-23 4 -49 11t-55 22z" />
<glyph unicode="m" horiz-adv-x="2066" d="M84 1006v112h309v-92q0 -53 -8 -87l-20 -85h6q12 51 40.5 102.5t76 92.5t114 67.5t152.5 26.5q66 0 124 -14.5t105 -44t79 -75.5t44 -110q18 47 49 91t77 78t105.5 54.5t135.5 20.5q74 0 139 -18.5t115.5 -56.5t79 -95.5t28.5 -136.5v-717q18 8 41 16q18 6 40.5 12.5 t47.5 6.5q16 0 25 -2v-152h-453v96q25 16 49.5 28.5t44.5 20.5q23 8 45 15v741q-31 41 -89 73t-134 32q-88 0 -151.5 -29t-105.5 -80t-61.5 -123t-19.5 -158v-497q18 8 41 16q18 6 41 12.5t47 6.5q16 0 25 -2v-152h-451v96q25 16 48.5 28.5t43.5 20.5q23 8 45 15v741 q-29 41 -88 73t-135 32q-88 0 -151.5 -29t-105.5 -80t-61.5 -123t-19.5 -158v-497q20 8 43 16q18 6 41 12.5t45 6.5q16 0 25 -2v-152h-451v96q23 16 47.5 28.5t44.5 20.5q23 8 45 15v803q-23 0 -45 6q-20 4 -46.5 12t-57.5 25z" />
<glyph unicode="n" horiz-adv-x="1366" d="M84 1006v112h309v-92q0 -53 -8 -87l-20 -85h8q12 51 42.5 102.5t81 92.5t120 67.5t159.5 26.5q74 0 139.5 -18.5t113.5 -56.5t77 -95.5t29 -136.5v-717q18 8 41 16q18 6 41.5 12.5t46.5 6.5q16 0 24 -2v-152h-452v96q25 16 49 28.5t45 20.5q23 8 45 15v741 q-33 41 -90.5 73t-130.5 32q-92 0 -161 -29t-113 -80t-65.5 -123t-21.5 -158v-497q20 8 43 16q18 6 41 12.5t45 6.5q16 0 25 -2v-152h-451v96q23 16 47.5 28.5t44.5 20.5q23 8 45 15v803q-23 0 -45 6q-20 4 -46.5 12t-57.5 25z" />
<glyph unicode="o" horiz-adv-x="1259" d="M106 551q0 285 131.5 438.5t393.5 153.5q258 0 390 -153.5t132 -438.5q0 -274 -137 -426t-385 -152q-250 0 -387.5 151.5t-137.5 426.5zM274 551q0 -217 91.5 -337t265.5 -120q168 0 260 120t92 337q0 219 -93 346t-259 127q-170 0 -263.5 -127t-93.5 -346z" />
<glyph unicode="p" horiz-adv-x="1318" d="M74 1006v112h309v-92q0 -53 -8 -87t-21 -85h11q12 51 42.5 102.5t80 92.5t119 67.5t159.5 26.5q109 0 191.5 -41t140 -114t86 -172t28.5 -218q0 -145 -41 -261t-118.5 -197t-189 -124t-255.5 -43q-106 0 -225 31v-369q25 8 51 17q23 6 51.5 12t59.5 6h16t17 -2v-151h-492 v92q49 35 94 51q23 8 45 16v1287q-23 0 -45 6q-23 4 -49.5 12t-56.5 25zM383 123q47 -10 93 -15.5t89 -5.5q100 0 187.5 26t152 82t101 147.5t36.5 222.5q0 90 -18 167.5t-58 134t-103.5 89.5t-151.5 33q-84 0 -146.5 -30t-102.5 -81t-59.5 -123t-19.5 -154v-493z" />
<glyph unicode="q" horiz-adv-x="1284" d="M106 539q0 168 52.5 282.5t139.5 186t200.5 103.5t236.5 32q182 0 355 -56v-1452q18 8 40 17q18 6 44 11t55 5h14v-151h-514v92q33 16 69 29.5t64 21.5q35 8 68 16v371q-59 -37 -133 -55.5t-154 -18.5q-96 0 -192.5 32t-173 100.5t-124 176t-47.5 257.5zM276 561 q0 -115 32 -200t87.5 -141t129 -83.5t159.5 -27.5q119 0 246 49v831q-59 18 -111.5 27.5t-105.5 9.5q-211 0 -324 -124t-113 -341z" />
<glyph unicode="r" horiz-adv-x="995" d="M84 1001v117h309v-82q0 -53 -8 -87l-20 -85h8q59 145 157.5 212t192.5 67q109 0 160 -49.5t51 -130.5q0 -43 -13.5 -88.5t-33.5 -92.5h-123v224q-371 0 -371 -437v-450q33 8 70 16q29 6 64.5 12.5t68.5 6.5q23 0 33 -2v-152h-533v96q25 16 48.5 28.5t43.5 20.5 q23 8 45 15v798q-23 0 -45 7q-20 4 -46.5 12t-57.5 24z" />
<glyph unicode="s" horiz-adv-x="1019" d="M106 223q0 45 14.5 84t37.5 64h132v-219q35 -23 95.5 -40.5t128.5 -17.5q117 0 183.5 50t66.5 120q0 61 -46 108.5t-116 87.5t-150.5 77.5t-150.5 82t-116 98.5t-46 130q0 135 108.5 215t297.5 80q100 0 167.5 -21.5t107.5 -56.5t56.5 -78t16.5 -86q0 -41 -11.5 -75.5 t-27.5 -59.5h-133v201q-29 25 -76 42t-96 17q-119 0 -186.5 -42t-67.5 -101t46 -103.5t116.5 -82.5t151.5 -74.5t151.5 -82.5t117 -104.5t46.5 -138.5q0 -72 -29 -131.5t-81 -102.5t-127 -66.5t-169 -23.5q-121 0 -200.5 22.5t-127 57.5t-66 80t-18.5 90z" />
<glyph unicode="t" horiz-adv-x="774" d="M61 1004v114h162l53 283h105v-283h332v-114h-332v-674q0 -66 9 -109t29.5 -69.5t55.5 -37t86 -10.5q41 0 91 6.5t85 14.5l17 -100q-41 -16 -115 -34t-160 -18q-121 0 -188.5 69t-67.5 239v723h-162z" />
<glyph unicode="u" horiz-adv-x="1353" d="M63 1006v112h320v-901q35 -41 92 -72.5t131 -31.5q76 0 140.5 24.5t110.5 65.5t71.5 94t25.5 113v546q-23 2 -49 11q-23 6 -52.5 14t-57.5 25v112h319v-1001h154v-105q-23 -20 -57.5 -29.5t-69.5 -9.5q-80 0 -129 43t-49 138v16t2 18h-11q-16 -37 -44.5 -75.5 t-73.5 -69.5t-106.5 -50.5t-143.5 -19.5q-74 0 -139.5 18.5t-114.5 56.5t-78 96.5t-29 138.5v673q-25 2 -51 11q-23 6 -52.5 14t-58.5 25z" />
<glyph unicode="v" horiz-adv-x="1247" d="M10 967v151h469v-98q-51 -25 -91 -33t-56 -10l299 -832l297 846q-18 -8 -39 -14q-16 -4 -38 -8t-44 -4q-20 0 -29 2v151h449v-98q-45 -23 -85 -32t-59 -11l-372 -977h-191l-373 991q-16 -8 -46.5 -17t-63.5 -9h-13.5t-13.5 2z" />
<glyph unicode="w" horiz-adv-x="1863" d="M16 967v151h469v-98q-51 -25 -93 -33t-58 -10l239 -813l289 954h170l285 -954l246 837q-27 -10 -52 -18q-23 -8 -49 -13t-49 -5q-16 0 -22 2v151h448v-98q-45 -23 -85 -32t-58 -11l-316 -977h-172l-278 930l-295 -930h-172l-309 991q-16 -8 -47 -17t-64 -9h-13t-14 2z " />
<glyph unicode="x" horiz-adv-x="1251" d="M49 0v96q41 23 78 31t47 10l336 461l-297 379q-18 2 -66.5 11t-93.5 32v98h475v-98q-39 -18 -75.5 -27.5t-59.5 -13.5l252 -315l217 315q-10 0 -50 8t-91 33v98h448v-98q-45 -23 -86 -31t-59 -12l-307 -408l342 -432q14 -2 59 -10t84 -31v-96h-469v96q43 23 87 31t54 10 l-284 365l-252 -367q14 -2 49 -9t78 -30v-96h-416z" />
<glyph unicode="y" horiz-adv-x="1255" d="M10 967v151h469v-98q-51 -25 -89 -33t-54 -10l311 -832l291 846q-20 -8 -41 -14q-18 -4 -38.5 -8t-43.5 -4q-20 0 -29 2v151h449v-98q-45 -23 -79 -31t-64 -12l-396 -1053q-29 -74 -61.5 -149.5t-76.5 -136t-100.5 -98.5t-129.5 -38q-53 0 -94 8.5t-76 30.5v123h237 q66 18 106 105.5t87 230.5h-51l-387 987q-16 -6 -46 -14t-63 -8q-20 0 -31 2z" />
<glyph unicode="z" horiz-adv-x="1103" d="M104 0v88l676 907h-471v-237h-135q-16 29 -25.5 62.5t-9.5 72.5q0 43 12.5 84t43 72.5t84 50t137.5 18.5h567v-86l-676 -907h533q0 29 6 61q4 29 12 62t25 67h116v-315h-895z" />
<glyph unicode="{" horiz-adv-x="679" d="M72 604v76q61 8 102 30.5t66.5 64.5t36 104.5t10.5 152.5v248q0 111 15 188.5t52 127t96.5 72t145.5 22.5h12v-66q-98 -4 -128.5 -80t-30.5 -231v-170q0 -80 -4.5 -158t-27 -143.5t-72.5 -117.5t-142 -81q92 -31 142 -82t72.5 -117.5t27 -143.5t4.5 -159v-170 q0 -154 30.5 -229.5t128.5 -81.5v-61h-12q-86 0 -145.5 22.5t-96.5 71.5t-52 127t-15 188v246q0 88 -10.5 150.5t-36 104.5t-66.5 63.5t-102 31.5z" />
<glyph unicode="|" horiz-adv-x="454" d="M166 -373v2067h123v-2067h-123z" />
<glyph unicode="}" horiz-adv-x="679" d="M72 -340q98 6 128.5 82t30.5 229v170q0 82 4.5 159t27 143.5t72.5 117.5t142 82q-92 29 -142 81t-72.5 117.5t-27 143.5t-4.5 158v170q0 156 -30.5 231.5t-128.5 79.5v66h12q86 0 145.5 -22.5t96 -72t52 -127t15.5 -188.5v-248q0 -90 10.5 -152.5t36 -104.5t66.5 -64.5 t102 -30.5v-76q-61 -10 -102 -31.5t-66.5 -63.5t-36 -104.5t-10.5 -150.5v-246q0 -111 -15.5 -188.5t-52 -126.5t-96 -71.5t-145.5 -22.5h-12v61z" />
<glyph unicode="~" horiz-adv-x="1228" d="M119 547q66 59 135.5 108.5t142.5 49.5q55 0 115.5 -20.5t119 -45.5t109 -45.5t84.5 -20.5q47 0 95.5 35t107.5 92l80 -102q-61 -61 -133 -110.5t-148 -49.5q-53 0 -113.5 20.5t-118.5 45t-108.5 45t-85.5 20.5q-47 0 -95 -33.5t-107 -93.5z" />
<glyph unicode="&#xa1;" horiz-adv-x="604" d="M174 1012q0 53 37 91t90 38t91 -38t38 -91q0 -51 -38 -88t-91 -37t-90 37t-37 88zM195 -213q0 4 1 46t8 147.5t22.5 288t43.5 464.5h76q27 -268 42 -445t22.5 -284.5t8.5 -156t1 -58.5q0 -84 -30 -129t-83 -45t-82.5 45t-29.5 127z" />
<glyph unicode="&#xa2;" d="M154 559q0 272 126 417.5t343 166.5v114h90v-114q100 -2 166.5 -25.5t105.5 -59.5t54.5 -79t15.5 -86q0 -86 -43 -135h-113v198q-31 25 -80 39.5t-106 18.5v-914q16 -2 29.5 -2h29.5q55 0 116.5 11.5t127.5 27.5l14 -104q-37 -14 -72.5 -25.5t-72.5 -18.5t-79 -11.5 t-93 -4.5v-116h-90v120q-217 25 -343 168.5t-126 413.5zM322 584q0 -213 76.5 -325t224.5 -144v899q-61 -6 -115.5 -31t-95.5 -75t-65.5 -129.5t-24.5 -194.5z" />
<glyph unicode="&#xa3;" d="M98 0v68q31 14 59.5 36.5t51 59.5t36 91t13.5 128v319h-158v99h158v219q0 129 37 220t96.5 148.5t136 84t154.5 26.5q109 0 181.5 -26.5t115.5 -68.5t61.5 -93t18.5 -103q0 -49 -11.5 -91t-31.5 -70h-135v256q-35 29 -78 47t-96 18q-129 0 -206 -88t-77 -281v-198h397 v-99h-397v-225q0 -104 -31 -192t-82 -148h656q0 27 6 58q4 27 14 60.5t27 70.5h96v-326h-1012z" />
<glyph unicode="&#xa4;" d="M201 324l114 102q-41 53 -61.5 118.5t-20.5 139.5q0 72 20.5 137.5t61.5 116.5l-114 102l78 78l106 -106q92 70 219 69q123 0 221 -69l103 106l80 -78l-115 -102q41 -51 61.5 -116.5t20.5 -137.5q0 -74 -20.5 -139.5t-61.5 -118.5l115 -102l-80 -76l-109 108 q-43 -33 -97 -51t-118 -18q-63 0 -117.5 18.5t-101.5 50.5l-106 -108zM369 684q0 -55 15 -103.5t45 -85t74 -58t101 -21.5t101.5 21.5t74 58t45 85t15.5 103.5t-15.5 103.5t-45 85t-73.5 58t-102 21.5q-57 0 -101 -21.5t-74 -58t-45 -85t-15 -103.5z" />
<glyph unicode="&#xa5;" d="M6 1380v95h469v-95q-39 -23 -74.5 -34t-60.5 -17l281 -594l292 592q-27 4 -71.5 17.5t-89.5 35.5v95h448v-95q-41 -25 -83 -38t-58 -15l-283 -536h303v-99h-358l-47 -98v-84h405v-96h-405v-318q12 12 34.5 24.5t48 22t51.5 12.5t44 -3v-152h-502v96q20 12 48 23.5 t53 21.5q29 10 59 19v254h-381v96h381v78l-51 104h-330v99h281l-269 538q-23 4 -59.5 16.5t-75.5 34.5z" />
<glyph unicode="&#xa6;" horiz-adv-x="454" d="M166 -373v828h123v-828h-123zM166 868v826h123v-826h-123z" />
<glyph unicode="&#xa7;" horiz-adv-x="1150" d="M102 621q0 109 86 195.5t240 135.5q-111 59 -155 123t-44 144q0 63 29 115t80 89t124 56.5t161 19.5t146 -19.5t93 -51t50.5 -69.5t15.5 -75q0 -72 -39 -127h-121v205q-31 14 -60.5 19t-66.5 5q-115 0 -177.5 -35.5t-62.5 -107.5q0 -29 11.5 -54.5t39 -50t72.5 -51 t113 -57.5q63 -31 135 -64.5t133.5 -79.5t102.5 -107.5t41 -147.5q0 -104 -86 -191.5t-242 -140.5q111 -55 156 -121.5t45 -144.5q0 -127 -107.5 -200t-284.5 -73q-88 0 -146 18.5t-94 49.5t-51.5 68.5t-15.5 76.5q0 33 11.5 68t31.5 63h119v-210q51 -23 127 -23 q113 0 174.5 35t61.5 102q0 57 -57.5 108.5t-172.5 104.5q-63 31 -136 63.5t-135.5 79t-103.5 109t-41 148.5zM266 643q0 -51 32 -92t79 -75t104.5 -60.5t106.5 -48.5q141 43 219 96t78 145q0 53 -31 95t-79 74t-105.5 58.5t-108.5 49.5q-82 -23 -138 -49.5t-91 -56 t-50.5 -63.5t-15.5 -73z" />
<glyph unicode="&#xa8;" horiz-adv-x="819" d="M86 1434q0 49 29.5 79.5t83.5 30.5q53 0 82.5 -30.5t29.5 -79.5q0 -47 -29.5 -79t-82.5 -32t-83 29.5t-30 81.5zM508 1434q0 49 27.5 79.5t87.5 30.5q51 0 80.5 -30.5t29.5 -79.5q0 -47 -29.5 -79t-80.5 -32q-53 0 -84 31.5t-31 79.5z" />
<glyph unicode="&#xa9;" horiz-adv-x="1695" d="M86 735q0 154 58.5 288t161 234.5t242.5 159t306 58.5q162 0 301 -57.5t239.5 -158t158 -235.5t57.5 -289q0 -150 -57.5 -284t-159 -234t-241.5 -158.5t-306 -58.5q-162 0 -300 57.5t-240.5 156.5t-161 233.5t-58.5 287.5zM211 735q0 -129 48 -243.5t133 -199.5 t202 -135.5t254 -50.5q139 0 256 51.5t202 137.5t132 201.5t47 244.5t-47 243t-131 200t-200 136t-253 50q-141 0 -259 -51t-203 -138t-133 -202t-48 -244zM449 733q0 231 114.5 348t308.5 117q82 0 137.5 -18.5t88 -47t47 -64.5t14.5 -71q0 -61 -33 -110h-86v160 q-35 23 -85 33t-97 10q-51 0 -99 -15.5t-86 -54.5t-60.5 -104.5t-22.5 -163.5q0 -96 24.5 -166t68.5 -115t103.5 -67.5t126.5 -22.5q90 0 215 45l17 -92q-133 -63 -273 -64q-84 0 -159.5 26t-135 82t-94 144t-34.5 211z" />
<glyph unicode="&#xaa;" horiz-adv-x="817" d="M61 971q0 59 22.5 102t77 70.5t145.5 43t229 21.5v68q0 23 -7.5 46.5t-26 42.5t-48 31.5t-74.5 12.5q-49 0 -84 -10t-62 -23v-125h-106q-27 33 -27 84q0 31 13.5 63t47.5 57.5t89 41.5t139 16q145 0 215 -64.5t70 -182.5v-392h100v-90q-16 -16 -45 -24t-57 -8 q-123 0 -123 141h-8q-8 -25 -26.5 -49.5t-47.5 -45t-68 -33.5t-88 -13q-123 0 -186.5 59t-63.5 160zM207 991q0 -72 39 -100.5t102 -28.5q37 0 71 14.5t59.5 38t41 54t15.5 65.5v86q-84 -4 -169.5 -15.5t-138.5 -27.5q-20 -35 -20 -86z" />
<glyph unicode="&#xab;" horiz-adv-x="1005" d="M41 563l408 441l83 -91l-323 -348l323 -350l-83 -90zM412 563l408 441l83 -91l-323 -348l323 -350l-83 -90z" />
<glyph unicode="&#xac;" horiz-adv-x="1228" d="M84 702v132h1059v-533h-139v401h-920z" />
<glyph unicode="&#xad;" horiz-adv-x="819" d="M119 539v137h581v-137h-581z" />
<glyph unicode="&#xae;" horiz-adv-x="1695" d="M86 735q0 154 58.5 288t161 234.5t242.5 159t306 58.5q162 0 301 -57.5t239.5 -158t158 -235.5t57.5 -289q0 -150 -57.5 -284t-159 -234t-241.5 -158.5t-306 -58.5q-162 0 -300 57.5t-240.5 156.5t-161 233.5t-58.5 287.5zM211 735q0 -129 48 -243.5t133 -199.5 t202 -135.5t254 -50.5q139 0 256 51.5t202 137.5t132 201.5t47 244.5t-47 243t-131 200t-200 136t-253 50q-141 0 -259 -51t-203 -138t-133 -202t-48 -244zM496 297v78q12 8 27.5 16t31.5 15q16 8 35 14v647q-16 4 -44 15.5t-50 27.5v78h338q162 0 237.5 -56.5t75.5 -183.5 q0 -88 -52.5 -152.5t-136.5 -93.5l150 -239q23 -35 48.5 -56.5t55.5 -21.5h45v-88h-194l-244 391h-100v-293q29 10 60.5 16.5t60.5 0.5v-115h-344zM719 795h92q92 0 145.5 36.5t53.5 112.5t-49.5 104.5t-149.5 28.5h-92v-282z" />
<glyph unicode="&#xaf;" horiz-adv-x="819" d="M80 1311v133h659v-133h-659z" />
<glyph unicode="&#xb0;" horiz-adv-x="845" d="M72 1206q0 68 27.5 129.5t74.5 106.5t111.5 71.5t138.5 26.5q72 0 135.5 -26.5t111.5 -71.5t75.5 -106.5t27.5 -129.5q0 -70 -28.5 -131t-76.5 -106t-111.5 -71t-135.5 -26q-74 0 -137.5 26t-111.5 71t-74.5 105.5t-26.5 131.5zM207 1206q0 -43 17.5 -81t47 -66.5 t68.5 -45t84 -16.5q43 0 82 16.5t68.5 45t47 66.5t17.5 81t-17.5 81t-47 66.5t-68.5 45t-82 16.5q-45 0 -84 -16.5t-68.5 -45t-47 -66.5t-17.5 -81z" />
<glyph unicode="&#xb1;" horiz-adv-x="1228" d="M84 201v131h1059v-131h-1059zM84 702v132h459v292h141v-292h459v-132h-459v-274h-141v274h-459z" />
<glyph unicode="&#xb2;" horiz-adv-x="763" d="M88 678v84q129 109 210 183.5t127 131t62.5 101.5t16.5 96q0 55 -33 86t-102 31q-33 0 -58.5 -8.5t-46.5 -18.5v-152h-106q-20 25 -28.5 51.5t-8.5 55.5q0 31 12 62.5t42 58t81 43t129 16.5q135 0 200.5 -59.5t65.5 -155.5q0 -74 -38 -145.5t-94 -136t-120.5 -120 t-117.5 -96.5h268q4 35 33 103h92v-211h-586z" />
<glyph unicode="&#xb3;" horiz-adv-x="765" d="M88 705l33 106q53 -20 112.5 -32.5t124.5 -12.5q33 0 66 8t58.5 26.5t41 47.5t15.5 70q0 39 -20.5 62.5t-54.5 35.5t-78 16t-89 4h-31v107h31q86 0 148.5 31.5t62.5 103.5q0 57 -42 85t-120 28q-29 0 -54.5 -9.5t-45.5 -19.5v-145h-111q-33 39 -33 102q0 31 13.5 62.5 t45.5 58t85 43t133 16.5q117 0 195.5 -53t78.5 -154q0 -66 -36.5 -114t-86.5 -74q59 -23 104.5 -67t45.5 -134q0 -61 -26.5 -107t-71.5 -78t-106.5 -47.5t-131.5 -15.5q-80 0 -138.5 14.5t-117.5 35.5z" />
<glyph unicode="&#xb4;" horiz-adv-x="819" d="M188 1311l316 315l127 -113l-363 -268z" />
<glyph unicode="&#xb5;" horiz-adv-x="1384" d="M84 1026v92h322v-921q33 -35 91 -59.5t132 -24.5q76 0 142.5 24.5t115.5 65.5t76.5 94t27.5 113v567q-25 2 -51 10q-23 6 -51.5 14.5t-59.5 24.5v92h322v-1001h156v-105q-23 -20 -59 -29.5t-70 -9.5q-80 0 -127 42t-47 137v17t2 19h-11q-16 -37 -48 -75.5t-80 -69.5 t-112.5 -50.5t-146.5 -19.5q-57 0 -108 9.5t-94 31.5v-497h-158v1460q-25 2 -51 10q-23 6 -52.5 14.5t-60.5 24.5z" />
<glyph unicode="&#xb6;" horiz-adv-x="1228" d="M102 1143q0 80 31 142.5t86 104.5t130 63.5t161 21.5h543v-1618h-148v1513h-221v-1513h-154v956q-197 2 -312.5 82t-115.5 248z" />
<glyph unicode="&#xb7;" horiz-adv-x="555" d="M164 803q0 53 29.5 85t82.5 32q51 0 83 -32t32 -85t-31.5 -86t-83.5 -33q-53 0 -82.5 33t-29.5 86z" />
<glyph unicode="&#xb8;" horiz-adv-x="819" d="M201 -397q27 0 70.5 3t84.5 14t72 34.5t31 64.5q0 31 -26.5 47.5t-67.5 16.5q-10 0 -21.5 -1t-21.5 -3l-39 49l55 172h121l-60 -125h21q55 0 94 -14.5t61.5 -37t32.5 -50t10 -54.5q0 -63 -27.5 -103t-71.5 -63.5t-101.5 -31.5t-114.5 -8q-25 0 -50.5 1t-47.5 3z" />
<glyph unicode="&#xb9;" horiz-adv-x="618" d="M72 1346v92q74 12 146.5 27.5t109.5 33.5h88v-725q18 8 47 14.5t59 6.5h35v-117h-465v82q20 6 53 13t62 11q35 6 72 13v549h-207z" />
<glyph unicode="&#xba;" horiz-adv-x="837" d="M63 1128q0 186 90.5 285.5t266.5 99.5q174 0 264 -99t90 -286q0 -180 -93 -278t-261 -98q-172 0 -264.5 98t-92.5 278zM207 1128q0 -131 54.5 -203.5t158.5 -72.5q98 0 153.5 72.5t55.5 203.5q0 133 -55.5 209t-153.5 76q-102 0 -157.5 -75.5t-55.5 -209.5z" />
<glyph unicode="&#xbb;" horiz-adv-x="1005" d="M102 215l324 350l-324 348l84 91l408 -441l-408 -438zM473 215l324 350l-324 348l84 91l408 -441l-408 -438z" />
<glyph unicode="&#xbc;" horiz-adv-x="1810" d="M72 1346v92q74 12 146.5 27.5t109.5 33.5h88v-725q18 8 47 14.5t59 6.5h35v-117h-465v82q20 6 53 13t62 11q35 6 72 13v549h-207zM352 33l1057 1468l100 -67l-1053 -1463zM1120 180v109l379 508h127v-510h123v-107h-123v-205h-127v205h-379zM1257 287h242v338z" />
<glyph unicode="&#xbd;" horiz-adv-x="1843" d="M72 1346v92q74 12 146.5 27.5t109.5 33.5h88v-725q18 8 47 14.5t59 6.5h35v-117h-465v82q20 6 53 13t62 11q35 6 72 13v549h-207zM322 33l1057 1468l100 -67l-1053 -1463zM1167 0v84q129 109 210 183.5t127 131t62.5 101.5t16.5 96q0 55 -33 86t-102 31q-33 0 -58.5 -8.5 t-46.5 -18.5v-152h-106q-20 25 -28.5 51.5t-8.5 55.5q0 31 12 62.5t42 58t81 43t129 16.5q135 0 200.5 -59.5t65.5 -155.5q0 -74 -38 -145.5t-94 -136t-120.5 -120t-117.5 -96.5h268q4 35 33 103h92v-211h-586z" />
<glyph unicode="&#xbe;" horiz-adv-x="1957" d="M88 705l33 106q53 -20 112.5 -32.5t124.5 -12.5q33 0 66 8t58.5 26.5t41 47.5t15.5 70q0 39 -20.5 62.5t-54.5 35.5t-78 16t-89 4h-31v107h31q86 0 148.5 31.5t62.5 103.5q0 57 -42 85t-120 28q-29 0 -54.5 -9.5t-45.5 -19.5v-145h-111q-33 39 -33 102q0 31 13.5 62.5 t45.5 58t85 43t133 16.5q117 0 195.5 -53t78.5 -154q0 -66 -36.5 -114t-86.5 -74q59 -23 104.5 -67t45.5 -134q0 -61 -26.5 -107t-71.5 -78t-106.5 -47.5t-131.5 -15.5q-80 0 -138.5 14.5t-117.5 35.5zM438 33l1057 1468l100 -67l-1053 -1463zM1268 180v109l379 508h127 v-510h123v-107h-123v-205h-127v205h-379zM1405 287h242v338z" />
<glyph unicode="&#xbf;" horiz-adv-x="995" d="M90 -14q0 78 28.5 139t71.5 113.5t94.5 99.5t94.5 94t71.5 99.5t28.5 115.5v88h125v-88q0 -102 -49 -181t-109.5 -151.5t-109.5 -145.5t-49 -163q0 -131 56 -194.5t179 -63.5q72 0 132.5 12.5t101.5 32.5v256h125q18 -29 30.5 -70.5t12.5 -89.5q0 -47 -19.5 -96t-69 -88 t-130 -63.5t-203.5 -24.5q-201 0 -306.5 100.5t-105.5 268.5zM414 1014q0 53 37.5 91t91.5 38q53 0 90 -38t37 -91q0 -51 -37 -88t-90 -37t-91 37t-38 88z" />
<glyph unicode="&#xc0;" horiz-adv-x="1509" d="M4 0v96q47 25 92 39.5t66 16.5l459 1171q-18 2 -59.5 11t-84.5 32v109h393l478 -1325q29 -4 71.5 -17.5t85.5 -36.5v-96h-518v96q53 31 107.5 42.5t72.5 13.5l-137 376h-567l-144 -376q20 0 71.5 -14.5t109.5 -41.5v-96h-496zM512 657h471l-227 656zM534 1849l129 113 l314 -315l-78 -66z" />
<glyph unicode="&#xc1;" horiz-adv-x="1509" d="M4 0v96q47 25 92 39.5t66 16.5l459 1171q-18 2 -59.5 11t-84.5 32v109h393l478 -1325q29 -4 71.5 -17.5t85.5 -36.5v-96h-518v96q53 31 107.5 42.5t72.5 13.5l-137 376h-567l-144 -376q20 0 71.5 -14.5t109.5 -41.5v-96h-496zM512 657h471l-227 656zM616 1667l316 315 l127 -112l-363 -268z" />
<glyph unicode="&#xc2;" horiz-adv-x="1509" d="M4 0v96q47 25 92 39.5t66 16.5l459 1171q-18 2 -59.5 11t-84.5 32v109h393l478 -1325q29 -4 71.5 -17.5t85.5 -36.5v-96h-518v96q53 31 107.5 42.5t72.5 13.5l-137 376h-567l-144 -376q20 0 71.5 -14.5t109.5 -41.5v-96h-496zM428 1659l328 315l329 -315l-63 -66 l-266 185l-263 -185zM512 657h471l-227 656z" />
<glyph unicode="&#xc3;" horiz-adv-x="1509" d="M4 0v96q47 25 92 39.5t66 16.5l459 1171q-18 2 -59.5 11t-84.5 32v109h393l478 -1325q29 -4 71.5 -17.5t85.5 -36.5v-96h-518v96q53 31 107.5 42.5t72.5 13.5l-137 376h-567l-144 -376q20 0 71.5 -14.5t109.5 -41.5v-96h-496zM400 1671q41 86 92 142.5t104 56.5 q43 0 86 -14.5t84 -33t81 -32.5t81 -14q27 0 53.5 19.5t65.5 76.5l67 -51q-41 -86 -90 -140.5t-102 -54.5q-43 0 -85 14.5t-83 33t-82 32.5t-82 14q-27 0 -55.5 -21.5t-67.5 -80.5zM512 657h471l-227 656z" />
<glyph unicode="&#xc4;" horiz-adv-x="1509" d="M4 0v96q47 25 92 39.5t66 16.5l459 1171q-18 2 -59.5 11t-84.5 32v109h393l478 -1325q29 -4 71.5 -17.5t85.5 -36.5v-96h-518v96q53 31 107.5 42.5t72.5 13.5l-137 376h-567l-144 -376q20 0 71.5 -14.5t109.5 -41.5v-96h-496zM414 1761q0 49 29.5 80t83.5 31 q53 0 82.5 -31t29.5 -80q0 -47 -29.5 -78.5t-82.5 -31.5t-83 29.5t-30 80.5zM512 657h471l-227 656zM836 1761q0 49 27.5 80t87.5 31q51 0 80.5 -31t29.5 -80q0 -47 -29.5 -78.5t-80.5 -31.5q-53 0 -84 31.5t-31 78.5z" />
<glyph unicode="&#xc5;" horiz-adv-x="1509" d="M4 0v96q47 25 92 39.5t66 16.5l459 1171q-18 2 -59.5 11t-84.5 32v109h393l478 -1325q29 -4 71.5 -17.5t85.5 -36.5v-96h-518v96q53 31 107.5 42.5t72.5 13.5l-137 376h-567l-144 -376q20 0 71.5 -14.5t109.5 -41.5v-96h-496zM498 1790q0 102 65 157.5t167 55.5 q104 0 168.5 -55.5t64.5 -157.5q0 -104 -64.5 -159.5t-168.5 -55.5q-102 0 -167 55.5t-65 159.5zM512 657h471l-227 656zM611 1790q0 -53 30 -88t89 -35q61 0 90.5 35t29.5 88q0 51 -29.5 87t-90.5 36q-59 0 -89 -36t-30 -87z" />
<glyph unicode="&#xc6;" horiz-adv-x="1916" d="M4 0v96q35 18 68.5 32.5t68.5 23.5l535 1171q-20 2 -61.5 11t-82.5 32v109h1264v-314h-119q-16 35 -26.5 65.5t-14.5 55.5q-6 29 -6 55h-491v-501h493v-129h-493v-570h528q0 27 6 58q4 27 14.5 60.5t28.5 70.5h117v-326h-1022v96q20 12 48 23.5t52 21.5q29 10 60 19v370 h-500l-170 -378q43 -6 80 -17.5t102 -38.5v-96h-479zM526 657h445v680h-144z" />
<glyph unicode="&#xc7;" horiz-adv-x="1353" d="M98 754q0 184 49.5 323.5t140.5 233.5t218 141t280 47q143 0 237.5 -28.5t151 -73.5t79 -101.5t22.5 -111.5q0 -49 -18.5 -90t-49.5 -70h-135v256q-51 45 -137 66.5t-170 21.5q-92 0 -180 -27.5t-158 -96t-112 -184.5t-42 -290q0 -172 45.5 -294t124 -198.5t184 -111.5 t226.5 -35q104 0 190 26.5t158 61.5l23 -149q-84 -43 -184.5 -68t-235.5 -29l-47 -98h20q55 0 94 -14.5t61.5 -37t33 -50t10.5 -54.5q0 -63 -27.5 -103t-71.5 -63.5t-101.5 -31.5t-114.5 -8q-25 0 -50.5 1t-48.5 3l-4 86q27 0 71 3t85 14t71.5 34.5t30.5 64.5 q0 31 -26.5 47.5t-67.5 16.5q-10 0 -21.5 -1t-21.5 -3l-39 49l47 152q-117 12 -223.5 62t-188 144.5t-130 234.5t-48.5 333z" />
<glyph unicode="&#xc8;" horiz-adv-x="1210" d="M84 0v96q18 12 46 23.5t52 21.5q29 10 62 19v1155q-33 8 -62 18q-25 10 -52.5 20.5t-45.5 24.5v97h1006v-355h-119q-16 35 -26.5 72t-14.5 70q-6 37 -6 75h-512v-501h516v-129h-516v-570h549q2 39 8 78q4 35 14 75t29 77h114v-367h-1042zM383 1849l129 113l314 -315 l-78 -66z" />
<glyph unicode="&#xc9;" horiz-adv-x="1210" d="M84 0v96q18 12 46 23.5t52 21.5q29 10 62 19v1155q-33 8 -62 18q-25 10 -52.5 20.5t-45.5 24.5v97h1006v-355h-119q-16 35 -26.5 72t-14.5 70q-6 37 -6 75h-512v-501h516v-129h-516v-570h549q2 39 8 78q4 35 14 75t29 77h114v-367h-1042zM444 1667l316 315l127 -112 l-363 -268z" />
<glyph unicode="&#xca;" horiz-adv-x="1210" d="M84 0v96q18 12 46 23.5t52 21.5q29 10 62 19v1155q-33 8 -62 18q-25 10 -52.5 20.5t-45.5 24.5v97h1006v-355h-119q-16 35 -26.5 72t-14.5 70q-6 37 -6 75h-512v-501h516v-129h-516v-570h549q2 39 8 78q4 35 14 75t29 77h114v-367h-1042zM277 1659l328 315l329 -315 l-63 -66l-266 185l-263 -185z" />
<glyph unicode="&#xcb;" horiz-adv-x="1210" d="M84 0v96q18 12 46 23.5t52 21.5q29 10 62 19v1155q-33 8 -62 18q-25 10 -52.5 20.5t-45.5 24.5v97h1006v-355h-119q-16 35 -26.5 72t-14.5 70q-6 37 -6 75h-512v-501h516v-129h-516v-570h549q2 39 8 78q4 35 14 75t29 77h114v-367h-1042zM281 1761q0 49 29.5 80t83.5 31 q53 0 82.5 -31t29.5 -80q0 -47 -29.5 -78.5t-82.5 -31.5t-83 29.5t-30 80.5zM703 1761q0 49 27.5 80t87.5 31q51 0 80.5 -31t29.5 -80q0 -47 -29.5 -78.5t-80.5 -31.5q-53 0 -84 31.5t-31 78.5z" />
<glyph unicode="&#xcc;" horiz-adv-x="671" d="M84 0v96q18 12 46 23.5t52 21.5q29 10 60 19v1198q-23 -10 -45 -19q-20 -8 -44 -13t-47 -5q-16 0 -22 2v152h483v-97q-20 -14 -46.5 -24.5t-51.5 -20.5q-29 -10 -59 -18v-1198q27 10 51 18q23 6 48.5 12.5t51.5 6.5q18 0 27 -2v-152h-504zM116 1849l129 113l314 -315 l-78 -66z" />
<glyph unicode="&#xcd;" horiz-adv-x="671" d="M84 0v96q18 12 46 23.5t52 21.5q29 10 60 19v1198q-23 -10 -45 -19q-20 -8 -44 -13t-47 -5q-16 0 -22 2v152h483v-97q-20 -14 -46.5 -24.5t-51.5 -20.5q-29 -10 -59 -18v-1198q27 10 51 18q23 6 48.5 12.5t51.5 6.5q18 0 27 -2v-152h-504zM117 1667l316 315l127 -112 l-363 -268z" />
<glyph unicode="&#xce;" horiz-adv-x="671" d="M10 1659l328 315l329 -315l-63 -66l-266 185l-263 -185zM84 0v96q18 12 46 23.5t52 21.5q29 10 60 19v1198q-23 -10 -45 -19q-20 -8 -44 -13t-47 -5q-16 0 -22 2v152h483v-97q-20 -14 -46.5 -24.5t-51.5 -20.5q-29 -10 -59 -18v-1198q27 10 51 18q23 6 48.5 12.5 t51.5 6.5q18 0 27 -2v-152h-504z" />
<glyph unicode="&#xcf;" horiz-adv-x="671" d="M66 1757q0 49 29.5 80t82.5 31t83 -31t30 -80q0 -47 -30 -78.5t-83 -31.5t-82.5 29.5t-29.5 80.5zM84 0v96q18 12 46 23.5t52 21.5q29 10 60 19v1198q-23 -10 -45 -19q-20 -8 -44 -13t-47 -5q-16 0 -22 2v152h483v-97q-20 -14 -46.5 -24.5t-51.5 -20.5q-29 -10 -59 -18 v-1198q27 10 51 18q23 6 48.5 12.5t51.5 6.5q18 0 27 -2v-152h-504zM426 1757q0 49 27.5 80t87.5 31q51 0 80.5 -31t29.5 -80q0 -47 -29.5 -78.5t-80.5 -31.5q-53 0 -84 31.5t-31 78.5z" />
<glyph unicode="&#xd0;" horiz-adv-x="1529" d="M84 711v110h168v477q-31 8 -59 19q-25 10 -52.5 21.5t-48.5 27.5v109h610q182 0 318.5 -49.5t227.5 -139.5t137.5 -218t46.5 -284q0 -199 -54.5 -346t-152 -244.5t-230.5 -145.5t-293 -48h-610v96q20 12 48 23.5t53 21.5q29 10 59 19v551h-168zM418 137h260 q133 0 240.5 38t182.5 115t114.5 193.5t39.5 272.5t-39.5 266.5t-114.5 180t-181.5 102t-241.5 32.5h-260v-516h426v-110h-426v-574z" />
<glyph unicode="&#xd1;" horiz-adv-x="1644" d="M84 0v96q18 12 46 23.5t52 21.5q29 10 60 19v1155q-31 8 -60 18q-25 10 -52.5 20.5t-45.5 24.5v97h350l819 -1211v1094q-23 -10 -45 -19q-20 -8 -43.5 -13t-46.5 -5q-16 0 -22 2v152h465v-97q-20 -14 -47 -24.5t-52 -20.5q-29 -10 -59 -18v-1315h-168l-844 1251v-1134 q27 10 51 18q23 6 48.5 12.5t52.5 6.5q18 0 26 -2v-152h-485zM463 1671q41 86 92 142.5t104 56.5q43 0 86 -14.5t84 -33t81 -32.5t81 -14q27 0 53.5 19.5t65.5 76.5l67 -51q-41 -86 -90 -140.5t-102 -54.5q-43 0 -85 14.5t-83 33t-82 32.5t-82 14q-27 0 -55.5 -21.5 t-67.5 -80.5z" />
<glyph unicode="&#xd2;" horiz-adv-x="1501" d="M98 737q0 178 44 319.5t129 240t206 150.5t275 52t274.5 -52t204.5 -150.5t128 -240t44 -319.5t-44 -319.5t-128 -239.5t-205 -151.5t-274 -53.5q-154 0 -275 53.5t-206 151.5t-129 239.5t-44 319.5zM281 737q0 -291 124 -455.5t347 -164.5t346 164.5t123 455.5 q0 293 -123 457t-346 164t-347 -164t-124 -457zM528 1849l129 113l314 -315l-78 -66z" />
<glyph unicode="&#xd3;" horiz-adv-x="1501" d="M98 737q0 178 44 319.5t129 240t206 150.5t275 52t274.5 -52t204.5 -150.5t128 -240t44 -319.5t-44 -319.5t-128 -239.5t-205 -151.5t-274 -53.5q-154 0 -275 53.5t-206 151.5t-129 239.5t-44 319.5zM281 737q0 -291 124 -455.5t347 -164.5t346 164.5t123 455.5 q0 293 -123 457t-346 164t-347 -164t-124 -457zM569 1667l316 315l127 -112l-363 -268z" />
<glyph unicode="&#xd4;" horiz-adv-x="1501" d="M98 737q0 178 44 319.5t129 240t206 150.5t275 52t274.5 -52t204.5 -150.5t128 -240t44 -319.5t-44 -319.5t-128 -239.5t-205 -151.5t-274 -53.5q-154 0 -275 53.5t-206 151.5t-129 239.5t-44 319.5zM281 737q0 -291 124 -455.5t347 -164.5t346 164.5t123 455.5 q0 293 -123 457t-346 164t-347 -164t-124 -457zM422 1659l328 315l329 -315l-63 -66l-266 185l-263 -185z" />
<glyph unicode="&#xd5;" horiz-adv-x="1501" d="M98 737q0 178 44 319.5t129 240t206 150.5t275 52t274.5 -52t204.5 -150.5t128 -240t44 -319.5t-44 -319.5t-128 -239.5t-205 -151.5t-274 -53.5q-154 0 -275 53.5t-206 151.5t-129 239.5t-44 319.5zM281 737q0 -291 124 -455.5t347 -164.5t346 164.5t123 455.5 q0 293 -123 457t-346 164t-347 -164t-124 -457zM394 1671q41 86 92 142.5t104 56.5q43 0 86 -14.5t84 -33t81 -32.5t81 -14q27 0 53.5 19.5t65.5 76.5l67 -51q-41 -86 -90 -140.5t-102 -54.5q-43 0 -85 14.5t-83 33t-82 32.5t-82 14q-27 0 -55.5 -21.5t-67.5 -80.5z" />
<glyph unicode="&#xd6;" horiz-adv-x="1501" d="M98 737q0 178 44 319.5t129 240t206 150.5t275 52t274.5 -52t204.5 -150.5t128 -240t44 -319.5t-44 -319.5t-128 -239.5t-205 -151.5t-274 -53.5q-154 0 -275 53.5t-206 151.5t-129 239.5t-44 319.5zM281 737q0 -291 124 -455.5t347 -164.5t346 164.5t123 455.5 q0 293 -123 457t-346 164t-347 -164t-124 -457zM428 1761q0 49 29.5 80t83.5 31q53 0 82.5 -31t29.5 -80q0 -47 -29.5 -78.5t-82.5 -31.5t-83 29.5t-30 80.5zM850 1761q0 49 27.5 80t87.5 31q51 0 80.5 -31t29.5 -80q0 -47 -29.5 -78.5t-80.5 -31.5q-53 0 -84 31.5t-31 78.5 z" />
<glyph unicode="&#xd7;" horiz-adv-x="1228" d="M115 188l401 377l-399 373l104 109l391 -388l396 388l104 -109l-403 -373l405 -377l-108 -94l-394 381l-389 -381z" />
<glyph unicode="&#xd8;" horiz-adv-x="1501" d="M98 727q0 182 42 325.5t124 243t204 151.5t284 52q129 0 231 -33.5t180 -97.5l119 158l90 -64l-133 -174q164 -199 164 -561q0 -178 -44 -318.5t-128 -236.5t-205 -147.5t-274 -51.5q-250 0 -416 131l-125 -161l-90 63l139 178q-162 197 -162 543zM274 727 q0 -248 91 -405l698 915q-61 63 -140 99t-171 36q-111 0 -199 -46t-150.5 -131t-95.5 -204t-33 -264zM430 231q61 -61 141.5 -95t180.5 -34q111 0 198.5 43t149 124t94.5 197t33 261q0 125 -25.5 229.5t-73.5 186.5z" />
<glyph unicode="&#xd9;" horiz-adv-x="1538" d="M51 1323v152h484v-97q-20 -14 -47 -24.5t-52 -20.5q-29 -10 -59 -18v-686q0 -147 21.5 -246.5t68.5 -161t119.5 -87t177.5 -25.5q100 0 178 24.5t130 83.5t79 158.5t27 249.5v733q-18 -10 -41 -19q-18 -8 -40 -13t-44 -5q-16 0 -23 2v152h457v-97q-20 -14 -47 -24.5 t-51 -20.5q-29 -10 -60 -18v-733q0 -313 -134 -461t-441 -148q-283 0 -414 143.5t-131 465.5v776q-23 -10 -45 -19q-20 -8 -44 -13t-46 -5q-16 0 -23 2zM546 1849l129 113l314 -315l-78 -66z" />
<glyph unicode="&#xda;" horiz-adv-x="1538" d="M51 1323v152h484v-97q-20 -14 -47 -24.5t-52 -20.5q-29 -10 -59 -18v-686q0 -147 21.5 -246.5t68.5 -161t119.5 -87t177.5 -25.5q100 0 178 24.5t130 83.5t79 158.5t27 249.5v733q-18 -10 -41 -19q-18 -8 -40 -13t-44 -5q-16 0 -23 2v152h457v-97q-20 -14 -47 -24.5 t-51 -20.5q-29 -10 -60 -18v-733q0 -313 -134 -461t-441 -148q-283 0 -414 143.5t-131 465.5v776q-23 -10 -45 -19q-20 -8 -44 -13t-46 -5q-16 0 -23 2zM649 1667l316 315l127 -112l-363 -268z" />
<glyph unicode="&#xdb;" horiz-adv-x="1538" d="M51 1323v152h484v-97q-20 -14 -47 -24.5t-52 -20.5q-29 -10 -59 -18v-686q0 -147 21.5 -246.5t68.5 -161t119.5 -87t177.5 -25.5q100 0 178 24.5t130 83.5t79 158.5t27 249.5v733q-18 -10 -41 -19q-18 -8 -40 -13t-44 -5q-16 0 -23 2v152h457v-97q-20 -14 -47 -24.5 t-51 -20.5q-29 -10 -60 -18v-733q0 -313 -134 -461t-441 -148q-283 0 -414 143.5t-131 465.5v776q-23 -10 -45 -19q-20 -8 -44 -13t-46 -5q-16 0 -23 2zM440 1659l328 315l329 -315l-63 -66l-266 185l-263 -185z" />
<glyph unicode="&#xdc;" horiz-adv-x="1538" d="M51 1323v152h484v-97q-20 -14 -47 -24.5t-52 -20.5q-29 -10 -59 -18v-686q0 -147 21.5 -246.5t68.5 -161t119.5 -87t177.5 -25.5q100 0 178 24.5t130 83.5t79 158.5t27 249.5v733q-18 -10 -41 -19q-18 -8 -40 -13t-44 -5q-16 0 -23 2v152h457v-97q-20 -14 -47 -24.5 t-51 -20.5q-29 -10 -60 -18v-733q0 -313 -134 -461t-441 -148q-283 0 -414 143.5t-131 465.5v776q-23 -10 -45 -19q-20 -8 -44 -13t-46 -5q-16 0 -23 2zM459 1761q0 49 29.5 80t83.5 31q53 0 82.5 -31t29.5 -80q0 -47 -29.5 -78.5t-82.5 -31.5t-83 29.5t-30 80.5zM881 1761 q0 49 27.5 80t87.5 31q51 0 80.5 -31t29.5 -80q0 -47 -29.5 -78.5t-80.5 -31.5q-53 0 -84 31.5t-31 78.5z" />
<glyph unicode="&#xdd;" horiz-adv-x="1466" d="M16 1323v152h529v-97q-20 -14 -47 -24.5t-52 -18.5q-29 -8 -59 -16l371 -602l413 635q-20 -10 -65 -20.5t-90 -10.5q-20 0 -29 2v152h463v-97q-20 -14 -47 -24.5t-51 -20.5q-29 -10 -60 -18l-477 -721v-477q27 10 53 18q23 6 49.5 12.5t51.5 6.5q16 0 24 -2v-152h-504v96 q20 12 47 23.5t52 21.5q29 10 59 19v428l-479 758q-20 -10 -56 -17.5t-69 -7.5q-18 0 -27 2zM624 1667l316 315l127 -112l-363 -268z" />
<glyph unicode="&#xde;" horiz-adv-x="1177" d="M84 0v96q18 12 46 23.5t52 21.5q29 10 60 19v1198q-23 -10 -45 -19q-20 -8 -44 -13t-47 -5q-16 0 -22 2v152h483v-97q-20 -14 -46.5 -24.5t-51.5 -20.5q-29 -10 -59 -18v-127h190q260 0 381 -99.5t121 -314.5q0 -104 -37 -189t-103.5 -143.5t-158.5 -90.5t-203 -32h-190 v-202q29 10 59 18q27 6 57.5 12.5t61.5 6.5q20 0 30 -2v-152h-534zM410 453h153q168 0 265.5 78.5t97.5 234.5q0 154 -88 220.5t-275 66.5h-153v-600z" />
<glyph unicode="&#xdf;" horiz-adv-x="1310" d="M68 0v96q20 12 42.5 23.5t45.5 21.5t49 19v938q0 133 22.5 237.5t80 176t156.5 109.5t251 38q190 0 292.5 -78t102.5 -219q0 -57 -25.5 -106.5t-64.5 -92.5t-83 -79.5t-83 -69.5t-64.5 -63.5t-25.5 -59.5q0 -49 36 -91t90 -82t116.5 -82t117 -92t90 -112.5t35.5 -142.5 q0 -63 -23.5 -120.5t-70.5 -100.5t-117.5 -69t-165.5 -26q-88 0 -161.5 11.5t-118.5 33.5v117h233q59 0 106.5 5t79 20.5t48 43t16.5 72.5q0 55 -34.5 101.5t-86 89.5t-113 85t-112.5 87t-86 95t-35 110q0 61 24.5 108t61.5 87t79 76t79 72t61.5 77t24.5 92q0 92 -60.5 138 t-177.5 46q-170 0 -248.5 -94t-78.5 -309v-1137h-305z" />
<glyph unicode="&#xe0;" horiz-adv-x="1243" d="M129 315q0 88 35 151.5t118 106.5t221 66t347 33v119q0 39 -12.5 79.5t-42 72.5t-79.5 52.5t-126 20.5q-82 0 -138.5 -17.5t-99.5 -37.5v-203h-133q-16 23 -25.5 54.5t-9.5 66.5q0 45 20.5 92t69 85t129 62.5t203.5 24.5q207 0 306.5 -99.5t99.5 -281.5v-645h153v-105 q-23 -20 -58.5 -29.5t-70.5 -9.5q-78 0 -126 43t-48 136v18t2 18h-10q-14 -37 -43 -75.5t-72 -69.5t-100 -50.5t-131 -19.5q-186 0 -282.5 93.5t-96.5 248.5zM299 330q0 -123 64.5 -172t168.5 -49q66 0 123.5 24.5t100.5 65.5t68.5 94t25.5 113v149q-68 -4 -139.5 -10 t-139 -17.5t-128 -25t-105.5 -27.5q-16 -25 -27.5 -61.5t-11.5 -83.5zM401 1513l129 113l314 -315l-78 -66z" />
<glyph unicode="&#xe1;" horiz-adv-x="1243" d="M129 315q0 88 35 151.5t118 106.5t221 66t347 33v119q0 39 -12.5 79.5t-42 72.5t-79.5 52.5t-126 20.5q-82 0 -138.5 -17.5t-99.5 -37.5v-203h-133q-16 23 -25.5 54.5t-9.5 66.5q0 45 20.5 92t69 85t129 62.5t203.5 24.5q207 0 306.5 -99.5t99.5 -281.5v-645h153v-105 q-23 -20 -58.5 -29.5t-70.5 -9.5q-78 0 -126 43t-48 136v18t2 18h-10q-14 -37 -43 -75.5t-72 -69.5t-100 -50.5t-131 -19.5q-186 0 -282.5 93.5t-96.5 248.5zM299 330q0 -123 64.5 -172t168.5 -49q66 0 123.5 24.5t100.5 65.5t68.5 94t25.5 113v149q-68 -4 -139.5 -10 t-139 -17.5t-128 -25t-105.5 -27.5q-16 -25 -27.5 -61.5t-11.5 -83.5zM401 1311l316 315l127 -113l-363 -268z" />
<glyph unicode="&#xe2;" horiz-adv-x="1243" d="M129 315q0 88 35 151.5t118 106.5t221 66t347 33v119q0 39 -12.5 79.5t-42 72.5t-79.5 52.5t-126 20.5q-82 0 -138.5 -17.5t-99.5 -37.5v-203h-133q-16 23 -25.5 54.5t-9.5 66.5q0 45 20.5 92t69 85t129 62.5t203.5 24.5q207 0 306.5 -99.5t99.5 -281.5v-645h153v-105 q-23 -20 -58.5 -29.5t-70.5 -9.5q-78 0 -126 43t-48 136v18t2 18h-10q-14 -37 -43 -75.5t-72 -69.5t-100 -50.5t-131 -19.5q-186 0 -282.5 93.5t-96.5 248.5zM273 1311l328 315l329 -315l-63 -66l-266 185l-263 -185zM299 330q0 -123 64.5 -172t168.5 -49q66 0 123.5 24.5 t100.5 65.5t68.5 94t25.5 113v149q-68 -4 -139.5 -10t-139 -17.5t-128 -25t-105.5 -27.5q-16 -25 -27.5 -61.5t-11.5 -83.5z" />
<glyph unicode="&#xe3;" horiz-adv-x="1243" d="M129 315q0 88 35 151.5t118 106.5t221 66t347 33v119q0 39 -12.5 79.5t-42 72.5t-79.5 52.5t-126 20.5q-82 0 -138.5 -17.5t-99.5 -37.5v-203h-133q-16 23 -25.5 54.5t-9.5 66.5q0 45 20.5 92t69 85t129 62.5t203.5 24.5q207 0 306.5 -99.5t99.5 -281.5v-645h153v-105 q-23 -20 -58.5 -29.5t-70.5 -9.5q-78 0 -126 43t-48 136v18t2 18h-10q-14 -37 -43 -75.5t-72 -69.5t-100 -50.5t-131 -19.5q-186 0 -282.5 93.5t-96.5 248.5zM244 1356q41 86 92.5 142t104.5 56q43 0 86 -14t84 -32.5t81 -33t81 -14.5q27 0 53 19.5t65 76.5l68 -51 q-41 -86 -90 -140t-103 -54q-43 0 -85 14t-82.5 32.5t-81.5 33t-82 14.5q-27 0 -55.5 -21.5t-67.5 -80.5zM299 330q0 -123 64.5 -172t168.5 -49q66 0 123.5 24.5t100.5 65.5t68.5 94t25.5 113v149q-68 -4 -139.5 -10t-139 -17.5t-128 -25t-105.5 -27.5q-16 -25 -27.5 -61.5 t-11.5 -83.5z" />
<glyph unicode="&#xe4;" horiz-adv-x="1243" d="M129 315q0 88 35 151.5t118 106.5t221 66t347 33v119q0 39 -12.5 79.5t-42 72.5t-79.5 52.5t-126 20.5q-82 0 -138.5 -17.5t-99.5 -37.5v-203h-133q-16 23 -25.5 54.5t-9.5 66.5q0 45 20.5 92t69 85t129 62.5t203.5 24.5q207 0 306.5 -99.5t99.5 -281.5v-645h153v-105 q-23 -20 -58.5 -29.5t-70.5 -9.5q-78 0 -126 43t-48 136v18t2 18h-10q-14 -37 -43 -75.5t-72 -69.5t-100 -50.5t-131 -19.5q-186 0 -282.5 93.5t-96.5 248.5zM289 1434q0 49 29.5 79.5t83.5 30.5q53 0 82.5 -30.5t29.5 -79.5q0 -47 -29.5 -79t-82.5 -32t-83 29.5t-30 81.5z M299 330q0 -123 64.5 -172t168.5 -49q66 0 123.5 24.5t100.5 65.5t68.5 94t25.5 113v149q-68 -4 -139.5 -10t-139 -17.5t-128 -25t-105.5 -27.5q-16 -25 -27.5 -61.5t-11.5 -83.5zM711 1434q0 49 27.5 79.5t87.5 30.5q51 0 80.5 -30.5t29.5 -79.5q0 -47 -29.5 -79t-80.5 -32 q-53 0 -84 31.5t-31 79.5z" />
<glyph unicode="&#xe5;" horiz-adv-x="1243" d="M129 315q0 88 35 151.5t118 106.5t221 66t347 33v119q0 39 -12.5 79.5t-42 72.5t-79.5 52.5t-126 20.5q-82 0 -138.5 -17.5t-99.5 -37.5v-203h-133q-16 23 -25.5 54.5t-9.5 66.5q0 45 20.5 92t69 85t129 62.5t203.5 24.5q207 0 306.5 -99.5t99.5 -281.5v-645h153v-105 q-23 -20 -58.5 -29.5t-70.5 -9.5q-78 0 -126 43t-48 136v18t2 18h-10q-14 -37 -43 -75.5t-72 -69.5t-100 -50.5t-131 -19.5q-186 0 -282.5 93.5t-96.5 248.5zM299 330q0 -123 64.5 -172t168.5 -49q66 0 123.5 24.5t100.5 65.5t68.5 94t25.5 113v149q-68 -4 -139.5 -10 t-139 -17.5t-128 -25t-105.5 -27.5q-16 -25 -27.5 -61.5t-11.5 -83.5zM389 1474q0 102 65 157.5t167 55.5q104 0 168.5 -55.5t64.5 -157.5q0 -104 -64.5 -159.5t-168.5 -55.5q-102 0 -167 55.5t-65 159.5zM502 1474q0 -53 30 -88t89 -35q61 0 90.5 35t29.5 88q0 51 -29.5 87 t-90.5 36q-59 0 -89 -36t-30 -87z" />
<glyph unicode="&#xe6;" horiz-adv-x="1824" d="M129 315q0 88 34 150.5t113.5 102.5t214 61.5t334.5 29.5v132q0 39 -12 79.5t-42 72.5t-80 52.5t-126 20.5q-72 0 -124 -17.5t-91 -37.5v-203h-133q-33 45 -33 121q0 45 18.5 92t64.5 85t122 62.5t193 24.5q276 0 362 -180q74 98 177.5 139t211.5 41q94 0 167 -29 t122 -80t74.5 -120.5t25.5 -151.5q0 -72 -18 -152q-121 -35 -246 -50t-254 -15q-53 0 -105 2t-106 6q2 -119 35 -203t85 -136t122 -76.5t147 -24.5q86 0 145.5 15t119.5 42l30 -129q-39 -16 -74.5 -29.5t-73.5 -21.5t-80 -12.5t-93 -4.5q-156 0 -274.5 64.5t-186.5 189.5 q-27 -51 -64.5 -97t-86 -81t-107.5 -55.5t-131 -20.5q-186 0 -281.5 93.5t-95.5 248.5zM297 330q0 -123 64.5 -172t166.5 -49q61 0 115.5 24.5t94.5 65.5t63.5 94t23.5 113v139q-66 -4 -133 -9.5t-131.5 -13.5t-122 -20.5t-102.5 -26.5q-16 -25 -27.5 -61.5t-11.5 -83.5z M997 657q39 -2 77 -3t77 -1q102 0 203.5 11.5t204.5 46.5q2 14 3 27.5t1 25.5q0 51 -15.5 97t-46.5 82t-76 56.5t-106 20.5q-84 0 -142.5 -27.5t-96.5 -76t-57 -115t-26 -144.5z" />
<glyph unicode="&#xe7;" horiz-adv-x="1097" d="M106 559q0 143 37 253t105.5 183.5t167 110.5t219.5 37q109 0 180.5 -22.5t114.5 -57.5t60.5 -79t17.5 -87q0 -41 -11.5 -79t-31.5 -60h-134v198q-33 31 -92 45.5t-118 14.5q-68 0 -130.5 -20.5t-110.5 -69.5t-77 -133t-29 -209q0 -131 33 -220.5t88.5 -144.5t127 -79.5 t149.5 -24.5q92 0 164.5 24.5t124.5 50.5l36 -124q-61 -35 -150 -64t-183 -29l-41 -98h20q55 0 94 -14.5t61.5 -37t33 -50t10.5 -54.5q0 -63 -28 -103t-72 -63.5t-101 -31.5t-115 -8q-25 0 -50 1t-48 3l-4 86q27 0 71 3t85 14t71.5 34.5t30.5 64.5q0 31 -26.5 47.5 t-67.5 16.5q-10 0 -21.5 -1t-21.5 -3l-39 49l49 154q-207 27 -328 170t-121 407z" />
<glyph unicode="&#xe8;" horiz-adv-x="1124" d="M106 537q0 172 46.5 287.5t121 186t169 101.5t192.5 31q94 0 166.5 -29t122 -80t74 -120.5t24.5 -151.5q0 -35 -3 -73t-13 -79q-123 -35 -252 -50t-262 -15q-53 0 -108.5 2t-109.5 6q2 -119 33 -203t83 -136t124 -75.5t158 -23.5q92 0 164.5 23.5t124.5 51.5l36 -124 q-61 -35 -148 -64t-187 -29q-125 0 -227.5 38t-175.5 110t-113 176t-40 240zM276 657q41 -2 80 -3t80 -1q106 0 212 11.5t212 46.5q2 12 3 25.5t1 25.5q0 51 -15 98t-46 82t-76 56.5t-104 21.5q-90 0 -153.5 -27.5t-104.5 -76t-62.5 -115t-26.5 -144.5zM340 1513l129 113 l314 -315l-78 -66z" />
<glyph unicode="&#xe9;" horiz-adv-x="1124" d="M106 537q0 172 46.5 287.5t121 186t169 101.5t192.5 31q94 0 166.5 -29t122 -80t74 -120.5t24.5 -151.5q0 -35 -3 -73t-13 -79q-123 -35 -252 -50t-262 -15q-53 0 -108.5 2t-109.5 6q2 -119 33 -203t83 -136t124 -75.5t158 -23.5q92 0 164.5 23.5t124.5 51.5l36 -124 q-61 -35 -148 -64t-187 -29q-125 0 -227.5 38t-175.5 110t-113 176t-40 240zM276 657q41 -2 80 -3t80 -1q106 0 212 11.5t212 46.5q2 12 3 25.5t1 25.5q0 51 -15 98t-46 82t-76 56.5t-104 21.5q-90 0 -153.5 -27.5t-104.5 -76t-62.5 -115t-26.5 -144.5zM401 1311l316 315 l127 -113l-363 -268z" />
<glyph unicode="&#xea;" horiz-adv-x="1124" d="M106 537q0 172 46.5 287.5t121 186t169 101.5t192.5 31q94 0 166.5 -29t122 -80t74 -120.5t24.5 -151.5q0 -35 -3 -73t-13 -79q-123 -35 -252 -50t-262 -15q-53 0 -108.5 2t-109.5 6q2 -119 33 -203t83 -136t124 -75.5t158 -23.5q92 0 164.5 23.5t124.5 51.5l36 -124 q-61 -35 -148 -64t-187 -29q-125 0 -227.5 38t-175.5 110t-113 176t-40 240zM275 1311l328 315l329 -315l-63 -66l-266 185l-263 -185zM276 657q41 -2 80 -3t80 -1q106 0 212 11.5t212 46.5q2 12 3 25.5t1 25.5q0 51 -15 98t-46 82t-76 56.5t-104 21.5q-90 0 -153.5 -27.5 t-104.5 -76t-62.5 -115t-26.5 -144.5z" />
<glyph unicode="&#xeb;" horiz-adv-x="1124" d="M106 537q0 172 46.5 287.5t121 186t169 101.5t192.5 31q94 0 166.5 -29t122 -80t74 -120.5t24.5 -151.5q0 -35 -3 -73t-13 -79q-123 -35 -252 -50t-262 -15q-53 0 -108.5 2t-109.5 6q2 -119 33 -203t83 -136t124 -75.5t158 -23.5q92 0 164.5 23.5t124.5 51.5l36 -124 q-61 -35 -148 -64t-187 -29q-125 0 -227.5 38t-175.5 110t-113 176t-40 240zM276 657q41 -2 80 -3t80 -1q106 0 212 11.5t212 46.5q2 12 3 25.5t1 25.5q0 51 -15 98t-46 82t-76 56.5t-104 21.5q-90 0 -153.5 -27.5t-104.5 -76t-62.5 -115t-26.5 -144.5zM289 1434 q0 49 29.5 79.5t83.5 30.5q53 0 82.5 -30.5t29.5 -79.5q0 -47 -29.5 -79t-82.5 -32t-83 29.5t-30 81.5zM711 1434q0 49 27.5 79.5t87.5 30.5q51 0 80.5 -30.5t29.5 -79.5q0 -47 -29.5 -79t-80.5 -32q-53 0 -84 31.5t-31 79.5z" />
<glyph unicode="&#xec;" horiz-adv-x="626" d="M79 1513l129 113l314 -315l-78 -66zM86 1006v112h305v-999q16 8 39 16q16 6 40 12.5t48 6.5h13.5t13.5 -2v-152h-447v96q18 12 42 23.5t44 21.5q23 10 49 19v803q-25 2 -47 8q-23 4 -47 12t-53 23z" />
<glyph unicode="&#xed;" horiz-adv-x="626" d="M86 1006v112h305v-999q16 8 39 16q16 6 40 12.5t48 6.5h13.5t13.5 -2v-152h-447v96q18 12 42 23.5t44 21.5q23 10 49 19v803q-25 2 -47 8q-23 4 -47 12t-53 23zM141 1311l316 315l127 -113l-363 -268z" />
<glyph unicode="&#xee;" horiz-adv-x="626" d="M-47 1311l328 315l329 -315l-63 -66l-266 185l-263 -185zM86 1006v112h305v-999q16 8 39 16q16 6 40 12.5t48 6.5h13.5t13.5 -2v-152h-447v96q18 12 42 23.5t44 21.5q23 10 49 19v803q-25 2 -47 8q-23 4 -47 12t-53 23z" />
<glyph unicode="&#xef;" horiz-adv-x="626" d="M10 1452q0 49 30 80t83 31t83 -31t30 -80q0 -47 -30 -79t-83 -32t-83 30t-30 81zM86 1006v112h305v-999q16 8 39 16q16 6 40 12.5t48 6.5h13.5t13.5 -2v-152h-447v96q18 12 42 23.5t44 21.5q23 10 49 19v803q-25 2 -47 8q-23 4 -47 12t-53 23zM350 1452q0 49 28 80t87 31 q51 0 80.5 -31t29.5 -80q0 -47 -29.5 -79t-80.5 -32q-53 0 -84 32t-31 79z" />
<glyph unicode="&#xf0;" horiz-adv-x="1247" d="M106 537q0 129 33 232t94.5 176t149.5 112t199 39q102 0 177 -24.5t134 -70.5q-41 98 -102.5 187.5t-151.5 161.5l-242 -136l-49 82l207 115q-55 35 -117.5 64.5t-134.5 52.5l37 106q90 -23 178 -59.5t166 -89.5l266 149l51 -82l-229 -131q82 -66 149.5 -148.5 t116.5 -186t76 -228.5t27 -270q0 -141 -34 -255t-100.5 -194t-167 -123t-231.5 -43q-121 0 -214 41t-156.5 115t-97.5 177.5t-34 230.5zM279 541q0 -102 20 -184.5t62 -140.5t105.5 -90t151.5 -32q94 0 162 38t111 101.5t62.5 147.5t19.5 178q0 121 -25 236q-51 72 -136 122 t-198 50q-90 0 -153.5 -32t-104.5 -89.5t-59 -135t-18 -169.5z" />
<glyph unicode="&#xf1;" horiz-adv-x="1366" d="M84 1006v112h309v-92q0 -53 -8 -87l-20 -85h8q12 51 42.5 102.5t81 92.5t120 67.5t159.5 26.5q74 0 139.5 -18.5t113.5 -56.5t77 -95.5t29 -136.5v-717q18 8 41 16q18 6 41.5 12.5t46.5 6.5q16 0 24 -2v-152h-452v96q25 16 49 28.5t45 20.5q23 8 45 15v741 q-33 41 -90.5 73t-130.5 32q-92 0 -161 -29t-113 -80t-65.5 -123t-21.5 -158v-497q20 8 43 16q18 6 41 12.5t45 6.5q16 0 25 -2v-152h-451v96q23 16 47.5 28.5t44.5 20.5q23 8 45 15v803q-23 0 -45 6q-20 4 -46.5 12t-57.5 25zM325 1356q41 86 92.5 142t104.5 56 q43 0 86 -14t84 -32.5t81 -33t81 -14.5q27 0 53 19.5t65 76.5l68 -51q-41 -86 -90 -140t-103 -54q-43 0 -85 14t-82.5 32.5t-81.5 33t-82 14.5q-27 0 -55.5 -21.5t-67.5 -80.5z" />
<glyph unicode="&#xf2;" horiz-adv-x="1259" d="M106 551q0 285 131.5 438.5t393.5 153.5q258 0 390 -153.5t132 -438.5q0 -274 -137 -426t-385 -152q-250 0 -387.5 151.5t-137.5 426.5zM274 551q0 -217 91.5 -337t265.5 -120q168 0 260 120t92 337q0 219 -93 346t-259 127q-170 0 -263.5 -127t-93.5 -346zM407 1513 l129 113l314 -315l-78 -66z" />
<glyph unicode="&#xf3;" horiz-adv-x="1259" d="M106 551q0 285 131.5 438.5t393.5 153.5q258 0 390 -153.5t132 -438.5q0 -274 -137 -426t-385 -152q-250 0 -387.5 151.5t-137.5 426.5zM274 551q0 -217 91.5 -337t265.5 -120q168 0 260 120t92 337q0 219 -93 346t-259 127q-170 0 -263.5 -127t-93.5 -346zM448 1311 l316 315l127 -113l-363 -268z" />
<glyph unicode="&#xf4;" horiz-adv-x="1259" d="M106 551q0 285 131.5 438.5t393.5 153.5q258 0 390 -153.5t132 -438.5q0 -274 -137 -426t-385 -152q-250 0 -387.5 151.5t-137.5 426.5zM274 551q0 -217 91.5 -337t265.5 -120q168 0 260 120t92 337q0 219 -93 346t-259 127q-170 0 -263.5 -127t-93.5 -346zM301 1311 l328 315l329 -315l-63 -66l-266 185l-263 -185z" />
<glyph unicode="&#xf5;" horiz-adv-x="1259" d="M106 551q0 285 131.5 438.5t393.5 153.5q258 0 390 -153.5t132 -438.5q0 -274 -137 -426t-385 -152q-250 0 -387.5 151.5t-137.5 426.5zM272 1356q41 86 92.5 142t104.5 56q43 0 86 -14t84 -32.5t81 -33t81 -14.5q27 0 53 19.5t65 76.5l68 -51q-41 -86 -90 -140t-103 -54 q-43 0 -85 14t-82.5 32.5t-81.5 33t-82 14.5q-27 0 -55.5 -21.5t-67.5 -80.5zM274 551q0 -217 91.5 -337t265.5 -120q168 0 260 120t92 337q0 219 -93 346t-259 127q-170 0 -263.5 -127t-93.5 -346z" />
<glyph unicode="&#xf6;" horiz-adv-x="1259" d="M106 551q0 285 131.5 438.5t393.5 153.5q258 0 390 -153.5t132 -438.5q0 -274 -137 -426t-385 -152q-250 0 -387.5 151.5t-137.5 426.5zM274 551q0 -217 91.5 -337t265.5 -120q168 0 260 120t92 337q0 219 -93 346t-259 127q-170 0 -263.5 -127t-93.5 -346zM326 1434 q0 49 29.5 79.5t83.5 30.5q53 0 82.5 -30.5t29.5 -79.5q0 -47 -29.5 -79t-82.5 -32t-83 29.5t-30 81.5zM748 1434q0 49 27.5 79.5t87.5 30.5q51 0 80.5 -30.5t29.5 -79.5q0 -47 -29.5 -79t-80.5 -32q-53 0 -84 31.5t-31 79.5z" />
<glyph unicode="&#xf7;" horiz-adv-x="1228" d="M84 504v129h1059v-129h-1059zM489 252q0 51 35 88t88 37t89 -37t36 -88q0 -53 -35.5 -89t-89.5 -36q-53 0 -88 36t-35 89zM489 885q0 53 35 88t88 35t89 -35t36 -88t-35.5 -88t-89.5 -35q-53 0 -88 35t-35 88z" />
<glyph unicode="&#xf8;" horiz-adv-x="1257" d="M106 551q0 285 130.5 438.5t392.5 153.5q86 0 158.5 -18.5t130.5 -53.5l96 129l73 -53l-98 -131q78 -74 120 -191.5t42 -273.5q0 -274 -137 -426t-385 -152q-102 0 -187.5 27t-148.5 76l-103 -137l-73 53l110 149q-121 150 -121 410zM276 551q0 -170 52 -275l503 678 q-86 70 -202 70q-170 0 -261.5 -127t-91.5 -346zM381 195q88 -101 248 -101q170 0 261 120t91 337q0 104 -22.5 189t-63.5 147z" />
<glyph unicode="&#xf9;" horiz-adv-x="1353" d="M63 1006v112h320v-901q35 -41 92 -72.5t131 -31.5q76 0 140.5 24.5t110.5 65.5t71.5 94t25.5 113v546q-23 2 -49 11q-23 6 -52.5 14t-57.5 25v112h319v-1001h154v-105q-23 -20 -57.5 -29.5t-69.5 -9.5q-80 0 -129 43t-49 138v16t2 18h-11q-16 -37 -44.5 -75.5 t-73.5 -69.5t-106.5 -50.5t-143.5 -19.5q-74 0 -139.5 18.5t-114.5 56.5t-78 96.5t-29 138.5v673q-25 2 -51 11q-23 6 -52.5 14t-58.5 25zM458 1513l129 113l314 -315l-78 -66z" />
<glyph unicode="&#xfa;" horiz-adv-x="1353" d="M63 1006v112h320v-901q35 -41 92 -72.5t131 -31.5q76 0 140.5 24.5t110.5 65.5t71.5 94t25.5 113v546q-23 2 -49 11q-23 6 -52.5 14t-57.5 25v112h319v-1001h154v-105q-23 -20 -57.5 -29.5t-69.5 -9.5q-80 0 -129 43t-49 138v16t2 18h-11q-16 -37 -44.5 -75.5 t-73.5 -69.5t-106.5 -50.5t-143.5 -19.5q-74 0 -139.5 18.5t-114.5 56.5t-78 96.5t-29 138.5v673q-25 2 -51 11q-23 6 -52.5 14t-58.5 25zM479 1311l316 315l127 -113l-363 -268z" />
<glyph unicode="&#xfb;" horiz-adv-x="1353" d="M63 1006v112h320v-901q35 -41 92 -72.5t131 -31.5q76 0 140.5 24.5t110.5 65.5t71.5 94t25.5 113v546q-23 2 -49 11q-23 6 -52.5 14t-57.5 25v112h319v-1001h154v-105q-23 -20 -57.5 -29.5t-69.5 -9.5q-80 0 -129 43t-49 138v16t2 18h-11q-16 -37 -44.5 -75.5 t-73.5 -69.5t-106.5 -50.5t-143.5 -19.5q-74 0 -139.5 18.5t-114.5 56.5t-78 96.5t-29 138.5v673q-25 2 -51 11q-23 6 -52.5 14t-58.5 25zM311 1311l328 315l329 -315l-63 -66l-266 185l-263 -185z" />
<glyph unicode="&#xfc;" horiz-adv-x="1353" d="M63 1006v112h320v-901q35 -41 92 -72.5t131 -31.5q76 0 140.5 24.5t110.5 65.5t71.5 94t25.5 113v546q-23 2 -49 11q-23 6 -52.5 14t-57.5 25v112h319v-1001h154v-105q-23 -20 -57.5 -29.5t-69.5 -9.5q-80 0 -129 43t-49 138v16t2 18h-11q-16 -37 -44.5 -75.5 t-73.5 -69.5t-106.5 -50.5t-143.5 -19.5q-74 0 -139.5 18.5t-114.5 56.5t-78 96.5t-29 138.5v673q-25 2 -51 11q-23 6 -52.5 14t-58.5 25zM336 1434q0 49 29.5 79.5t83.5 30.5q53 0 82.5 -30.5t29.5 -79.5q0 -47 -29.5 -79t-82.5 -32t-83 29.5t-30 81.5zM758 1434 q0 49 27.5 79.5t87.5 30.5q51 0 80.5 -30.5t29.5 -79.5q0 -47 -29.5 -79t-80.5 -32q-53 0 -84 31.5t-31 79.5z" />
<glyph unicode="&#xfd;" horiz-adv-x="1255" d="M10 967v151h469v-98q-51 -25 -89 -33t-54 -10l311 -832l291 846q-20 -8 -41 -14q-18 -4 -38.5 -8t-43.5 -4q-20 0 -29 2v151h449v-98q-45 -23 -79 -31t-64 -12l-396 -1053q-29 -74 -61.5 -149.5t-76.5 -136t-100.5 -98.5t-129.5 -38q-53 0 -94 8.5t-76 30.5v123h237 q66 18 106 105.5t87 230.5h-51l-387 987q-16 -6 -46 -14t-63 -8q-20 0 -31 2zM483 1311l316 315l127 -113l-363 -268z" />
<glyph unicode="&#xfe;" horiz-adv-x="1329" d="M86 1526v112h307v-612q0 -31 -8 -80t-20 -92h10q12 51 43 102.5t80 92.5t118.5 67.5t159.5 26.5q109 0 192 -41t140 -114t86 -172t29 -218q0 -145 -41 -261t-119 -197t-189.5 -124t-255.5 -43q-106 0 -225 31v-369q25 8 51 17q23 6 51.5 12t59.5 6h16.5t16.5 -2v-151 h-492v92q49 35 94 51l46 16v1807q-23 2 -46 8q-20 4 -46.5 12t-57.5 23zM393 123q47 -10 93 -15.5t89 -5.5q100 0 187.5 26t152 82t101.5 147.5t37 222.5q0 90 -18.5 167.5t-58.5 134t-102.5 89.5t-150.5 33q-84 0 -146.5 -30t-103.5 -81t-60.5 -123t-19.5 -154v-493z" />
<glyph unicode="&#xff;" horiz-adv-x="1255" d="M10 967v151h469v-98q-51 -25 -89 -33t-54 -10l311 -832l291 846q-20 -8 -41 -14q-18 -4 -38.5 -8t-43.5 -4q-20 0 -29 2v151h449v-98q-45 -23 -79 -31t-64 -12l-396 -1053q-29 -74 -61.5 -149.5t-76.5 -136t-100.5 -98.5t-129.5 -38q-53 0 -94 8.5t-76 30.5v123h237 q66 18 106 105.5t87 230.5h-51l-387 987q-16 -6 -46 -14t-63 -8q-20 0 -31 2zM326 1434q0 49 29.5 79.5t83.5 30.5q53 0 82.5 -30.5t29.5 -79.5q0 -47 -29.5 -79t-82.5 -32t-83 29.5t-30 81.5zM748 1434q0 49 27.5 79.5t87.5 30.5q51 0 80.5 -30.5t29.5 -79.5 q0 -47 -29.5 -79t-80.5 -32q-53 0 -84 31.5t-31 79.5z" />
<glyph unicode="&#x152;" horiz-adv-x="2052" d="M98 727q0 182 41 325.5t121 243t197.5 151.5t271.5 52q229 0 375 -119v95h823v-314h-117q-16 35 -26 65.5t-15 55.5q-6 29 -6 55h-491v-501h493v-129h-493v-570h528q0 27 6 58q4 27 14.5 60.5t28.5 70.5h119v-326h-864v96q-152 -123 -375 -123q-150 0 -266.5 51.5 t-197.5 147.5t-124 236.5t-43 318.5zM274 727q0 -145 31 -262t89.5 -198t143.5 -124t191 -43q123 0 218 43t157 125v920q-61 86 -156.5 132t-218.5 46q-106 0 -190 -45t-142.5 -129t-90.5 -202t-32 -263z" />
<glyph unicode="&#x153;" horiz-adv-x="1955" d="M106 551q0 285 126 438.5t386 153.5q150 0 259.5 -59.5t171.5 -170.5q72 125 185.5 177.5t231.5 52.5q94 0 167 -29t122 -80t73.5 -120.5t24.5 -151.5q0 -35 -3 -73t-13 -79q-117 -37 -242 -50t-254 -13q-104 0 -211 6q2 -119 31 -203t83 -136t129 -76.5t169 -24.5 q86 0 145.5 15t118.5 42l31 -129q-39 -16 -75 -29.5t-74.5 -21.5t-84 -12.5t-102.5 -4.5q-141 0 -263 58.5t-189 169.5q-61 -111 -174 -169.5t-257 -58.5q-248 0 -380 151.5t-132 426.5zM279 551q0 -217 83.5 -337t255.5 -120q160 0 251.5 118t91.5 339q0 219 -91.5 346 t-251.5 127q-170 0 -254.5 -127t-84.5 -346zM1130 657q35 -2 72 -2h72q102 0 205.5 10.5t212.5 45.5q2 14 3 27.5t1 25.5q0 51 -15.5 97t-46 82t-76 56.5t-104.5 20.5q-84 0 -143.5 -27.5t-98 -76t-58 -115t-24.5 -144.5z" />
<glyph unicode="&#x178;" horiz-adv-x="1466" d="M16 1323v152h529v-97q-20 -14 -47 -24.5t-52 -18.5q-29 -8 -59 -16l371 -602l413 635q-20 -10 -65 -20.5t-90 -10.5q-20 0 -29 2v152h463v-97q-20 -14 -47 -24.5t-51 -20.5q-29 -10 -60 -18l-477 -721v-477q27 10 53 18q23 6 49.5 12.5t51.5 6.5q16 0 24 -2v-152h-504v96 q20 12 47 23.5t52 21.5q29 10 59 19v428l-479 758q-20 -10 -56 -17.5t-69 -7.5q-18 0 -27 2zM434 1761q0 49 29.5 80t83.5 31q53 0 82.5 -31t29.5 -80q0 -47 -29.5 -78.5t-82.5 -31.5t-83 29.5t-30 80.5zM856 1761q0 49 27.5 80t87.5 31q51 0 80.5 -31t29.5 -80 q0 -47 -29.5 -78.5t-80.5 -31.5q-53 0 -84 31.5t-31 78.5z" />
<glyph unicode="&#x2c6;" horiz-adv-x="819" d="M80 1311l328 315l329 -315l-63 -66l-266 185l-263 -185z" />
<glyph unicode="&#x2dc;" horiz-adv-x="819" d="M51 1356q41 86 92.5 142t104.5 56q43 0 86 -14t84 -32.5t81 -33t81 -14.5q27 0 53 19.5t65 76.5l68 -51q-41 -86 -90 -140t-103 -54q-43 0 -85 14t-82.5 32.5t-81.5 33t-82 14.5q-27 0 -55.5 -21.5t-67.5 -80.5z" />
<glyph unicode="&#x2000;" horiz-adv-x="1001" />
<glyph unicode="&#x2001;" horiz-adv-x="2003" />
<glyph unicode="&#x2002;" horiz-adv-x="1001" />
<glyph unicode="&#x2003;" horiz-adv-x="2003" />
<glyph unicode="&#x2004;" horiz-adv-x="667" />
<glyph unicode="&#x2005;" horiz-adv-x="500" />
<glyph unicode="&#x2006;" horiz-adv-x="333" />
<glyph unicode="&#x2007;" horiz-adv-x="333" />
<glyph unicode="&#x2008;" horiz-adv-x="250" />
<glyph unicode="&#x2009;" horiz-adv-x="400" />
<glyph unicode="&#x200a;" horiz-adv-x="111" />
<glyph unicode="&#x2010;" horiz-adv-x="819" d="M119 539v137h581v-137h-581z" />
<glyph unicode="&#x2011;" horiz-adv-x="819" d="M119 539v137h581v-137h-581z" />
<glyph unicode="&#x2012;" horiz-adv-x="819" d="M119 539v137h581v-137h-581z" />
<glyph unicode="&#x2013;" horiz-adv-x="1024" d="M82 539v137h860v-137h-860z" />
<glyph unicode="&#x2014;" horiz-adv-x="2048" d="M82 539v137h1884v-137h-1884z" />
<glyph unicode="&#x2018;" horiz-adv-x="466" d="M82 1343q0 49 15.5 100.5t42 97.5t64.5 85t81 62l51 -39q-35 -31 -71 -81t-36 -106q0 -29 11 -49q66 0 100.5 -37t34.5 -96t-41 -94t-98 -35q-70 0 -112 50t-42 142z" />
<glyph unicode="&#x2019;" horiz-adv-x="456" d="M72 1530q0 59 41 94t98 35q70 0 112 -50t42 -143q0 -49 -15.5 -100t-42 -97t-64.5 -85t-81 -62l-51 39q35 31 70.5 81t35.5 104q0 25 -10 51q-66 0 -100.5 36.5t-34.5 96.5z" />
<glyph unicode="&#x201a;" horiz-adv-x="456" d="M72 109q0 59 41 94t98 35q70 0 112 -50.5t42 -142.5q0 -49 -15.5 -100t-42 -97.5t-64.5 -85t-81 -61.5l-51 39q35 31 70.5 81t35.5 103q0 25 -10 51q-66 0 -100.5 37t-34.5 97z" />
<glyph unicode="&#x201c;" horiz-adv-x="874" d="M82 1343q0 49 15.5 100.5t42 97.5t64.5 85t81 62l51 -39q-35 -31 -71 -81t-36 -106q0 -29 11 -49q66 0 100.5 -37t34.5 -96t-41 -94t-98 -35q-70 0 -112 50t-42 142zM490 1343q0 49 15.5 100.5t42 97.5t64.5 85t81 62l51 -39q-35 -31 -71 -81t-36 -106q0 -29 11 -49 q66 0 100.5 -37t34.5 -96t-41 -94t-98 -35q-70 0 -112 50t-42 142z" />
<glyph unicode="&#x201d;" horiz-adv-x="864" d="M72 1530q0 59 41 94t98 35q70 0 112 -50t42 -143q0 -49 -15.5 -100t-42 -97t-64.5 -85t-81 -62l-51 39q35 31 70.5 81t35.5 104q0 25 -10 51q-66 0 -100.5 36.5t-34.5 96.5zM480 1530q0 59 41 94t98 35q70 0 112 -50t42 -143q0 -49 -15.5 -100t-42 -97t-64.5 -85t-81 -62 l-51 39q35 31 70.5 81t35.5 104q0 25 -10 51q-66 0 -100.5 36.5t-34.5 96.5z" />
<glyph unicode="&#x201e;" horiz-adv-x="864" d="M72 109q0 59 41 94t98 35q70 0 112 -50t42 -143q0 -49 -15.5 -100t-42 -97t-64.5 -85t-81 -62l-51 39q35 31 70.5 81t35.5 104q0 25 -10 51q-66 0 -100.5 36.5t-34.5 96.5zM480 109q0 59 41 94t98 35q70 0 112 -50t42 -143q0 -49 -15.5 -100t-42 -97t-64.5 -85t-81 -62 l-51 39q35 31 70.5 81t35.5 104q0 25 -10 51q-66 0 -100.5 36.5t-34.5 96.5z" />
<glyph unicode="&#x2022;" horiz-adv-x="835" d="M170 713q0 51 19.5 95t53 78t80 53t97.5 19t95 -19t78 -53t53.5 -78t19.5 -95q0 -53 -19.5 -98.5t-53.5 -79t-78 -53t-95 -19.5t-97.5 19.5t-80 53t-53 79t-19.5 98.5z" />
<glyph unicode="&#x2026;" horiz-adv-x="1675" d="M133 111q0 55 40 94t95 39q59 0 98.5 -39t39.5 -94q0 -57 -39 -97.5t-99 -40.5q-55 0 -95 40.5t-40 97.5zM702 111q0 55 40 94t95 39q59 0 98.5 -39t39.5 -94q0 -57 -39 -97.5t-99 -40.5q-55 0 -95 40.5t-40 97.5zM1270 111q0 55 40 94t95 39q59 0 98.5 -39t39.5 -94 q0 -57 -39 -97.5t-99 -40.5q-55 0 -95 40.5t-40 97.5z" />
<glyph unicode="&#x202f;" horiz-adv-x="400" />
<glyph unicode="&#x2039;" horiz-adv-x="634" d="M41 563l408 441l83 -91l-323 -348l323 -350l-83 -90z" />
<glyph unicode="&#x203a;" horiz-adv-x="634" d="M102 215l324 350l-324 348l84 91l408 -441l-408 -438z" />
<glyph unicode="&#x205f;" horiz-adv-x="500" />
<glyph unicode="&#x20ac;" d="M20 537v98h175q-2 16 -2 35.5v38.5q0 31 1 60.5t3 55.5h-177v97h185q41 287 191.5 432t377.5 145q131 0 217 -28.5t137.5 -73.5t72 -101.5t20.5 -111.5q0 -100 -43 -160h-127v256q-25 23 -60 39t-74.5 27.5t-81.5 16.5t-81 5q-61 0 -122 -21.5t-110 -72.5t-85 -137 t-50 -215h520v-97h-528q-2 -16 -2 -33.5v-33.5q0 -33 1 -64.5t5 -58.5h524v-98h-512q20 -113 62.5 -194t100.5 -133t129 -76.5t147 -24.5q53 0 97 4t84 11t79 19.5t82 28.5l16 -102q-98 -47 -202.5 -72t-209.5 -25q-102 0 -196.5 31t-171 98.5t-131 174t-74.5 260.5h-187z " />
<glyph unicode="&#x2122;" horiz-adv-x="1579" d="M20 1368v107h611v-107h-242v-649h-125v649h-244zM729 719v756h174l191 -514l204 514h158v-756h-119v536l-198 -481h-111l-182 471v-526h-117z" />
<glyph unicode="&#x25fc;" horiz-adv-x="1116" d="M0 0v1116h1116v-1116h-1116z" />
</font>
</defs>
</svg>
