<?xml version="1.0" standalone="no"?>
<!DOCTYPE svg PUBLIC "-//W3C//DTD SVG 1.1//EN" "http://www.w3.org/Graphics/SVG/1.1/DTD/svg11.dtd" >
<svg xmlns="http://www.w3.org/2000/svg">
<metadata></metadata>
<defs>
<font id="booster_fyregular" horiz-adv-x="1024" >
<font-face units-per-em="2048" ascent="1536" descent="-512" />
<missing-glyph horiz-adv-x="430" />
<glyph unicode="&#xfb01;" horiz-adv-x="1107" d="M154 68v956q0 201 101.5 305.5t285.5 104.5q188 0 309 -80q35 -22 35 -60q0 -26 -17.5 -44.5t-44.5 -18.5q-13 0 -28 6q-6 3 -33 18t-50.5 25.5t-67.5 20.5t-93 10q-141 0 -201.5 -67.5t-60.5 -219.5h555q37 0 56.5 -22.5t19.5 -57.5v-708q0 -58 15 -78t50 -29 q51 -10 51 -63q0 -66 -67 -66q-77 0 -131 48.5t-54 146.5v706h-495v-833q0 -32 -18.5 -50t-49.5 -18t-49 18t-18 50z" />
<glyph unicode="&#xfb02;" horiz-adv-x="1093" d="M154 68v956q0 202 103 306t294 104q181 0 291 -21q40 -8 59 -29.5t19 -64.5v-1075q0 -64 15 -87.5t50 -31.5q28 -6 38.5 -19t10.5 -40q0 -66 -65 -66q-78 0 -131.5 48t-53.5 147v1097q-93 19 -233 19q-141 0 -201.5 -67.5t-60.5 -219.5h241q30 0 47 -16t17 -45 t-17.5 -45.5t-46.5 -16.5h-241v-833q0 -32 -18.5 -50t-49.5 -18t-49 18t-18 50z" />
<glyph unicode="&#xfb03;" horiz-adv-x="1738" d="M154 68v956q0 201 101.5 305.5t285.5 104.5q62 0 106 -11q47 -13 47 -59q0 -59 -63 -59q-11 0 -38 3t-42 3q-141 0 -201.5 -67.5t-60.5 -219.5h495q0 201 101.5 305.5t285.5 104.5q189 0 310 -80q35 -22 35 -60q0 -26 -17.5 -44.5t-44.5 -18.5q-14 0 -29 6q-7 3 -33.5 18 t-49.5 25.5t-67 20.5t-93 10q-141 0 -201.5 -67.5t-60.5 -219.5h555q37 0 56 -22t19 -58v-708q0 -58 15.5 -78t50.5 -29q51 -10 51 -63q0 -35 -19.5 -50.5t-48.5 -15.5q-77 0 -130.5 48t-53.5 147v706h-495v-833q0 -32 -18.5 -50t-49.5 -18t-49.5 18t-18.5 50v833h-495v-833 q0 -32 -18.5 -50t-49.5 -18t-49 18t-18 50z" />
<glyph unicode="&#xfb04;" horiz-adv-x="1724" d="M154 68v956q0 201 101.5 305.5t285.5 104.5q62 0 106 -11q47 -13 47 -59q0 -59 -63 -59q-11 0 -38 3t-42 3q-141 0 -201.5 -67.5t-60.5 -219.5h495q0 202 103.5 306t294.5 104q181 0 291 -21q40 -8 58.5 -29.5t18.5 -64.5v-1075q0 -64 15.5 -87.5t50.5 -31.5 q28 -6 38.5 -19t10.5 -40q0 -34 -18 -50t-48 -16q-78 0 -131 48t-53 147v1097q-93 19 -233 19q-141 0 -201.5 -67.5t-60.5 -219.5h241q30 0 47 -16t17 -45t-17.5 -45.5t-46.5 -16.5h-241v-833q0 -32 -18.5 -50t-49.5 -18t-49.5 18t-18.5 50v833h-495v-833q0 -32 -18.5 -50 t-49.5 -18t-49 18t-18 50z" />
<glyph horiz-adv-x="0" />
<glyph horiz-adv-x="0" />
<glyph horiz-adv-x="682" />
<glyph unicode="&#xd;" horiz-adv-x="0" />
<glyph unicode=" "  horiz-adv-x="430" />
<glyph unicode="&#x09;" horiz-adv-x="430" />
<glyph unicode="&#xa0;" horiz-adv-x="430" />
<glyph unicode="!" horiz-adv-x="544" d="M164 111q0 52 28.5 81t79.5 29q52 0 80.5 -28.5t28.5 -81.5q0 -52 -28.5 -81.5t-80.5 -29.5q-51 0 -79.5 30t-28.5 81zM195 1343q-1 44 20.5 67.5t56.5 23.5q37 0 59 -24t21 -69l-20 -888q0 -28 -17 -47t-43 -19q-25 0 -41 19t-16 47z" />
<glyph unicode="&#x22;" horiz-adv-x="739" d="M166 1362q-1 32 18.5 52t51.5 20q35 0 54 -19.5t17 -52.5l-24 -350q-2 -20 -14.5 -32.5t-32.5 -12.5q-19 0 -32 12.5t-14 32.5zM432 1362q-1 32 18.5 52t51.5 20q35 0 54 -19.5t17 -52.5l-24 -350q-2 -20 -14.5 -32.5t-32.5 -12.5q-19 0 -31.5 12.5t-13.5 32.5z" />
<glyph unicode="#" horiz-adv-x="1390" d="M72 424q0 25 18 43t43 18h156l192 443h-112q-26 0 -44 18t-18 43q0 26 18 44t44 18h168l149 342q19 41 59 41q28 0 47 -17t19 -47q0 -13 -12 -41l-123 -278h332l149 342q19 41 60 41q27 0 46 -17t19 -47q0 -13 -12 -41l-123 -278h110q25 0 43.5 -18t18.5 -44 q0 -25 -18.5 -43t-43.5 -18h-163l-193 -443h121q26 0 43.5 -18t17.5 -43q0 -26 -17.5 -44t-43.5 -18h-174l-148 -337q-19 -45 -63 -45q-27 0 -45.5 18t-18.5 45q0 13 13 43l121 276h-330l-148 -337q-19 -45 -63 -45q-27 0 -45.5 18t-18.5 45q0 13 13 43l121 276h-103 q-25 0 -43 18t-18 44zM430 485h330l192 443h-329z" />
<glyph unicode="$" horiz-adv-x="1204" d="M82 291q0 27 22 46t52 19q38 0 61 -39q23 -35 43.5 -59t59.5 -57.5t97 -55t130 -28.5v555q-51 13 -87 23.5t-81 28t-76 37t-63 48.5t-51.5 63t-31.5 80.5t-12 102.5q0 160 114 261.5t288 115.5v141q0 27 20.5 46t48.5 19q27 0 47.5 -19t20.5 -46v-143q214 -16 338 -127 q22 -22 22 -52t-18 -52.5t-49 -22.5q-25 0 -49 18q-108 78 -244 98v-518q52 -13 89 -24t84 -29.5t79 -38t66 -49.5t54 -64.5t33 -82t13 -103.5q0 -158 -112.5 -266.5t-305.5 -130.5v-152q0 -27 -20.5 -46t-47.5 -19q-28 0 -48.5 19t-20.5 46v148q-93 6 -174 34.5t-135 69.5 t-88.5 80t-53.5 76q-14 32 -14 49zM289 1057q0 -53 19 -94t57 -69.5t80 -47.5t102 -37v487q-124 -10 -191 -74.5t-67 -164.5zM684 119q123 14 198.5 80t75.5 172q0 60 -20.5 105t-61.5 75t-84.5 49t-107.5 37v-518z" />
<glyph unicode="%" horiz-adv-x="1460" d="M102 1069q0 177 72.5 271t198.5 94q128 0 199 -93.5t71 -271.5q0 -181 -72.5 -278t-197.5 -97q-128 0 -199.5 96.5t-71.5 278.5zM137 45q0 22 23 53l1032 1295q30 41 59 41q28 0 47 -17t19 -47q0 -24 -29 -59l-1024 -1286q-19 -25 -32.5 -35t-30.5 -10q-27 0 -45.5 18 t-18.5 47zM236 1069q0 -121 34.5 -186.5t102.5 -65.5t102.5 65.5t34.5 186.5q0 116 -34.5 179t-102.5 63t-102.5 -63t-34.5 -179zM817 354q0 177 72 271t198 94q128 0 199.5 -93.5t71.5 -271.5q0 -181 -72.5 -277.5t-198.5 -96.5q-128 0 -199 96t-71 278zM950 354 q0 -121 34.5 -186.5t102.5 -65.5t103 66t35 186q0 116 -35 179t-103 63t-102.5 -63t-34.5 -179z" />
<glyph unicode="&#x26;" horiz-adv-x="1323" d="M102 348q0 76 25 142.5t73.5 121.5t96.5 94.5t117 84.5l-17 16q-101 100 -139.5 167.5t-38.5 145.5q0 139 93.5 226.5t240.5 87.5q151 0 238.5 -91t87.5 -210q0 -45 -15 -88t-38 -76.5t-60.5 -69.5t-71.5 -62t-82 -59l334 -332l139 162q18 21 52 21q28 0 46.5 -19.5 t18.5 -46.5q0 -25 -14 -39l-150 -170l248 -248q17 -17 17 -38q0 -28 -21.5 -48t-48.5 -20t-45 18l-238 236l-35 -39q-111 -125 -213.5 -180t-218.5 -55q-177 0 -279 105.5t-102 262.5zM246 350q0 -103 69.5 -169t184.5 -66q95 0 169.5 48.5t164.5 151.5l26 31l-358 356 q-58 -41 -98 -74t-79.5 -77.5t-59 -94.5t-19.5 -106zM362 1114q0 -38 22 -82.5t91 -113.5l51 -54q103 70 156 129t53 131q0 73 -50 123.5t-136 50.5q-82 0 -134.5 -49t-52.5 -135z" />
<glyph unicode="'" horiz-adv-x="473" d="M166 1362q-1 32 18.5 52t51.5 20q35 0 54 -19.5t17 -52.5l-24 -350q-2 -20 -14.5 -32.5t-32.5 -12.5q-19 0 -32 12.5t-14 32.5z" />
<glyph unicode="(" horiz-adv-x="622" d="M133 510q0 141 29.5 277.5t69 232.5t92 184t86.5 131t63 74q25 25 53 25q30 0 48 -19.5t18 -48.5q0 -34 -33 -70q-24 -26 -51.5 -63t-71.5 -114t-77 -161t-58 -204t-25 -244t25 -244t58 -203t77.5 -159.5t71.5 -112.5t51 -63q33 -36 33 -70q0 -29 -18 -48.5t-48 -19.5 q-28 0 -53 25q-30 32 -63 74t-86 129.5t-92.5 182.5t-69 231.5t-29.5 277.5z" />
<glyph unicode=")" horiz-adv-x="622" d="M31 -342q0 35 32 70q24 27 51 63t71.5 112.5t77.5 159.5t58 203t25 244t-25 244t-58 204t-77 161t-71.5 114t-51.5 63q-32 35 -32 70q0 29 17.5 48.5t47.5 19.5q29 0 54 -25q29 -31 63 -74t86 -131t91.5 -184t69 -232.5t29.5 -277.5t-29.5 -277.5t-69 -231.5t-92 -182.5 t-85.5 -130t-63 -73.5q-25 -25 -54 -25q-30 0 -47.5 19.5t-17.5 48.5z" />
<glyph unicode="*" horiz-adv-x="993" d="M168 1196q20 65 88 37l203 -92l-23 221q-3 32 13 52t47 20q34 0 49 -20t12 -52l-25 -223l205 90q27 13 51.5 4.5t34.5 -37.5q12 -31 -2 -53.5t-45 -28.5l-221 -47l147 -164q22 -23 21 -48t-25 -44q-29 -20 -52.5 -14t-39.5 34l-112 195l-111 -190q-15 -28 -39 -35.5 t-51 10.5q-56 39 -8 94l151 166l-217 47q-31 6 -45.5 27t-5.5 51z" />
<glyph unicode="+" horiz-adv-x="1011" d="M164 649q0 24 18 40t43 16h226v245q0 27 15.5 44.5t39.5 17.5q26 0 40.5 -17.5t14.5 -44.5v-245h225q27 0 44.5 -15.5t17.5 -40.5q0 -26 -17.5 -40.5t-44.5 -14.5h-225v-246q0 -26 -15 -43.5t-40 -17.5q-24 0 -39.5 18t-15.5 43v246h-226q-26 0 -43.5 15t-17.5 40z" />
<glyph unicode="," horiz-adv-x="544" d="M127 -207q0 32 33 43q90 34 112 164q-51 0 -79.5 30t-28.5 81q0 52 28.5 81t79.5 29q109 0 109 -139q0 -77 -22.5 -142.5t-56.5 -105.5t-69.5 -62t-64.5 -22q-17 0 -29 12t-12 31z" />
<glyph unicode="-" horiz-adv-x="765" d="M102 526q0 25 18.5 43.5t43.5 18.5h438q26 0 44 -18.5t18 -43.5q0 -26 -18 -43.5t-44 -17.5h-438q-25 0 -43.5 17.5t-18.5 43.5z" />
<glyph unicode="." horiz-adv-x="544" d="M164 111q0 52 28.5 81t79.5 29q52 0 80.5 -28.5t28.5 -81.5q0 -52 -28.5 -81.5t-80.5 -29.5q-51 0 -79.5 30t-28.5 81z" />
<glyph unicode="/" horiz-adv-x="811" d="M20 45q0 19 11 37l635 1311q19 41 59 41q28 0 47 -17t19 -47q0 -19 -11 -37l-633 -1308q-22 -45 -63 -45q-27 0 -45.5 18t-18.5 47z" />
<glyph unicode="0" horiz-adv-x="1232" d="M113 715q0 352 130 535.5t373 183.5q249 0 376.5 -182t127.5 -537q0 -360 -130.5 -547.5t-373.5 -187.5q-249 0 -376 186t-127 549zM256 715q0 -600 360 -600q180 0 270.5 151.5t90.5 448.5q0 288 -91 435.5t-270 147.5t-269.5 -147.5t-90.5 -435.5z" />
<glyph unicode="1" horiz-adv-x="755" d="M61 1044q0 31 25 52l346 293q28 24 60 24t50.5 -17t18.5 -48v-1278q0 -34 -18.5 -52t-50.5 -18q-33 0 -51.5 18.5t-18.5 51.5v1132l-250 -207q-22 -18 -47 -18t-44.5 20t-19.5 47z" />
<glyph unicode="2" horiz-adv-x="1044" d="M92 59q0 35 33 76l414 514q141 175 190 265.5t49 179.5q0 91 -66 147.5t-184 56.5q-196 0 -266 -151q-20 -45 -63 -45q-27 0 -45.5 18t-18.5 45q0 20 8 39q40 94 142.5 162t255.5 68q168 0 274.5 -92t106.5 -240q0 -82 -28.5 -157.5t-80.5 -151t-160 -209.5l-374 -461 h606q28 0 47.5 -17.5t19.5 -44.5t-19.5 -44t-47.5 -17h-717q-31 0 -53.5 14t-22.5 45z" />
<glyph unicode="3" horiz-adv-x="1044" d="M72 168q0 26 19.5 47t47.5 21q32 0 56 -21q114 -100 266 -100q143 0 235 83t92 212q0 136 -78 211t-237 75h-57q-30 0 -51 18.5t-21 45.5t21 43t51 16h57q122 0 193 67.5t71 172.5q0 112 -72 175.5t-190 63.5q-72 0 -126.5 -20.5t-123.5 -65.5q-20 -14 -41 -14 q-24 0 -44.5 20.5t-20.5 47.5q0 35 49 69q66 49 137.5 74t169.5 25q180 0 293 -103t113 -264q0 -199 -185 -295q120 -48 178 -143t58 -219q0 -125 -63.5 -224t-169.5 -152.5t-234 -53.5q-236 0 -369 133q-24 24 -24 55z" />
<glyph unicode="4" horiz-adv-x="1067" d="M51 377q0 22 21 57l602 926q21 31 38 42t40 11q32 0 50.5 -18.5t18.5 -51.5v-905h127q68 0 68 -61q0 -62 -68 -62h-127v-266q0 -33 -18 -51t-51 -18q-32 0 -51 18t-19 51v266h-563q-68 0 -68 62zM217 438h465v723z" />
<glyph unicode="5" horiz-adv-x="1138" d="M133 311q0 29 17.5 47.5t46.5 18.5q48 0 63 -41q86 -221 320 -221q146 0 234.5 95t88.5 253q0 141 -83.5 232t-227.5 91q-91 0 -157.5 -29t-129.5 -100q-19 -22 -29.5 -29t-29.5 -7q-33 0 -50 19t-16 54l27 649q3 70 63 70h645q26 0 44 -17t18 -44t-18.5 -44.5 t-43.5 -17.5h-577l-25 -477q43 51 119.5 80t167.5 29q194 0 320.5 -122.5t126.5 -332.5q0 -113 -38 -206.5t-102.5 -154t-148 -93.5t-176.5 -33q-166 0 -280.5 81.5t-162.5 217.5q-6 15 -6 32z" />
<glyph unicode="6" horiz-adv-x="1175" d="M113 571q0 193 56.5 354.5t158 273t246 173.5t315.5 62q94 0 94 -66q0 -71 -80 -74q-260 -6 -416.5 -135t-220.5 -420q33 71 131 127t215 56q201 0 326 -125.5t125 -343.5q0 -202 -135.5 -337.5t-335.5 -135.5q-217 0 -348 156t-131 435zM270 457q0 -144 92.5 -243 t233.5 -99q136 0 230 99.5t94 244.5q0 142 -90 234.5t-234 92.5q-136 0 -231 -94.5t-95 -234.5z" />
<glyph unicode="7" horiz-adv-x="952" d="M51 1352q0 27 19.5 44t48.5 17h721q41 0 61.5 -12t20.5 -43q0 -19 -15 -53l-639 -1268q-18 -37 -59 -37q-26 0 -46 17.5t-20 45.5q0 16 9 31l602 1196h-635q-28 0 -48 18t-20 44z" />
<glyph unicode="8" horiz-adv-x="1120" d="M102 422q0 124 68 223t186 154q-76 45 -122 121.5t-46 164.5q0 147 107 248t266 101q161 0 266 -100.5t105 -248.5q0 -180 -170 -286q117 -49 186.5 -146.5t69.5 -230.5q0 -193 -130 -317.5t-331 -124.5t-328 124t-127 318zM246 420q0 -130 89.5 -217.5t223.5 -87.5 q135 0 225 88t90 219q0 122 -86 208.5t-227 86.5t-228 -86.5t-87 -210.5zM332 1085q0 -97 64 -162t165 -65q99 0 163 65.5t64 163.5q0 94 -65 152.5t-162 58.5q-98 0 -163.5 -59t-65.5 -154z" />
<glyph unicode="9" horiz-adv-x="1175" d="M113 961q0 202 135.5 337.5t335.5 135.5q217 0 348 -156.5t131 -435.5q0 -258 -97.5 -454t-273.5 -302t-405 -106q-45 0 -69.5 14t-24.5 51q0 71 79 74q261 6 428.5 145t219.5 428q-35 -74 -135.5 -137t-221.5 -63q-201 0 -325.5 125t-124.5 344zM256 954 q0 -142 90 -234.5t234 -92.5q136 0 230.5 94.5t94.5 234.5q0 144 -92 243t-233 99q-136 0 -230 -99.5t-94 -244.5z" />
<glyph unicode=":" horiz-adv-x="544" d="M164 111q0 52 28.5 81t79.5 29q52 0 80.5 -28.5t28.5 -81.5q0 -52 -28.5 -81.5t-80.5 -29.5q-51 0 -79.5 30t-28.5 81zM164 934q0 52 28.5 81t79.5 29q52 0 80.5 -28.5t28.5 -81.5q0 -52 -28.5 -81.5t-80.5 -29.5q-51 0 -79.5 30t-28.5 81z" />
<glyph unicode=";" horiz-adv-x="544" d="M127 -207q0 32 33 43q90 34 112 164q-51 0 -79.5 30t-28.5 81q0 52 28.5 81t79.5 29q109 0 109 -139q0 -77 -22.5 -142.5t-56.5 -105.5t-69.5 -62t-64.5 -22q-17 0 -29 12t-12 31zM164 934q0 52 28.5 81t79.5 29q52 0 80.5 -28.5t28.5 -81.5q0 -52 -28.5 -81.5 t-80.5 -29.5q-51 0 -79.5 30t-28.5 81z" />
<glyph unicode="&#x3c;" horiz-adv-x="1011" d="M184 647q0 30 33 51l477 295q22 11 35 11q21 0 38 -16t17 -40q0 -30 -32 -49l-408 -252l408 -252q32 -19 32 -49q0 -22 -16 -38.5t-39 -16.5q-15 0 -35 10l-477 295q-33 18 -33 51z" />
<glyph unicode="=" horiz-adv-x="1011" d="M164 485q0 24 18 40t43 16h561q27 0 44.5 -15.5t17.5 -40.5q0 -26 -17.5 -40.5t-44.5 -14.5h-561q-26 0 -43.5 15t-17.5 40zM164 813q0 24 18 39.5t43 15.5h561q27 0 44.5 -15.5t17.5 -39.5q0 -26 -17.5 -40.5t-44.5 -14.5h-561q-26 0 -43.5 15t-17.5 40z" />
<glyph unicode="&#x3e;" horiz-adv-x="1011" d="M227 346q0 29 33 49l408 252l-408 252q-33 20 -33 49q0 24 17.5 40t38.5 16q12 0 34 -11l478 -295q32 -20 32 -51q0 -33 -32 -51l-478 -295q-20 -10 -34 -10q-23 0 -39.5 16.5t-16.5 38.5z" />
<glyph unicode="?" horiz-adv-x="1052" d="M133 1165q0 20 8 39q40 93 138 161.5t235 68.5q178 0 281.5 -94.5t103.5 -254.5q0 -80 -26 -144.5t-76.5 -111.5t-111.5 -80t-142 -61v-237q0 -26 -19 -45t-47 -19q-26 0 -45.5 19t-19.5 45v280q0 27 17 48t48 28q137 32 208 102.5t71 171.5q0 97 -61.5 157t-178.5 60 q-186 0 -256 -151q-20 -45 -63 -45q-27 0 -45.5 18t-18.5 45zM367 111q0 52 28.5 81t79.5 29q52 0 80.5 -28.5t28.5 -81.5q0 -52 -28.5 -81.5t-80.5 -29.5q-51 0 -79.5 30t-28.5 81z" />
<glyph unicode="@" horiz-adv-x="1605" d="M102 446q0 120 28.5 229.5t88 204t144 164t203 109t259.5 39.5q299 0 488.5 -183.5t189.5 -473.5q0 -214 -92 -323.5t-237 -109.5q-78 0 -126 39t-63 97q-26 -59 -86 -97.5t-139 -38.5q-139 0 -227.5 106t-88.5 259q0 87 29 155.5t77 110t106.5 63t121.5 21.5 q60 0 113 -24.5t84 -65.5v29q0 31 18.5 46t42.5 15q26 0 44 -18t18 -43v-379q0 -64 25.5 -101.5t74.5 -37.5q68 0 118 70.5t50 197.5q0 90 -19.5 170.5t-62 151.5t-105 122.5t-153 81t-201.5 29.5q-122 0 -221 -33t-166 -89t-112 -132t-65.5 -160t-20.5 -176q0 -85 18 -167 t60.5 -162t106 -139.5t162 -96.5t220.5 -37q57 0 105 10t72 19.5t71 31.5q18 9 32 9q28 0 47 -19t19 -47q0 -31 -25 -53q-38 -35 -135.5 -58.5t-197.5 -23.5q-136 0 -251.5 40.5t-195.5 109.5t-136.5 160.5t-83 192t-26.5 205.5zM588 459q0 -102 55.5 -161.5t142.5 -59.5 q90 0 139.5 62.5t49.5 156.5q0 95 -49 160t-140 65q-85 0 -141.5 -59.5t-56.5 -163.5z" />
<glyph unicode="A" horiz-adv-x="1374" d="M72 68q0 13 6 28l545 1276q17 41 63 41q49 0 66 -41l544 -1276q7 -17 7 -28q0 -29 -23.5 -48.5t-54.5 -19.5q-44 0 -62 43l-151 360h-660l-149 -360q-18 -43 -56 -43q-29 0 -52 19t-23 49zM403 526h558l-279 662z" />
<glyph unicode="B" horiz-adv-x="1271" d="M174 70v1273q0 33 18.5 51.5t51.5 18.5h450q105 0 185 -28.5t127 -77t70.5 -108.5t23.5 -128q0 -97 -45.5 -178t-130.5 -127q123 -40 184 -132.5t61 -215.5q0 -189 -122.5 -303.5t-344.5 -114.5h-458q-33 0 -51.5 18.5t-18.5 51.5zM313 123h396q317 0 317 295 q0 132 -80 203t-244 71h-389v-569zM313 815h422q105 0 163 75.5t58 168.5q0 101 -61 166t-186 65h-396v-475z" />
<glyph unicode="C" horiz-adv-x="1406" d="M102 709q0 168 49 305.5t136.5 229t207.5 141t261 49.5q95 0 181 -22.5t145 -55.5t107.5 -75t75 -77t40.5 -65q8 -16 8 -39q0 -27 -19 -47.5t-49 -20.5q-35 0 -61 33q-34 44 -55 68.5t-62 61t-80.5 56t-100 34.5t-130.5 15q-161 0 -278 -78t-174.5 -210.5t-57.5 -304.5 q0 -171 59 -304t176 -210.5t275 -77.5q278 0 424 227q25 43 63 43q27 0 49.5 -20t22.5 -48q0 -23 -15 -47q-15 -25 -33 -49t-51 -60t-76.5 -65.5t-98.5 -57t-128.5 -43t-156.5 -15.5q-141 0 -261 50t-207.5 142t-136.5 230t-49 307z" />
<glyph unicode="D" horiz-adv-x="1404" d="M174 70v1273q0 34 19 52t53 18h416q196 0 342 -88.5t222.5 -246t76.5 -363.5q0 -200 -76 -361t-223.5 -257.5t-341.5 -96.5h-418q-33 0 -51.5 18.5t-18.5 51.5zM313 123h344q151 0 265.5 76t175.5 210.5t61 305.5q0 259 -137 417t-375 158h-334v-1167z" />
<glyph unicode="E" horiz-adv-x="1183" d="M174 70v1273q0 34 19 52t53 18h798q68 0 68 -61q0 -62 -68 -62h-731v-504h514q68 0 68 -61t-68 -61h-514v-541h731q68 0 68 -62q0 -61 -68 -61h-800q-33 0 -51.5 18.5t-18.5 51.5z" />
<glyph unicode="F" horiz-adv-x="1122" d="M174 70v1273q0 33 18.5 51.5t51.5 18.5h760q67 0 67 -61q0 -62 -67 -62h-691v-524h514q68 0 68 -61q0 -62 -68 -62h-514v-573q0 -34 -18.5 -52t-50.5 -18q-33 0 -51.5 18.5t-18.5 51.5z" />
<glyph unicode="G" horiz-adv-x="1470" d="M102 709q0 168 49 305.5t136.5 229t207.5 141t261 49.5q95 0 181 -23t145 -56.5t107.5 -76.5t75 -78t40.5 -65q8 -19 8 -39q0 -25 -19.5 -44.5t-48.5 -19.5q-35 0 -61 33q-34 43 -55 68t-62 61t-80.5 55t-100 34t-130.5 15q-161 0 -277.5 -77.5t-174.5 -209.5t-58 -304 q0 -171 59 -304t176 -210.5t275 -77.5q213 0 341 127.5t128 335.5h-355q-77 0 -77 61t77 61h418q49 0 64.5 -24t15.5 -84q0 -168 -72.5 -306.5t-213.5 -222t-326 -83.5q-141 0 -261 50t-207.5 142t-136.5 230t-49 307z" />
<glyph unicode="H" horiz-adv-x="1470" d="M174 70v1273q0 33 18.5 51.5t51.5 18.5q32 0 50.5 -18.5t18.5 -51.5v-536h844v536q0 33 18.5 51.5t51.5 18.5t51 -18.5t18 -51.5v-1273q0 -34 -18 -52t-51 -18t-51.5 18.5t-18.5 51.5v614h-844v-614q0 -34 -18.5 -52t-50.5 -18q-33 0 -51.5 18.5t-18.5 51.5z" />
<glyph unicode="I" horiz-adv-x="487" d="M174 70v1273q0 33 18.5 51.5t51.5 18.5q32 0 50.5 -18.5t18.5 -51.5v-1273q0 -34 -18.5 -52t-50.5 -18q-33 0 -51.5 18.5t-18.5 51.5z" />
<glyph unicode="J" horiz-adv-x="1116" d="M72 307q0 27 20 47.5t51 20.5q45 0 60 -47q41 -113 114 -163t191 -50q43 0 83.5 8.5t82 31t71.5 56.5t49 89.5t19 125.5v920q0 67 70 67q69 0 69 -70v-917q0 -113 -36.5 -200.5t-99.5 -140t-142 -79t-170 -26.5q-175 0 -281.5 82t-144.5 214q-6 15 -6 31z" />
<glyph unicode="K" horiz-adv-x="1206" d="M174 70v1273q0 33 18.5 51.5t51.5 18.5q32 0 50.5 -18.5t18.5 -51.5v-669l633 708q28 31 60 31q22 0 40.5 -17.5t18.5 -41.5q0 -28 -25 -56l-487 -540l555 -639q27 -34 27 -56q0 -26 -22 -44.5t-50 -18.5q-32 0 -51 23l-549 634l-150 -165v-422q0 -34 -18.5 -52 t-50.5 -18q-33 0 -51.5 18.5t-18.5 51.5z" />
<glyph unicode="L" horiz-adv-x="1093" d="M174 70v1273q0 33 18.5 51.5t51.5 18.5q32 0 50.5 -18.5t18.5 -51.5v-1220h662q67 0 67 -62q0 -61 -67 -61h-744q-57 10 -57 70z" />
<glyph unicode="M" horiz-adv-x="1695" d="M174 70v1273q0 30 18 50t52 20q51 0 80 -53l528 -926l530 920q20 34 37 46.5t41 12.5q29 0 45.5 -19t16.5 -51v-1273q0 -33 -18.5 -51.5t-51.5 -18.5t-51.5 18.5t-18.5 51.5v1050l-481 -829q-21 -35 -59 -35q-39 0 -60 35l-469 825v-1046q0 -34 -18.5 -52t-50.5 -18 q-33 0 -51.5 18.5t-18.5 51.5z" />
<glyph unicode="N" horiz-adv-x="1431" d="M174 70v1255q0 88 70 88q34 0 61 -37l813 -1108v1075q0 33 18.5 51.5t51.5 18.5q32 0 50.5 -18.5t18.5 -51.5v-1273q0 -32 -17.5 -51t-51.5 -19q-39 0 -66 37l-809 1102v-1069q0 -34 -18.5 -52t-50.5 -18q-33 0 -51.5 18.5t-18.5 51.5z" />
<glyph unicode="O" horiz-adv-x="1511" d="M102 707q0 337 181 532t473 195t472.5 -195t180.5 -532t-180.5 -532t-472.5 -195t-473 195t-181 532zM246 707q0 -128 34 -236t97.5 -187.5t161 -124t217.5 -44.5q162 0 278.5 77.5t174 210t57.5 304.5q0 173 -57.5 305t-174 209t-278.5 77t-278.5 -77t-174 -209 t-57.5 -305z" />
<glyph unicode="P" horiz-adv-x="1226" d="M174 70v1273q0 33 18.5 51.5t51.5 18.5h415q241 0 363.5 -115t122.5 -340q0 -213 -130 -328.5t-364 -115.5h-338v-444q0 -34 -18.5 -52t-50.5 -18q-33 0 -51.5 18.5t-18.5 51.5zM313 637h338q188 0 269 83t81 238q0 168 -86.5 250t-267.5 82h-334v-653z" />
<glyph unicode="Q" horiz-adv-x="1511" d="M102 707q0 337 181 532t473 195t472.5 -195t180.5 -532q0 -359 -207 -560q54 -65 125 -65q24 0 55 13.5t45 13.5q22 0 40 -18t18 -44q0 -32 -31 -55q-42 -33 -117 -33q-77 0 -130 23.5t-107 87.5q-149 -90 -344 -90q-292 0 -473 195t-181 532zM246 707q0 -128 34 -236 t97.5 -187.5t161 -124t217.5 -44.5q145 0 256 63q-44 44 -82.5 59t-85.5 15q-34 0 -54 19.5t-20 45.5q0 30 20.5 48t59.5 18q146 0 264 -123q152 161 152 447q0 173 -57.5 305t-174 209t-278.5 77t-278.5 -77t-174 -209t-57.5 -305z" />
<glyph unicode="R" horiz-adv-x="1234" d="M174 70v1273q0 33 18.5 51.5t51.5 18.5h395q241 0 363 -107t122 -317q0 -157 -93 -261t-253 -138l350 -486q15 -18 15 -43t-19 -43t-47 -18q-39 0 -61 31l-393 544h-310v-505q0 -34 -18.5 -52t-50.5 -18q-33 0 -51.5 18.5t-18.5 51.5zM313 698h318q350 0 350 291 q0 153 -86.5 227t-267.5 74h-314v-592z" />
<glyph unicode="S" horiz-adv-x="1193" d="M82 291q0 27 22 46t52 19q38 0 61 -39q20 -30 36 -50.5t51 -52t73.5 -50.5t100 -34t134.5 -15q151 0 248.5 68t97.5 188q0 68 -28 117.5t-75 78.5t-108 50t-128.5 37t-134.5 34t-128 46t-108 67t-75 103.5t-28 150.5q0 172 130.5 275.5t322.5 103.5q279 0 424 -131 q22 -22 22 -52t-18 -52.5t-49 -22.5q-25 0 -49 18q-24 19 -58.5 38.5t-113.5 42.5t-164 23q-145 0 -224 -65.5t-79 -175.5q0 -79 45 -132.5t116.5 -81.5t158.5 -49.5t173.5 -48t158 -66t116.5 -114.5t45 -182q0 -176 -139 -289.5t-371 -113.5q-84 0 -159.5 18.5t-128.5 47 t-97 65t-69.5 68.5t-41.5 63q-14 32 -14 49z" />
<glyph unicode="T" horiz-adv-x="1183" d="M51 1352q0 61 68 61h946q68 0 68 -61q0 -62 -68 -62h-403v-1220q0 -33 -18.5 -51.5t-51.5 -18.5t-51.5 18.5t-18.5 51.5v1220h-403q-68 0 -68 62z" />
<glyph unicode="U" horiz-adv-x="1433" d="M164 516v827q0 33 18 51.5t51 18.5t51.5 -18.5t18.5 -51.5v-827q0 -184 110 -292.5t304 -108.5q196 0 304.5 108t108.5 301v819q0 33 18.5 51.5t51.5 18.5t51.5 -18.5t18.5 -51.5v-819q0 -252 -153 -398t-400 -146q-256 0 -404.5 140t-148.5 396z" />
<glyph unicode="V" horiz-adv-x="1374" d="M72 1346q0 29 23 48t55 19q43 0 61 -43l481 -1145l479 1145q18 43 56 43q29 0 52.5 -19t23.5 -48q0 -12 -7 -29l-544 -1276q-17 -41 -64 -41q-48 0 -65 41l-545 1276q-6 15 -6 29z" />
<glyph unicode="W" horiz-adv-x="1847" d="M72 1352q0 29 18 45t49 16t46 -14t28 -51l367 -1090l284 856q11 33 26.5 48.5t41.5 15.5q25 0 38 -15t23 -47l287 -858l369 1106q15 49 59 49q25 0 46.5 -17t21.5 -40q0 -20 -7 -37l-432 -1270q-17 -49 -63 -49q-47 0 -64 49l-288 856l-291 -856q-17 -49 -62 -49 q-44 0 -61 49l-426 1251q-10 35 -10 52z" />
<glyph unicode="X" horiz-adv-x="1288" d="M113 61q0 27 24 62l418 594l-412 577q-16 21 -16 47q0 27 21 49.5t51 22.5q37 0 61 -35l391 -551l391 551q24 35 58 35q24 0 45.5 -19t21.5 -46q0 -24 -20 -54l-414 -581l422 -590q21 -30 21 -57q0 -25 -20.5 -45.5t-47.5 -20.5q-42 0 -68 39l-403 565l-397 -565 q-26 -39 -62 -39q-24 0 -44.5 18t-20.5 43z" />
<glyph unicode="Y" horiz-adv-x="1261" d="M74 1341q0 30 20 51t51 21q43 0 60 -33l428 -700l426 700q20 33 57 33q28 0 50 -20t22 -50q0 -25 -14 -47l-474 -759v-467q0 -34 -18 -52t-51 -18t-51.5 18.5t-18.5 51.5v467l-475 759q-12 21 -12 45z" />
<glyph unicode="Z" horiz-adv-x="1202" d="M92 63q0 23 19 52l790 1175h-698q-68 0 -68 62q0 61 68 61h819q30 0 46.5 -16.5t16.5 -44.5q0 -30 -26 -68l-778 -1161h761q68 0 68 -62q0 -61 -68 -61h-882q-32 0 -50 17.5t-18 45.5z" />
<glyph unicode="[" horiz-adv-x="645" d="M164 -338v1700q0 22 14.5 36.5t36.5 14.5h348q26 0 44 -17.5t18 -43.5q0 -25 -18 -43.5t-44 -18.5h-260v-1556h260q26 0 44 -18t18 -44q0 -25 -18 -43t-44 -18h-348q-22 0 -36.5 14.5t-14.5 36.5z" />
<glyph unicode="\" horiz-adv-x="811" d="M20 1370q0 30 19 47t47 17q40 0 59 -41l635 -1311q11 -18 11 -37q0 -29 -18.5 -47t-45.5 -18q-41 0 -63 45l-633 1308q-11 18 -11 37z" />
<glyph unicode="]" horiz-adv-x="645" d="M20 -328q0 26 18 44t44 18h260v1556h-260q-26 0 -44 18.5t-18 43.5q0 26 18 43.5t44 17.5h348q22 0 36.5 -14.5t14.5 -36.5v-1700q0 -22 -14.5 -36.5t-36.5 -14.5h-348q-26 0 -44 18t-18 43z" />
<glyph unicode="^" horiz-adv-x="1026" d="M156 401q0 15 10 35l295 477q21 33 51 33q33 0 51 -33l295 -477q10 -20 10 -35q0 -23 -16.5 -39t-38.5 -16q-29 0 -49 33l-252 407l-252 -407q-20 -33 -49 -33q-24 0 -39.5 17t-15.5 38z" />
<glyph unicode="_" horiz-adv-x="1138" d="M102 -61q0 27 19 44t47 17h803q28 0 46.5 -17t18.5 -44q0 -26 -18.5 -44t-46.5 -18h-803q-28 0 -47 18t-19 44z" />
<glyph unicode="`" d="M305 1354q0 31 21.5 54.5t54.5 23.5q25 0 47 -19l219 -211q19 -19 19 -41q0 -20 -13.5 -34.5t-34.5 -14.5q-18 0 -36 12l-250 179q-27 18 -27 51z" />
<glyph unicode="a" horiz-adv-x="1243" d="M92 512q0 236 141 384t351 148q122 0 216 -50.5t142 -135.5v98q0 32 18.5 50t49.5 18t49 -18t18 -50v-727q0 -89 60 -98q29 -4 44 -22t15 -41q0 -68 -74 -68q-81 0 -128 49t-52 135q-112 -204 -358 -204q-215 0 -353.5 150.5t-138.5 381.5zM231 512q0 -179 97 -294.5 t256 -115.5q160 0 259 115.5t99 294.5t-99 294.5t-259 115.5q-159 0 -256 -115.5t-97 -294.5z" />
<glyph unicode="b" horiz-adv-x="1232" d="M154 68v1278q0 32 18 49.5t49 17.5t49.5 -17.5t18.5 -49.5v-504q55 94 147.5 148t216.5 54q218 0 353 -148.5t135 -383.5q0 -233 -140 -382.5t-354 -149.5q-137 0 -225.5 55.5t-132.5 134.5v-102q0 -32 -18.5 -50t-49.5 -18t-49 18t-18 50zM289 512q0 -179 100 -294.5 t258 -115.5q157 0 255.5 115t98.5 295q0 181 -96.5 295.5t-257.5 114.5q-158 0 -258 -115.5t-100 -294.5z" />
<glyph unicode="c" horiz-adv-x="1075" d="M92 514q0 124 42 226.5t111.5 167.5t156.5 100.5t180 35.5q146 0 252 -60.5t149 -149.5q10 -23 10 -39q0 -25 -19.5 -43.5t-45.5 -18.5q-31 0 -64 47q-92 142 -282 142q-158 0 -254.5 -119t-96.5 -289q0 -113 40.5 -205.5t121.5 -149.5t189 -57q196 0 292 154 q25 39 60 39q23 0 41 -16.5t18 -40.5q0 -22 -12 -43q-49 -85 -158 -150t-248 -65q-73 0 -142 20.5t-131 64t-108.5 105.5t-74 150.5t-27.5 193.5z" />
<glyph unicode="d" horiz-adv-x="1232" d="M92 512q0 234 137 383t357 149q114 0 210.5 -50t147.5 -136v488q0 32 18.5 49.5t49.5 17.5t49 -17.5t18 -49.5v-1278q0 -32 -18 -50t-49 -18t-49.5 18t-18.5 50v116q-114 -204 -358 -204q-214 0 -354 149.5t-140 382.5zM231 512q0 -180 99 -295t256 -115q158 0 258 115.5 t100 294.5t-100 294.5t-258 115.5q-157 0 -256 -115t-99 -295z" />
<glyph unicode="e" horiz-adv-x="1132" d="M92 512q0 231 139.5 381.5t354.5 150.5q193 0 318.5 -123t125.5 -298q0 -121 -106 -121h-693q3 -177 102.5 -288.5t266.5 -111.5q85 0 148 26.5t129 80.5q31 22 53 22t40.5 -17.5t18.5 -41.5t-16 -43q-46 -57 -153 -103t-234 -46q-215 0 -354.5 150.5t-139.5 381.5z M240 614h659q0 124 -87 216t-226 92q-134 0 -226.5 -84.5t-119.5 -223.5z" />
<glyph unicode="f" horiz-adv-x="704" d="M154 68v956q0 201 101.5 305.5t285.5 104.5q62 0 106 -11q47 -13 47 -59q0 -59 -63 -59q-11 0 -38 3t-42 3q-141 0 -201.5 -67.5t-60.5 -219.5h241q30 0 47 -16t17 -45t-17.5 -45.5t-46.5 -16.5h-241v-833q0 -32 -18.5 -50t-49.5 -18t-49 18t-18 50z" />
<glyph unicode="g" horiz-adv-x="1232" d="M92 514q0 232 141 381t353 149q125 0 217.5 -56t140.5 -130v98q0 32 18.5 50t49.5 18t49 -18t18 -50v-946q0 -109 -39.5 -192t-108 -131.5t-154 -72.5t-185.5 -24q-90 0 -174 21t-142 51q-24 13 -35.5 25.5t-11.5 31.5q0 29 19.5 52.5t48.5 23.5q14 0 43 -13t59.5 -28 t83 -28t109.5 -13q352 0 352 318v153q-118 -204 -358 -204q-215 0 -354.5 150t-139.5 384zM231 514q0 -181 98.5 -296.5t256.5 -115.5t258 115.5t100 296.5q0 179 -100 293.5t-258 114.5t-256.5 -114.5t-98.5 -293.5z" />
<glyph unicode="h" horiz-adv-x="1144" d="M154 68v1278q0 32 18 49.5t49 17.5t49.5 -17.5t18.5 -49.5v-467q54 82 136 123.5t175 41.5q179 0 290 -111t111 -292v-573q0 -31 -18 -49.5t-49 -18.5t-49.5 18.5t-18.5 49.5v573q0 125 -79 203t-199 78q-130 0 -214.5 -78t-84.5 -203v-573q0 -32 -18.5 -50t-49.5 -18 t-49 18t-18 50z" />
<glyph unicode="i" horiz-adv-x="477" d="M117 1329q0 51 26 78t76 27t77.5 -27t27.5 -78q0 -100 -105 -100q-102 0 -102 100zM154 195v761q0 32 18 50t49 18t49.5 -18t18.5 -50v-720q0 -58 15 -78t50 -29q28 -6 40 -21t12 -42q0 -35 -19.5 -50.5t-48.5 -15.5q-77 0 -130.5 48t-53.5 147z" />
<glyph unicode="j" horiz-adv-x="442" d="M-111 -324q0 28 17 46t47 18q52 0 89.5 14.5t58.5 36.5t33.5 57.5t16 68.5t3.5 77v962q0 32 18 50t49 18t49.5 -18t18.5 -50v-993q0 -164 -83 -258t-243 -94q-74 0 -74 65zM117 1329q0 51 26 78t76 27t77.5 -27t27.5 -78q0 -100 -105 -100q-102 0 -102 100z" />
<glyph unicode="k" horiz-adv-x="999" d="M143 68v1278q0 32 18.5 49.5t49.5 17.5t49.5 -17.5t18.5 -49.5v-793l493 442q32 29 55 29t42.5 -21t19.5 -45q0 -27 -31 -55l-364 -319l397 -453q37 -43 37 -68q0 -22 -20.5 -41.5t-43.5 -19.5q-27 0 -55 31l-412 469l-118 -103v-331q0 -32 -18.5 -50t-49.5 -18t-49.5 18 t-18.5 50z" />
<glyph unicode="l" horiz-adv-x="462" d="M154 195v1151q0 32 18 49.5t49 17.5t49.5 -17.5t18.5 -49.5v-1102q0 -64 15 -87.5t50 -31.5q28 -6 38.5 -19t10.5 -40q0 -66 -65 -66q-78 0 -131 48t-53 147z" />
<glyph unicode="m" horiz-adv-x="1730" d="M154 68v888q0 32 18 50t49 18t49.5 -18t18.5 -50v-77q44 76 117.5 120.5t166.5 44.5q232 0 326 -200q113 200 324 200q174 0 269 -111.5t95 -289.5v-575q0 -32 -18 -50t-49 -18t-49.5 18t-18.5 50v575q0 123 -66.5 200t-185.5 77q-112 0 -187 -79t-75 -198v-575 q0 -32 -18.5 -50t-49.5 -18t-49 18t-18 50v575q0 125 -67 201t-195 76q-120 0 -186 -81t-66 -200v-571q0 -32 -18.5 -50t-49.5 -18t-49 18t-18 50z" />
<glyph unicode="n" horiz-adv-x="1144" d="M154 68v888q0 32 18 50t49 18t49.5 -18t18.5 -50v-77q54 82 137 123.5t182 41.5q173 0 283 -111.5t110 -291.5v-573q0 -31 -18 -49.5t-49 -18.5t-49.5 18.5t-18.5 49.5v573q0 125 -79 203t-199 78q-130 0 -214.5 -78t-84.5 -203v-573q0 -32 -18.5 -50t-49.5 -18t-49 18 t-18 50z" />
<glyph unicode="o" horiz-adv-x="1171" d="M92 512q0 231 139.5 381.5t354.5 150.5t354 -150.5t139 -381.5t-139 -381.5t-354 -150.5t-354.5 150.5t-139.5 381.5zM231 512q0 -179 98 -294.5t257 -115.5t256.5 115.5t97.5 294.5t-97.5 294.5t-256.5 115.5t-257 -115.5t-98 -294.5z" />
<glyph unicode="p" horiz-adv-x="1232" d="M154 -322v1278q0 32 18 50t49 18t49.5 -18t18.5 -50v-114q21 36 51 68.5t73.5 64t104 50.5t129.5 19q215 0 354.5 -149t139.5 -381q0 -234 -139.5 -383t-354.5 -149q-234 0 -358 188v-492q0 -32 -18.5 -49.5t-49.5 -17.5t-49 17.5t-18 49.5zM289 514q0 -181 100 -296.5 t258 -115.5q157 0 255.5 115.5t98.5 296.5q0 179 -98.5 293.5t-255.5 114.5q-158 0 -258 -114.5t-100 -293.5z" />
<glyph unicode="q" horiz-adv-x="1230" d="M92 514q0 233 139 381.5t353 148.5q132 0 223.5 -55t134.5 -131v98q0 32 18.5 50t49.5 18t49 -18t18 -50v-1278q0 -32 -18 -49.5t-49 -17.5t-49.5 17.5t-18.5 49.5v506q-53 -93 -143.5 -148.5t-214.5 -55.5q-214 0 -353 150t-139 384zM231 514q0 -181 98 -296.5 t255 -115.5q158 0 258 115.5t100 296.5q0 179 -100 293.5t-258 114.5q-157 0 -255 -114t-98 -294z" />
<glyph unicode="r" horiz-adv-x="755" d="M154 68v888q0 32 18 50t49 18t49.5 -18t18.5 -50v-90q122 178 342 178q36 0 55 -17t19 -44t-16.5 -44t-47.5 -17q-166 0 -259 -84t-93 -250v-520q0 -32 -18.5 -50t-49.5 -18t-49 18t-18 50z" />
<glyph unicode="s" horiz-adv-x="960" d="M92 215q0 26 17 45t45 19q30 0 55 -35q19 -29 36 -48t49 -44t80.5 -37.5t110.5 -12.5q118 0 185 45.5t67 126.5q0 54 -33.5 92t-87 58.5t-118 37t-129 37t-118 49t-87 81.5t-33.5 127q0 131 97.5 209.5t265.5 78.5q107 0 195.5 -31.5t123.5 -82.5q16 -22 16 -41 q0 -28 -17.5 -49t-45.5 -21q-26 0 -53 27q-39 36 -87 56t-132 20q-113 0 -172.5 -40t-59.5 -110q0 -52 33.5 -88t87 -56t118 -36.5t129 -37t118 -50t87 -83t33.5 -128.5q0 -141 -106.5 -227t-272.5 -86q-134 0 -240.5 56.5t-148.5 143.5q-8 16 -8 35z" />
<glyph unicode="t" horiz-adv-x="729" d="M51 963q0 29 17 45t47 16h108v180q0 32 18.5 50t49.5 18t49 -18t18 -50v-180h250q30 0 47 -16t17 -45t-17.5 -45.5t-46.5 -16.5h-250v-598q0 -109 32 -155t102 -46q43 0 84 18.5t55 18.5q24 0 40.5 -19t16.5 -46q0 -38 -41 -56q-69 -38 -162 -38q-77 0 -130.5 23t-81 65 t-39 89.5t-11.5 108.5v635h-108q-29 0 -46.5 16.5t-17.5 45.5z" />
<glyph unicode="u" horiz-adv-x="1099" d="M143 385v571q0 31 18.5 49.5t49.5 18.5t49.5 -18.5t18.5 -49.5v-571q0 -127 75.5 -205t196.5 -78q119 0 194.5 78t75.5 205v571q0 31 18.5 49.5t49.5 18.5t49 -18.5t18 -49.5v-571q0 -182 -112 -293.5t-293 -111.5q-182 0 -295 111.5t-113 293.5z" />
<glyph unicode="v" horiz-adv-x="993" d="M51 958q0 27 22 46.5t52 19.5q46 0 63 -45l314 -768l315 768q17 45 53 45q28 0 50 -19t22 -47q0 -13 -6 -28l-369 -873q-24 -57 -71 -57q-45 0 -70 59l-369 871q-6 15 -6 28z" />
<glyph unicode="w" horiz-adv-x="1421" d="M51 958q0 27 22 46.5t52 19.5q51 0 65 -47l263 -758l194 615q18 59 70 59q51 0 69 -57l193 -617l260 748q21 57 61 57q27 0 48.5 -16t21.5 -43q0 -16 -6 -31l-320 -875q-21 -59 -69 -59q-52 0 -70 59l-194 613l-195 -613q-20 -59 -70 -59q-51 0 -71 59l-318 867 q-6 18 -6 32z" />
<glyph unicode="x" horiz-adv-x="1015" d="M92 66q0 19 17 43l311 423l-285 381q-16 22 -16 43q0 25 22.5 46.5t48.5 21.5q29 0 54 -31l270 -360l264 360q22 31 51 31q24 0 44 -17t20 -42q0 -27 -19 -52l-280 -385l313 -417q17 -24 17 -43q0 -25 -23 -46.5t-49 -21.5q-28 0 -53 31l-299 397l-293 -399 q-21 -27 -45 -27q-25 0 -47.5 19t-22.5 45z" />
<glyph unicode="y" horiz-adv-x="972" d="M51 961q0 26 22 44.5t50 18.5q44 0 61 -45l316 -760l293 760q17 45 55 45q28 0 51 -18.5t23 -47.5q0 -10 -7 -28l-426 -1067q-55 -136 -138 -194t-218 -58q-65 0 -65 61q0 60 65 60q75 0 121.5 19t73.5 55.5t53 105.5l51 133l-375 885q-6 15 -6 31z" />
<glyph unicode="z" horiz-adv-x="950" d="M82 63q0 21 22 54l580 784h-514q-26 0 -43.5 18.5t-17.5 43.5q0 26 17.5 43.5t43.5 17.5h629q63 0 63 -53q0 -31 -28 -70l-572 -778h545q26 0 43.5 -18t17.5 -44q0 -25 -17.5 -43t-43.5 -18h-664q-30 0 -45.5 17t-15.5 46z" />
<glyph unicode="{" horiz-adv-x="645" d="M70 512q0 28 14.5 48t44.5 20q60 0 84.5 24t24.5 84v324q0 100 14.5 173.5t48 131.5t94 87.5t148.5 29.5q41 0 61.5 -19t20.5 -47q0 -27 -22.5 -46t-57.5 -19q-93 0 -130.5 -70t-37.5 -223v-322q0 -66 -19.5 -108t-72.5 -68q53 -26 72.5 -68t19.5 -108v-322 q0 -153 37.5 -223t130.5 -70q35 0 57.5 -19t22.5 -46q0 -28 -20.5 -47t-61.5 -19q-88 0 -148.5 29.5t-94 87.5t-48 131.5t-14.5 173.5v324q0 60 -24.5 84t-84.5 24q-30 0 -44.5 20t-14.5 48z" />
<glyph unicode="|" horiz-adv-x="485" d="M174 -324v1917q0 27 21 46.5t49 19.5q27 0 47 -19.5t20 -46.5v-1917q0 -27 -20 -46t-47 -19q-28 0 -49 19t-21 46z" />
<glyph unicode="}" horiz-adv-x="645" d="M20 -344q0 27 22.5 46t57.5 19q93 0 130.5 70t37.5 223v322q0 66 19.5 108t72.5 68q-53 26 -72.5 68t-19.5 108v322q0 153 -37.5 223t-130.5 70q-35 0 -57.5 19t-22.5 46q0 28 20.5 47t61.5 19q71 0 124 -20t87.5 -55.5t56 -89.5t30 -116t8.5 -141v-324q0 -60 24 -84 t84 -24q30 0 44.5 -20t14.5 -48t-14.5 -48t-44.5 -20q-60 0 -84 -24t-24 -84v-324q0 -79 -8.5 -141t-30 -116t-56 -89.5t-87.5 -55.5t-124 -20q-41 0 -61.5 19t-20.5 47z" />
<glyph unicode="~" horiz-adv-x="1011" d="M164 629q0 20 16 39q77 96 203 96q43 0 89.5 -24.5t88 -49t72.5 -24.5q45 0 119 51q18 12 41 12q21 0 38 -16t17 -39q0 -28 -29 -51q-99 -78 -186 -78q-37 0 -73.5 15.5t-61 33.5t-56 33.5t-59.5 15.5q-15 0 -28.5 -2t-24.5 -6t-19.5 -7.5t-16.5 -9t-12 -8.5t-9.5 -8 t-6.5 -6q-24 -21 -49 -21q-19 0 -36 17t-17 37z" />
<glyph unicode="&#xa1;" horiz-adv-x="544" d="M164 934q0 52 28 81t80 29q51 0 80 -29.5t29 -80.5q0 -52 -29 -81.5t-80 -29.5q-52 0 -80 29t-28 82zM193 -297l20 889q0 28 16.5 46.5t42.5 18.5q25 0 41.5 -18.5t16.5 -46.5l20 -891q1 -44 -20.5 -67t-57.5 -23q-37 0 -58.5 23.5t-20.5 68.5z" />
<glyph unicode="&#xa2;" horiz-adv-x="1107" d="M92 514q0 113 35 208.5t94.5 160t135 105t159.5 52.5v144q0 27 21 46t49 19q27 0 47 -19t20 -46v-144q119 -14 205.5 -71.5t124.5 -134.5q10 -23 10 -39q0 -25 -19.5 -43.5t-45.5 -18.5q-31 0 -64 47q-73 110 -211 135v-809q144 25 221 150q25 39 60 39q23 0 41 -16.5 t18 -40.5q0 -22 -12 -43q-40 -72 -127.5 -131.5t-200.5 -77.5v-146q0 -27 -20 -46t-47 -19q-28 0 -49 19t-21 46v144q-84 10 -158.5 48t-134.5 102t-95.5 162t-35.5 218zM231 514q0 -156 76 -270t209 -138v809q-131 -26 -208 -138t-77 -263z" />
<glyph unicode="&#xa3;" horiz-adv-x="1249" d="M117 61q0 26 18 44t43 18q127 0 203 69.5t76 213.5q0 58 -37 167h-162q-26 0 -43.5 15.5t-17.5 40.5q0 24 18 39.5t43 15.5h115q-74 166 -95 235q-28 92 -28 171q0 143 105.5 243.5t267.5 100.5q150 0 252 -84t102 -234q0 -26 -20.5 -46.5t-47.5 -20.5q-29 0 -48 16 t-19 41q0 84 -60.5 138t-167.5 54q-98 0 -159.5 -58.5t-61.5 -149.5q0 -47 15.5 -105.5t27.5 -90t49.5 -112.5t44.5 -98h347q27 0 44 -15.5t17 -39.5q0 -26 -17 -41t-44 -15h-306q29 -89 29 -167q0 -99 -49.5 -176.5t-132.5 -106.5h469q87 0 125 35q22 19 22 67 q0 26 18.5 44t43.5 18q26 0 43.5 -18t17.5 -44q0 -96 -59 -155q-73 -70 -203 -70h-717q-25 0 -43 18t-18 43z" />
<glyph unicode="&#xa4;" horiz-adv-x="1046" d="M133 205q0 29 23 49l71 70q-55 86 -55 190q0 107 55 193l-71 71q-23 20 -23 49q0 25 21.5 47.5t48.5 22.5t47 -20l69 -72q90 65 201 65q113 0 203 -65l72 72q20 20 47 20q26 0 47.5 -21.5t21.5 -48.5q0 -30 -22 -49l-74 -71q55 -86 55 -191t-51 -190l72 -70 q22 -19 22 -49q0 -26 -21 -48t-48 -22q-26 0 -47 21l-72 69q-89 -67 -203 -67q-110 0 -200 65l-72 -69q-21 -21 -47 -21q-27 0 -48.5 21.5t-21.5 48.5zM291 512q0 -101 66.5 -173.5t160.5 -72.5t160.5 72.5t66.5 173.5t-66.5 173.5t-160.5 72.5q-95 0 -161 -71.5t-66 -174.5 z" />
<glyph unicode="&#xa5;" horiz-adv-x="1261" d="M74 1341q0 30 20 51t51 21q43 0 60 -33l428 -700l426 700q20 33 57 33q28 0 50 -20t22 -50q0 -25 -14 -47l-345 -551h152q27 0 44 -15.5t17 -39.5q0 -26 -17 -40.5t-44 -14.5h-219l-62 -98v-119h281q26 0 43.5 -15.5t17.5 -40.5q0 -26 -17 -40.5t-44 -14.5h-281v-237 q0 -34 -18 -52t-51 -18t-51.5 18.5t-18.5 51.5v237h-280q-26 0 -44 15t-18 40q0 24 18.5 40t43.5 16h280v119l-61 98h-219q-26 0 -44 15t-18 40q0 24 18.5 39.5t43.5 15.5h149l-344 551q-12 21 -12 45z" />
<glyph unicode="&#xa6;" horiz-adv-x="485" d="M174 -324v730q0 27 21 46t49 19q27 0 47 -19t20 -46v-730q0 -27 -20 -46t-47 -19q-28 0 -49 19t-21 46zM174 864v729q0 27 21 46.5t49 19.5q27 0 47 -19.5t20 -46.5v-729q0 -27 -20 -46t-47 -19q-28 0 -49 19t-21 46z" />
<glyph unicode="&#xa7;" horiz-adv-x="960" d="M82 215q0 26 16.5 45t44.5 19q31 0 56 -35q19 -29 36 -48t49 -44t80.5 -37.5t110.5 -12.5q118 0 185 45.5t67 126.5q0 54 -33.5 92t-87 58.5t-118 37t-129 37t-118 49t-87 81.5t-33.5 127q0 118 108 188q-108 67 -108 201q0 132 97.5 210.5t264.5 78.5q107 0 196 -32 t124 -83q16 -22 16 -41q0 -28 -17.5 -49t-45.5 -21q-27 0 -54 27q-39 36 -87 56t-132 20q-113 0 -172 -39.5t-59 -110.5q0 -52 33.5 -88t87 -56t118 -36.5t129 -37t118 -50t87 -83t33.5 -128.5q0 -121 -94 -197q94 -68 94 -192q0 -141 -106.5 -227t-272.5 -86 q-134 0 -240.5 56.5t-148.5 143.5q-8 16 -8 35zM252 772q0 -46 24.5 -79t71 -53.5t93.5 -34t113.5 -31.5t109.5 -35q63 48 63 125q0 38 -18 68.5t-44 49.5t-69 36t-80.5 26.5t-91 24t-88.5 26.5q-84 -38 -84 -123z" />
<glyph unicode="&#xa8;" d="M272 1329q0 45 25 70.5t70 25.5t70.5 -25.5t25.5 -70.5q0 -92 -96 -92q-95 0 -95 92zM559 1329q0 46 25 71t69 25q45 0 71 -25.5t26 -70.5q0 -46 -25.5 -69t-71.5 -23q-94 0 -94 92z" />
<glyph unicode="&#xa9;" horiz-adv-x="1581" d="M82 698q0 214 88.5 381.5t250.5 261t370 93.5q316 0 512 -199t196 -520q0 -214 -88.5 -381t-250 -260.5t-369.5 -93.5q-209 0 -370 89.5t-250 253t-89 375.5zM225 698q0 -113 40 -217.5t111 -186t179.5 -130.5t235.5 -49q257 0 411 166t154 434q0 113 -39.5 217.5 t-111 186t-179.5 130.5t-235 49q-257 0 -411.5 -166t-154.5 -434zM375 707q0 213 114.5 336.5t298.5 123.5q60 0 115 -15t92 -36t68 -48.5t47.5 -48.5t26.5 -40q18 -32 18 -55q0 -29 -17.5 -46.5t-39.5 -17.5q-33 0 -51 27q-26 40 -43 61t-47.5 46t-71.5 35.5t-97 10.5 q-134 0 -208 -93t-74 -242q0 -147 75 -240.5t207 -93.5q172 0 259 139q19 31 49 31q20 0 38.5 -15t18.5 -39q0 -32 -18 -59q-121 -184 -347 -184q-184 0 -298.5 123.5t-114.5 339.5z" />
<glyph unicode="&#xaa;" horiz-adv-x="897" d="M82 1065q0 164 96.5 266.5t243.5 102.5q72 0 128.5 -35t86.5 -94v51q0 31 17 48t46 17q64 0 64 -63v-453q0 -64 35 -69q23 -3 38 -19t15 -41q0 -32 -20 -49.5t-56 -17.5q-61 0 -98.5 34t-40.5 93q-29 -65 -87 -103.5t-128 -38.5q-149 0 -244.5 105.5t-95.5 265.5z M209 1065q0 -109 58.5 -178.5t154.5 -69.5t155.5 70t59.5 178t-59.5 177t-155.5 69t-154.5 -69t-58.5 -177z" />
<glyph unicode="&#xab;" horiz-adv-x="1189" d="M102 514q0 26 23 49l432 340q23 19 45 19t38.5 -17t16.5 -41q0 -32 -24 -49l-385 -299l383 -307q26 -22 26 -51q0 -22 -16 -39t-39 -17q-22 0 -45 19l-432 346q-23 20 -23 47zM532 514q0 26 23 49l432 340q23 19 45 19t38.5 -17t16.5 -41q0 -32 -24 -49l-385 -299 l383 -307q26 -22 26 -51q0 -22 -16 -39t-39 -17q-22 0 -45 19l-432 346q-23 20 -23 47z" />
<glyph unicode="&#xac;" horiz-adv-x="1011" d="M164 813q0 24 18 39.5t43 15.5h570q24 0 38.5 -14.5t14.5 -38.5v-323q0 -26 -15 -44t-40 -18q-24 0 -40 18.5t-16 43.5v266h-512q-26 0 -43.5 15t-17.5 40z" />
<glyph unicode="&#xad;" horiz-adv-x="765" />
<glyph unicode="&#xae;" horiz-adv-x="1327" d="M82 829q0 268 161.5 436.5t420.5 168.5t420 -163.5t161 -426.5q0 -175 -72.5 -312.5t-205 -214.5t-303.5 -77q-259 0 -420.5 163t-161.5 426zM223 829q0 -118 52 -220.5t154.5 -168t234.5 -65.5q202 0 321 129t119 340q0 88 -30.5 169.5t-86 145t-139.5 101.5t-184 38 q-202 0 -321.5 -129t-119.5 -340zM426 553v580q0 26 17.5 43.5t43.5 17.5h230q103 0 164 -59.5t61 -159.5q0 -72 -39 -130t-115 -77l132 -178q14 -21 14 -41q0 -22 -18 -39.5t-42 -17.5q-32 0 -53 24l-180 244h-92v-207q0 -25 -18.5 -43t-43.5 -18q-26 0 -43.5 18t-17.5 43z M549 883h168q102 0 102 92q0 96 -102 96h-168v-188z" />
<glyph unicode="&#xaf;" d="M225 1329q0 27 19 44.5t47 17.5h442q28 0 47 -17.5t19 -44.5q0 -26 -19 -43.5t-47 -17.5h-442q-28 0 -47 17.5t-19 43.5z" />
<glyph unicode="&#xb0;" horiz-adv-x="788" d="M102 1118q0 137 82.5 226.5t208.5 89.5q127 0 210 -89.5t83 -226.5q0 -138 -82.5 -226.5t-210.5 -88.5q-126 0 -208.5 88.5t-82.5 226.5zM225 1118q0 -78 43.5 -135t124.5 -57q82 0 126 57t44 135q0 77 -44 135t-126 58q-81 0 -124.5 -58t-43.5 -135z" />
<glyph unicode="&#xb1;" horiz-adv-x="1011" d="M164 55q0 24 18 40t43 16h561q27 0 44.5 -15.5t17.5 -40.5q0 -26 -17.5 -40.5t-44.5 -14.5h-561q-26 0 -43.5 15t-17.5 40zM164 649q0 24 18 40t43 16h226v245q0 27 15.5 44.5t39.5 17.5q26 0 40.5 -17.5t14.5 -44.5v-245h225q27 0 44.5 -15.5t17.5 -40.5 q0 -26 -17.5 -40.5t-44.5 -14.5h-225v-246q0 -26 -15 -43.5t-40 -17.5q-24 0 -39.5 18t-15.5 43v246h-226q-26 0 -43.5 15t-17.5 40z" />
<glyph unicode="&#xb2;" horiz-adv-x="745" d="M125 1245q0 20 8 39q31 67 95 108.5t155 41.5q113 0 177.5 -56t64.5 -145q0 -33 -11.5 -65.5t-29 -61t-58.5 -73t-78 -80.5t-110 -105l-35 -35h281q30 0 48.5 -13.5t18.5 -39.5q0 -27 -19 -41t-48 -14h-379q-31 0 -53.5 15t-22.5 50q0 37 33 70l53 53q37 37 91 88.5 t78.5 76t52.5 57t38 56.5t10 50q0 43 -27.5 66.5t-76.5 23.5q-94 0 -131 -82q-20 -45 -64 -45q-27 0 -44 17t-17 44z" />
<glyph unicode="&#xb3;" horiz-adv-x="745" d="M131 819q0 25 17.5 42.5t46.5 17.5q25 0 57 -25q46 -37 113 -37q143 0 143 98q0 101 -152 101h-26q-31 0 -51.5 15t-20.5 42q0 26 20.5 39.5t51.5 13.5h41q51 0 87 23.5t36 69.5q0 43 -36 67.5t-106 24.5q-54 0 -110 -29q-32 -16 -52 -16t-34.5 15.5t-14.5 41.5 q0 33 39 61q68 50 168 50q125 0 201 -55t76 -150q0 -105 -111 -150q57 -20 91 -61t34 -103q0 -37 -15.5 -73.5t-46.5 -71t-89 -55.5t-134 -21q-71 0 -109.5 14.5t-78.5 45.5q-16 13 -25.5 31.5t-9.5 33.5z" />
<glyph unicode="&#xb4;" d="M367 1161q0 23 18 41l219 211q22 19 47 19q33 0 54.5 -23.5t21.5 -54.5q0 -33 -27 -51l-249 -179q-18 -12 -37 -12q-21 0 -34 14.5t-13 34.5z" />
<glyph unicode="&#xb5;" horiz-adv-x="1077" d="M143 -322v1278q0 28 20 48t48 20t48 -20t20 -48v-571q0 -126 69.5 -204.5t183.5 -78.5q116 0 191.5 79t75.5 204v571q0 28 19 48t48 20q27 0 47.5 -20.5t20.5 -49.5v-706q0 -73 10.5 -93.5t52.5 -31.5q22 -6 36 -22.5t14 -37.5q0 -27 -20 -45t-50 -18q-67 0 -113.5 39 t-52.5 119q-100 -178 -285 -178q-77 0 -142 36.5t-105 100.5v-439q0 -28 -20 -47.5t-48 -19.5t-48 19.5t-20 47.5z" />
<glyph unicode="&#xb6;" horiz-adv-x="1013" d="M51 1057q0 158 102.5 257t268.5 99h369q25 0 42 -17t17 -42v-1293q0 -25 -17 -43t-42 -18q-26 0 -44 18t-18 43v1231h-111v-1231q0 -25 -17.5 -43t-43.5 -18q-25 0 -42 18t-17 43v646h-76q-155 0 -263 95.5t-108 254.5z" />
<glyph unicode="&#xb7;" d="M408 715q0 104 102 104q50 0 77 -26.5t27 -77.5q0 -101 -104 -101q-102 0 -102 101z" />
<glyph unicode="&#xb8;" d="M424 -379q0 18 5 30t15 17t18.5 7t22.5 3q59 4 80 21t21 53q0 33 -24.5 49.5t-63.5 16.5q-26 0 -34.5 10t-8.5 39v133h108v-82q57 -3 100.5 -45t43.5 -113q0 -91 -63.5 -142.5t-141.5 -51.5q-44 0 -61 13.5t-17 41.5z" />
<glyph unicode="&#xb9;" horiz-adv-x="745" d="M172 1206q0 30 25 51l157 142q28 24 60 24t50.5 -17t18.5 -48v-584q0 -69 -67 -69q-66 0 -66 69v449l-71 -60q-22 -18 -48 -18q-25 0 -42 17t-17 44z" />
<glyph unicode="&#xba;" horiz-adv-x="847" d="M82 1065q0 160 96.5 264.5t245.5 104.5t245.5 -104.5t96.5 -264.5q0 -161 -96.5 -266t-245.5 -105t-245.5 105t-96.5 266zM211 1065q0 -109 58 -178.5t155 -69.5q96 0 154.5 69.5t58.5 178.5q0 107 -58.5 176.5t-154.5 69.5q-97 0 -155 -69t-58 -177z" />
<glyph unicode="&#xbb;" horiz-adv-x="1189" d="M102 158q0 28 27 51l383 307l-385 299q-25 18 -25 49q0 24 17 41t39 17t45 -19l432 -340q22 -22 22 -49q0 -28 -22 -47l-432 -346q-23 -19 -45 -19q-23 0 -39.5 17t-16.5 39zM532 158q0 28 27 51l383 307l-385 299q-25 18 -25 49q0 24 17 41t39 17t45 -19l432 -340 q22 -22 22 -49q0 -28 -22 -47l-432 -346q-23 -19 -45 -19q-23 0 -39.5 17t-16.5 39z" />
<glyph unicode="&#xbc;" horiz-adv-x="1646" d="M172 1206q0 30 25 51l157 142q28 24 60 24t50.5 -17t18.5 -48v-584q0 -69 -67 -69q-66 0 -66 69v449l-71 -60q-22 -18 -48 -18q-25 0 -42 17t-17 44zM266 45q0 22 23 53l1032 1295q30 41 59 41q28 0 47 -17t19 -47q0 -24 -29 -59l-1024 -1286q-19 -25 -32.5 -35 t-30.5 -10q-27 0 -45.5 18t-18.5 47zM993 193q0 30 19 57l295 405q23 31 40 42.5t39 11.5q64 0 64 -70v-389h45q68 0 68 -55q0 -58 -68 -58h-45v-78q0 -33 -17.5 -51t-46.5 -18q-65 0 -65 69v78h-260q-68 0 -68 56zM1137 250h184v254z" />
<glyph unicode="&#xbd;" horiz-adv-x="1646" d="M172 1206q0 30 25 51l157 142q28 24 60 24t50.5 -17t18.5 -48v-584q0 -69 -67 -69q-66 0 -66 69v449l-71 -60q-22 -18 -48 -18q-25 0 -42 17t-17 44zM233 45q0 22 23 53l1032 1295q30 41 60 41q27 0 46 -17t19 -47q0 -24 -29 -59l-1024 -1286q-19 -25 -32.5 -35 t-30.5 -10q-27 0 -45.5 18t-18.5 47zM1026 530q0 20 8 39q31 67 95 108.5t155 41.5q113 0 177.5 -56t64.5 -145q0 -33 -11.5 -65.5t-29 -61t-58.5 -73t-78 -80.5t-110 -105l-35 -35h281q30 0 48.5 -13.5t18.5 -39.5q0 -27 -19 -41t-48 -14h-379q-31 0 -53.5 15t-22.5 50 q0 37 33 70l53 53q37 37 91 88.5t78.5 76t52.5 57t38 56.5t10 50q0 43 -27.5 66.5t-76.5 23.5q-94 0 -131 -82q-20 -45 -64 -45q-27 0 -44 17t-17 44z" />
<glyph unicode="&#xbe;" horiz-adv-x="1646" d="M131 819q0 25 17.5 42.5t46.5 17.5q25 0 57 -25q46 -37 113 -37q143 0 143 98q0 101 -152 101h-26q-31 0 -51.5 15t-20.5 42q0 26 20.5 39.5t51.5 13.5h41q51 0 87 23.5t36 69.5q0 43 -36 67.5t-106 24.5q-54 0 -110 -29q-32 -16 -52 -16t-34.5 15.5t-14.5 41.5 q0 33 39 61q68 50 168 50q125 0 201 -55t76 -150q0 -105 -111 -150q57 -20 91 -61t34 -103q0 -37 -15.5 -73.5t-46.5 -71t-89 -55.5t-134 -21q-71 0 -109.5 14.5t-78.5 45.5q-16 13 -25.5 31.5t-9.5 33.5zM295 45q0 23 22 53l1033 1295q30 41 59 41q28 0 47 -17t19 -47 q0 -24 -29 -59l-1024 -1286q-19 -24 -32.5 -34.5t-31.5 -10.5q-27 0 -45 18t-18 47zM993 193q0 30 19 57l295 405q23 31 40 42.5t39 11.5q64 0 64 -70v-389h45q68 0 68 -55q0 -58 -68 -58h-45v-78q0 -33 -17.5 -51t-46.5 -18q-65 0 -65 69v78h-260q-68 0 -68 56zM1137 250 h184v254z" />
<glyph unicode="&#xbf;" horiz-adv-x="1052" d="M133 -41q0 80 26 144.5t76.5 111.5t111.5 80t142 61v238q0 26 19 44.5t47 18.5q27 0 46.5 -18.5t19.5 -44.5v-281q0 -27 -17.5 -47.5t-48.5 -27.5q-137 -32 -208 -103t-71 -172q0 -97 61.5 -157t178.5 -60q185 0 256 152q20 45 64 45q26 0 44.5 -18.5t18.5 -45.5 q0 -20 -8 -39q-40 -93 -138 -161t-235 -68q-178 0 -281.5 94t-103.5 254zM449 934q0 52 28 81t80 29q51 0 80 -29.5t29 -80.5q0 -52 -29 -81.5t-80 -29.5q-52 0 -80 29t-28 82z" />
<glyph unicode="&#xc0;" horiz-adv-x="1374" d="M72 68q0 13 6 28l545 1276q17 41 63 41q49 0 66 -41l544 -1276q7 -17 7 -28q0 -29 -23.5 -48.5t-54.5 -19.5q-44 0 -62 43l-151 360h-660l-149 -360q-18 -43 -56 -43q-29 0 -52 19t-23 49zM403 526h558l-279 662zM469 1743q0 31 21.5 54.5t54.5 23.5q25 0 47 -19 l219 -211q18 -18 18 -41q0 -20 -13 -34.5t-34 -14.5q-19 0 -37 12l-249 179q-27 18 -27 51z" />
<glyph unicode="&#xc1;" horiz-adv-x="1374" d="M72 68q0 13 6 28l545 1276q17 41 63 41q49 0 66 -41l544 -1276q7 -17 7 -28q0 -29 -23.5 -48.5t-54.5 -19.5q-44 0 -62 43l-151 360h-660l-149 -360q-18 -43 -56 -43q-29 0 -52 19t-23 49zM403 526h558l-279 662zM530 1550q0 22 19 41l219 211q22 19 47 19 q33 0 54.5 -23.5t21.5 -54.5q0 -33 -27 -51l-250 -179q-18 -12 -36 -12q-21 0 -34.5 14.5t-13.5 34.5z" />
<glyph unicode="&#xc2;" horiz-adv-x="1374" d="M72 68q0 13 6 28l545 1276q17 41 63 41q49 0 66 -41l544 -1276q7 -17 7 -28q0 -29 -23.5 -48.5t-54.5 -19.5q-44 0 -62 43l-151 360h-660l-149 -360q-18 -43 -56 -43q-29 0 -52 19t-23 49zM389 1567q0 18 19 37l219 198q22 19 49 19t49 -19l219 -198q19 -19 19 -39 q0 -19 -15 -33t-35 -14q-19 0 -34 12l-203 158l-203 -158q-15 -12 -37 -12q-19 0 -33 14.5t-14 34.5zM403 526h558l-279 662z" />
<glyph unicode="&#xc3;" horiz-adv-x="1374" d="M72 68q0 13 6 28l545 1276q17 41 63 41q49 0 66 -41l544 -1276q7 -17 7 -28q0 -29 -23.5 -48.5t-54.5 -19.5q-44 0 -62 43l-151 360h-660l-149 -360q-18 -43 -56 -43q-29 0 -52 19t-23 49zM336 1657q0 22 24 49q87 100 199 100q43 0 89.5 -22.5t88 -45t72.5 -22.5 q54 0 119 68q14 14 37 14q22 0 36.5 -15.5t14.5 -39.5q0 -22 -29 -51q-24 -24 -35.5 -34.5t-36.5 -28.5t-50.5 -26t-55.5 -8q-37 0 -73.5 14t-61 31.5t-56 31.5t-59.5 14q-21 0 -37.5 -3.5t-30.5 -12t-21 -14t-19 -18t-15 -14.5q-20 -20 -47 -20q-19 0 -36 16t-17 37z M403 526h558l-279 662z" />
<glyph unicode="&#xc4;" horiz-adv-x="1374" d="M72 68q0 13 6 28l545 1276q17 41 63 41q49 0 66 -41l544 -1276q7 -17 7 -28q0 -29 -23.5 -48.5t-54.5 -19.5q-44 0 -62 43l-151 360h-660l-149 -360q-18 -43 -56 -43q-29 0 -52 19t-23 49zM403 526h558l-279 662zM436 1718q0 46 25 71.5t69 25.5q45 0 71 -26t26 -71 q0 -46 -25.5 -69t-71.5 -23q-94 0 -94 92zM723 1718q0 46 25 71.5t69 25.5q45 0 70.5 -25.5t25.5 -71.5q0 -92 -96 -92q-94 0 -94 92z" />
<glyph unicode="&#xc5;" horiz-adv-x="1374" d="M72 68q0 13 6 28l545 1276q17 41 63 41q49 0 66 -41l544 -1276q7 -17 7 -28q0 -29 -23.5 -48.5t-54.5 -19.5q-44 0 -62 43l-151 360h-660l-149 -360q-18 -43 -56 -43q-29 0 -52 19t-23 49zM403 526h558l-279 662zM489 1665q0 89 58 139.5t129 50.5q80 0 133 -54t53 -136 q0 -80 -53.5 -134t-132.5 -54q-71 0 -129 51t-58 137zM592 1665q0 -37 21.5 -61.5t62.5 -24.5q43 0 63.5 26t20.5 60q0 36 -20.5 62t-63.5 26q-84 0 -84 -88z" />
<glyph unicode="&#xc6;" horiz-adv-x="1918" d="M47.5 43q-10.5 26 3.5 51l785 1256q21 33 43.5 48t62.5 15h838q67 0 67 -61q0 -62 -67 -62h-731v-504h514q67 0 67 -61t-67 -61h-514v-541h731q67 0 67 -62q0 -61 -67 -61h-801q-33 0 -51.5 18.5t-18.5 51.5v333h-512l-225 -366q-15 -26 -39 -34.5t-49 3.5 q-26 11 -36.5 37zM473 526h436v709z" />
<glyph unicode="&#xc7;" horiz-adv-x="1406" d="M102 709q0 168 49 305.5t136.5 229t207.5 141t261 49.5q95 0 181 -22.5t145 -55.5t107.5 -75t75 -77t40.5 -65q8 -16 8 -39q0 -27 -19 -47.5t-49 -20.5q-35 0 -61 33q-34 44 -55 68.5t-62 61t-80.5 56t-100 34.5t-130.5 15q-161 0 -278 -78t-174.5 -210.5t-57.5 -304.5 q0 -171 59 -304t176 -210.5t275 -77.5q278 0 424 227q25 43 63 43q27 0 49.5 -20t22.5 -48q0 -23 -15 -47q-19 -31 -41 -60t-69 -72.5t-101 -75t-137.5 -56t-177.5 -26.5v-62q57 -3 100.5 -45t43.5 -113q0 -91 -63.5 -142.5t-141.5 -51.5q-44 0 -61 13.5t-17 41.5q0 18 5 30 t15 17t18.5 7t22.5 3q59 4 80 21t21 53q0 33 -24.5 49.5t-63.5 16.5q-26 0 -34.5 10t-8.5 39v119q-254 30 -409 221.5t-155 501.5z" />
<glyph unicode="&#xc8;" horiz-adv-x="1183" d="M174 70v1273q0 34 19 52t53 18h798q68 0 68 -61q0 -62 -68 -62h-731v-504h514q68 0 68 -61t-68 -61h-514v-541h731q68 0 68 -62q0 -61 -68 -61h-800q-33 0 -51.5 18.5t-18.5 51.5zM436 1743q0 31 21.5 54.5t54.5 23.5q25 0 47 -19l219 -211q19 -19 19 -41 q0 -20 -13 -34.5t-34 -14.5q-19 0 -37 12l-250 179q-27 18 -27 51z" />
<glyph unicode="&#xc9;" horiz-adv-x="1183" d="M174 70v1273q0 34 19 52t53 18h798q68 0 68 -61q0 -62 -68 -62h-731v-504h514q68 0 68 -61t-68 -61h-514v-541h731q68 0 68 -62q0 -61 -68 -61h-800q-33 0 -51.5 18.5t-18.5 51.5zM498 1550q0 23 18 41l219 211q22 19 47 19q33 0 54.5 -23.5t21.5 -54.5q0 -33 -27 -51 l-249 -179q-18 -12 -37 -12q-21 0 -34 14.5t-13 34.5z" />
<glyph unicode="&#xca;" horiz-adv-x="1183" d="M174 70v1273q0 34 19 52t53 18h798q68 0 68 -61q0 -62 -68 -62h-731v-504h514q68 0 68 -61t-68 -61h-514v-541h731q68 0 68 -62q0 -61 -68 -61h-800q-33 0 -51.5 18.5t-18.5 51.5zM356 1567q0 18 19 37l219 198q22 19 49 19t49 -19l219 -198q19 -19 19 -39 q0 -19 -14.5 -33t-34.5 -14t-35 12l-203 158l-203 -158q-15 -12 -37 -12q-19 0 -33 14.5t-14 34.5z" />
<glyph unicode="&#xcb;" horiz-adv-x="1183" d="M174 70v1273q0 34 19 52t53 18h798q68 0 68 -61q0 -62 -68 -62h-731v-504h514q68 0 68 -61t-68 -61h-514v-541h731q68 0 68 -62q0 -61 -68 -61h-800q-33 0 -51.5 18.5t-18.5 51.5zM403 1718q0 46 25.5 71.5t69.5 25.5t70 -25.5t26 -71.5q0 -92 -96 -92q-95 0 -95 92z M690 1718q0 46 25 71.5t69 25.5q45 0 71 -26t26 -71q0 -46 -25.5 -69t-71.5 -23q-94 0 -94 92z" />
<glyph unicode="&#xcc;" horiz-adv-x="487" d="M27 1743q0 31 21.5 54.5t53.5 23.5q26 0 48 -19l219 -211q18 -18 18 -41q0 -20 -13 -34.5t-34 -14.5q-19 0 -37 12l-250 179q-26 17 -26 51zM174 70v1273q0 33 18.5 51.5t51.5 18.5q32 0 50.5 -18.5t18.5 -51.5v-1273q0 -34 -18.5 -52t-50.5 -18q-33 0 -51.5 18.5 t-18.5 51.5z" />
<glyph unicode="&#xcd;" horiz-adv-x="487" d="M88 1550q0 23 18 41l220 211q22 19 47 19q33 0 54.5 -23.5t21.5 -54.5q0 -33 -27 -51l-250 -179q-18 -12 -37 -12q-21 0 -34 14.5t-13 34.5zM174 70v1273q0 33 18.5 51.5t51.5 18.5q32 0 50.5 -18.5t18.5 -51.5v-1273q0 -34 -18.5 -52t-50.5 -18q-33 0 -51.5 18.5 t-18.5 51.5z" />
<glyph unicode="&#xce;" horiz-adv-x="487" d="M-53 1567q0 19 18 37l219 198q22 19 49 19q28 0 50 -19l219 -198q18 -18 18 -39q0 -19 -14.5 -33t-34.5 -14t-35 12l-203 158l-202 -158q-15 -12 -37 -12q-19 0 -33 14.5t-14 34.5zM174 70v1273q0 33 18.5 51.5t51.5 18.5q32 0 50.5 -18.5t18.5 -51.5v-1273 q0 -34 -18.5 -52t-50.5 -18q-33 0 -51.5 18.5t-18.5 51.5z" />
<glyph unicode="&#xcf;" horiz-adv-x="487" d="M-6 1718q0 46 25 71.5t69 25.5t70 -25.5t26 -71.5q0 -92 -96 -92q-94 0 -94 92zM174 70v1273q0 33 18.5 51.5t51.5 18.5q32 0 50.5 -18.5t18.5 -51.5v-1273q0 -34 -18.5 -52t-50.5 -18q-33 0 -51.5 18.5t-18.5 51.5zM281 1718q0 46 25 71.5t69 25.5q45 0 70.5 -25.5 t25.5 -71.5q0 -92 -96 -92q-94 0 -94 92z" />
<glyph unicode="&#xd0;" horiz-adv-x="1415" d="M20 739q0 24 18.5 40t43.5 16h102v548q0 34 19 52t53 18h416q196 0 342 -88.5t222.5 -246t76.5 -363.5q0 -200 -76 -361t-223.5 -257.5t-341.5 -96.5h-418q-33 0 -51.5 18.5t-18.5 51.5v614h-102q-26 0 -44 15t-18 40zM324 123h344q227 0 364 165.5t137 426.5 q0 259 -137 417t-375 158h-333v-495h319q27 0 44.5 -15.5t17.5 -40.5q0 -26 -17.5 -40.5t-44.5 -14.5h-319v-561z" />
<glyph unicode="&#xd1;" horiz-adv-x="1431" d="M174 70v1255q0 88 70 88q34 0 61 -37l813 -1108v1075q0 33 18.5 51.5t51.5 18.5q32 0 50.5 -18.5t18.5 -51.5v-1273q0 -32 -17.5 -51t-51.5 -19q-39 0 -66 37l-809 1102v-1069q0 -34 -18.5 -52t-50.5 -18q-33 0 -51.5 18.5t-18.5 51.5zM365 1657q0 22 24 49 q87 100 199 100q43 0 89.5 -22.5t88 -45t72.5 -22.5t58 17t60 51q14 14 37 14q22 0 36.5 -15.5t14.5 -39.5q0 -23 -28 -51q-24 -24 -35.5 -34.5t-36.5 -28.5t-50.5 -26t-55.5 -8q-37 0 -73.5 14t-61 31.5t-56 31.5t-59.5 14q-21 0 -37.5 -3.5t-30.5 -12t-21 -14t-19 -18 t-15 -14.5q-20 -20 -47 -20q-19 0 -36 16t-17 37z" />
<glyph unicode="&#xd2;" horiz-adv-x="1511" d="M102 707q0 337 181 532t473 195t472.5 -195t180.5 -532t-180.5 -532t-472.5 -195t-473 195t-181 532zM246 707q0 -128 34 -236t97.5 -187.5t161 -124t217.5 -44.5q162 0 278.5 77.5t174 210t57.5 304.5q0 173 -57.5 305t-174 209t-278.5 77t-278.5 -77t-174 -209 t-57.5 -305zM539 1743q0 31 21.5 54.5t53.5 23.5q26 0 48 -19l219 -211q18 -18 18 -41q0 -20 -13 -34.5t-34 -14.5q-19 0 -37 12l-250 179q-26 17 -26 51z" />
<glyph unicode="&#xd3;" horiz-adv-x="1511" d="M102 707q0 337 181 532t473 195t472.5 -195t180.5 -532t-180.5 -532t-472.5 -195t-473 195t-181 532zM246 707q0 -128 34 -236t97.5 -187.5t161 -124t217.5 -44.5q162 0 278.5 77.5t174 210t57.5 304.5q0 173 -57.5 305t-174 209t-278.5 77t-278.5 -77t-174 -209 t-57.5 -305zM600 1550q0 23 18 41l220 211q22 19 47 19q33 0 54.5 -23.5t21.5 -54.5q0 -33 -27 -51l-250 -179q-18 -12 -37 -12q-21 0 -34 14.5t-13 34.5z" />
<glyph unicode="&#xd4;" horiz-adv-x="1511" d="M102 707q0 337 181 532t473 195t472.5 -195t180.5 -532t-180.5 -532t-472.5 -195t-473 195t-181 532zM246 707q0 -128 34 -236t97.5 -187.5t161 -124t217.5 -44.5q162 0 278.5 77.5t174 210t57.5 304.5q0 173 -57.5 305t-174 209t-278.5 77t-278.5 -77t-174 -209 t-57.5 -305zM459 1567q0 19 18 37l219 198q22 19 49 19q28 0 50 -19l219 -198q18 -18 18 -39q0 -19 -14.5 -33t-34.5 -14t-35 12l-203 158l-202 -158q-15 -12 -37 -12q-19 0 -33 14.5t-14 34.5z" />
<glyph unicode="&#xd5;" horiz-adv-x="1511" d="M102 707q0 337 181 532t473 195t472.5 -195t180.5 -532t-180.5 -532t-472.5 -195t-473 195t-181 532zM246 707q0 -128 34 -236t97.5 -187.5t161 -124t217.5 -44.5q162 0 278.5 77.5t174 210t57.5 304.5q0 173 -57.5 305t-174 209t-278.5 77t-278.5 -77t-174 -209 t-57.5 -305zM406 1657q0 22 24 49q87 100 199 100q43 0 89.5 -22.5t88 -45t72.5 -22.5t58 17t60 51q14 14 37 14q22 0 36.5 -15.5t14.5 -39.5q0 -23 -28 -51q-24 -24 -35.5 -34.5t-36.5 -28.5t-50.5 -26t-55.5 -8q-37 0 -73.5 14t-61 31.5t-56 31.5t-59.5 14 q-21 0 -37.5 -3.5t-30.5 -12t-21 -14t-19 -18t-15 -14.5q-20 -20 -47 -20q-19 0 -36 16t-17 37z" />
<glyph unicode="&#xd6;" horiz-adv-x="1511" d="M102 707q0 337 181 532t473 195t472.5 -195t180.5 -532t-180.5 -532t-472.5 -195t-473 195t-181 532zM246 707q0 -128 34 -236t97.5 -187.5t161 -124t217.5 -44.5q162 0 278.5 77.5t174 210t57.5 304.5q0 173 -57.5 305t-174 209t-278.5 77t-278.5 -77t-174 -209 t-57.5 -305zM506 1718q0 46 25 71.5t69 25.5t70 -25.5t26 -71.5q0 -92 -96 -92q-94 0 -94 92zM793 1718q0 46 25 71.5t69 25.5q45 0 70.5 -25.5t25.5 -71.5q0 -92 -96 -92q-94 0 -94 92z" />
<glyph unicode="&#xd7;" horiz-adv-x="1011" d="M233 430q0 26 19 45l174 174l-172 174q-21 21 -21 45q0 21 16.5 37.5t37.5 16.5q24 0 45 -21l172 -174l176 174q21 21 45 21q19 0 36 -16.5t17 -37.5q0 -25 -20 -45l-176 -174l176 -176q20 -20 20 -45q0 -21 -15 -36t-38 -15q-27 0 -45 18l-176 176l-174 -174 q-20 -20 -45 -20q-21 0 -36.5 15t-15.5 38z" />
<glyph unicode="&#xd8;" horiz-adv-x="1511" d="M102 707q0 337 181 532t473 195q195 0 354 -97l49 70q18 27 53 27q28 0 49 -20t21 -50q0 -22 -10 -35l-55 -80q192 -198 192 -542q0 -337 -180.5 -532t-472.5 -195q-203 0 -359 98l-49 -72q-17 -26 -53 -26q-27 0 -48.5 19.5t-21.5 49.5q0 21 11 35l55 80 q-189 199 -189 543zM246 707q0 -259 129 -422l655 938q-113 75 -274 75q-162 0 -278.5 -77t-174 -209t-57.5 -305zM477 193q116 -78 279 -78q162 0 278.5 77.5t174 210t57.5 304.5q0 265 -131 426z" />
<glyph unicode="&#xd9;" horiz-adv-x="1433" d="M164 516v827q0 33 18 51.5t51 18.5t51.5 -18.5t18.5 -51.5v-827q0 -184 110 -292.5t304 -108.5q196 0 304.5 108t108.5 301v819q0 33 18.5 51.5t51.5 18.5t51.5 -18.5t18.5 -51.5v-819q0 -252 -153 -398t-400 -146q-256 0 -404.5 140t-148.5 396zM500 1743q0 31 21 54.5 t54 23.5q26 0 48 -19l219 -211q18 -18 18 -41q0 -20 -13 -34.5t-34 -14.5q-19 0 -37 12l-250 179q-26 17 -26 51z" />
<glyph unicode="&#xda;" horiz-adv-x="1433" d="M164 516v827q0 33 18 51.5t51 18.5t51.5 -18.5t18.5 -51.5v-827q0 -184 110 -292.5t304 -108.5q196 0 304.5 108t108.5 301v819q0 33 18.5 51.5t51.5 18.5t51.5 -18.5t18.5 -51.5v-819q0 -252 -153 -398t-400 -146q-256 0 -404.5 140t-148.5 396zM561 1550q0 22 19 41 l219 211q22 19 47 19q33 0 54.5 -23.5t21.5 -54.5q0 -33 -27 -51l-250 -179q-18 -12 -37 -12q-21 0 -34 14.5t-13 34.5z" />
<glyph unicode="&#xdb;" horiz-adv-x="1433" d="M164 516v827q0 33 18 51.5t51 18.5t51.5 -18.5t18.5 -51.5v-827q0 -184 110 -292.5t304 -108.5q196 0 304.5 108t108.5 301v819q0 33 18.5 51.5t51.5 18.5t51.5 -18.5t18.5 -51.5v-819q0 -252 -153 -398t-400 -146q-256 0 -404.5 140t-148.5 396zM420 1567q0 19 18 37 l219 198q22 19 50 19q27 0 49 -19l219 -198q18 -18 18 -39q0 -19 -14.5 -33t-34.5 -14t-35 12l-202 158l-203 -158q-15 -12 -37 -12q-19 0 -33 14.5t-14 34.5z" />
<glyph unicode="&#xdc;" horiz-adv-x="1433" d="M164 516v827q0 33 18 51.5t51 18.5t51.5 -18.5t18.5 -51.5v-827q0 -184 110 -292.5t304 -108.5q196 0 304.5 108t108.5 301v819q0 33 18.5 51.5t51.5 18.5t51.5 -18.5t18.5 -51.5v-819q0 -252 -153 -398t-400 -146q-256 0 -404.5 140t-148.5 396zM467 1718q0 46 25 71.5 t69 25.5q45 0 70.5 -25.5t25.5 -71.5q0 -92 -96 -92q-94 0 -94 92zM754 1718q0 46 25 71.5t69 25.5t70 -25.5t26 -71.5q0 -92 -96 -92q-94 0 -94 92z" />
<glyph unicode="&#xdd;" horiz-adv-x="1261" d="M74 1341q0 30 20 51t51 21q43 0 60 -33l428 -700l426 700q20 33 57 33q28 0 50 -20t22 -50q0 -25 -14 -47l-474 -759v-467q0 -34 -18 -52t-51 -18t-51.5 18.5t-18.5 51.5v467l-475 759q-12 21 -12 45zM475 1550q0 22 19 41l219 211q22 19 47 19q33 0 54.5 -23.5 t21.5 -54.5q0 -33 -27 -51l-250 -179q-18 -12 -37 -12q-21 0 -34 14.5t-13 34.5z" />
<glyph unicode="&#xde;" horiz-adv-x="1173" d="M174 70v1273q0 33 18.5 51.5t51.5 18.5q32 0 50.5 -18.5t18.5 -51.5v-176h285q241 0 363 -114.5t122 -339.5q0 -213 -129.5 -329t-363.5 -116h-277v-198q0 -34 -18.5 -52t-50.5 -18q-33 0 -51.5 18.5t-18.5 51.5zM313 391h277q188 0 269 83.5t81 238.5q0 168 -86.5 249.5 t-267.5 81.5h-273v-653z" />
<glyph unicode="&#xdf;" horiz-adv-x="1161" d="M154 68v956q0 201 101.5 305.5t285.5 104.5t285.5 -107t101.5 -319q0 -44 -19 -65t-69 -21q-224 0 -224 -150q0 -51 26.5 -87.5t69.5 -58.5t94.5 -41t103 -42t94.5 -53.5t69.5 -83.5t26.5 -125q0 -132 -94 -216.5t-234 -84.5q-111 0 -196.5 56t-120.5 144q-9 18 -9 35 q0 26 17 45t45 19q37 0 55 -35q16 -27 31 -47t40.5 -44.5t61 -37.5t78.5 -13q88 0 141.5 46t53.5 126q0 41 -16.5 73t-44.5 53t-64.5 38t-76.5 32t-80 31.5t-76.5 39t-64.5 51.5t-44.5 73.5t-16.5 100.5q0 120 86 194t224 74q-4 137 -66.5 207t-177.5 70 q-141 0 -201.5 -67.5t-60.5 -219.5v-956q0 -32 -18.5 -50t-49.5 -18t-49 18t-18 50z" />
<glyph unicode="&#xe0;" horiz-adv-x="1243" d="M92 512q0 236 141 384t351 148q122 0 216 -50.5t142 -135.5v98q0 32 18.5 50t49.5 18t49 -18t18 -50v-727q0 -89 60 -98q29 -4 44 -22t15 -41q0 -68 -74 -68q-81 0 -128 49t-52 135q-112 -204 -358 -204q-215 0 -353.5 150.5t-138.5 381.5zM231 512q0 -179 97 -294.5 t256 -115.5q160 0 259 115.5t99 294.5t-99 294.5t-259 115.5q-159 0 -256 -115.5t-97 -294.5zM367 1354q0 31 21.5 54.5t53.5 23.5q25 0 47 -19l220 -211q18 -18 18 -41q0 -20 -13 -34.5t-34 -14.5q-19 0 -37 12l-250 179q-26 17 -26 51z" />
<glyph unicode="&#xe1;" horiz-adv-x="1243" d="M92 512q0 236 141 384t351 148q122 0 216 -50.5t142 -135.5v98q0 32 18.5 50t49.5 18t49 -18t18 -50v-727q0 -89 60 -98q29 -4 44 -22t15 -41q0 -68 -74 -68q-81 0 -128 49t-52 135q-112 -204 -358 -204q-215 0 -353.5 150.5t-138.5 381.5zM231 512q0 -179 97 -294.5 t256 -115.5q160 0 259 115.5t99 294.5t-99 294.5t-259 115.5q-159 0 -256 -115.5t-97 -294.5zM428 1161q0 23 18 41l220 211q22 19 47 19q33 0 54 -23.5t21 -54.5q0 -34 -26 -51l-250 -179q-18 -12 -37 -12q-21 0 -34 14.5t-13 34.5z" />
<glyph unicode="&#xe2;" horiz-adv-x="1243" d="M92 512q0 236 141 384t351 148q122 0 216 -50.5t142 -135.5v98q0 32 18.5 50t49.5 18t49 -18t18 -50v-727q0 -89 60 -98q29 -4 44 -22t15 -41q0 -68 -74 -68q-81 0 -128 49t-52 135q-112 -204 -358 -204q-215 0 -353.5 150.5t-138.5 381.5zM231 512q0 -179 97 -294.5 t256 -115.5q160 0 259 115.5t99 294.5t-99 294.5t-259 115.5q-159 0 -256 -115.5t-97 -294.5zM287 1178q0 18 18 36l219 199q22 19 49 19q28 0 50 -19l219 -199q18 -18 18 -38q0 -19 -14.5 -33.5t-34.5 -14.5q-19 0 -35 13l-203 157l-202 -157q-16 -13 -37 -13q-19 0 -33 15 t-14 35z" />
<glyph unicode="&#xe3;" horiz-adv-x="1243" d="M92 512q0 236 141 384t351 148q122 0 216 -50.5t142 -135.5v98q0 32 18.5 50t49.5 18t49 -18t18 -50v-727q0 -89 60 -98q29 -4 44 -22t15 -41q0 -68 -74 -68q-81 0 -128 49t-52 135q-112 -204 -358 -204q-215 0 -353.5 150.5t-138.5 381.5zM231 512q0 -179 97 -294.5 t256 -115.5q160 0 259 115.5t99 294.5t-99 294.5t-259 115.5q-159 0 -256 -115.5t-97 -294.5zM233 1268q0 21 25 49q87 100 199 100q43 0 89.5 -22.5t88 -45t72.5 -22.5t58 17t60 51q14 14 37 14q22 0 36.5 -15.5t14.5 -39.5q0 -23 -28 -51q-24 -24 -35.5 -34.5t-36.5 -28.5 t-50.5 -26t-55.5 -8q-46 0 -91 22.5t-85 45t-74 22.5q-21 0 -37.5 -3.5t-30.5 -12t-20.5 -13.5t-19.5 -17.5t-15 -14.5q-21 -21 -47 -21q-19 0 -36.5 16.5t-17.5 37.5z" />
<glyph unicode="&#xe4;" horiz-adv-x="1243" d="M92 512q0 236 141 384t351 148q122 0 216 -50.5t142 -135.5v98q0 32 18.5 50t49.5 18t49 -18t18 -50v-727q0 -89 60 -98q29 -4 44 -22t15 -41q0 -68 -74 -68q-81 0 -128 49t-52 135q-112 -204 -358 -204q-215 0 -353.5 150.5t-138.5 381.5zM231 512q0 -179 97 -294.5 t256 -115.5q160 0 259 115.5t99 294.5t-99 294.5t-259 115.5q-159 0 -256 -115.5t-97 -294.5zM334 1329q0 46 25 71t69 25q45 0 70.5 -25.5t25.5 -70.5q0 -92 -96 -92q-94 0 -94 92zM621 1329q0 46 25 71t69 25q45 0 70.5 -25.5t25.5 -70.5q0 -92 -96 -92q-94 0 -94 92z" />
<glyph unicode="&#xe5;" horiz-adv-x="1243" d="M92 512q0 236 141 384t351 148q122 0 216 -50.5t142 -135.5v98q0 32 18.5 50t49.5 18t49 -18t18 -50v-727q0 -89 60 -98q29 -4 44 -22t15 -41q0 -68 -74 -68q-81 0 -128 49t-52 135q-112 -204 -358 -204q-215 0 -353.5 150.5t-138.5 381.5zM231 512q0 -179 97 -294.5 t256 -115.5q160 0 259 115.5t99 294.5t-99 294.5t-259 115.5q-159 0 -256 -115.5t-97 -294.5zM387 1276q0 89 57.5 139.5t128.5 50.5q80 0 133.5 -54t53.5 -136q0 -80 -54 -134.5t-133 -54.5q-71 0 -128.5 51.5t-57.5 137.5zM489 1276q0 -37 21.5 -61.5t62.5 -24.5 q43 0 63.5 26t20.5 60q0 36 -20.5 62t-63.5 26q-84 0 -84 -88z" />
<glyph unicode="&#xe6;" horiz-adv-x="1984" d="M92 512q0 236 141 384t351 148q122 0 216 -50.5t142 -135.5v98q0 32 18.5 50t49.5 18t49 -18t18 -50v-104q134 192 361 192q193 0 318.5 -123t125.5 -298q0 -121 -106 -121h-693q3 -177 102.5 -288.5t266.5 -111.5q85 0 148 26.5t129 80.5q31 22 53 22t40.5 -17.5 t18.5 -41.5t-16 -43q-46 -57 -153 -103t-234 -46q-146 0 -260.5 72t-176.5 198q-133 -270 -417 -270q-215 0 -353.5 150.5t-138.5 381.5zM231 512q0 -179 97 -294.5t256 -115.5q160 0 259 115.5t99 294.5t-99 294.5t-259 115.5q-159 0 -256 -115.5t-97 -294.5zM1092 614h659 q0 124 -87 216t-226 92q-134 0 -226.5 -84.5t-119.5 -223.5z" />
<glyph unicode="&#xe7;" horiz-adv-x="1064" d="M82 514q0 124 42 226.5t111.5 167.5t156 100.5t179.5 35.5q146 0 252.5 -60.5t149.5 -149.5q10 -23 10 -39q0 -25 -19.5 -43.5t-45.5 -18.5q-31 0 -64 47q-92 142 -283 142q-158 0 -254 -119t-96 -289q0 -174 94.5 -293t255.5 -119q197 0 293 154q25 39 60 39 q23 0 41 -16.5t18 -40.5q0 -22 -12 -43q-46 -81 -146.5 -143.5t-230.5 -69.5v-64q57 -3 100 -45t43 -113q0 -91 -63.5 -142.5t-141.5 -51.5q-44 0 -60.5 13.5t-16.5 41.5q0 18 5 30t15 17t18.5 7t22.5 3q59 4 79.5 21t20.5 53q0 33 -24.5 49.5t-63.5 16.5q-26 0 -34.5 10 t-8.5 39v119q-81 13 -152 52.5t-128 103t-90 159.5t-33 213z" />
<glyph unicode="&#xe8;" horiz-adv-x="1132" d="M92 512q0 231 139.5 381.5t354.5 150.5q193 0 318.5 -123t125.5 -298q0 -121 -106 -121h-693q3 -177 102.5 -288.5t266.5 -111.5q85 0 148 26.5t129 80.5q31 22 53 22t40.5 -17.5t18.5 -41.5t-16 -43q-46 -57 -153 -103t-234 -46q-215 0 -354.5 150.5t-139.5 381.5z M240 614h659q0 124 -87 216t-226 92q-134 0 -226.5 -84.5t-119.5 -223.5zM375 1354q0 31 21.5 54.5t54.5 23.5q25 0 47 -19l219 -211q18 -18 18 -41q0 -20 -13 -34.5t-34 -14.5q-19 0 -37 12l-250 179q-26 17 -26 51z" />
<glyph unicode="&#xe9;" horiz-adv-x="1132" d="M92 512q0 231 139.5 381.5t354.5 150.5q193 0 318.5 -123t125.5 -298q0 -121 -106 -121h-693q3 -177 102.5 -288.5t266.5 -111.5q85 0 148 26.5t129 80.5q31 22 53 22t40.5 -17.5t18.5 -41.5t-16 -43q-46 -57 -153 -103t-234 -46q-215 0 -354.5 150.5t-139.5 381.5z M240 614h659q0 124 -87 216t-226 92q-134 0 -226.5 -84.5t-119.5 -223.5zM436 1161q0 22 19 41l219 211q22 19 47 19q33 0 54.5 -23.5t21.5 -54.5q0 -33 -27 -51l-250 -179q-18 -12 -37 -12q-21 0 -34 14.5t-13 34.5z" />
<glyph unicode="&#xea;" horiz-adv-x="1132" d="M92 512q0 231 139.5 381.5t354.5 150.5q193 0 318.5 -123t125.5 -298q0 -121 -106 -121h-693q3 -177 102.5 -288.5t266.5 -111.5q85 0 148 26.5t129 80.5q31 22 53 22t40.5 -17.5t18.5 -41.5t-16 -43q-46 -57 -153 -103t-234 -46q-215 0 -354.5 150.5t-139.5 381.5z M240 614h659q0 124 -87 216t-226 92q-134 0 -226.5 -84.5t-119.5 -223.5zM295 1178q0 18 18 36l219 199q22 19 50 19q27 0 49 -19l219 -199q18 -18 18 -38q0 -19 -14.5 -33.5t-34.5 -14.5q-19 0 -35 13l-202 157l-203 -157q-16 -13 -37 -13q-19 0 -33 15t-14 35z" />
<glyph unicode="&#xeb;" horiz-adv-x="1132" d="M92 512q0 231 139.5 381.5t354.5 150.5q193 0 318.5 -123t125.5 -298q0 -121 -106 -121h-693q3 -177 102.5 -288.5t266.5 -111.5q85 0 148 26.5t129 80.5q31 22 53 22t40.5 -17.5t18.5 -41.5t-16 -43q-46 -57 -153 -103t-234 -46q-215 0 -354.5 150.5t-139.5 381.5z M240 614h659q0 124 -87 216t-226 92q-134 0 -226.5 -84.5t-119.5 -223.5zM342 1329q0 46 25 71t69 25q45 0 70.5 -25.5t25.5 -70.5q0 -92 -96 -92q-94 0 -94 92zM629 1329q0 46 25 71t69 25q45 0 70.5 -25.5t25.5 -70.5q0 -92 -96 -92q-94 0 -94 92z" />
<glyph unicode="&#xec;" horiz-adv-x="477" d="M25 1354q0 31 21.5 54.5t53.5 23.5q25 0 47 -19l220 -211q18 -18 18 -41q0 -20 -13 -34.5t-34 -14.5q-19 0 -37 12l-250 179q-26 17 -26 51zM154 195v761q0 32 18 50t49 18t49.5 -18t18.5 -50v-720q0 -58 15 -78t50 -29q28 -6 40 -21t12 -42q0 -35 -19.5 -50.5 t-48.5 -15.5q-77 0 -130.5 48t-53.5 147z" />
<glyph unicode="&#xed;" horiz-adv-x="477" d="M86 1161q0 23 18 41l220 211q22 19 47 19q33 0 54 -23.5t21 -54.5q0 -34 -26 -51l-250 -179q-18 -12 -37 -12q-21 0 -34 14.5t-13 34.5zM154 195v761q0 32 18 50t49 18t49.5 -18t18.5 -50v-720q0 -58 15 -78t50 -29q28 -6 40 -21t12 -42q0 -35 -19.5 -50.5t-48.5 -15.5 q-77 0 -130.5 48t-53.5 147z" />
<glyph unicode="&#xee;" horiz-adv-x="477" d="M-55 1178q0 18 18 36l219 199q22 19 49 19q28 0 50 -19l219 -199q18 -18 18 -38q0 -19 -14.5 -33.5t-34.5 -14.5q-19 0 -35 13l-203 157l-202 -157q-16 -13 -37 -13q-19 0 -33 15t-14 35zM154 195v761q0 32 18 50t49 18t49.5 -18t18.5 -50v-720q0 -58 15 -78t50 -29 q28 -6 40 -21t12 -42q0 -35 -19.5 -50.5t-48.5 -15.5q-77 0 -130.5 48t-53.5 147z" />
<glyph unicode="&#xef;" horiz-adv-x="477" d="M-8 1329q0 46 25 71t69 25q45 0 70.5 -25.5t25.5 -70.5q0 -92 -96 -92q-94 0 -94 92zM154 195v761q0 32 18 50t49 18t49.5 -18t18.5 -50v-720q0 -58 15 -78t50 -29q28 -6 40 -21t12 -42q0 -35 -19.5 -50.5t-48.5 -15.5q-77 0 -130.5 48t-53.5 147zM279 1329q0 46 25 71 t69 25q45 0 70.5 -25.5t25.5 -70.5q0 -92 -96 -92q-94 0 -94 92z" />
<glyph unicode="&#xf0;" horiz-adv-x="1171" d="M92 512q0 231 139.5 381.5t354.5 150.5q98 0 167.5 -30.5t125.5 -91.5q-72 156 -191 262l-43 -49q-20 -23 -45 -23q-21 0 -38 16t-17 37t18 43l39 45q-17 14 -65 47q-39 26 -39 66q0 29 17.5 48.5t47.5 19.5q23 0 55 -21q4 -2 74 -53l43 49q20 23 45 23q21 0 39.5 -16.5 t18.5 -37.5q0 -18 -19 -45l-41 -47q301 -279 301 -727q0 -263 -137.5 -421t-355.5 -158q-215 0 -354.5 150.5t-139.5 381.5zM231 512q0 -179 98 -294.5t257 -115.5t256.5 115.5t97.5 294.5t-97.5 294.5t-256.5 115.5t-257 -115.5t-98 -294.5z" />
<glyph unicode="&#xf1;" horiz-adv-x="1144" d="M154 68v888q0 32 18 50t49 18t49.5 -18t18.5 -50v-77q54 82 137 123.5t182 41.5q173 0 283 -111.5t110 -291.5v-573q0 -31 -18 -49.5t-49 -18.5t-49.5 18.5t-18.5 49.5v573q0 125 -79 203t-199 78q-130 0 -214.5 -78t-84.5 -203v-573q0 -32 -18.5 -50t-49.5 -18t-49 18 t-18 50zM217 1268q0 21 25 49q39 45 85 72.5t113 27.5q43 0 89.5 -22.5t88 -45t72.5 -22.5q54 0 119 68q14 14 37 14q22 0 36.5 -15.5t14.5 -39.5q0 -22 -29 -51q-24 -24 -35.5 -34.5t-36.5 -28.5t-50.5 -26t-55.5 -8q-46 0 -91 22.5t-85 45t-74 22.5q-21 0 -37.5 -3.5 t-30.5 -12t-20.5 -13.5t-19.5 -17.5t-15 -14.5q-21 -21 -47 -21q-19 0 -36 16.5t-17 37.5z" />
<glyph unicode="&#xf2;" horiz-adv-x="1171" d="M92 512q0 231 139.5 381.5t354.5 150.5t354 -150.5t139 -381.5t-139 -381.5t-354 -150.5t-354.5 150.5t-139.5 381.5zM231 512q0 -179 98 -294.5t257 -115.5t256.5 115.5t97.5 294.5t-97.5 294.5t-256.5 115.5t-257 -115.5t-98 -294.5zM369 1354q0 31 21.5 54.5 t53.5 23.5q26 0 48 -19l219 -211q18 -18 18 -41q0 -20 -13 -34.5t-34 -14.5q-19 0 -37 12l-250 179q-26 17 -26 51z" />
<glyph unicode="&#xf3;" horiz-adv-x="1171" d="M92 512q0 231 139.5 381.5t354.5 150.5t354 -150.5t139 -381.5t-139 -381.5t-354 -150.5t-354.5 150.5t-139.5 381.5zM231 512q0 -179 98 -294.5t257 -115.5t256.5 115.5t97.5 294.5t-97.5 294.5t-256.5 115.5t-257 -115.5t-98 -294.5zM430 1161q0 22 19 41l219 211 q22 19 47 19q33 0 54.5 -23.5t21.5 -54.5q0 -33 -27 -51l-250 -179q-18 -12 -37 -12q-21 0 -34 14.5t-13 34.5z" />
<glyph unicode="&#xf4;" horiz-adv-x="1171" d="M92 512q0 231 139.5 381.5t354.5 150.5t354 -150.5t139 -381.5t-139 -381.5t-354 -150.5t-354.5 150.5t-139.5 381.5zM231 512q0 -179 98 -294.5t257 -115.5t256.5 115.5t97.5 294.5t-97.5 294.5t-256.5 115.5t-257 -115.5t-98 -294.5zM289 1178q0 18 18 36l219 199 q22 19 49 19q28 0 50 -19l219 -199q18 -18 18 -38q0 -19 -14.5 -33.5t-34.5 -14.5q-19 0 -35 13l-203 157l-202 -157q-16 -13 -37 -13q-19 0 -33 15t-14 35z" />
<glyph unicode="&#xf5;" horiz-adv-x="1171" d="M92 512q0 231 139.5 381.5t354.5 150.5t354 -150.5t139 -381.5t-139 -381.5t-354 -150.5t-354.5 150.5t-139.5 381.5zM231 512q0 -179 98 -294.5t257 -115.5t256.5 115.5t97.5 294.5t-97.5 294.5t-256.5 115.5t-257 -115.5t-98 -294.5zM236 1268q0 22 24 49 q87 100 199 100q43 0 89.5 -22.5t88 -45t72.5 -22.5t58 17t60 51q14 14 37 14q22 0 36.5 -15.5t14.5 -39.5q0 -23 -28 -51q-24 -24 -35.5 -34.5t-36.5 -28.5t-50.5 -26t-55.5 -8q-46 0 -91 22.5t-85 45t-74 22.5q-21 0 -37.5 -3.5t-30.5 -12t-20.5 -13.5t-19.5 -17.5 t-15 -14.5q-21 -21 -47 -21q-19 0 -36 16.5t-17 37.5z" />
<glyph unicode="&#xf6;" horiz-adv-x="1171" d="M92 512q0 231 139.5 381.5t354.5 150.5t354 -150.5t139 -381.5t-139 -381.5t-354 -150.5t-354.5 150.5t-139.5 381.5zM231 512q0 -179 98 -294.5t257 -115.5t256.5 115.5t97.5 294.5t-97.5 294.5t-256.5 115.5t-257 -115.5t-98 -294.5zM336 1329q0 46 25 71t69 25 q45 0 70.5 -25.5t25.5 -70.5q0 -92 -96 -92q-94 0 -94 92zM623 1329q0 46 25 71t69 25q45 0 70.5 -25.5t25.5 -70.5q0 -92 -96 -92q-94 0 -94 92z" />
<glyph unicode="&#xf7;" horiz-adv-x="1011" d="M164 649q0 24 18 40t43 16h561q27 0 44.5 -15.5t17.5 -40.5q0 -26 -17.5 -40.5t-44.5 -14.5h-561q-26 0 -43.5 15t-17.5 40zM389 330q0 52 29 81t80 29q52 0 80 -28.5t28 -81.5q0 -52 -28 -81.5t-80 -29.5q-51 0 -80 30t-29 81zM389 969q0 52 29 81t80 29q52 0 80 -28.5 t28 -81.5q0 -52 -28 -81.5t-80 -29.5q-51 0 -80 30t-29 81z" />
<glyph unicode="&#xf8;" horiz-adv-x="1171" d="M92 512q0 231 139.5 381.5t354.5 150.5q130 0 239 -61l23 31q21 30 53 30q25 0 48.5 -19.5t23.5 -45.5q0 -22 -15 -43l-24 -37q69 -72 107 -172t38 -215q0 -231 -139 -381.5t-354 -150.5q-137 0 -252 67l-25 -37q-21 -30 -53 -30q-25 0 -48.5 19.5t-23.5 45.5q0 22 15 43 l30 45q-137 150 -137 379zM231 512q0 -156 76 -268l447 635q-73 43 -168 43q-159 0 -257 -115.5t-98 -294.5zM408 150q76 -48 178 -48q159 0 256.5 115.5t97.5 294.5q0 162 -84 276z" />
<glyph unicode="&#xf9;" horiz-adv-x="1099" d="M143 385v571q0 31 18.5 49.5t49.5 18.5t49.5 -18.5t18.5 -49.5v-571q0 -127 75.5 -205t196.5 -78q119 0 194.5 78t75.5 205v571q0 31 18.5 49.5t49.5 18.5t49 -18.5t18 -49.5v-571q0 -182 -112 -293.5t-293 -111.5q-182 0 -295 111.5t-113 293.5zM332 1354 q0 31 21.5 54.5t54.5 23.5q25 0 47 -19l219 -211q18 -18 18 -41q0 -20 -13 -34.5t-34 -14.5q-19 0 -37 12l-250 179q-26 17 -26 51z" />
<glyph unicode="&#xfa;" horiz-adv-x="1099" d="M143 385v571q0 31 18.5 49.5t49.5 18.5t49.5 -18.5t18.5 -49.5v-571q0 -127 75.5 -205t196.5 -78q119 0 194.5 78t75.5 205v571q0 31 18.5 49.5t49.5 18.5t49 -18.5t18 -49.5v-571q0 -182 -112 -293.5t-293 -111.5q-182 0 -295 111.5t-113 293.5zM393 1161q0 22 19 41 l219 211q22 19 47 19q33 0 54.5 -23.5t21.5 -54.5q0 -33 -27 -51l-250 -179q-18 -12 -37 -12q-21 0 -34 14.5t-13 34.5z" />
<glyph unicode="&#xfb;" horiz-adv-x="1099" d="M143 385v571q0 31 18.5 49.5t49.5 18.5t49.5 -18.5t18.5 -49.5v-571q0 -127 75.5 -205t196.5 -78q119 0 194.5 78t75.5 205v571q0 31 18.5 49.5t49.5 18.5t49 -18.5t18 -49.5v-571q0 -182 -112 -293.5t-293 -111.5q-182 0 -295 111.5t-113 293.5zM252 1178q0 18 18 36 l219 199q22 19 50 19q27 0 49 -19l219 -199q18 -18 18 -38q0 -19 -14.5 -33.5t-34.5 -14.5q-19 0 -35 13l-202 157l-203 -157q-16 -13 -37 -13q-19 0 -33 15t-14 35z" />
<glyph unicode="&#xfc;" horiz-adv-x="1099" d="M143 385v571q0 31 18.5 49.5t49.5 18.5t49.5 -18.5t18.5 -49.5v-571q0 -127 75.5 -205t196.5 -78q119 0 194.5 78t75.5 205v571q0 31 18.5 49.5t49.5 18.5t49 -18.5t18 -49.5v-571q0 -182 -112 -293.5t-293 -111.5q-182 0 -295 111.5t-113 293.5zM299 1329q0 46 25 71 t69 25q45 0 70.5 -25.5t25.5 -70.5q0 -92 -96 -92q-94 0 -94 92zM586 1329q0 46 25 71t69 25q45 0 70.5 -25.5t25.5 -70.5q0 -92 -96 -92q-94 0 -94 92z" />
<glyph unicode="&#xfd;" horiz-adv-x="972" d="M51 961q0 26 22 44.5t50 18.5q44 0 61 -45l316 -760l293 760q17 45 55 45q28 0 51 -18.5t23 -47.5q0 -10 -7 -28l-426 -1067q-55 -136 -138 -194t-218 -58q-65 0 -65 61q0 60 65 60q75 0 121.5 19t73.5 55.5t53 105.5l51 133l-375 885q-6 15 -6 31zM330 1161q0 23 18 41 l219 211q22 19 47 19q33 0 54.5 -23.5t21.5 -54.5q0 -34 -26 -51l-250 -179q-18 -12 -37 -12q-21 0 -34 14.5t-13 34.5z" />
<glyph unicode="&#xfe;" horiz-adv-x="1232" d="M154 -322v1668q0 32 18 49.5t49 17.5t49.5 -17.5t18.5 -49.5v-504q21 36 51 68.5t73.5 64t104 50.5t129.5 19q215 0 354.5 -149t139.5 -381q0 -234 -139.5 -383t-354.5 -149q-234 0 -358 188v-492q0 -32 -18.5 -49.5t-49.5 -17.5t-49 17.5t-18 49.5zM289 514 q0 -181 100 -296.5t258 -115.5q157 0 255.5 115.5t98.5 296.5q0 179 -98.5 293.5t-255.5 114.5q-158 0 -258 -114.5t-100 -293.5z" />
<glyph unicode="&#xff;" horiz-adv-x="972" d="M51 961q0 26 22 44.5t50 18.5q44 0 61 -45l316 -760l293 760q17 45 55 45q28 0 51 -18.5t23 -47.5q0 -10 -7 -28l-426 -1067q-55 -136 -138 -194t-218 -58q-65 0 -65 61q0 60 65 60q75 0 121.5 19t73.5 55.5t53 105.5l51 133l-375 885q-6 15 -6 31zM236 1329q0 46 25 71 t69 25q45 0 70.5 -25.5t25.5 -70.5q0 -92 -96 -92q-94 0 -94 92zM522 1329q0 46 25 71t69 25q45 0 71 -25.5t26 -70.5q0 -46 -25.5 -69t-71.5 -23q-94 0 -94 92z" />
<glyph unicode="&#x152;" horiz-adv-x="2279" d="M102 707q0 337 181 532t473 195q162 0 294 -63.5t220 -182.5v155q0 34 18.5 52t52.5 18h799q68 0 68 -61q0 -62 -68 -62h-731v-504h514q68 0 68 -61t-68 -61h-514v-541h731q68 0 68 -62q0 -61 -68 -61h-801q-33 0 -51 18t-18 52v153q-88 -118 -219.5 -180.5t-294.5 -62.5 q-292 0 -473 195t-181 532zM246 707q0 -128 34 -236t97.5 -187.5t161 -124t217.5 -44.5q162 0 278.5 77.5t174 210t57.5 304.5q0 173 -57.5 305t-174 209t-278.5 77t-278.5 -77t-174 -209t-57.5 -305z" />
<glyph unicode="&#x153;" horiz-adv-x="1980" d="M92 512q0 231 139.5 381.5t354.5 150.5q137 0 250.5 -69.5t177.5 -188.5q65 120 173.5 189t246.5 69q193 0 318.5 -123t125.5 -298q0 -121 -106 -121h-693q3 -177 102.5 -288.5t266.5 -111.5q85 0 147.5 26.5t128.5 80.5q31 22 54 22q22 0 40.5 -17.5t18.5 -41.5t-16 -43 q-46 -57 -153 -103t-234 -46q-140 0 -253 68.5t-175 189.5q-64 -122 -173 -190t-247 -68q-215 0 -354.5 150.5t-139.5 381.5zM231 512q0 -179 98 -294.5t257 -115.5t256.5 115.5t97.5 294.5t-97.5 294.5t-256.5 115.5t-257 -115.5t-98 -294.5zM1087 614h660q0 124 -87 216 t-226 92q-134 0 -227 -84.5t-120 -223.5z" />
<glyph unicode="&#x178;" horiz-adv-x="1261" d="M74 1341q0 30 20 51t51 21q43 0 60 -33l428 -700l426 700q20 33 57 33q28 0 50 -20t22 -50q0 -25 -14 -47l-474 -759v-467q0 -34 -18 -52t-51 -18t-51.5 18.5t-18.5 51.5v467l-475 759q-12 21 -12 45zM381 1718q0 46 25 71.5t69 25.5q45 0 70.5 -25.5t25.5 -71.5 q0 -92 -96 -92q-94 0 -94 92zM668 1718q0 46 25 71.5t69 25.5t70 -25.5t26 -71.5q0 -92 -96 -92q-94 0 -94 92z" />
<glyph unicode="&#x2c6;" d="M225 1178q0 17 19 36l219 199q22 19 49 19t49 -19l219 -199q19 -19 19 -38t-14.5 -33.5t-34.5 -14.5q-19 0 -35 13l-203 157l-203 -157q-16 -13 -37 -13q-19 0 -33 15t-14 35z" />
<glyph unicode="&#x2dc;" d="M172 1268q0 21 25 49q39 45 85 72.5t113 27.5q43 0 89.5 -22.5t88 -45t72.5 -22.5q54 0 119 68q14 14 37 14q22 0 36.5 -15.5t14.5 -39.5q0 -22 -29 -51q-24 -24 -35.5 -34.5t-36.5 -28.5t-50.5 -26t-55.5 -8q-46 0 -91 22.5t-85 45t-74 22.5q-21 0 -37.5 -3.5t-30.5 -12 t-20.5 -13.5t-19.5 -17.5t-15 -14.5q-21 -21 -47 -21q-19 0 -36 16.5t-17 37.5z" />
<glyph unicode="&#x2000;" horiz-adv-x="927" />
<glyph unicode="&#x2001;" horiz-adv-x="1855" />
<glyph unicode="&#x2002;" horiz-adv-x="927" />
<glyph unicode="&#x2003;" horiz-adv-x="1855" />
<glyph unicode="&#x2004;" horiz-adv-x="618" />
<glyph unicode="&#x2005;" horiz-adv-x="463" />
<glyph unicode="&#x2006;" horiz-adv-x="309" />
<glyph unicode="&#x2007;" horiz-adv-x="309" />
<glyph unicode="&#x2008;" horiz-adv-x="231" />
<glyph unicode="&#x2009;" horiz-adv-x="371" />
<glyph unicode="&#x200a;" horiz-adv-x="103" />
<glyph unicode="&#x2010;" horiz-adv-x="765" d="M102 526q0 25 18.5 43.5t43.5 18.5h438q26 0 44 -18.5t18 -43.5q0 -26 -18 -43.5t-44 -17.5h-438q-25 0 -43.5 17.5t-18.5 43.5z" />
<glyph unicode="&#x2011;" horiz-adv-x="765" d="M102 526q0 25 18.5 43.5t43.5 18.5h438q26 0 44 -18.5t18 -43.5q0 -26 -18 -43.5t-44 -17.5h-438q-25 0 -43.5 17.5t-18.5 43.5z" />
<glyph unicode="&#x2012;" horiz-adv-x="765" d="M102 526q0 25 18.5 43.5t43.5 18.5h438q26 0 44 -18.5t18 -43.5q0 -26 -18 -43.5t-44 -17.5h-438q-25 0 -43.5 17.5t-18.5 43.5z" />
<glyph unicode="&#x2013;" d="M102 526q0 25 18.5 43.5t43.5 18.5h696q26 0 44 -18.5t18 -43.5q0 -26 -18 -43.5t-44 -17.5h-696q-25 0 -43.5 17.5t-18.5 43.5z" />
<glyph unicode="&#x2014;" horiz-adv-x="2048" d="M102 526q0 25 18.5 43.5t43.5 18.5h1720q26 0 44 -18.5t18 -43.5q0 -26 -18 -43.5t-44 -17.5h-1720q-25 0 -43.5 17.5t-18.5 43.5z" />
<glyph unicode="&#x2018;" horiz-adv-x="444" d="M123 1061v78q0 166 108 274q19 19 43 19q22 0 40 -17.5t18 -40.5q0 -24 -19 -43q-73 -73 -73 -188v-82q0 -24 -17 -40.5t-41 -16.5q-25 0 -42 16t-17 41z" />
<glyph unicode="&#x2019;" horiz-adv-x="444" d="M113 1061q0 25 18 43q74 74 74 188v82q0 24 16.5 41t40.5 17q25 0 42.5 -16.5t17.5 -41.5v-78q0 -165 -109 -274q-18 -18 -43 -18q-22 0 -39.5 17t-17.5 40z" />
<glyph unicode="&#x201a;" horiz-adv-x="444" d="M82 -291q0 25 18 43q74 74 74 189v82q0 24 16.5 40.5t40.5 16.5q25 0 42.5 -16.5t17.5 -40.5v-78q0 -166 -109 -275q-18 -18 -43 -18q-22 0 -39.5 17t-17.5 40z" />
<glyph unicode="&#x201c;" horiz-adv-x="710" d="M123 1061v78q0 166 108 274q19 19 43 19q22 0 40 -17.5t18 -40.5q0 -24 -19 -43q-73 -73 -73 -188v-82q0 -24 -17 -40.5t-41 -16.5q-25 0 -42 16t-17 41zM389 1061v78q0 165 109 274q19 19 43 19q22 0 39.5 -17.5t17.5 -40.5q0 -25 -18 -43q-74 -74 -74 -188v-82 q0 -24 -16.5 -40.5t-40.5 -16.5q-25 0 -42.5 16.5t-17.5 40.5z" />
<glyph unicode="&#x201d;" horiz-adv-x="710" d="M123 1061q0 25 18 43q74 74 74 188v82q0 24 16.5 41t40.5 17q25 0 42.5 -16.5t17.5 -41.5v-78q0 -165 -109 -274q-18 -18 -43 -18q-22 0 -39.5 17t-17.5 40zM389 1061q0 24 19 43q73 73 73 188v82q0 24 17 41t41 17q25 0 42 -16.5t17 -41.5v-78q0 -165 -109 -274 q-18 -18 -43 -18q-22 0 -39.5 17t-17.5 40z" />
<glyph unicode="&#x201e;" horiz-adv-x="710" d="M82 -291q0 25 18 43q74 74 74 189v82q0 24 16.5 40.5t40.5 16.5q25 0 42.5 -16.5t17.5 -40.5v-78q0 -166 -109 -275q-18 -18 -43 -18q-22 0 -39.5 17t-17.5 40zM348 -291q0 24 19 43q73 73 73 189v82q0 24 17 40.5t41 16.5q25 0 42 -16t17 -41v-78q0 -58 -13.5 -109 t-35.5 -86.5t-34.5 -51.5t-24.5 -28q-18 -18 -43 -18q-22 0 -40 17t-18 40z" />
<glyph unicode="&#x2022;" horiz-adv-x="1044" d="M266 508q0 124 68 190t188 66q121 0 188.5 -65.5t67.5 -190.5q0 -126 -67 -191t-189 -65q-121 0 -188.5 65.5t-67.5 190.5z" />
<glyph unicode="&#x2026;" horiz-adv-x="1363" d="M164 111q0 52 28.5 81t79.5 29q52 0 80.5 -28.5t28.5 -81.5q0 -52 -28.5 -81.5t-80.5 -29.5q-51 0 -79.5 30t-28.5 81zM573 111q0 52 29 81t80 29q52 0 80.5 -28.5t28.5 -81.5q0 -52 -28.5 -81.5t-80.5 -29.5q-51 0 -80 30t-29 81zM983 111q0 52 29 81t80 29 q52 0 80 -28.5t28 -81.5q0 -52 -28 -81.5t-80 -29.5q-51 0 -80 30t-29 81z" />
<glyph unicode="&#x202f;" horiz-adv-x="371" />
<glyph unicode="&#x2039;" horiz-adv-x="759" d="M102 514q0 26 23 49l432 340q23 19 45 19t38.5 -17t16.5 -41q0 -32 -24 -49l-385 -299l383 -307q26 -22 26 -51q0 -22 -16 -39t-39 -17q-22 0 -45 19l-432 346q-23 20 -23 47z" />
<glyph unicode="&#x203a;" horiz-adv-x="759" d="M102 158q0 28 27 51l383 307l-385 299q-25 18 -25 49q0 24 17 41t39 17t45 -19l432 -340q22 -22 22 -49q0 -28 -22 -47l-432 -346q-23 -19 -45 -19q-23 0 -39.5 17t-16.5 39z" />
<glyph unicode="&#x205f;" horiz-adv-x="463" />
<glyph unicode="&#x20ac;" horiz-adv-x="1507" d="M51 543q0 24 18.5 39.5t43.5 15.5h96q-4 70 -4 109q0 38 4 108h-96q-27 0 -44.5 14.5t-17.5 40.5q0 24 18.5 40t43.5 16h114q52 240 215.5 374t395.5 134q185 0 326.5 -85.5t217.5 -244.5q13 -23 13 -47q0 -27 -21.5 -47.5t-50.5 -20.5q-43 0 -68 49 q-58 123 -164.5 191.5t-252.5 68.5q-180 0 -298.5 -99.5t-164.5 -272.5h442q27 0 44.5 -15.5t17.5 -40.5q0 -26 -17.5 -40.5t-44.5 -14.5h-463q-6 -53 -6 -108q0 -57 6 -109h463q27 0 44.5 -15.5t17.5 -39.5q0 -26 -17.5 -41t-44.5 -15h-442q46 -172 165.5 -272t297.5 -100 q277 0 415 256q10 18 27.5 30.5t38.5 12.5q28 0 50 -20t22 -50q0 -17 -15 -47q-95 -163 -226.5 -240t-311.5 -77q-233 0 -396 133t-215 374h-114q-27 0 -44.5 15t-17.5 41z" />
<glyph unicode="&#x2122;" horiz-adv-x="1714" d="M61 1352q0 25 18 43t44 18h553q26 0 43.5 -18t17.5 -43q0 -26 -17.5 -44t-43.5 -18h-215v-590q0 -26 -18 -43.5t-44 -17.5q-25 0 -43 17.5t-18 43.5v590h-215q-26 0 -44 18t-18 44zM823 700v652q0 28 15 44.5t45 16.5q35 0 55 -33l248 -434l250 436q21 31 55 31 q28 0 43.5 -17.5t15.5 -43.5v-652q0 -26 -17.5 -43.5t-43.5 -17.5q-25 0 -43.5 17.5t-18.5 43.5v422l-190 -331q-17 -31 -53 -31q-37 0 -54 31l-184 327v-418q0 -26 -18 -43.5t-43 -17.5q-26 0 -44 17.5t-18 43.5z" />
<glyph unicode="&#x25fc;" d="M0 0v1024h1024v-1024h-1024z" />
</font>
</defs>
</svg>
